<?xml version="1.0" standalone="no"?>
<!DOCTYPE svg PUBLIC "-//W3C//DTD SVG 20010904//EN"
 "http://www.w3.org/TR/2001/REC-SVG-20010904/DTD/svg10.dtd">
<svg version="1.0" xmlns="http://www.w3.org/2000/svg"
 width="1254.000000pt" height="1254.000000pt" viewBox="0 0 1254.000000 1254.000000"
 preserveAspectRatio="xMidYMid meet">

<g transform="translate(0.000000,1254.000000) scale(0.100000,-0.100000)"
fill="#000000" stroke="none">
<path d="M4135 9533 c-61 -15 -104 -45 -138 -95 -19 -29 -38 -64 -42 -78 -4
-14 -12 -30 -17 -37 -5 -6 -11 -33 -13 -60 -2 -26 -7 -83 -10 -125 l-7 -78
-132 -2 c-72 -1 -152 -1 -177 1 -28 1 -67 -6 -100 -18 -30 -12 -62 -21 -71
-21 -9 0 -48 -27 -86 -60 -69 -59 -123 -143 -136 -210 -3 -14 -9 -38 -14 -55
-5 -16 -7 -137 -5 -269 2 -171 0 -243 -8 -253 -9 -10 -9 -19 -1 -36 14 -26 24
-447 22 -937 0 -184 0 -364 0 -400 0 -36 0 -168 -1 -295 0 -126 0 -410 1 -630
2 -669 -1 -1067 -9 -1115 -11 -67 -5 -499 7 -545 5 -22 16 -56 23 -75 6 -19
16 -47 22 -62 19 -56 133 -145 195 -155 20 -3 50 -12 66 -20 30 -16 196 -28
341 -26 44 0 118 0 165 0 47 -1 110 -1 140 0 30 0 705 3 1500 6 795 4 1589 9
1765 13 398 7 322 7 720 0 699 -13 834 -13 877 -4 23 5 65 11 91 13 27 3 63
14 82 25 18 11 39 20 48 20 21 0 127 117 127 141 0 11 7 34 16 51 29 56 46
220 38 368 -12 222 -14 391 -12 1285 0 171 0 375 -1 455 -1 80 1 532 4 1005 4
626 8 866 17 883 9 17 8 27 -2 46 -9 19 -10 35 -3 65 6 23 9 126 6 248 -3 191
-6 215 -30 293 -15 48 -41 104 -60 129 -34 46 -92 91 -116 91 -8 0 -27 10 -42
21 -41 33 -124 45 -270 39 -71 -3 -142 -4 -157 -2 l-26 4 5 98 c5 87 3 108
-21 183 -48 155 -151 216 -277 163 -93 -39 -168 -208 -167 -374 0 -35 -2 -65
-4 -68 -6 -6 -54 -6 -503 -2 l-400 3 2 30 c1 17 2 50 4 75 6 124 -46 263 -119
315 -37 26 -53 30 -105 30 -34 0 -75 -6 -92 -13 -35 -16 -103 -96 -111 -132
-3 -14 -13 -41 -21 -60 -11 -23 -18 -72 -21 -141 l-4 -106 -489 0 -488 0 1
111 c1 120 -11 169 -60 253 -46 79 -137 110 -231 78 -97 -32 -157 -146 -174
-332 -10 -104 -12 -113 -31 -113 -12 -1 -247 -2 -524 -3 l-503 -2 3 95 c3 112
-3 156 -32 230 -26 68 -73 118 -117 126 -18 3 -36 10 -39 15 -5 9 -35 10 -69
2z m65 -58 c13 -16 0 -21 -15 -6 -6 5 -19 11 -30 14 -16 4 -14 5 6 6 15 0 32
-6 39 -14z m3015 -27 c7 -7 2 -9 -15 -4 -14 3 -31 6 -38 6 -7 0 -10 5 -7 10 7
12 44 4 60 -12z m1325 1 c0 -5 -4 -7 -10 -4 -18 11 -78 -26 -112 -68 -33 -42
-58 -57 -58 -36 0 7 16 32 36 55 24 30 43 44 60 44 13 0 24 5 24 10 0 6 14 10
30 10 17 0 30 -5 30 -11z m-4410 -8 c0 -5 -9 -12 -20 -16 -10 -3 -28 -21 -40
-40 -18 -29 -47 -51 -56 -42 -9 9 52 81 79 92 39 17 37 17 37 6z m1550 -1 c0
-5 -8 -10 -17 -10 -9 0 -38 -23 -65 -52 -35 -38 -48 -47 -48 -33 0 29 48 84
83 94 43 12 47 13 47 1z m102 -2 c19 -15 58 -78 58 -93 -1 -5 -8 1 -16 15 -14
24 -15 24 -11 3 7 -32 -7 -29 -24 5 -22 44 -22 45 -10 38 21 -13 11 12 -11 27
-13 9 -18 16 -12 16 5 1 17 -5 26 -11z m1316 -8 c-20 -11 -51 -41 -69 -66 -20
-30 -35 -42 -41 -36 -14 14 37 87 75 106 49 24 81 20 35 -4z m1527 -20 c22
-42 18 -59 -6 -30 -15 17 -19 19 -15 7 3 -11 2 -16 -4 -12 -6 3 -10 13 -10 21
0 8 -4 14 -9 14 -5 0 -11 7 -15 15 -4 11 1 15 19 15 17 0 29 -9 40 -30z
m-4335 -15 c32 -53 20 -56 -30 -8 -44 42 -44 43 -18 43 19 0 32 -9 48 -35z
m2969 -4 c22 -31 27 -46 12 -37 -5 4 -11 1 -13 -5 -2 -6 -15 8 -30 30 -24 37
-25 41 -8 41 10 0 28 -13 39 -29z m-91 -13 c33 -37 53 -106 59 -210 l6 -96
-59 -7 c-33 -3 -68 -7 -78 -8 -10 -1 -24 -10 -30 -20 -18 -30 23 -51 95 -48
l59 2 0 -48 c0 -40 -4 -50 -22 -58 -31 -14 -34 -42 -7 -64 20 -16 21 -21 10
-51 -17 -51 -39 -70 -81 -70 -47 0 -62 20 -89 120 -15 55 -21 106 -22 209 -1
194 30 311 94 356 29 20 40 19 65 -7z m-2965 -6 c9 -10 23 -34 32 -55 20 -48
42 -234 29 -247 -5 -5 -37 -11 -71 -13 -59 -4 -93 -18 -93 -38 0 -18 42 -50
58 -44 8 3 35 3 59 -1 l43 -6 0 -44 c0 -37 -3 -44 -20 -44 -29 0 -44 -34 -24
-54 8 -9 20 -16 25 -16 11 0 5 -31 -14 -68 -12 -26 -55 -52 -85 -52 -51 0 -91
111 -102 285 -11 181 13 321 66 385 30 35 72 40 97 12z m1535 -14 c27 -45 49
-140 51 -219 l2 -66 -32 -7 c-17 -3 -48 -6 -69 -6 -48 0 -76 -27 -56 -55 11
-15 25 -18 80 -17 l66 2 0 -49 c0 -44 -3 -51 -27 -63 -30 -14 -44 -48 -20 -48
54 0 35 -94 -25 -123 -64 -31 -92 -1 -122 130 -32 144 -15 398 35 494 34 67
85 79 117 27z m2810 5 c10 -16 23 -41 27 -58 5 -16 10 -37 13 -45 2 -8 6 -54
9 -102 l5 -88 -29 -2 c-15 -1 -42 -2 -60 -3 -38 -2 -63 -20 -63 -45 0 -23 20
-30 86 -30 l54 0 0 -50 c0 -39 -4 -52 -20 -60 -23 -13 -27 -48 -5 -56 35 -14
4 -92 -47 -117 -43 -21 -61 -10 -86 55 -40 105 -45 142 -39 301 3 115 10 168
25 216 34 106 89 141 130 84z m-4261 -25 c-3 -8 -6 -5 -6 6 -1 11 2 17 5 13 3
-3 4 -12 1 -19z m-268 -59 c-27 -90 -28 -313 -3 -464 5 -29 4 -37 -4 -30 -39
36 -41 408 -2 509 15 39 22 28 9 -15z m291 13 c0 -15 -2 -15 -10 -2 -13 20
-13 33 0 25 6 -3 10 -14 10 -23z m4059 -17 c-25 -104 -21 -395 7 -505 12 -47
-14 -7 -36 55 -31 89 -35 105 -15 75 l16 -25 -7 35 c-17 80 0 316 27 387 14
38 19 23 8 -22z m-2809 33 c0 -2 -7 -37 -16 -78 -20 -96 -20 -269 0 -389 9
-52 14 -96 12 -98 -2 -2 -11 14 -19 36 -20 50 -36 179 -32 251 15 225 24 280
46 280 5 0 9 -1 9 -2z m1432 -40 c-6 -18 -15 -80 -21 -137 -5 -57 -12 -106
-15 -109 -16 -15 7 236 24 268 17 31 24 17 12 -22z m1665 -19 c7 -57 -4 -46
-16 15 -6 31 -5 44 1 38 5 -5 12 -29 15 -53z m-2807 -31 c0 -16 -4 -28 -10
-28 -5 0 -10 15 -10 33 0 17 -3 43 -5 57 -5 22 -3 21 9 -5 9 -16 15 -42 16
-57z m1444 -55 c7 -89 7 -93 -13 -93 -16 0 -19 6 -17 28 2 15 5 65 5 112 3
106 15 81 25 -47z m-2964 -3 c1 -41 4 -67 7 -57 7 27 25 20 21 -10 -2 -21 -9
-27 -32 -30 l-29 -4 6 68 c4 37 7 86 8 108 1 70 17 8 19 -75z m2616 22 c-11
-10 -15 4 -8 28 l7 25 3 -23 c2 -13 1 -26 -2 -30z m-2975 -44 c-3 -69 -5 -78
-13 -53 -9 31 -2 135 10 135 4 0 5 -37 3 -82z m4689 -3 c0 -37 -4 -65 -10 -65
-11 0 -13 51 -4 99 10 48 14 37 14 -34z m-3164 -13 c-13 -12 -17 8 -10 40 l9
33 3 -33 c2 -19 1 -36 -2 -40z m1441 -34 c-2 -18 -4 -6 -4 27 0 33 2 48 4 33
2 -15 2 -42 0 -60z m1376 40 c-8 -59 -13 -61 -13 -5 0 26 4 47 9 47 5 0 7 -19
4 -42z m-2463 -13 c0 -25 -4 -45 -10 -45 -5 0 -10 20 -10 45 0 25 5 45 10 45
6 0 10 -20 10 -45z m30 -12 c0 -28 -3 -34 -10 -23 -13 20 -13 60 0 60 6 0 10
-17 10 -37z m2810 1 c0 -21 -4 -33 -10 -29 -5 3 -10 19 -10 36 0 16 5 29 10
29 6 0 10 -16 10 -36z m-1360 -5 c0 -10 -4 -19 -10 -19 -5 0 -10 12 -10 26 0
14 4 23 10 19 6 -3 10 -15 10 -26z m516 -72 c4 -4 -22 -7 -57 -6 -36 0 -56 4
-46 7 23 10 94 9 103 -1z m-1403 -4 c-29 -2 -78 -2 -110 0 -32 2 -8 3 52 3 61
0 87 -1 58 -3z m1702 -3 c4 -6 -27 -10 -84 -10 -54 0 -91 4 -91 10 0 6 35 10
84 10 47 0 88 -4 91 -10z m110 -5 c6 -2 -11 -4 -37 -4 -27 -1 -48 3 -48 7 0 7
62 5 85 -3z m750 -5 c-46 -12 -123 -12 -105 0 8 5 42 9 75 9 48 -1 54 -3 30
-9z m-5345 -10 c-14 -4 -45 -9 -70 -9 -25 -1 -62 -8 -82 -15 -21 -8 -38 -10
-38 -5 0 16 26 23 100 30 108 9 120 9 90 -1z m250 0 c0 -5 -12 -10 -27 -10
-22 0 -25 2 -13 10 20 13 40 13 40 0z m437 4 c-3 -3 -12 -4 -19 -1 -8 3 -5 6
6 6 11 1 17 -2 13 -5z m336 -1 c-7 -2 -21 -2 -30 0 -10 3 -4 5 12 5 17 0 24
-2 18 -5z m2311 -223 l7 -35 -16 27 c-8 15 -18 55 -22 90 -4 44 -9 56 -14 43
-4 -11 -5 2 -3 30 10 88 17 83 29 -20 7 -55 15 -116 19 -135z m2146 213 c9 -2
21 -12 27 -22 11 -17 8 -17 -45 1 -30 10 -65 19 -76 19 -12 1 -6 5 14 9 19 4
42 5 50 3 8 -3 22 -7 30 -10z m-3824 -2 l121 -1 7 -72 c17 -185 23 -216 55
-270 17 -29 49 -66 73 -83 38 -27 51 -30 115 -30 63 0 76 3 115 30 84 58 117
181 73 273 -12 25 -27 42 -37 42 -15 0 -18 9 -18 53 l0 53 63 1 c34 1 217 1
407 1 190 0 402 -1 471 -1 l126 0 7 -91 c4 -50 9 -111 10 -136 3 -65 50 -146
108 -186 62 -42 113 -50 177 -29 140 46 196 231 100 327 -23 24 -29 38 -29 73
l0 44 43 -1 c23 0 159 0 302 2 143 2 348 0 456 -5 l196 -7 16 -139 c11 -97 21
-146 34 -166 10 -15 23 -37 29 -48 6 -11 32 -35 58 -52 40 -27 58 -33 101 -33
67 0 101 13 144 53 68 65 93 183 53 251 -11 19 -16 39 -12 47 4 8 11 31 14 52
l7 39 132 -7 c72 -4 134 -8 138 -11 4 -2 38 -8 76 -14 129 -18 186 -69 221
-197 18 -67 21 -113 24 -317 l3 -239 -795 -4 c-1942 -9 -4813 -11 -4833 -4
-12 4 -69 4 -125 -1 -57 -5 -106 -7 -109 -4 -3 3 0 13 8 23 13 15 12 15 -11 1
-28 -18 -117 -28 -111 -13 2 6 35 32 73 58 37 27 68 51 68 54 0 3 -23 -11 -50
-31 -28 -20 -56 -34 -62 -30 -7 4 -8 3 -4 -4 4 -7 5 -12 2 -12 -2 0 -11 -2
-18 -5 -12 -5 -14 10 -12 82 2 48 3 111 3 138 0 65 26 198 46 237 8 17 15 37
15 43 0 19 80 135 93 135 7 0 17 8 24 18 28 46 154 80 309 85 l102 3 13 -76
c7 -41 14 -82 16 -90 2 -8 5 -43 7 -77 4 -58 7 -66 47 -109 56 -58 84 -73 156
-80 124 -12 225 80 227 206 1 62 -25 118 -61 135 -18 7 -21 17 -20 51 l2 41
180 7 c99 4 231 9 293 11 62 2 115 5 117 7 3 3 146 3 431 -1z m3363 -48 c-16
-60 -17 -63 -34 -57 -10 4 -15 20 -15 50 0 42 1 44 29 44 29 0 29 -1 20 -37z
m-4709 -3 c0 -11 -2 -20 -4 -20 -2 0 -6 9 -9 20 -3 11 -1 20 4 20 5 0 9 -9 9
-20z m-585 -10 c-10 -11 -20 -18 -23 -15 -7 6 18 35 31 35 5 0 2 -9 -8 -20z
m110 2 c-6 -5 -29 -23 -53 -41 -27 -21 -54 -55 -73 -92 -75 -149 -89 -218 -95
-448 -2 -95 -7 -158 -14 -165 -8 -8 -10 53 -5 229 3 131 9 243 11 247 3 5 7
23 9 40 3 17 11 40 20 52 8 11 22 32 31 46 l16 25 -20 -25 c-30 -37 -35 -20
-7 23 27 39 92 87 140 105 38 13 52 15 40 4z m1992 -44 c-3 -7 -5 -2 -5 12 0
14 2 19 5 13 2 -7 2 -19 0 -25z m3802 -39 c19 -44 9 -44 -15 1 -12 21 -16 36
-10 34 6 -2 17 -18 25 -35z m58 -324 c2 -122 0 -194 -5 -185 -5 8 -12 101 -16
205 -3 105 -8 204 -11 220 -5 30 -5 30 12 -5 14 -28 17 -72 20 -235z m-5314
212 c4 3 7 -1 7 -10 0 -8 19 -32 42 -51 40 -35 41 -36 12 -26 -18 6 -45 30
-64 58 -18 26 -26 41 -18 35 8 -7 18 -10 21 -6z m1501 -3 c3 -8 2 -12 -4 -9
-6 3 -10 10 -10 16 0 14 7 11 14 -7z m-2274 -3 c0 -6 -4 -13 -10 -16 -5 -3
-10 1 -10 9 0 9 5 16 10 16 6 0 10 -4 10 -9z m2582 -13 c-7 -7 -12 -8 -12 -2
0 14 12 26 19 19 2 -3 -1 -11 -7 -17z m3538 13 c0 -6 -4 -13 -10 -16 -5 -3
-10 1 -10 9 0 9 5 16 10 16 6 0 10 -4 10 -9z m-3795 -21 c3 -5 1 -10 -4 -10
-6 0 -11 5 -11 10 0 6 2 10 4 10 3 0 8 -4 11 -10z m2844 -30 c24 -23 35 -40
27 -40 -16 0 -76 56 -76 71 0 14 4 12 49 -31z m-1395 15 c3 -8 20 -24 38 -35
36 -22 33 -26 -6 -8 -26 11 -64 58 -47 58 5 0 11 -7 15 -15z m-2774 -30 c-13
-14 -28 -25 -34 -25 -5 0 3 13 19 30 16 16 31 28 33 25 3 -3 -5 -16 -18 -30z
m1303 20 c3 -7 30 -28 59 -45 l53 -32 -45 6 c-46 5 -90 40 -90 72 0 18 16 18
23 -1z m232 -19 c-19 -29 -18 -28 -57 -31 -16 -1 -28 2 -28 7 0 5 9 6 20 3 15
-5 28 2 47 24 32 36 42 34 18 -3z m45 26 c0 -5 -7 -17 -15 -28 -14 -18 -14
-17 -4 9 12 27 19 34 19 19z m2758 -11 c-7 -11 -23 -24 -35 -30 -29 -14 -33
-14 -33 -1 0 6 6 10 14 10 8 0 24 9 37 20 30 24 32 25 17 1z m28 -20 c-9 -17
-26 -36 -39 -42 -18 -10 -16 -5 11 25 17 20 32 42 32 48 0 6 3 9 6 6 3 -4 -2
-20 -10 -37z m-1563 -36 c15 -10 25 -20 23 -23 -11 -10 -67 22 -86 48 -25 35
-13 48 14 16 12 -13 34 -32 49 -41z m1349 30 c29 -27 45 -34 61 -30 19 5 20 5
4 -5 -29 -19 -85 8 -108 52 -15 27 0 21 43 -17z m-1202 10 c-7 -8 -20 -15 -29
-15 -11 1 -8 5 9 15 32 18 35 18 20 0z m-3164 -22 c-7 -7 -26 7 -26 19 0 6 6
6 15 -2 9 -7 13 -15 11 -17z m242 7 c-7 -11 -17 -20 -22 -20 -5 0 -1 9 9 20
10 11 20 20 22 20 2 0 -2 -9 -9 -20z m2952 -5 c-7 -8 -17 -15 -22 -15 -6 0 -5
7 2 15 7 8 17 15 22 15 6 0 5 -7 -2 -15z m-3137 -31 c42 -14 63 -34 37 -34
-18 0 -77 27 -84 39 -9 14 -8 14 47 -5z m5287 -22 c0 -9 -5 -24 -10 -32 -7
-11 -10 -5 -10 23 0 23 4 36 10 32 6 -3 10 -14 10 -23z m-3634 3 c-11 -8 -27
-15 -35 -15 -9 1 -2 7 14 15 39 18 44 18 21 0z m-2519 -87 c-2 -18 -4 -4 -4
32 0 36 2 50 4 33 2 -18 2 -48 0 -65z m988 82 c-3 -5 -16 -10 -28 -9 -21 0
-21 1 -2 9 28 12 37 12 30 0z m5162 -212 c-2 -24 -4 -7 -4 37 0 44 2 63 4 43
2 -21 2 -57 0 -80z m-6150 -80 c-2 -18 -4 -4 -4 32 0 36 2 50 4 33 2 -18 2
-48 0 -65z m6150 -75 c-2 -16 -4 -3 -4 27 0 30 2 43 4 28 2 -16 2 -40 0 -55z
m-38 15 l-1 -53 -9 44 c-8 40 -5 61 7 61 2 0 4 -24 3 -52z m-1414 -87 c19 -6
-307 -10 -899 -10 -511 -1 -927 1 -925 4 3 2 160 5 349 6 190 1 424 5 520 8
253 9 920 3 955 -8z m990 9 c4 -6 -19 -10 -62 -9 -56 1 -62 3 -33 9 53 11 88
11 95 0z m375 0 c0 -6 -56 -9 -152 -8 -100 0 -137 3 -108 8 72 11 260 11 260
0z m50 0 c0 -5 -2 -10 -4 -10 -3 0 -8 5 -11 10 -3 6 -1 10 4 10 6 0 11 -4 11
-10z m-4312 -7 c-76 -2 -200 -2 -275 0 -76 1 -14 3 137 3 151 0 213 -2 138 -3z
m3525 0 c-67 -2 -179 -2 -250 0 -70 1 -15 3 122 3 138 0 195 -2 128 -3z
m-4963 -13 c0 -6 -55 -9 -147 -8 -110 1 -133 3 -88 8 99 11 235 11 235 0z
m429 6 c-9 -8 -389 -12 -389 -4 0 4 89 8 197 8 108 0 194 -2 192 -4z m204 -3
c-24 -2 -62 -2 -85 0 -24 2 -5 4 42 4 47 0 66 -2 43 -4z m284 0 c-20 -2 -52
-2 -70 0 -17 2 0 4 38 4 39 0 53 -2 32 -4z m1186 0 c-29 -2 -77 -2 -105 0 -29
2 -6 3 52 3 58 0 81 -1 53 -3z m-2433 -7 c0 -3 -4 -8 -10 -11 -5 -3 -10 -1
-10 4 0 6 5 11 10 11 6 0 10 -2 10 -4z m5115 -19 c39 0 259 2 490 3 l420 2 7
-238 c7 -225 1 -2200 -7 -2589 -2 -99 -6 -326 -9 -505 -7 -384 -21 -560 -46
-610 -28 -54 -77 -97 -133 -119 -153 -57 -400 -62 -3032 -64 -2020 -2 -2135 0
-2420 34 -184 22 -279 94 -305 227 -35 188 -41 598 -41 3002 0 344 0 673 0
732 l1 106 223 0 c122 0 328 3 457 8 273 8 255 8 600 5 465 -4 3651 7 3657 13
3 3 19 2 37 -2 17 -4 63 -6 101 -5z m961 -1592 c-3 -1030 -2 -1606 4 -1610 12
-8 13 -68 1 -80 -5 -6 -12 -134 -16 -285 -4 -184 -11 -287 -20 -312 -7 -22
-11 -48 -8 -58 3 -13 -6 -32 -26 -55 -17 -20 -31 -41 -31 -48 0 -24 -56 -67
-105 -81 -53 -15 -305 -32 -293 -20 4 3 49 11 100 15 117 11 208 42 264 92 63
56 83 126 94 337 8 151 20 2126 20 3236 0 412 3 474 17 474 2 0 2 -722 -1
-1605z m-6080 1544 c-3 -17 -6 -173 -6 -347 0 -173 -3 -312 -7 -309 -3 4 -7
91 -9 194 -2 104 -5 222 -8 263 -3 48 -2 66 3 50 6 -17 9 7 10 78 1 68 5 102
12 102 8 0 9 -11 5 -31z m8 -1409 c5 -192 15 -1139 20 -1800 4 -611 15 -693
101 -768 46 -41 78 -57 150 -75 54 -14 270 -37 320 -34 11 0 56 -1 100 -3 44
-2 -18 -7 -140 -10 -121 -3 -224 -2 -230 2 -5 3 -26 6 -46 5 -51 -1 -117 34
-170 90 -62 67 -79 93 -83 139 -20 184 -25 275 -26 440 0 105 -3 193 -6 197
-4 3 -7 406 -8 894 -1 488 -5 1053 -10 1255 -4 202 -4 373 1 380 7 12 11 -92
27 -712z m-37 -517 c-3 -10 -5 -4 -5 12 0 17 2 24 5 18 2 -7 2 -21 0 -30z
m6140 -30 c-3 -10 -5 -4 -5 12 0 17 2 24 5 18 2 -7 2 -21 0 -30z m-10 -340
c-3 -10 -5 -2 -5 17 0 19 2 27 5 18 2 -10 2 -26 0 -35z m0 -135 c-3 -8 -6 -5
-6 6 -1 11 2 17 5 13 3 -3 4 -12 1 -19z m-6127 -1008 c0 -47 -4 -80 -10 -80
-11 0 -14 142 -3 153 12 13 13 7 13 -73z m6137 48 c-3 -7 -5 -2 -5 12 0 14 2
19 5 13 2 -7 2 -19 0 -25z m-6 -319 c-7 -17 -10 10 -10 102 -1 69 2 129 7 133
11 12 14 -207 3 -235z m-6138 141 c3 -11 1 -23 -4 -26 -5 -3 -9 6 -9 20 0 31
6 34 13 6z m6134 -202 c-3 -8 -6 -5 -6 6 -1 11 2 17 5 13 3 -3 4 -12 1 -19z
m-6130 -20 c-3 -8 -6 -5 -6 6 -1 11 2 17 5 13 3 -3 4 -12 1 -19z m37 -124 c3
-8 2 -12 -4 -9 -6 3 -10 10 -10 16 0 14 7 11 14 -7z m111 -134 c8 -13 -1 -13
-26 0 -10 6 -19 15 -19 21 0 11 35 -5 45 -21z m965 -50 c40 -5 14 -7 -100 -8
-91 0 -145 3 -130 8 32 10 158 10 230 0z m3670 -2 c-34 -13 -2150 -21 -2150
-8 0 12 242 15 1350 16 506 1 815 -2 800 -8z m735 2 c-49 -4 -218 -8 -375 -7
-157 0 -258 3 -225 6 33 3 202 7 375 7 209 1 285 -1 225 -6z m-3000 -9 c23 -7
-1 -10 -95 -11 -102 -1 -334 -6 -425 -9 -64 -2 -614 6 -635 9 -14 3 153 7 370
10 217 3 476 6 575 8 99 1 194 -2 210 -7z m2523 -28 c-16 -2 -40 -2 -55 0 -16
2 -3 4 27 4 30 0 43 -2 28 -4z m182 -3 c0 -5 -11 -10 -25 -10 -14 0 -25 5 -25
10 0 6 11 10 25 10 14 0 25 -4 25 -10z m-4245 -10 c8 -12 -470 -12 -550 0 -30
4 71 8 247 9 192 1 299 -3 303 -9z m210 0 c4 -6 -10 -10 -34 -10 -23 0 -41 5
-41 10 0 6 15 10 34 10 19 0 38 -4 41 -10z m1820 0 c7 -12 -173 -14 -192 -2
-6 4 33 8 87 10 61 2 101 -1 105 -8z m2608 3 c-56 -2 -151 -2 -210 0 -59 1
-13 3 102 3 116 0 164 -2 108 -3z m-4315 -10 c-15 -2 -42 -2 -60 0 -18 2 -6 4
27 4 33 0 48 -2 33 -4z m1195 0 c-7 -2 -19 -2 -25 0 -7 3 -2 5 12 5 14 0 19
-2 13 -5z m805 0 c-27 -2 -69 -2 -95 0 -27 2 -5 3 47 3 52 0 74 -1 48 -3z"/>
<path d="M6946 7888 c-4 -90 -6 -258 -5 -374 l1 -211 -198 -5 c-110 -3 -255
-4 -324 -3 -69 2 -200 3 -291 4 l-167 1 -4 280 c-3 193 -7 283 -15 291 -9 9
-13 6 -18 -13 -8 -31 -11 -180 -7 -385 2 -90 1 -167 -3 -172 -3 -6 -197 -9
-493 -8 l-487 2 -2 185 c-3 232 -12 390 -24 390 -5 0 -9 -22 -9 -49 0 -28 -5
-53 -11 -56 -7 -5 -8 -54 -4 -153 8 -187 8 -303 0 -311 -12 -11 -955 -8 -956
3 0 6 -2 97 -3 203 -1 106 -5 196 -9 199 -16 17 -22 -14 -23 -119 0 -62 -1
-154 -2 -204 l-2 -93 -47 0 c-92 0 -99 -36 -8 -42 l50 -3 7 -250 c4 -137 5
-295 2 -350 -2 -55 -4 -142 -4 -192 l0 -93 -48 0 c-49 0 -95 -21 -74 -34 5 -3
37 -9 69 -12 l58 -6 3 -434 4 -434 -54 0 c-29 0 -59 -4 -67 -9 -26 -16 0 -31
54 -31 30 0 57 -4 60 -10 3 -5 5 -160 4 -342 -1 -183 -1 -375 0 -425 l2 -93
-53 0 c-107 0 -101 -38 7 -42 33 -2 283 -3 555 -3 l495 0 3 -32 c4 -43 18 -42
26 1 l6 33 88 7 c48 3 271 6 495 6 l407 -1 0 -24 c0 -32 10 -56 21 -49 5 3 9
21 9 40 l0 34 168 2 c345 4 813 0 820 -7 4 -4 7 -21 7 -38 0 -18 5 -33 10 -34
6 -1 9 15 7 36 -2 35 0 39 27 44 16 3 280 7 588 8 591 3 1212 13 1103 18 -36
2 -414 5 -840 7 -426 1 -796 3 -822 3 l-47 1 -1 434 0 433 72 6 c40 3 258 6
484 7 l410 2 2 -412 c1 -243 6 -419 12 -428 11 -19 13 74 14 543 l1 300 427 0
c236 0 428 3 428 8 0 8 7 8 -230 7 -102 0 -285 2 -406 6 l-221 7 -3 261 c-2
144 -3 343 -4 442 l-1 182 165 5 c91 2 283 4 427 3 144 0 259 2 255 6 -4 3
-193 8 -420 11 -341 3 -415 6 -423 18 -8 14 -5 876 4 885 2 3 204 8 448 11
244 4 434 9 424 13 -11 4 -209 8 -440 9 -267 1 -423 5 -430 12 -6 6 -9 94 -8
235 1 177 -1 224 -11 224 -11 0 -13 -50 -14 -231 0 -127 -3 -233 -5 -236 -5
-5 -948 -6 -953 -1 -2 3 -13 387 -17 635 -1 56 -5 104 -8 108 -4 3 -10 -67
-13 -157z m-1009 -285 c-3 -10 -5 -4 -5 12 0 17 2 24 5 18 2 -7 2 -21 0 -30z
m-1020 -20 c-3 -10 -5 -2 -5 17 0 19 2 27 5 18 2 -10 2 -26 0 -35z m-779 -310
c-10 -2 -28 -2 -40 0 -13 2 -5 4 17 4 22 1 32 -1 23 -4z m655 0 c-23 -2 -64
-2 -90 0 -26 2 -7 3 42 3 50 0 71 -1 48 -3z m245 0 c-10 -2 -26 -2 -35 0 -10
3 -2 5 17 5 19 0 27 -2 18 -5z m1899 -17 c3 -3 7 -203 8 -445 l3 -440 -34 -7
c-19 -3 -41 -4 -49 0 -22 8 -76 -5 -72 -18 2 -6 36 -13 78 -16 l74 -5 0 -440
0 -440 -492 -2 -492 -3 -3 208 c-2 114 -2 314 0 445 l3 237 57 -1 c79 -3 203
11 196 22 -3 5 -60 9 -128 9 l-123 0 -5 183 c-3 100 -4 250 -3 332 2 83 3 203
4 267 l1 118 168 2 c245 4 803 0 809 -6z m1005 -184 c3 -108 5 -312 4 -452
l-1 -255 -405 -2 c-223 -2 -441 0 -485 3 l-80 5 2 412 c0 227 2 426 2 444 l1
32 118 3 c64 2 279 4 478 5 l361 2 5 -197z m-2021 56 c1 -73 3 -275 4 -449 l3
-316 -192 -5 c-105 -3 -329 -3 -498 0 l-307 5 -2 141 c-2 200 -3 395 -1 583
l2 162 123 3 c67 2 290 4 495 6 l372 3 1 -133z m-1029 80 c3 -23 4 -225 4
-448 l-1 -405 -340 1 c-187 0 -404 2 -481 3 l-141 3 -5 187 c-2 103 -2 301 0
439 l5 251 26 3 c14 2 229 5 477 6 l451 4 5 -44z m3004 -867 l51 -1 1 -444 1
-444 -107 -6 c-143 -8 -849 -2 -858 7 -8 8 -9 865 -1 873 3 3 142 8 309 11
167 3 304 6 305 7 2 2 58 1 125 0 68 -1 146 -3 174 -3z m-2153 -11 l187 0 0
-445 0 -445 -152 -1 c-211 -2 -782 2 -786 6 -2 1 31 21 72 44 79 43 94 57 79
72 -12 12 -166 -73 -187 -102 -8 -11 -16 -17 -19 -12 -2 4 -5 202 -6 440 l-2
431 78 4 c43 2 172 5 288 6 115 2 212 5 214 8 3 3 15 3 26 0 11 -3 104 -6 208
-6z m-846 -13 c1 -2 4 -200 7 -440 l4 -437 -61 -2 c-79 -1 -612 2 -782 6
l-130 3 -3 431 -4 432 144 1 c79 1 213 4 298 8 141 5 520 4 527 -2z m1031
-912 c2 -2 3 -158 1 -347 -1 -188 -1 -384 0 -435 l2 -91 -323 -4 c-178 -1
-401 -1 -496 0 l-173 4 1 66 c1 37 -1 232 -5 435 l-8 367 24 1 c204 12 966 14
977 4z m840 8 l181 -6 -1 -434 -2 -433 -46 -2 c-25 -1 -244 -2 -487 -2 l-443
-1 0 22 c0 11 -3 208 -6 437 l-6 415 163 4 c381 7 475 7 647 0z m-1881 -19
l23 -6 -5 -426 c-3 -234 -7 -428 -9 -429 -6 -6 -552 -8 -761 -3 l-200 4 -2
428 -2 428 62 1 c34 1 152 5 262 9 207 7 593 3 632 -6z m-694 -891 c-7 -2 -21
-2 -30 0 -10 3 -4 5 12 5 17 0 24 -2 18 -5z"/>
<path d="M6332 6554 c-12 -8 -22 -21 -22 -28 0 -7 31 -46 69 -87 l68 -74 -73
-80 -74 -80 30 -29 29 -30 76 79 76 79 79 -79 79 -79 26 24 c14 13 25 28 25
34 0 6 -34 45 -75 86 l-75 75 75 75 c41 41 75 80 75 86 0 13 -32 44 -47 44 -5
0 -42 -31 -82 -70 -39 -38 -75 -70 -79 -70 -4 0 -39 32 -77 70 -38 39 -72 70
-75 70 -3 0 -16 -7 -28 -16z"/>
<path d="M6080 6041 c-71 -55 -89 -80 -64 -88 13 -4 159 105 158 118 -3 24 -5
29 -11 28 -5 0 -42 -26 -83 -58z"/>
<path d="M5752 5833 c-67 -37 -81 -48 -71 -59 9 -11 26 -6 101 32 81 43 104
66 67 71 -8 1 -51 -19 -97 -44z"/>
<path d="M5403 5692 c-101 -41 -126 -57 -100 -68 21 -8 229 75 224 90 -6 19
-30 15 -124 -22z"/>
<path d="M4698 5275 c-79 -69 -96 -91 -79 -108 7 -7 33 10 78 53 38 35 74 69
82 76 9 8 10 17 4 28 -8 14 -21 6 -85 -49z"/>
<path d="M4458 5022 c-19 -21 -49 -59 -67 -85 -28 -41 -30 -48 -15 -54 12 -4
23 3 38 23 12 16 40 53 64 82 38 47 46 72 23 72 -5 0 -24 -17 -43 -38z"/>
<path d="M8778 4523 c12 -2 30 -2 40 0 9 3 -1 5 -23 4 -22 0 -30 -2 -17 -4z"/>
</g>
</svg>
