<?xml version="1.0" standalone="no"?>
<!DOCTYPE svg PUBLIC "-//W3C//DTD SVG 20010904//EN"
 "http://www.w3.org/TR/2001/REC-SVG-20010904/DTD/svg10.dtd">
<svg version="1.0" xmlns="http://www.w3.org/2000/svg"
 width="1536.000000pt" height="1024.000000pt" viewBox="0 0 1536.000000 1024.000000"
 preserveAspectRatio="xMidYMid meet">

<g transform="translate(0.000000,1024.000000) scale(0.100000,-0.100000)"
fill="#000000" stroke="none">
<path d="M9550 7551 c-8 -5 -60 -11 -115 -15 -284 -17 -420 -29 -439 -36 -20
-8 -20 -9 4 -11 26 -2 -133 -13 -345 -22 l-120 -6 123 11 c67 6 122 14 122 20
0 10 -53 7 -280 -17 -74 -8 -173 -15 -220 -16 -288 -4 -374 -8 -454 -23 -58
-10 -111 -14 -155 -10 -42 4 -103 0 -167 -10 -56 -9 -118 -16 -138 -16 -20 0
-36 -3 -36 -7 0 -5 24 -7 52 -6 53 2 53 2 13 -7 -22 -5 -89 -8 -150 -8 l-110
2 95 6 c76 4 89 7 66 14 -31 10 -254 1 -296 -11 -23 -7 -21 -8 15 -14 23 -4
-16 -7 -92 -8 -95 -1 -132 2 -135 11 -4 10 -22 10 -84 0 -43 -6 -160 -14 -259
-17 -99 -4 -196 -10 -215 -15 -38 -10 -241 -21 -465 -26 -149 -3 -180 -5 -207
-18 -21 -10 -31 -35 -19 -50 8 -10 71 -641 83 -823 3 -50 -5 -60 -91 -118 -72
-49 -121 -90 -122 -102 0 -12 -109 -95 -109 -83 0 5 -5 10 -10 10 -10 0 -139
-104 -150 -121 -3 -4 -23 -20 -44 -34 -21 -14 -50 -37 -65 -50 -14 -13 -41
-38 -59 -55 -20 -18 -30 -35 -25 -42 4 -7 8 -143 9 -303 2 -159 8 -391 13
-515 10 -210 22 -991 26 -1725 0 -176 5 -366 9 -421 8 -92 7 -103 -9 -112 -23
-12 -13 -42 14 -42 11 0 23 -5 26 -10 4 -6 12 -7 18 -3 7 5 255 9 552 11 297
1 574 3 615 3 41 0 318 1 615 0 297 0 653 2 790 5 138 2 378 4 534 5 272 0
336 5 281 20 -14 4 20 7 75 7 69 -1 89 -3 65 -8 -19 -4 -28 -8 -20 -10 44 -7
265 -7 330 -1 61 7 66 9 28 10 -67 2 -60 21 8 21 30 0 53 -4 50 -9 -6 -10 212
-22 369 -20 61 1 148 0 195 -2 227 -8 791 5 818 20 21 11 30 45 14 54 -8 5 -8
469 0 484 3 4 5 106 4 226 -1 120 2 220 6 223 11 7 10 98 -2 110 -6 6 -6 67 0
174 5 91 9 219 8 285 -1 135 8 595 18 935 11 377 11 452 1 530 -5 41 -9 86 -9
100 0 26 -23 60 -42 60 -6 0 -34 19 -61 43 -28 24 -65 49 -82 56 -18 8 -33 19
-33 26 0 12 -108 99 -175 140 -16 11 -62 44 -101 75 -39 30 -84 63 -100 73
-16 9 -42 27 -59 40 -16 12 -40 29 -52 37 -19 14 -22 29 -28 120 -4 58 -8 107
-10 110 -2 3 -6 91 -9 195 -4 105 -12 273 -19 375 -6 102 -12 212 -12 245 0
48 -4 64 -20 77 -23 20 -25 20 -45 9z m-1037 -98 c-7 -2 -21 -2 -30 0 -10 3
-4 5 12 5 17 0 24 -2 18 -5z m1012 -106 l7 -107 -31 -11 c-17 -6 -31 -15 -31
-20 0 -5 12 -4 27 2 18 7 28 6 33 -1 4 -7 13 -107 20 -224 7 -117 16 -239 20
-272 7 -57 7 -57 9 -14 0 25 -3 106 -8 180 -14 200 -21 479 -10 405 7 -51 17
-240 44 -785 l4 -85 -14 70 -14 70 4 -80 c17 -315 21 -349 36 -340 5 4 8 -19
7 -57 l-1 -63 -8 55 c-5 36 -6 13 -3 -62 l5 -118 -28 -1 -28 -2 28 -4 c21 -3
27 -10 29 -31 1 -15 2 -34 4 -42 1 -8 3 -35 4 -60 1 -35 3 -40 10 -25 8 18 9
17 9 -7 1 -15 -3 -29 -8 -32 -8 -5 -8 -44 3 -173 3 -41 2 -44 -45 -74 -27 -17
-47 -35 -44 -40 3 -4 -5 -13 -17 -19 -22 -11 -22 -10 -4 4 27 22 7 20 -25 -2
-221 -148 -521 -350 -584 -393 -44 -31 -196 -134 -338 -229 -145 -98 -253
-177 -246 -180 7 -5 5 -9 -6 -13 -9 -4 -13 -3 -10 3 13 21 -13 7 -75 -40 -36
-28 -70 -50 -75 -50 -6 0 -27 11 -47 25 -20 14 -41 25 -46 25 -5 0 -15 6 -22
14 -6 8 -17 13 -25 10 -7 -3 -16 -1 -20 5 -4 7 0 8 11 4 12 -4 15 -3 10 5 -10
16 -82 53 -89 46 -3 -4 -21 5 -39 19 -18 14 -51 30 -73 36 -22 6 -62 16 -88
22 -106 27 -329 -31 -428 -111 -21 -16 -42 -30 -48 -30 -9 0 -82 -55 -142
-107 -14 -11 -20 -10 -42 7 -14 11 -32 18 -40 15 -7 -3 -20 2 -28 12 -13 16
-12 17 4 4 9 -8 20 -11 23 -9 8 9 -346 239 -357 233 -10 -7 -84 38 -96 58 -8
12 10 2 55 -31 18 -14 35 -22 38 -19 8 8 -147 108 -157 101 -8 -5 -229 142
-229 152 0 7 12 0 115 -71 103 -70 115 -78 115 -71 0 3 -47 37 -105 77 -58 40
-105 75 -105 79 0 17 82 82 145 115 82 43 126 83 161 145 56 99 66 138 69 270
l3 125 -8 -120 c-10 -157 -51 -266 -128 -339 -33 -30 -41 -36 -121 -79 -28
-15 -71 -47 -96 -70 l-44 -43 -78 56 c-185 132 -405 282 -409 278 -2 -3 79
-62 181 -132 102 -70 185 -130 185 -133 0 -6 -8 -1 -150 96 -58 40 -133 91
-167 114 -35 23 -61 47 -59 54 3 6 2 14 -2 17 -3 4 -7 26 -10 51 -3 39 0 45
25 59 l28 16 -27 -6 c-33 -7 -31 -18 -54 238 -11 125 -22 196 -28 195 -6 -1
-12 14 -13 33 -2 31 -1 32 7 10 11 -31 6 58 -15 270 -8 85 -15 161 -15 168 0
7 -4 10 -10 7 -5 -3 -10 1 -10 10 0 9 5 13 11 9 7 -4 9 17 4 72 -4 44 -8 86
-10 94 -8 28 -37 404 -38 490 -1 47 -5 87 -8 90 -3 3 -8 24 -12 47 -5 41 -4
43 26 47 18 3 106 8 197 11 91 3 174 7 185 10 11 2 39 4 63 4 30 1 42 5 42 16
0 8 5 15 11 15 5 0 7 -4 4 -10 -5 -9 33 -16 60 -10 5 1 72 4 150 6 77 3 146 7
154 10 7 2 100 9 205 14 105 6 225 12 266 15 301 20 720 45 850 50 85 3 163 9
173 11 12 4 17 -1 18 -18 2 -21 2 -22 6 -2 4 22 -4 22 348 38 141 7 150 8 125
16 -19 6 -12 8 30 8 42 1 50 -2 35 -9 -14 -7 -6 -8 29 -4 27 3 81 6 120 7 68
1 69 1 21 7 -87 11 116 22 454 26 167 3 306 7 309 10 9 9 11 1 17 -108z
m-1212 56 c-18 -2 -48 -2 -65 0 -18 2 -4 4 32 4 36 0 50 -2 33 -4z m-180 -10
c-13 -2 -35 -2 -50 0 -16 2 -5 4 22 4 28 0 40 -2 28 -4z m-264 -7 c-2 -2 -67
-6 -144 -8 -77 -3 -129 -2 -115 2 24 8 267 14 259 6z m-1106 -33 c-7 -2 -21
-2 -30 0 -10 3 -4 5 12 5 17 0 24 -2 18 -5z m-128 -14 c-22 -4 -49 -8 -60 -7
-16 0 -15 2 5 8 14 4 41 8 60 8 l35 0 -40 -9z m-7 -26 c-15 -2 -42 -2 -60 0
-18 2 -6 4 27 4 33 0 48 -2 33 -4z m-613 -43 c-3 -5 -10 -10 -16 -10 -5 0 -9
5 -9 10 0 6 7 10 16 10 8 0 12 -4 9 -10z m-140 -10 c-28 -12 -67 -12 -60 0 3
6 23 10 43 9 30 0 33 -2 17 -9z m98 3 c-7 -2 -21 -2 -30 0 -10 3 -4 5 12 5 17
0 24 -2 18 -5z m-356 -100 c-3 -10 -5 -4 -5 12 0 17 2 24 5 18 2 -7 2 -21 0
-30z m10 -85 c-3 -8 -6 -5 -6 6 -1 11 2 17 5 13 3 -3 4 -12 1 -19z m20 -260
c-3 -7 -5 -2 -5 12 0 14 2 19 5 13 2 -7 2 -19 0 -25z m10 -140 c-3 -8 -6 -5
-6 6 -1 11 2 17 5 13 3 -3 4 -12 1 -19z m3990 -80 c-3 -7 -5 -2 -5 12 0 14 2
19 5 13 2 -7 2 -19 0 -25z m-3967 -110 c0 -39 -2 -69 -4 -67 -8 9 -12 139 -4
139 4 0 8 -32 8 -72z m3927 -135 c-3 -10 -5 -2 -5 17 0 19 2 27 5 18 2 -10 2
-26 0 -35z m119 -33 c24 -17 44 -33 44 -36 0 -6 -47 21 -81 47 -39 30 -11 22
37 -11z m-20 -15 c13 -13 13 -17 -2 -40 -9 -14 -18 -25 -19 -25 -2 0 -5 18 -7
40 -4 42 4 49 28 25z m130 -26 c4 -8 1 -8 -14 0 -12 6 -24 16 -28 22 -4 8 -1
8 14 0 12 -6 24 -16 28 -22z m-4204 9 c-8 -8 -8 -16 -2 -23 6 -7 13 -46 16
-87 6 -64 4 -76 -10 -81 -9 -4 -16 -12 -16 -19 0 -9 3 -9 12 0 22 22 27 13 24
-45 -1 -32 1 -62 5 -68 10 -16 21 -165 11 -165 -11 0 -86 -99 -80 -106 3 -2
20 18 39 45 19 28 37 51 40 51 8 0 19 -63 19 -109 0 -24 -11 -49 -40 -87 -47
-63 -52 -78 -10 -32 22 25 29 29 30 16 0 -10 -4 -18 -8 -18 -5 0 -17 -18 -27
-40 -22 -49 -39 -63 -29 -24 5 19 4 25 -5 20 -6 -4 -11 -14 -11 -22 0 -12 -4
-12 -25 3 -20 14 -24 24 -19 48 l5 30 -16 -25 -16 -25 5 35 5 35 -15 -28 c-15
-27 -16 -28 -29 -11 -11 16 -11 23 2 47 8 16 12 32 9 35 -4 3 -12 -9 -18 -26
-15 -39 -34 -36 -30 4 2 26 1 27 -9 9 -7 -11 -13 -21 -15 -23 -1 -2 -13 6 -26
17 -12 11 -32 26 -42 34 -19 14 -19 15 3 48 l23 34 -29 -32 -28 -32 -25 19
c-14 11 -30 20 -37 20 -6 0 -13 3 -15 8 -1 4 -30 25 -63 47 l-60 40 40 6 c38
6 38 6 -15 8 -59 2 -106 25 -82 40 8 5 34 6 59 3 35 -4 44 -2 38 7 -4 8 -20
11 -36 9 -16 -3 -29 -2 -29 2 0 9 93 84 260 210 85 63 179 136 209 162 31 26
60 47 66 47 5 1 4 -4 -3 -11z m3985 -65 c-2 -16 -4 -3 -4 27 0 30 2 43 4 28 2
-16 2 -40 0 -55z m136 51 c4 -4 -7 -22 -23 -41 -17 -18 -30 -38 -30 -43 0 -6
-4 -10 -10 -10 -15 0 -12 27 5 44 8 8 15 18 15 23 0 10 21 33 30 33 4 0 10 -3
13 -6z m-4050 -74 c3 -34 2 -47 -3 -35 -8 19 -14 103 -6 94 2 -2 6 -29 9 -59z
m4134 13 c37 -26 130 -93 206 -150 75 -57 141 -102 146 -99 5 3 15 -2 22 -12
13 -16 13 -16 -6 -2 -19 14 -19 14 -6 -3 8 -10 24 -23 35 -29 19 -10 20 -10 7
6 -13 16 -12 16 12 5 28 -13 36 -27 15 -26 -65 2 -158 -5 -158 -12 0 -5 36 -7
83 -4 l82 5 -38 -26 c-21 -14 -40 -26 -43 -26 -8 0 -87 -53 -130 -87 -64 -52
-64 -39 2 27 32 33 68 60 79 60 14 0 16 3 8 11 -9 9 -18 8 -37 -5 -15 -9 -26
-13 -26 -8 0 5 -7 9 -15 9 -8 0 -15 -6 -15 -13 0 -9 6 -11 18 -7 9 4 -12 -25
-47 -63 -67 -71 -149 -140 -157 -131 -6 6 40 53 119 125 32 28 55 52 50 52
-18 0 -159 -129 -177 -161 -18 -34 -86 -89 -86 -70 0 14 220 251 233 252 7 1
15 1 20 0 4 0 7 3 7 9 0 6 -10 10 -23 10 -17 0 -39 -19 -78 -67 -30 -37 -76
-90 -104 -118 -27 -29 -59 -69 -70 -90 -11 -21 -27 -41 -35 -43 -13 -4 -13 -3
-2 10 10 13 10 17 0 21 -10 4 -11 7 0 18 10 11 12 11 12 -1 0 -8 13 6 28 31
16 24 52 72 81 107 29 35 51 65 49 67 -3 3 -73 -77 -134 -152 -27 -35 -53 -46
-34 -15 6 9 21 33 33 53 12 20 46 63 76 97 40 46 61 62 80 62 18 0 22 3 13 9
-21 13 -62 1 -73 -23 -6 -11 -28 -39 -49 -61 -21 -22 -50 -58 -64 -79 l-26
-39 0 45 c0 27 6 50 14 57 8 7 17 24 21 39 4 15 14 35 22 45 15 16 13 17 -30
17 -40 0 -47 3 -47 20 0 19 7 20 190 20 113 0 190 4 190 9 0 6 -66 9 -165 8
-91 -1 -165 0 -165 3 0 2 21 27 47 55 l48 50 -55 -51 c-71 -66 -86 -71 -94
-32 -5 25 0 37 24 65 17 18 30 41 30 51 0 11 -7 6 -19 -14 -29 -47 -39 -49
-39 -7 0 32 9 47 72 113 69 73 55 66 -31 -14 -36 -33 -43 -37 -43 -21 0 20 77
108 102 118 8 4 7 6 -4 6 -10 1 -35 -18 -57 -41 -47 -49 -66 -46 -23 3 16 19
34 44 41 57 6 12 14 22 16 22 2 0 35 -21 72 -47z m73 -30 c0 -7 -39 17 -46 28
-3 6 5 3 20 -6 14 -10 26 -19 26 -22z m-251 -103 c-5 -10 -8 5 -8 40 1 55 1
55 9 15 4 -22 4 -47 -1 -55z m404 -3 c42 -32 77 -60 77 -63 0 -8 -18 5 -95 64
-124 97 -112 96 18 -1z m-4793 -17 c-14 -11 -32 -20 -40 -20 -8 0 1 11 20 24
40 28 57 24 20 -4z m449 -23 c-1 -40 -2 -40 -9 -12 -11 44 -11 67 0 60 6 -3 9
-25 9 -48z m3918 -119 c-2 -13 -4 -5 -4 17 -1 22 1 32 4 23 2 -10 2 -28 0 -40z
m107 -125 c-25 -59 -34 -62 -34 -10 0 43 2 47 24 47 25 0 25 0 10 -37z m591
-163 c3 -102 1 -495 -4 -875 -6 -379 -11 -796 -12 -925 -1 -129 -6 -320 -10
-425 -5 -104 -9 -274 -10 -376 -1 -134 -4 -186 -13 -185 -17 3 -53 25 -41 26
6 0 17 -6 25 -12 8 -7 4 -1 -8 13 l-23 27 7 453 c6 418 5 453 -10 440 -18 -15
-22 -26 -6 -16 8 5 9 -79 5 -272 -3 -153 -6 -354 -6 -446 0 -159 -1 -167 -17
-149 -22 24 -97 82 -107 82 -5 0 0 -10 11 -22 l19 -23 -22 19 c-13 10 -21 22
-18 26 2 4 -33 36 -78 71 -123 98 -162 125 -153 110 6 -9 5 -12 -5 -9 -8 3
-13 10 -12 16 2 7 -28 35 -66 64 -38 29 -176 137 -307 239 -354 275 -495 382
-499 377 -3 -2 34 -33 81 -67 47 -35 83 -65 80 -68 -6 -6 -171 125 -171 136 0
9 -66 63 -224 184 -41 31 -78 54 -84 50 -6 -3 -7 -1 -3 5 6 10 -219 188 -349
277 -24 17 -44 32 -44 35 0 3 56 43 124 90 69 47 164 112 212 145 218 150 321
221 508 347 325 220 518 354 545 378 45 39 -1 9 -240 -156 -129 -89 -325 -223
-435 -297 -110 -75 -314 -214 -454 -309 -298 -202 -281 -191 -281 -180 0 5
179 129 398 276 218 147 490 331 604 409 470 322 539 368 548 362 5 -3 43 16
82 43 130 89 408 272 413 272 9 0 5 -41 -5 -61 -6 -10 -7 -19 -3 -19 4 0 5
-70 0 -157 -6 -144 -5 -174 8 -162 2 3 7 77 10 164 9 238 9 243 18 238 4 -2 7
4 7 13 0 10 2 15 4 13 3 -2 7 -88 11 -189z m-75 159 c-29 -23 -80 -52 -80 -45
0 8 84 65 95 65 6 0 -1 -8 -15 -20z m-5195 -48 c-4 -9 0 -11 11 -7 15 6 94
-36 94 -49 0 -6 -20 5 -60 32 -23 16 -24 16 -12 1 8 -9 89 -67 180 -129 92
-62 185 -127 207 -144 22 -18 92 -68 155 -112 63 -44 243 -169 400 -278 263
-183 605 -419 875 -603 61 -41 112 -77 115 -79 6 -6 -62 -62 -76 -63 -6 0 -21
-12 -35 -26 -35 -39 -258 -225 -336 -281 -37 -26 -87 -66 -112 -89 -25 -22
-78 -65 -117 -95 -39 -30 -113 -88 -165 -129 -52 -41 -106 -84 -121 -95 -15
-11 -104 -83 -200 -159 -95 -77 -193 -155 -218 -175 -63 -49 -68 -53 -45 -45
l20 7 -20 -23 -20 -23 20 11 c33 18 81 61 68 62 -6 0 -15 -4 -18 -10 -3 -5
-11 -10 -17 -10 -6 0 10 16 36 35 32 25 51 33 61 28 11 -7 -2 -22 -59 -66 -41
-31 -81 -55 -88 -52 -8 3 -23 -3 -33 -15 -22 -25 -9 -27 18 -2 11 9 17 12 13
5 -3 -7 -21 -22 -39 -35 -26 -18 -29 -19 -17 -3 28 35 -8 11 -140 -93 -71 -57
-135 -100 -141 -97 -6 4 -18 0 -27 -9 -9 -9 -39 -35 -67 -57 l-50 -42 -7 39
c-4 21 -7 60 -7 86 -1 48 13 69 178 273 14 17 14 18 0 8 -8 -7 -49 -55 -90
-107 -41 -52 -77 -95 -81 -96 -5 0 -8 46 -8 102 l0 101 80 98 c44 54 80 101
80 104 0 6 -85 -92 -132 -152 l-27 -35 -3 103 -3 104 38 50 39 50 -36 -37
c-20 -21 -38 -38 -41 -38 -3 0 -5 44 -5 97 0 86 2 100 23 122 l22 26 -22 -19
-23 -19 -1 64 c-2 99 1 122 19 144 16 18 16 19 0 7 -9 -7 -18 -9 -21 -5 -3 5
-8 208 -12 453 -3 244 -8 446 -11 449 -2 2 -4 -65 -4 -149 0 -84 -2 -151 -4
-149 -8 8 -15 220 -20 584 -2 193 0 321 4 285 4 -36 8 -174 9 -307 1 -142 5
-243 10 -243 15 0 16 25 7 182 -10 163 -13 147 47 247 12 19 15 31 9 27 -7 -4
-23 -28 -37 -54 l-24 -47 -1 89 c0 81 2 92 27 125 l26 36 -26 -24 -27 -24 -1
34 c-2 52 1 62 25 89 32 35 111 144 99 137 -6 -4 -34 -38 -64 -77 l-54 -72 -3
47 c-3 39 2 53 33 98 l37 52 -37 -40 -37 -40 5 57 c2 32 0 59 -4 60 -4 2 -11
16 -15 31 -6 27 -6 28 15 15 12 -7 19 -19 16 -27z m698 -141 c4 -54 4 -67 -3
-45 -5 17 -12 71 -14 120 -6 106 7 48 17 -75z m-741 38 c2 -27 0 -48 -4 -48
-5 0 -7 30 -7 68 2 69 6 62 11 -20z m5096 59 c-31 -26 -88 -60 -88 -54 0 2 21
21 47 41 50 39 87 50 41 13z m-103 -17 c-10 -11 -21 -18 -23 -15 -3 3 3 12 14
20 27 20 30 18 9 -5z m-4635 -66 c0 -11 -84 43 -88 56 -3 7 16 -2 42 -19 25
-18 46 -34 46 -37z m5002 -184 l-9 -105 -2 120 c0 66 3 145 7 175 l7 55 3 -70
c1 -38 -2 -117 -6 -175z m-5077 166 c11 -8 17 -16 12 -16 -8 0 -87 51 -87 57
0 5 51 -22 75 -41z m391 -44 c1 -54 0 -61 -7 -37 -5 17 -7 38 -5 47 2 10 0 20
-5 23 -4 3 -6 12 -2 20 11 31 18 13 19 -53z m4204 39 c0 -11 -80 -64 -87 -57
-4 4 74 66 84 66 1 0 3 -4 3 -9z m-4869 -73 c2 -26 0 -50 -4 -54 -4 -4 -7 19
-7 51 0 69 7 70 11 3z m4626 20 c-3 -8 -6 -5 -6 6 -1 11 2 17 5 13 3 -3 4 -12
1 -19z m-3988 -5 c-1 -10 1 -25 5 -34 4 -8 0 -27 -7 -42 -13 -25 -15 -26 -29
-9 -14 15 -14 21 3 60 19 43 32 55 28 25z m38 -131 c-3 -10 -5 -4 -6 11 -1 16
-5 26 -11 22 -6 -4 -7 -11 -4 -17 4 -7 2 -8 -4 -4 -6 4 -9 13 -7 21 16 49 18
50 27 17 5 -19 7 -41 5 -50z m38 -116 c127 -88 291 -202 365 -253 74 -51 182
-126 240 -167 58 -40 186 -129 285 -196 99 -68 232 -159 295 -202 63 -43 117
-83 119 -89 2 -7 -16 3 -40 21 -24 17 -183 127 -354 244 -263 180 -865 597
-1097 760 -38 26 -68 50 -68 52 0 8 8 3 255 -170z m3675 10 c0 -4 -79 -63
-107 -80 -7 -4 -13 -3 -13 1 0 5 26 25 58 46 59 38 62 40 62 33z m947 -78 c-3
-8 -6 -5 -6 6 -1 11 2 17 5 13 3 -3 4 -12 1 -19z m-1192 -86 c-16 -14 -87 -65
-138 -100 -26 -18 -56 -41 -66 -51 -10 -10 -47 -38 -82 -61 -58 -38 -61 -39
-34 -12 33 34 304 231 320 231 6 1 6 -2 0 -7z m-4155 -58 c0 -14 -4 -23 -10
-19 -5 3 -10 15 -10 26 0 10 5 19 10 19 6 0 10 -12 10 -26z m5350 -45 c0 -21
-4 -39 -10 -39 -5 0 -10 21 -10 46 0 27 4 43 10 39 6 -3 10 -24 10 -46z
m-4082 -53 c3 -5 -16 6 -42 24 -26 19 -50 39 -54 44 -3 5 16 -6 42 -24 26 -19
50 -39 54 -44z m2485 -114 c-32 -25 -163 -117 -198 -137 -66 -40 3 15 105 84
98 67 142 91 93 53z m-1965 -235 c24 -16 41 -31 38 -34 -5 -5 -106 65 -106 73
0 6 12 -1 68 -39z m1661 27 c-7 -8 -26 -22 -43 -31 -36 -18 -30 -10 16 23 39
28 45 29 27 8z m-833 -13 c-3 -4 -33 -11 -66 -15 -34 -4 -69 -10 -78 -13 -12
-4 -14 -3 -7 5 17 19 162 41 151 23z m177 -47 c20 -8 55 -21 77 -29 22 -8 62
-31 89 -50 27 -20 55 -33 64 -30 8 4 27 -5 43 -20 30 -27 13 -24 -19 3 -9 8
-19 13 -22 10 -10 -9 113 -88 138 -88 13 0 31 -7 38 -17 13 -15 12 -15 -11 -3
l-25 13 19 -22 c11 -11 23 -21 27 -21 7 0 83 -54 188 -134 11 -8 13 -8 7 2
-11 19 2 14 40 -15 19 -14 31 -29 25 -32 -5 -3 27 -34 72 -67 663 -496 651
-486 947 -712 69 -53 119 -88 112 -80 -7 9 -38 35 -68 59 -30 23 -53 44 -50
46 5 5 316 -235 316 -244 0 -3 -12 2 -27 11 -27 17 -27 16 2 -9 17 -15 64 -52
105 -83 41 -30 107 -82 147 -114 39 -32 74 -58 78 -58 14 0 -10 23 -72 70 -36
28 -62 50 -57 50 5 0 43 -27 84 -61 41 -33 83 -65 93 -71 10 -5 16 -12 13 -15
-3 -4 -15 2 -26 12 -11 10 -23 16 -25 13 -3 -3 17 -20 45 -38 27 -18 50 -34
50 -36 0 -2 -75 -4 -166 -4 -129 0 -164 3 -158 13 5 7 0 6 -10 -3 -21 -17 -48
-18 -521 -22 l-310 -3 425 -5 425 -5 -590 -2 c-324 0 -579 3 -565 7 22 7 21 8
-13 9 -21 1 -36 -3 -33 -8 6 -9 -219 -23 -299 -19 -22 1 -561 -1 -1198 -5
-802 -6 -1157 -5 -1152 3 4 7 133 10 382 10 207 0 374 3 371 6 -3 3 -79 5
-168 5 -152 -1 -161 0 -149 17 13 16 12 16 -7 0 -16 -14 -40 -18 -114 -18
l-94 0 64 67 65 67 -76 -67 -77 -67 -93 0 -94 0 120 123 120 122 -125 -122
-125 -123 -169 0 c-159 0 -168 1 -155 18 13 16 13 16 -7 0 -14 -12 -38 -18
-74 -18 -48 0 -51 1 -39 18 13 16 12 16 -6 0 -13 -11 -43 -17 -88 -20 -37 -1
-67 -1 -67 1 0 3 8 14 17 25 15 17 13 17 -8 -2 -20 -18 -40 -24 -83 -25 -31
-2 -56 -1 -56 2 0 2 18 21 39 43 22 21 37 38 33 38 -3 0 -25 -19 -48 -41 l-43
-42 -72 2 c-40 1 -74 3 -76 5 -3 2 60 50 194 146 34 25 118 90 186 145 68 55
198 159 289 230 448 353 572 451 673 530 61 47 144 112 185 145 41 32 125 97
185 145 61 48 130 102 155 121 136 105 175 137 175 147 0 12 124 111 131 104
3 -3 -24 -26 -61 -52 -36 -26 -64 -50 -61 -52 3 -3 36 17 73 45 90 66 225 133
282 139 25 3 48 7 50 9 9 8 156 -9 194 -22z m63 1 c10 -8 14 -15 8 -15 -5 0
-19 7 -30 15 -10 8 -14 15 -8 15 5 0 19 -7 30 -15z m2485 -43 c-1 -26 -6 -50
-9 -54 -4 -4 -5 20 -4 53 2 33 7 58 10 54 3 -3 5 -27 3 -53z m-2936 18 c-3 -5
-11 -10 -16 -10 -6 0 -7 5 -4 10 3 6 11 10 16 10 6 0 7 -4 4 -10z m-459 -57
c-5 -5 -66 35 -66 42 0 3 16 -5 35 -17 20 -11 34 -23 31 -25z m-1919 -170 c-2
-27 -3 -5 -3 47 0 52 1 74 3 48 2 -27 2 -69 0 -95z m3290 -3 c29 -23 53 -43
53 -47 0 -3 -6 -1 -12 4 -7 6 -35 27 -61 47 -27 20 -45 36 -41 36 4 0 31 -18
61 -40z m-3308 -62 l-2 -73 -7 60 c-6 55 -4 85 6 85 2 0 3 -33 3 -72z m2046
46 c-16 -13 -55 -44 -85 -67 -30 -23 -98 -76 -150 -117 -52 -42 -207 -164
-345 -270 -264 -205 -541 -423 -662 -521 -76 -62 -99 -74 -67 -37 l19 22 -30
-17 c-28 -17 -28 -16 5 13 39 35 322 262 480 385 56 44 141 112 189 150 122
100 220 175 226 175 3 0 -35 -34 -85 -76 -51 -42 -89 -78 -86 -81 3 -3 29 14
58 39 29 24 143 113 253 198 110 84 220 171 245 192 25 21 50 38 55 38 6 -1
-3 -12 -20 -26z m1271 -39 c56 -40 83 -65 71 -65 -2 0 -37 25 -77 55 -88 66
-84 74 6 10z m-1386 -18 c0 -8 -92 -69 -96 -64 -6 5 75 67 88 67 4 0 8 -1 8
-3z m1555 -64 c65 -46 130 -99 104 -86 -23 12 -189 135 -189 140 0 5 12 -2 85
-54z m-3455 -84 c0 -51 -4 -78 -10 -74 -5 3 -10 40 -10 81 0 43 4 74 10 74 6
0 10 -34 10 -81z m3655 -109 c109 -80 294 -219 412 -308 118 -90 217 -162 219
-159 5 5 -68 66 -149 126 -32 24 -56 45 -54 48 3 2 45 -26 94 -64 48 -38 160
-125 248 -193 139 -107 227 -179 175 -144 -8 6 -79 59 -158 119 -78 59 -144
106 -147 103 -3 -3 29 -31 70 -63 42 -32 74 -60 72 -62 -4 -3 -968 715 -992
739 -29 30 31 -11 210 -142z m128 -58 c59 -46 107 -86 107 -88 0 -6 -203 145
-225 168 -34 35 5 9 118 -80z m-3784 -4 l-2 -83 -7 60 c-7 55 -4 105 6 105 2
0 3 -37 3 -82z m4 -278 c-10 -24 -22 89 -15 145 6 48 7 46 14 -40 4 -49 4 -97
1 -105z m5274 78 c-3 -7 -5 -2 -5 12 0 14 2 19 5 13 2 -7 2 -19 0 -25z m-5268
-243 c1 -49 -2 -65 -9 -55 -5 8 -9 58 -9 110 1 77 3 88 10 55 4 -22 8 -71 8
-110z m5268 23 c-2 -13 -4 -3 -4 22 0 25 2 35 4 23 2 -13 2 -33 0 -45z m-5270
-245 c-2 -27 -3 -5 -3 47 0 52 1 74 3 48 2 -27 2 -69 0 -95z m4748 -78 c39
-32 29 -32 -15 0 -19 14 -30 25 -24 25 5 -1 23 -12 39 -25z m-4738 -38 c1 -39
0 -46 -7 -27 -10 32 -12 80 -2 80 4 0 8 -24 9 -53z m5250 1 c-3 -7 -5 -2 -5
12 0 14 2 19 5 13 2 -7 2 -19 0 -25z m-450 -44 c27 -20 50 -39 53 -42 11 -11
-57 31 -85 54 -47 38 -20 28 32 -12z m53 -11 l25 -28 -35 30 c-55 47 -56 48
-35 37 11 -6 31 -23 45 -39z m-4465 -53 c-16 -16 -32 -30 -37 -30 -8 0 53 59
61 60 3 0 -8 -13 -24 -30z m4575 -30 l45 -41 -62 46 c-35 26 -63 49 -63 51 0
9 36 -16 80 -56z m-4968 -12 c3 -34 2 -76 -2 -93 -5 -25 -7 -19 -13 34 -9 86
-9 121 2 121 5 0 11 -28 13 -62z m5245 0 c-3 -7 -5 -2 -5 12 0 14 2 19 5 13 2
-7 2 -19 0 -25z m-5237 -175 c0 -35 -3 -44 -11 -36 -7 7 -9 25 -5 47 9 50 16
45 16 -11z m65 -13 c-10 -11 -23 -20 -29 -20 -6 0 0 9 14 20 32 25 38 25 15 0z
m5093 -17 c-16 -2 -40 -2 -55 0 -16 2 -3 4 27 4 30 0 43 -2 28 -4z m-165 -10
c-13 -2 -35 -2 -50 0 -16 2 -5 4 22 4 28 0 40 -2 28 -4z m-4923 -13 c0 -5 -5
-10 -11 -10 -5 0 -7 5 -4 10 3 6 8 10 11 10 2 0 4 -4 4 -10z m895 0 c-4 -6
-70 -9 -168 -9 -189 2 -157 15 41 17 86 1 131 -2 127 -8z m-792 -7 c-7 -2 -19
-2 -25 0 -7 3 -2 5 12 5 14 0 19 -2 13 -5z m150 0 c-7 -2 -19 -2 -25 0 -7 3
-2 5 12 5 14 0 19 -2 13 -5z m150 0 c-18 -2 -48 -2 -65 0 -18 2 -4 4 32 4 36
0 50 -2 33 -4z m125 0 c-16 -2 -40 -2 -55 0 -16 2 -3 4 27 4 30 0 43 -2 28 -4z
m3592 -3 c0 -5 -25 -10 -55 -10 -30 0 -55 5 -55 10 0 6 25 10 55 10 30 0 55
-4 55 -10z m83 3 c-13 -2 -33 -2 -45 0 -13 2 -3 4 22 4 25 0 35 -2 23 -4z
m220 0 c-13 -2 -35 -2 -50 0 -16 2 -5 4 22 4 28 0 40 -2 28 -4z m557 -3 c-8
-5 -37 -9 -65 -8 l-50 1 45 7 c73 11 88 11 70 0z m-2140 -16 c0 -2 -18 -4 -40
-4 -22 0 -40 3 -40 8 0 4 18 6 40 4 22 -2 40 -6 40 -8z m-567 -1 c-23 -2 -64
-2 -90 0 -26 2 -7 3 42 3 50 0 71 -1 48 -3z m250 0 c-18 -2 -48 -2 -65 0 -18
2 -4 4 32 4 36 0 50 -2 33 -4z m2170 -10 c-18 -2 -48 -2 -65 0 -18 2 -4 4 32
4 36 0 50 -2 33 -4z m-4017 -15 c6 -7 -243 -18 -393 -18 -180 0 -156 19 30 23
179 4 356 1 363 -5z m849 2 c-3 -6 -49 -10 -101 -10 -61 0 -93 4 -89 10 3 6
49 10 101 10 61 0 93 -4 89 -10z m1553 3 c-10 -2 -28 -2 -40 0 -13 2 -5 4 17
4 22 1 32 -1 23 -4z m515 0 c-24 -2 -62 -2 -85 0 -24 2 -5 4 42 4 47 0 66 -2
43 -4z m-2371 -13 c-19 -4 -46 -4 -60 0 -21 6 -13 8 33 8 51 0 55 -1 27 -8z"/>
<path d="M9053 7433 c15 -2 37 -2 50 0 12 2 0 4 -28 4 -27 0 -38 -2 -22 -4z"/>
<path d="M8893 7423 c15 -2 37 -2 50 0 12 2 0 4 -28 4 -27 0 -38 -2 -22 -4z"/>
<path d="M8542 7260 c0 -19 2 -27 5 -17 2 9 2 25 0 35 -3 9 -5 1 -5 -18z"/>
<path d="M8011 7224 c0 -11 3 -14 6 -6 3 7 2 16 -1 19 -3 4 -6 -2 -5 -13z"/>
<path d="M9337 7153 c-27 -15 -44 -29 -39 -31 11 -3 112 45 112 53 0 11 -28 3
-73 -22z"/>
<path d="M7977 7102 c-9 -23 -17 -50 -16 -60 0 -9 9 5 20 32 11 27 18 54 16
59 -2 6 -11 -8 -20 -31z"/>
<path d="M8541 7105 c-1 -11 -4 -31 -7 -45 -5 -22 -4 -23 6 -7 6 10 9 30 7 45
-3 18 -5 20 -6 7z"/>
<path d="M9110 6983 c-43 -49 -87 -123 -73 -123 5 0 21 21 38 48 16 26 45 64
64 85 18 20 29 37 23 37 -6 0 -29 -21 -52 -47z"/>
<path d="M7921 6971 c-24 -33 -28 -56 -5 -26 20 26 36 55 30 55 -3 0 -14 -13
-25 -29z"/>
<path d="M8511 6983 c-1 -6 -4 -20 -7 -30 -5 -17 -5 -17 6 0 6 10 9 23 6 30
-3 9 -5 9 -5 0z"/>
<path d="M7815 6854 c-56 -47 -151 -93 -240 -118 -50 -13 -81 -25 -70 -25 67
-2 242 73 310 133 46 40 45 48 0 10z"/>
<path d="M8981 6714 c-30 -120 -41 -167 -40 -182 1 -29 19 28 40 122 19 89 19
133 0 60z"/>
<path d="M6858 6720 c-90 -15 -164 -42 -240 -86 -42 -25 -82 -51 -88 -59 -20
-24 -1 -17 33 11 47 40 160 93 235 110 37 9 112 19 167 23 l100 8 -80 0 c-44
1 -101 -3 -127 -7z"/>
<path d="M7160 6709 c44 -7 335 -11 315 -4 -5 2 -89 5 -185 7 -96 2 -155 1
-130 -3z"/>
<path d="M8259 6628 c-17 -24 -18 -29 -6 -19 18 14 42 51 33 51 -3 0 -15 -15
-27 -32z"/>
<path d="M9571 6623 c0 -15 4 -37 9 -48 7 -16 9 -11 9 22 1 23 -3 45 -9 48 -6
4 -10 -6 -9 -22z"/>
<path d="M6426 6458 c-53 -82 -117 -281 -97 -301 8 -8 11 -2 11 21 0 53 28
143 69 225 38 76 45 98 17 55z"/>
<path d="M8074 6438 l-19 -21 28 18 c28 18 33 25 19 25 -5 0 -17 -10 -28 -22z"/>
<path d="M8892 6421 c-16 -45 -15 -50 4 -23 8 12 14 30 12 40 -3 11 -8 6 -16
-17z"/>
<path d="M8026 6405 c-11 -8 -15 -15 -9 -15 6 0 16 7 23 15 16 19 11 19 -14 0z"/>
<path d="M7885 6339 c-22 -10 -29 -16 -16 -13 37 10 88 33 71 33 -8 0 -33 -9
-55 -20z"/>
<path d="M7078 6283 c29 -2 74 -2 100 0 26 2 2 3 -53 3 -55 0 -76 -1 -47 -3z"/>
<path d="M7594 6281 c3 -5 15 -7 26 -4 28 7 25 13 -6 13 -14 0 -23 -4 -20 -9z"/>
<path d="M6998 6273 c7 -3 16 -2 19 1 4 3 -2 6 -13 5 -11 0 -14 -3 -6 -6z"/>
<path d="M7508 6273 c12 -2 32 -2 45 0 12 2 2 4 -23 4 -25 0 -35 -2 -22 -4z"/>
<path d="M8739 6205 c-30 -31 -58 -63 -62 -71 -18 -32 30 5 70 53 74 90 70 99
-8 18z"/>
<path d="M6317 6021 c-4 -68 -6 -126 -3 -128 7 -7 18 138 14 197 -2 38 -5 17
-11 -69z"/>
<path d="M8460 5979 c-93 -54 -93 -68 1 -18 47 25 106 71 88 68 -2 0 -42 -22
-89 -50z"/>
<path d="M6657 5951 c-4 -24 -5 -46 -2 -49 11 -11 16 8 13 49 l-3 44 -8 -44z"/>
<path d="M8175 5875 c-27 -7 -65 -14 -82 -14 -18 -1 -33 -6 -33 -12 0 -6 8 -8
18 -5 9 3 49 10 87 16 39 6 74 15 80 21 12 12 -6 10 -70 -6z"/>
<path d="M6307 5873 c-10 -19 -17 -64 -9 -59 6 3 12 19 14 36 5 30 3 37 -5 23z"/>
<path d="M9418 5864 c-39 -21 -35 -28 5 -8 37 19 44 24 31 24 -5 -1 -21 -8
-36 -16z"/>
<path d="M7719 5822 c-33 -8 -58 -16 -56 -18 6 -6 208 23 215 31 10 10 -93 1
-159 -13z"/>
<path d="M9284 5794 c-18 -14 -18 -15 4 -4 12 6 22 13 22 15 0 8 -5 6 -26 -11z"/>
<path d="M6280 5779 c-7 -11 -10 -23 -7 -25 2 -2 9 7 15 21 14 30 7 33 -8 4z"/>
<path d="M7469 5720 c-41 -21 -119 -107 -119 -129 0 -8 11 0 24 18 30 41 95
99 119 107 9 3 17 10 17 15 0 11 2 12 -41 -11z"/>
<path d="M9130 5669 l-35 -30 38 26 c33 24 43 35 34 35 -1 0 -18 -14 -37 -31z"/>
<path d="M6680 5665 c0 -14 4 -25 9 -25 4 0 6 11 3 25 -2 14 -6 25 -8 25 -2 0
-4 -11 -4 -25z"/>
<path d="M6170 5623 c-25 -25 -34 -38 -20 -28 23 17 76 75 68 75 -2 0 -24 -21
-48 -47z"/>
<path d="M8989 5493 c-13 -16 -12 -17 4 -4 16 13 21 21 13 21 -2 0 -10 -8 -17
-17z"/>
<path d="M7260 5433 c-16 -35 -24 -184 -13 -243 7 -36 9 -21 9 70 0 69 5 130
13 153 15 45 10 59 -9 20z"/>
<path d="M8800 5370 c-19 -11 -30 -19 -25 -19 6 0 26 8 45 19 19 11 31 19 25
19 -5 0 -26 -8 -45 -19z"/>
<path d="M9335 5309 c-4 -6 -5 -12 -2 -15 2 -3 7 2 10 11 7 17 1 20 -8 4z"/>
<path d="M8580 5290 c-18 -12 -2 -12 25 0 13 6 15 9 5 9 -8 0 -22 -4 -30 -9z"/>
<path d="M8297 5179 c-26 -17 -47 -36 -47 -41 0 -6 9 -3 20 7 11 10 37 29 58
41 20 13 32 24 26 24 -6 0 -32 -14 -57 -31z"/>
<path d="M7262 5120 c0 -14 2 -19 5 -12 2 6 2 18 0 25 -3 6 -5 1 -5 -13z"/>
<path d="M8096 4924 c-9 -20 -14 -39 -12 -42 3 -3 13 12 21 33 9 20 14 39 12
41 -2 2 -11 -13 -21 -32z"/>
<path d="M8044 4736 c-3 -8 -4 -25 -2 -38 3 -17 5 -13 9 15 5 38 2 47 -7 23z"/>
<path d="M8021 4643 c-1 -6 -4 -20 -7 -30 -5 -17 -5 -17 6 0 6 10 9 23 6 30
-3 9 -5 9 -5 0z"/>
<path d="M5597 6252 c-10 -10 -17 -22 -17 -26 0 -16 -46 -68 -77 -86 -18 -11
-38 -32 -44 -47 -12 -31 -66 -100 -121 -155 -21 -21 -38 -41 -38 -46 0 -6 -12
-12 -26 -15 -18 -3 -24 -1 -20 9 3 8 1 14 -3 14 -5 0 -11 -6 -14 -12 -2 -7 -8
-10 -12 -6 -9 8 22 55 33 49 9 -6 75 79 67 87 -2 3 -16 -7 -29 -21 -14 -15
-31 -27 -38 -27 -11 0 -68 -89 -68 -106 0 -7 232 5 240 12 3 3 -21 4 -52 3
-32 -1 -61 0 -64 4 -4 4 15 30 42 59 27 29 65 75 84 102 49 67 79 98 89 91 5
-3 18 8 27 24 10 17 21 28 25 25 4 -2 10 0 14 6 3 5 11 10 17 10 5 0 -2 -15
-17 -32 -39 -49 -96 -140 -93 -149 5 -13 128 177 128 197 0 15 -4 14 -25 -6
-31 -29 -32 -18 -4 22 24 33 21 48 -4 20z m-322 -302 c-10 -11 -21 -17 -24
-14 -3 3 3 12 13 20 28 20 32 17 11 -6z"/>
<path d="M5462 6141 c-12 -14 -61 -75 -108 -136 l-85 -110 76 80 c42 44 83 94
92 110 8 17 25 40 36 52 11 13 19 25 16 27 -2 2 -14 -9 -27 -23z"/>
<path d="M5517 6123 c-4 -3 -7 -11 -7 -17 0 -6 5 -5 12 2 6 6 9 14 7 17 -3 3
-9 2 -12 -2z"/>
<path d="M5542 6030 c-40 -55 -72 -106 -72 -113 0 -6 21 20 46 58 25 39 51 75
57 80 20 17 58 75 49 75 -5 0 -41 -45 -80 -100z"/>
<path d="M5475 6053 c-16 -21 -44 -55 -64 -77 -25 -27 -29 -35 -14 -27 24 12
68 63 96 110 25 42 15 39 -18 -6z"/>
<path d="M5574 6028 c-4 -13 -20 -38 -35 -56 -38 -43 -37 -54 1 -17 28 27 30
28 30 7 0 -11 -4 -24 -10 -27 -5 -3 -10 -12 -10 -18 0 -7 7 -3 15 7 8 11 14
31 14 45 -1 14 2 38 6 54 9 32 -1 37 -11 5z"/>
<path d="M5625 6004 c-4 -16 -11 -42 -16 -59 l-9 -30 20 24 c11 12 17 27 14
32 -3 6 -1 15 5 22 6 8 6 18 1 27 -6 10 -10 7 -15 -16z"/>
<path d="M5449 5973 c-22 -24 -26 -31 -11 -20 21 14 59 57 50 57 -2 0 -20 -16
-39 -37z"/>
<path d="M5596 5973 c-6 -14 -5 -15 5 -6 7 7 10 15 7 18 -3 3 -9 -2 -12 -12z"/>
<path d="M5458 5873 c7 -3 16 -2 19 1 4 3 -2 6 -13 5 -11 0 -14 -3 -6 -6z"/>
<path d="M5513 5873 c9 -2 25 -2 35 0 9 3 1 5 -18 5 -19 0 -27 -2 -17 -5z"/>
<path d="M5578 5873 c7 -3 16 -2 19 1 4 3 -2 6 -13 5 -11 0 -14 -3 -6 -6z"/>
<path d="M5623 5873 c9 -2 23 -2 30 0 6 3 -1 5 -18 5 -16 0 -22 -2 -12 -5z"/>
<path d="M5243 5813 c9 -2 23 -2 30 0 6 3 -1 5 -18 5 -16 0 -22 -2 -12 -5z"/>
<path d="M5241 5768 c-14 -23 -14 -23 8 -4 22 20 25 26 13 26 -4 0 -13 -10
-21 -22z"/>
<path d="M5335 5748 c-16 -24 -22 -38 -14 -31 15 12 53 73 46 73 -2 0 -17 -19
-32 -42z"/>
<path d="M5419 5763 l-24 -28 28 24 c15 14 27 26 27 28 0 8 -8 1 -31 -24z"/>
<path d="M5297 5753 c-4 -3 -7 -11 -7 -17 0 -6 5 -5 12 2 6 6 9 14 7 17 -3 3
-9 2 -12 -2z"/>
<path d="M5563 5694 c5 -45 3 -66 -8 -80 -8 -10 -15 -23 -15 -28 0 -6 7 -1 15
10 14 18 14 18 16 -11 1 -16 1 -41 0 -55 -1 -22 0 -23 10 -7 6 10 7 31 4 48
-4 16 -8 61 -10 100 -2 39 -7 74 -11 77 -4 4 -4 -20 -1 -54z"/>
<path d="M5487 5733 c-4 -3 -7 -11 -7 -17 0 -6 5 -5 12 2 6 6 9 14 7 17 -3 3
-9 2 -12 -2z"/>
<path d="M5643 5703 c-23 -33 -56 -93 -49 -93 3 0 15 18 27 40 13 22 26 40 31
40 16 0 7 -27 -24 -71 l-31 -44 34 33 c28 26 34 40 35 77 1 25 1 45 0 45 -1 0
-11 -12 -23 -27z"/>
<path d="M5417 5713 c-4 -3 -7 -11 -7 -17 0 -6 5 -5 12 2 6 6 9 14 7 17 -3 3
-9 2 -12 -2z"/>
<path d="M5430 5669 c0 -11 4 -18 10 -14 5 3 7 12 3 20 -7 21 -13 19 -13 -6z"/>
<path d="M5380 5670 c-9 -6 -10 -10 -3 -10 6 0 15 5 18 10 8 12 4 12 -15 0z"/>
<path d="M5507 5615 c-4 -11 -10 -27 -13 -35 -3 -8 1 -5 11 8 9 12 15 28 13
34 -3 7 -7 4 -11 -7z"/>
<path d="M9836 6173 c-6 -14 -5 -15 5 -6 7 7 10 15 7 18 -3 3 -9 -2 -12 -12z"/>
<path d="M9749 6085 c-31 -20 -57 -53 -47 -60 2 -1 23 18 47 42 51 49 51 51 0
18z"/>
<path d="M9805 6044 c-58 -62 -68 -74 -64 -79 3 -2 24 18 48 46 42 49 55 75
16 33z"/>
<path d="M9946 5955 c-22 -19 -35 -35 -30 -35 6 0 25 16 44 35 43 44 36 44
-14 0z"/>
<path d="M9783 5786 c-24 -29 -43 -62 -43 -72 0 -11 9 -1 21 23 11 24 36 56
55 73 19 16 29 30 22 30 -7 -1 -32 -25 -55 -54z"/>
<path d="M10189 5653 c-13 -16 -12 -17 4 -4 16 13 21 21 13 21 -2 0 -10 -8
-17 -17z"/>
<path d="M9735 5439 c-22 -17 -44 -35 -50 -41 -15 -16 51 23 83 49 40 33 13
26 -33 -8z"/>
<path d="M10274 5275 c0 -55 1 -76 3 -47 2 29 2 74 0 100 -2 26 -3 2 -3 -53z"/>
<path d="M10268 5140 c-4 -14 -8 -47 -8 -75 1 -39 3 -46 11 -32 5 9 9 43 7 75
-2 43 -5 51 -10 32z"/>
<path d="M10260 4918 c0 -34 2 -59 4 -57 8 10 14 119 5 119 -5 0 -9 -28 -9
-62z"/>
<path d="M10263 4785 c0 -33 2 -45 4 -27 2 18 2 45 0 60 -2 15 -4 0 -4 -33z"/>
<path d="M10263 4665 c0 -22 2 -30 4 -17 2 12 2 30 0 40 -3 9 -5 -1 -4 -23z"/>
<path d="M10258 4604 c-5 -4 -8 -35 -7 -68 1 -61 1 -61 10 -21 11 44 8 101 -3
89z"/>
<path d="M10248 4433 c-2 -5 -1 -37 3 -73 l6 -65 1 73 c2 65 -1 85 -10 65z"/>
<path d="M10245 4270 c-3 -5 -1 -10 4 -10 6 0 11 5 11 10 0 6 -2 10 -4 10 -3
0 -8 -4 -11 -10z"/>
<path d="M10253 4185 c0 -27 2 -38 4 -22 2 15 2 37 0 50 -2 12 -4 0 -4 -28z"/>
<path d="M10247 4109 c4 -13 8 -18 11 -10 2 7 -1 18 -6 23 -8 8 -9 4 -5 -13z"/>
<path d="M10240 3969 c0 -33 4 -58 9 -55 11 7 12 116 0 116 -5 0 -9 -27 -9
-61z"/>
<path d="M10241 3850 c0 -33 1 -34 11 -12 8 17 8 26 0 34 -9 9 -12 4 -11 -22z"/>
<path d="M9585 3499 c-4 -6 -5 -12 -2 -15 2 -3 7 2 10 11 7 17 1 20 -8 4z"/>
<path d="M9785 3470 c-3 -5 -1 -10 4 -10 6 0 11 5 11 10 0 6 -2 10 -4 10 -3 0
-8 -4 -11 -10z"/>
<path d="M9895 3209 c-4 -6 -5 -12 -2 -15 2 -3 7 2 10 11 7 17 1 20 -8 4z"/>
<path d="M5156 5513 c-6 -14 -5 -15 5 -6 7 7 10 15 7 18 -3 3 -9 -2 -12 -12z"/>
<path d="M5129 5473 c-13 -16 -12 -17 4 -4 9 7 17 15 17 17 0 8 -8 3 -21 -13z"/>
<path d="M5187 5413 c-4 -3 -7 -11 -7 -17 0 -6 5 -5 12 2 6 6 9 14 7 17 -3 3
-9 2 -12 -2z"/>
<path d="M5130 5310 c-6 -11 -8 -20 -6 -20 3 0 10 9 16 20 6 11 8 20 6 20 -3
0 -10 -9 -16 -20z"/>
<path d="M5196 5234 c-5 -14 -4 -15 9 -4 17 14 19 20 6 20 -5 0 -12 -7 -15
-16z"/>
<path d="M5090 5059 c-12 -16 -21 -32 -18 -34 2 -2 13 12 26 31 28 42 21 45
-8 3z"/>
<path d="M5089 4263 c-13 -16 -12 -17 4 -4 9 7 17 15 17 17 0 8 -8 3 -21 -13z"/>
<path d="M5129 4123 l-24 -28 28 24 c15 14 27 26 27 28 0 8 -8 1 -31 -24z"/>
<path d="M5259 4083 c-13 -16 -12 -17 4 -4 16 13 21 21 13 21 -2 0 -10 -8 -17
-17z"/>
<path d="M5090 4075 c-7 -9 -8 -15 -2 -15 5 0 12 7 16 15 3 8 4 15 2 15 -2 0
-9 -7 -16 -15z"/>
<path d="M5129 3943 l-24 -28 28 24 c15 14 27 26 27 28 0 8 -8 1 -31 -24z"/>
<path d="M5189 3813 l-24 -28 28 24 c25 23 32 31 24 31 -2 0 -14 -12 -28 -27z"/>
<path d="M5134 3748 l-19 -23 23 19 c12 11 22 21 22 23 0 8 -8 2 -26 -19z"/>
<path d="M5449 3673 c-13 -16 -12 -17 4 -4 9 7 17 15 17 17 0 8 -8 3 -21 -13z"/>
<path d="M5229 3643 c-13 -16 -12 -17 4 -4 16 13 21 21 13 21 -2 0 -10 -8 -17
-17z"/>
<path d="M5179 3583 l-24 -28 28 24 c15 14 27 26 27 28 0 8 -8 1 -31 -24z"/>
<path d="M5404 3398 l-19 -23 23 19 c21 18 27 26 19 26 -2 0 -12 -10 -23 -22z"/>
<path d="M5769 3403 c-13 -16 -12 -17 4 -4 16 13 21 21 13 21 -2 0 -10 -8 -17
-17z"/>
<path d="M5369 3353 c-13 -16 -12 -17 4 -4 9 7 17 15 17 17 0 8 -8 3 -21 -13z"/>
<path d="M5299 3273 c-13 -16 -12 -17 4 -4 9 7 17 15 17 17 0 8 -8 3 -21 -13z"/>
<path d="M5699 3270 c-13 -10 -19 -19 -13 -20 6 0 19 9 29 20 23 26 14 26 -16
0z"/>
<path d="M5563 3206 c-9 -17 -113 -105 -230 -195 -82 -63 -110 -91 -55 -54 71
46 302 238 302 250 0 17 -7 17 -17 -1z"/>
<path d="M5400 3179 c0 -5 5 -7 10 -4 6 3 10 8 10 11 0 2 -4 4 -10 4 -5 0 -10
-5 -10 -11z"/>
<path d="M5349 3117 c-54 -69 -51 -78 4 -12 21 25 34 45 30 45 -4 0 -20 -15
-34 -33z"/>
<path d="M5273 3013 c-9 -16 -22 -34 -27 -42 -8 -11 -8 -13 0 -8 13 7 56 77
49 77 -3 0 -12 -12 -22 -27z"/>
<path d="M5646 5484 c-4 -9 -4 -19 -1 -22 2 -3 7 3 11 12 4 9 4 19 1 22 -2 3
-7 -3 -11 -12z"/>
<path d="M5820 3280 c-6 -11 -8 -20 -6 -20 3 0 10 9 16 20 6 11 8 20 6 20 -3
0 -10 -9 -16 -20z"/>
<path d="M9640 3287 c0 -3 18 -20 40 -37 22 -17 40 -29 40 -27 0 3 -18 20 -40
37 -22 17 -40 29 -40 27z"/>
<path d="M9737 3211 c6 -7 9 -20 6 -27 -3 -8 -3 -14 0 -14 14 0 14 30 -1 41
-14 11 -15 11 -5 0z"/>
<path d="M5699 3173 l-34 -38 38 34 c34 33 42 41 34 41 -2 0 -19 -17 -38 -37z"/>
<path d="M9809 3073 c-13 -16 -12 -17 4 -4 16 13 21 21 13 21 -2 0 -10 -8 -17
-17z"/>
<path d="M5549 3033 c-13 -16 -12 -17 4 -4 9 7 17 15 17 17 0 8 -8 3 -21 -13z"/>
<path d="M5874 2982 c-28 -26 -57 -56 -64 -67 -8 -11 16 9 53 45 61 59 72 70
65 70 -2 0 -26 -22 -54 -48z"/>
<path d="M6460 2989 c-25 -23 -36 -36 -25 -31 19 10 84 73 74 72 -2 -1 -24
-19 -49 -41z"/>
<path d="M7399 3013 c-13 -16 -12 -17 4 -4 9 7 17 15 17 17 0 8 -8 3 -21 -13z"/>
<path d="M5630 2994 c-13 -13 -20 -24 -14 -24 12 0 50 38 43 44 -2 2 -15 -7
-29 -20z"/>
<path d="M5479 2973 l-34 -38 38 34 c34 33 42 41 34 41 -2 0 -19 -17 -38 -37z"/>
<path d="M6052 2987 c-12 -13 -22 -27 -22 -33 0 -5 11 4 25 20 14 16 25 31 25
33 0 7 -8 2 -28 -20z"/>
<path d="M7810 2975 c-11 -13 -10 -14 4 -9 9 3 16 10 16 15 0 13 -6 11 -20 -6z"/>
<path d="M5373 2955 c-12 -8 -36 -34 -54 -57 -31 -41 -30 -40 24 12 31 30 57
56 57 57 0 5 -6 3 -27 -12z"/>
<path d="M6644 2948 l-19 -23 23 19 c12 11 22 21 22 23 0 8 -8 2 -26 -19z"/>
<path d="M5945 2871 l-49 -56 57 55 c31 30 57 56 57 57 0 12 -22 -7 -65 -56z"/>
<path d="M9549 2903 l-24 -28 28 24 c15 14 27 26 27 28 0 8 -8 1 -31 -24z"/>
<path d="M5529 2893 l-24 -28 28 24 c15 14 27 26 27 28 0 8 -8 1 -31 -24z"/>
<path d="M8845 2910 c-3 -5 -2 -10 4 -10 5 0 13 5 16 10 3 6 2 10 -4 10 -5 0
-13 -4 -16 -10z"/>
<path d="M6969 2861 c-45 -40 -64 -50 -100 -54 -24 -2 66 -4 200 -5 134 -1
242 1 239 4 -3 3 -91 5 -194 5 l-189 0 55 49 c30 27 53 49 50 50 -3 0 -30 -22
-61 -49z"/>
<path d="M5644 2868 l-19 -23 23 19 c21 18 27 26 19 26 -2 0 -12 -10 -23 -22z"/>
<path d="M6549 2873 c-13 -16 -12 -17 4 -4 16 13 21 21 13 21 -2 0 -10 -8 -17
-17z"/>
<path d="M10095 2880 c3 -5 8 -10 11 -10 2 0 4 5 4 10 0 6 -5 10 -11 10 -5 0
-7 -4 -4 -10z"/>
<path d="M7412 2846 c-20 -19 -48 -36 -62 -39 -14 -2 70 -4 185 -4 116 1 184
2 152 4 -50 3 -58 7 -52 20 5 15 4 15 -13 0 -15 -14 -39 -17 -120 -17 -56 0
-102 4 -102 9 0 5 15 21 33 35 17 14 29 26 25 26 -5 0 -25 -15 -46 -34z"/>
<path d="M8025 2820 c-11 -4 -32 -6 -46 -3 -15 3 -30 0 -33 -6 -5 -8 15 -11
66 -10 40 0 66 3 58 6 -8 3 -17 9 -20 13 -3 4 -14 4 -25 0z"/>
<path d="M8240 2810 c0 -5 9 -10 20 -10 11 0 20 5 20 10 0 6 -9 10 -20 10 -11
0 -20 -4 -20 -10z"/>
<path d="M8348 2813 c23 -2 61 -2 85 0 23 2 4 4 -43 4 -47 0 -66 -2 -42 -4z"/>
<path d="M8678 2813 c7 -3 16 -2 19 1 4 3 -2 6 -13 5 -11 0 -14 -3 -6 -6z"/>
<path d="M8798 2813 c7 -3 16 -2 19 1 4 3 -2 6 -13 5 -11 0 -14 -3 -6 -6z"/>
<path d="M8938 2813 c7 -3 16 -2 19 1 4 3 -2 6 -13 5 -11 0 -14 -3 -6 -6z"/>
<path d="M8983 2813 c9 -2 25 -2 35 0 9 3 1 5 -18 5 -19 0 -27 -2 -17 -5z"/>
<path d="M7828 2803 c18 -2 45 -2 60 0 15 2 0 4 -33 4 -33 0 -45 -2 -27 -4z"/>
<path d="M6365 3799 c-55 -44 -209 -166 -342 -271 -134 -105 -241 -193 -239
-195 4 -5 81 54 311 237 77 61 195 154 263 206 67 53 122 97 122 100 0 11 -23
-4 -115 -77z"/>
<path d="M8910 7500 l-45 -7 53 -1 c29 -1 52 2 52 8 0 6 -3 9 -7 8 -5 0 -28
-4 -53 -8z"/>
<path d="M5337 6170 c-23 -22 -37 -39 -32 -39 15 0 102 79 87 79 -7 0 -32 -18
-55 -40z"/>
</g>
</svg>
