<?xml version="1.0" standalone="no"?>
<!DOCTYPE svg PUBLIC "-//W3C//DTD SVG 20010904//EN"
 "http://www.w3.org/TR/2001/REC-SVG-20010904/DTD/svg10.dtd">
<svg version="1.0" xmlns="http://www.w3.org/2000/svg"
 width="170.000000pt" height="214.000000pt" viewBox="0 0 170.000000 214.000000"
 preserveAspectRatio="xMidYMid meet">

<g transform="translate(0.000000,214.000000) scale(0.100000,-0.100000)"
fill="#000000" stroke="none">
<path d="M1096 2003 c-4 -5 -67 -9 -139 -10 -73 -1 -256 -4 -407 -7 -284 -5
-407 -16 -421 -37 -4 -7 -5 -27 -1 -44 4 -16 6 -66 5 -110 -4 -129 -4 -923 0
-1254 1 -168 0 -327 -3 -353 -4 -31 -3 -52 4 -56 6 -4 58 -8 116 -9 58 -2 110
-3 115 -3 99 -3 728 10 736 16 6 3 103 8 216 9 167 2 207 5 220 18 12 12 13
19 3 36 -13 25 -15 576 -3 726 5 49 7 115 6 145 -1 30 -1 109 0 175 1 66 1
164 0 219 -2 97 -2 99 -34 132 -18 19 -40 34 -49 34 -25 0 -58 39 -41 49 14 9
-32 68 -128 161 -31 30 -80 81 -109 113 -49 54 -70 66 -86 50z m4 -123 c1
-102 10 -312 15 -327 3 -8 54 -11 184 -10 100 0 183 -1 185 -4 5 -6 12 -736 9
-989 0 -30 -5 -98 -11 -150 -7 -67 -7 -109 1 -142 6 -27 7 -51 4 -55 -4 -3
-69 -8 -145 -10 -153 -3 -189 -5 -417 -22 -108 -8 -229 -9 -370 -3 -116 4
-250 7 -299 5 l-88 -3 6 72 c8 110 10 712 1 888 -4 98 -3 178 3 218 8 43 8 90
1 150 -8 62 -7 122 2 212 8 92 9 135 0 165 -6 22 -7 43 -3 47 4 4 129 10 277
13 149 3 304 9 345 13 41 4 126 8 187 7 l113 0 0 -75z m228 -147 c73 -78 132
-143 132 -145 0 -2 -58 -4 -128 -5 -71 0 -142 -4 -158 -7 l-29 -7 -2 182 -2
182 28 -29 c15 -16 87 -93 159 -171z m191 -380 l-1 -48 -9 35 c-4 19 -6 41 -4
48 9 25 15 10 14 -35z m-1369 -208 c0 -8 -4 -15 -10 -15 -5 0 -10 7 -10 15 0
8 5 15 10 15 6 0 10 -7 10 -15z m7 -637 c-3 -7 -5 -2 -5 12 0 14 2 19 5 13 2
-7 2 -19 0 -25z"/>
<path d="M420 1570 c-10 -6 -11 -12 -5 -18 14 -12 315 0 318 13 3 13 -293 18
-313 5z"/>
<path d="M417 1443 c-20 -19 4 -23 110 -21 82 2 118 7 121 16 3 9 -24 12 -110
12 -63 0 -118 -3 -121 -7z"/>
<path d="M635 1190 c-121 -3 -221 -7 -222 -8 -2 -1 -3 -7 -3 -13 0 -8 111 -10
406 -5 224 3 410 9 415 12 41 25 -82 28 -596 14z"/>
<path d="M1075 992 c-27 -2 -187 -6 -354 -10 -242 -6 -305 -10 -309 -20 -4
-12 65 -13 414 -7 373 6 470 13 423 29 -20 7 -116 11 -174 8z"/>
<path d="M590 769 c-96 -3 -176 -6 -177 -7 -2 -1 -3 -7 -3 -13 0 -8 91 -9 333
-4 182 4 335 9 340 12 4 2 5 9 1 14 -6 10 -134 10 -494 -2z"/>
<path d="M425 549 c-4 -6 -4 -13 -1 -16 7 -8 321 -4 354 4 12 3 22 9 22 14 0
13 -367 12 -375 -2z"/>
</g>
</svg>
