<?xml version="1.0" standalone="no"?>
<!DOCTYPE svg PUBLIC "-//W3C//DTD SVG 20010904//EN"
 "http://www.w3.org/TR/2001/REC-SVG-20010904/DTD/svg10.dtd">
<svg version="1.0" xmlns="http://www.w3.org/2000/svg"
 width="299.000000pt" height="220.000000pt" viewBox="0 0 299.000000 220.000000"
 preserveAspectRatio="xMidYMid meet">

<g transform="translate(0.000000,220.000000) scale(0.100000,-0.100000)"
fill="#000000" stroke="none">
<path d="M481 2160 c-80 -11 -165 -26 -190 -35 -25 -8 -55 -16 -66 -18 -28 -4
-65 -29 -65 -44 0 -7 5 -13 11 -13 6 0 9 -14 7 -32 -3 -32 -5 -33 -63 -42 -46
-7 -65 -15 -79 -34 -10 -13 -15 -27 -9 -31 5 -3 8 -200 6 -496 -2 -514 -6
-655 -22 -950 -13 -227 -14 -375 -2 -375 5 0 11 -12 13 -27 3 -25 7 -27 52
-30 27 -2 63 1 80 7 44 14 244 46 406 64 267 30 296 30 660 1 25 -2 55 -4 68
-5 15 0 22 -6 22 -20 0 -28 57 -49 138 -50 37 -1 76 1 87 3 65 13 84 21 94 41
11 20 25 23 150 35 142 13 391 17 452 7 19 -3 61 -8 94 -12 93 -9 115 -11 185
-23 36 -5 85 -12 110 -15 25 -3 81 -13 125 -22 71 -14 113 -18 153 -15 6 1 12
8 12 16 0 8 5 15 11 15 8 0 9 56 5 198 -22 679 -26 851 -27 1242 0 350 -3 439
-14 453 -9 13 -30 20 -64 22 -28 2 -56 7 -61 10 -14 9 -13 42 2 47 22 8 -24
57 -47 52 -12 -3 -34 0 -50 6 -38 15 -205 53 -307 70 -51 8 -122 11 -210 7
-162 -7 -188 -11 -308 -49 -52 -17 -115 -36 -140 -43 -45 -13 -150 -64 -175
-85 -22 -18 -72 -20 -86 -4 -37 44 -306 155 -373 153 l-31 -1 35 -13 35 -14
-40 6 c-22 3 -51 10 -65 14 -25 7 -24 7 5 9 23 2 16 5 -30 16 -100 24 -329 26
-494 4z m462 -17 c-7 -2 -21 -2 -30 0 -10 3 -4 5 12 5 17 0 24 -2 18 -5z
m1416 -9 c2 -2 -21 -4 -52 -4 -31 0 -57 4 -57 8 0 8 100 4 109 -4z m-1378 -19
c118 -20 226 -57 360 -125 l114 -57 0 -676 c0 -371 4 -679 8 -683 4 -4 7 165
7 376 0 211 3 380 8 375 4 -6 5 -210 2 -455 -3 -245 -7 -423 -8 -396 -1 27 -5
46 -9 42 -4 -4 -6 -72 -4 -152 l3 -145 -64 44 c-85 60 -125 79 -249 120 -185
62 -250 72 -484 72 -134 0 -233 -5 -275 -13 -93 -19 -152 -32 -173 -38 -18 -6
-18 3 -13 168 6 205 8 375 5 478 -3 70 -3 68 -9 -35 -5 -87 -6 -67 -6 95 0
135 2 172 5 110 3 -52 9 -90 12 -85 7 11 14 392 14 733 0 208 0 209 38 203 4
-1 34 5 65 13 68 17 244 44 322 49 84 6 235 -3 331 -18z m-536 5 c-16 -4 -41
-8 -55 -8 -22 0 -22 1 5 8 17 4 41 8 55 8 22 0 22 -1 -5 -8z m1926 -11 c35 -5
126 -23 202 -41 l137 -32 2 -486 c1 -267 4 -447 7 -400 l6 85 6 -60 c3 -33 5
-123 5 -200 1 -77 -1 -110 -3 -72 -2 37 -9 67 -14 67 -7 0 -9 -95 -6 -295 3
-162 3 -295 2 -295 -2 0 -15 4 -29 10 -14 5 -45 12 -70 14 -24 3 -73 12 -107
20 -68 16 -218 30 -309 29 -214 -1 -509 -90 -664 -200 l-48 -34 6 248 c3 136
5 329 6 429 l0 180 36 10 c19 5 34 14 32 19 -2 6 -5 9 -8 9 -3 -1 -17 -4 -33
-8 l-27 -6 2 417 c3 364 5 418 18 418 8 1 34 13 58 28 103 66 285 128 422 144
25 3 47 7 50 9 7 8 251 2 321 -7z m157 1 c6 0 12 -4 12 -8 0 -4 -16 -6 -35 -4
-19 2 -35 9 -35 14 0 6 10 8 23 4 12 -3 28 -6 35 -6z m-648 -5 c0 -6 -73 -25
-78 -20 -3 3 6 9 19 14 26 10 59 14 59 6z m-650 -25 c13 -8 13 -10 -2 -10 -9
0 -20 5 -23 10 -8 13 5 13 25 0z m480 -35 c-14 -8 -32 -14 -40 -14 -9 0 -4 6
10 14 14 8 32 14 40 14 9 0 4 -6 -10 -14z m-1503 -137 c-2 -13 -4 -3 -4 22 0
25 2 35 4 23 2 -13 2 -33 0 -45z m2533 -25 c0 -36 -3 -64 -6 -60 -7 7 -13 108
-7 120 10 18 13 3 13 -60z m-2565 -530 c-4 -324 -10 -680 -14 -793 -5 -159 -3
-207 6 -213 21 -13 16 -55 -8 -62 -11 -4 -22 -5 -24 -3 -6 6 -9 194 -2 204 7
12 12 673 5 680 -7 6 -15 -240 -14 -403 1 -79 -2 -143 -6 -143 -4 0 -7 -12 -6
-27 0 -16 -3 -99 -7 -187 l-8 -158 24 8 c13 4 33 9 44 10 11 1 27 4 35 7 44
15 111 29 117 23 3 -3 11 -2 17 3 16 12 125 29 236 37 137 9 397 -19 435 -46
6 -4 24 -10 40 -13 l30 -6 -32 14 c-18 8 -33 17 -33 19 0 7 129 -34 185 -58
17 -8 48 -19 70 -26 60 -20 25 -24 -52 -7 -190 42 -438 52 -618 24 -201 -32
-229 -37 -340 -58 -60 -12 -126 -24 -145 -27 -19 -2 -41 -9 -49 -15 -11 -9
-12 5 -8 83 13 234 15 312 34 1382 l6 317 36 9 c20 6 40 10 44 11 5 1 6 -263
2 -586z m2653 568 c4 -1 6 -112 5 -249 0 -136 1 -233 4 -217 2 17 9 34 14 39
5 6 7 -44 4 -127 -3 -86 -1 -137 5 -137 6 0 10 -22 10 -50 0 -33 -4 -50 -12
-50 -10 0 -10 -2 -1 -8 10 -6 13 -127 15 -505 2 -273 2 -497 1 -497 -1 0 -23
9 -50 21 -43 18 -274 71 -313 71 -8 0 -86 9 -173 19 -188 23 -365 19 -555 -12
-68 -11 -126 -19 -128 -17 -3 4 185 56 281 79 112 26 340 38 388 20 17 -7 36
-7 51 -1 16 6 58 4 122 -6 53 -8 98 -13 100 -11 6 6 -143 36 -236 48 -105 14
-319 18 -326 7 -3 -5 -9 -6 -13 -4 -12 8 -210 -42 -295 -74 -44 -16 -81 -28
-83 -26 -5 4 89 48 152 71 28 10 55 22 60 27 6 5 -24 -3 -65 -18 -78 -28 -162
-68 -217 -105 -18 -11 -33 -17 -33 -12 0 20 158 103 275 143 77 27 219 59 260
60 11 0 50 4 87 8 141 16 456 -26 550 -73 28 -14 32 -13 44 2 7 10 10 21 8 24
-14 23 -18 1542 -5 1576 1 1 15 -2 31 -7 17 -5 34 -9 38 -9z m-2627 -157 c-8
-104 -8 -105 -9 -34 -2 71 7 155 14 147 2 -2 0 -52 -5 -113z m1289 59 c0 -22
-2 -25 -10 -13 -13 20 -13 40 0 40 6 0 10 -12 10 -27z m-13 -80 c-3 -10 -5 -2
-5 17 0 19 2 27 5 18 2 -10 2 -26 0 -35z m1380 -5 c-2 -13 -4 -5 -4 17 -1 22
1 32 4 23 2 -10 2 -28 0 -40z m-130 -20 c-2 -13 -4 -3 -4 22 0 25 2 35 4 23 2
-13 2 -33 0 -45z m-2660 20 c-3 -7 -5 -2 -5 12 0 14 2 19 5 13 2 -7 2 -19 0
-25z m1422 -150 c-1 -73 -5 -160 -9 -193 -5 -42 -7 -3 -8 133 -1 116 3 192 8
192 6 0 10 -54 9 -132z m1368 40 c-2 -18 -4 -6 -4 27 0 33 2 48 4 33 2 -15 2
-42 0 -60z m-2790 -35 c-2 -21 -4 -4 -4 37 0 41 2 58 4 38 2 -21 2 -55 0 -75z
m2660 35 c-3 -8 -6 -5 -6 6 -1 11 2 17 5 13 3 -3 4 -12 1 -19z m130 -100 c-2
-13 -4 -5 -4 17 -1 22 1 32 4 23 2 -10 2 -28 0 -40z m-2790 -50 c-3 -8 -6 -5
-6 6 -1 11 2 17 5 13 3 -3 4 -12 1 -19z m130 -70 c-3 -7 -5 -2 -5 12 0 14 2
19 5 13 2 -7 2 -19 0 -25z m2536 -8 c-7 -28 -13 -25 -13 6 0 14 4 23 9 20 5
-3 7 -15 4 -26z m-6 -112 c-3 -7 -5 -2 -5 12 0 14 2 19 5 13 2 -7 2 -19 0 -25z
m-2530 -450 c-2 -13 -4 -5 -4 17 -1 22 1 32 4 23 2 -10 2 -28 0 -40z m2540
-110 c-2 -18 -4 -4 -4 32 0 36 2 50 4 33 2 -18 2 -48 0 -65z m-2550 -20 c-3
-8 -6 -5 -6 6 -1 11 2 17 5 13 3 -3 4 -12 1 -19z m460 -264 c-3 -3 -12 -4 -19
-1 -8 3 -5 6 6 6 11 1 17 -2 13 -5z m131 -1 c-10 -2 -26 -2 -35 0 -10 3 -2 5
17 5 19 0 27 -2 18 -5z m165 -17 c60 -14 92 -30 41 -21 -146 28 -167 33 -134
34 19 0 61 -5 93 -13z m1167 -6 c-69 -9 -143 -21 -165 -25 -22 -4 -37 -5 -34
-1 14 15 187 45 254 44 67 0 64 -1 -55 -18z m-1192 -16 c120 -21 248 -66 372
-131 108 -57 133 -73 127 -80 -3 -2 -31 12 -64 32 -84 50 -203 99 -314 128
-109 29 -202 43 -179 28 8 -6 25 -11 37 -11 48 0 261 -63 339 -100 46 -21 84
-41 84 -43 0 -3 -43 13 -96 35 -241 99 -610 125 -899 62 -139 -30 -132 -30
-127 4 4 27 9 32 51 41 281 62 460 72 669 35z m307 -60 c20 -8 35 -17 33 -20
-6 -5 -78 24 -78 31 0 7 4 6 45 -11z m-221 -131 c55 -4 76 -10 72 -18 -3 -10
2 -10 24 -2 21 8 42 8 77 0 26 -7 65 -14 86 -18 20 -3 37 -10 37 -16 0 -5 -11
-6 -27 -2 -16 4 -152 7 -303 7 -335 1 -555 -19 -888 -81 -26 -4 -32 -2 -32 11
0 10 5 14 10 11 6 -4 18 -1 26 6 18 15 94 29 94 18 0 -5 -5 -9 -12 -9 -6 0 -8
-3 -4 -7 4 -5 13 0 20 9 8 11 44 23 102 33 49 9 103 20 119 25 17 5 73 14 125
21 52 6 97 13 99 15 7 6 291 5 375 -3z m1354 -4 c53 -6 107 -17 119 -25 27
-17 37 -18 27 -3 -4 7 -2 9 7 6 15 -6 73 -23 199 -59 41 -12 89 -21 106 -20
17 1 40 -5 50 -13 18 -14 18 -14 -7 -15 -14 0 -28 3 -32 6 -3 3 -27 7 -54 9
-26 1 -127 14 -224 28 -314 47 -576 57 -856 32 -40 -4 -63 -2 -63 5 0 5 6 10
13 10 8 0 58 7 113 16 54 8 128 18 164 21 36 3 67 7 69 9 9 9 277 3 369 -7z
m245 -36 c-7 -2 -19 -2 -25 0 -7 3 -2 5 12 5 14 0 19 -2 13 -5z m-1248 -13 c3
-5 -3 -10 -14 -10 -12 0 -21 5 -21 10 0 6 6 10 14 10 8 0 18 -4 21 -10z m1340
-5 c54 -17 33 -18 -30 -1 -27 8 -41 14 -30 14 11 0 38 -5 60 -13z m-1195 -28
c0 -7 4 -7 12 1 17 17 28 15 22 -5 -5 -17 -5 -17 6 0 6 9 16 15 21 11 17 -10
-12 -34 -42 -34 -19 0 -29 5 -29 15 0 8 -4 15 -10 15 -5 0 -9 -6 -7 -12 1 -7
-9 -14 -23 -16 -24 -2 -24 -2 -6 13 13 10 15 15 6 15 -7 0 -21 -7 -31 -16 -11
-10 -25 -13 -38 -9 -25 8 -27 21 -5 29 8 3 12 2 9 -4 -8 -13 5 -12 33 4 26 14
82 9 82 -7z m90 -26 c0 -5 -7 -12 -16 -15 -24 -9 -28 -7 -14 9 14 17 30 20 30
6z m-214 -26 c16 -12 16 -14 3 -15 -9 0 -22 7 -29 15 -16 19 0 19 26 0z m117
-12 c-13 -2 -33 -2 -45 0 -13 2 -3 4 22 4 25 0 35 -2 23 -4z m1314 1 c-3 -3
-12 -4 -19 -1 -8 3 -5 6 6 6 11 1 17 -2 13 -5z m68 -4 c3 -5 -1 -10 -9 -10 -9
0 -16 5 -16 10 0 6 4 10 9 10 6 0 13 -4 16 -10z"/>
<path d="M648 1903 c7 -3 16 -2 19 1 4 3 -2 6 -13 5 -11 0 -14 -3 -6 -6z"/>
<path d="M748 1903 c6 -2 18 -2 25 0 6 3 1 5 -13 5 -14 0 -19 -2 -12 -5z"/>
<path d="M798 1903 c7 -3 16 -2 19 1 4 3 -2 6 -13 5 -11 0 -14 -3 -6 -6z"/>
<path d="M516 1869 c-29 -35 -40 -66 -33 -100 3 -18 5 -16 6 9 1 38 14 67 44
100 11 12 18 22 15 22 -4 0 -18 -14 -32 -31z"/>
<path d="M873 1893 c9 -2 25 -2 35 0 9 3 1 5 -18 5 -19 0 -27 -2 -17 -5z"/>
<path d="M950 1881 c37 -12 109 -22 85 -12 -11 5 -40 11 -65 15 -30 4 -36 3
-20 -3z"/>
<path d="M1075 1850 c11 -5 27 -9 35 -9 9 0 8 4 -5 9 -11 5 -27 9 -35 9 -9 0
-8 -4 5 -9z"/>
<path d="M481 1714 c0 -11 3 -14 6 -6 3 7 2 16 -1 19 -3 4 -6 -2 -5 -13z"/>
<path d="M471 1675 c-1 -11 -4 -31 -6 -45 l-6 -25 11 25 c6 13 9 33 7 45 -4
19 -4 19 -6 0z"/>
<path d="M848 1643 c12 -2 30 -2 40 0 9 3 -1 5 -23 4 -22 0 -30 -2 -17 -4z"/>
<path d="M725 1616 c-41 -25 -93 -82 -114 -126 l-12 -25 18 25 c41 58 101 114
138 131 22 10 33 19 25 19 -8 0 -33 -11 -55 -24z"/>
<path d="M436 1557 c-9 -24 -32 -71 -51 -103 -19 -32 -25 -48 -14 -34 25 29
94 168 87 176 -3 2 -13 -15 -22 -39z"/>
<path d="M1120 1590 c8 -5 20 -10 25 -10 6 0 3 5 -5 10 -8 5 -19 10 -25 10 -5
0 -3 -5 5 -10z"/>
<path d="M1258 1548 c5 -5 16 -8 23 -6 8 3 3 7 -10 11 -17 4 -21 3 -13 -5z"/>
<path d="M571 1409 c-6 -18 -9 -34 -7 -36 2 -2 9 10 15 28 6 18 9 34 7 36 -2
2 -9 -10 -15 -28z"/>
<path d="M844 1351 c-31 -19 -110 -118 -101 -127 2 -3 15 11 26 30 12 20 43
54 68 76 51 45 52 49 7 21z"/>
<path d="M542 1323 c-15 -48 -8 -55 8 -8 7 20 10 38 8 41 -3 2 -10 -13 -16
-33z"/>
<path d="M516 1255 c-9 -26 -7 -32 5 -12 6 10 9 21 6 23 -2 3 -7 -2 -11 -11z"/>
<path d="M489 1198 c-7 -13 -19 -34 -28 -48 -10 -15 -11 -21 -3 -16 13 8 56
86 48 86 -3 0 -11 -10 -17 -22z"/>
<path d="M700 1135 c-12 -31 -20 -58 -18 -61 3 -2 15 21 26 53 12 31 20 59 18
60 -2 2 -14 -21 -26 -52z"/>
<path d="M1130 1151 c0 -5 19 -14 43 -19 23 -6 53 -14 66 -18 17 -5 23 -4 19
6 -7 23 -128 52 -128 31z"/>
<path d="M979 1130 c-38 -20 -65 -47 -57 -56 3 -3 23 7 44 21 20 14 48 28 61
31 13 4 23 10 23 15 0 14 -32 10 -71 -11z"/>
<path d="M417 1102 c-19 -20 -23 -37 -7 -27 10 6 33 45 27 45 -2 0 -11 -8 -20
-18z"/>
<path d="M1333 1097 c5 -16 78 -30 90 -18 12 12 1 17 -56 25 -27 3 -37 1 -34
-7z"/>
<path d="M369 1053 c-13 -16 -12 -17 4 -4 9 7 17 15 17 17 0 8 -8 3 -21 -13z"/>
<path d="M640 1001 c-11 -23 -18 -41 -16 -41 8 0 48 71 43 76 -3 3 -15 -12
-27 -35z"/>
<path d="M852 960 c-30 -69 -36 -93 -21 -88 14 5 52 106 45 123 -2 5 -13 -10
-24 -35z"/>
<path d="M552 884 c-73 -75 -74 -85 -1 -17 42 39 79 85 67 82 -2 0 -31 -29
-66 -65z"/>
<path d="M1183 843 c9 -2 25 -2 35 0 9 3 1 5 -18 5 -19 0 -27 -2 -17 -5z"/>
<path d="M1114 824 c-18 -14 -18 -14 6 -3 31 14 36 19 24 19 -6 0 -19 -7 -30
-16z"/>
<path d="M1050 785 c-20 -24 -6 -28 15 -5 10 11 13 20 8 20 -6 0 -16 -7 -23
-15z"/>
<path d="M410 780 c-8 -5 -10 -10 -5 -10 6 0 17 5 25 10 8 5 11 10 5 10 -5 0
-17 -5 -25 -10z"/>
<path d="M721 729 c-53 -59 -61 -81 -23 -60 27 14 92 91 92 108 0 23 -14 13
-69 -48z"/>
<path d="M1006 721 c-23 -43 -20 -52 5 -12 11 18 18 35 15 38 -2 3 -12 -9 -20
-26z"/>
<path d="M483 603 c-35 -8 -63 -19 -63 -24 0 -12 29 -12 66 0 16 5 41 12 57
15 15 4 27 11 27 16 0 12 -9 12 -87 -7z"/>
<path d="M2311 1874 c-12 -20 -20 -38 -18 -40 2 -2 14 14 26 36 28 50 21 53
-8 4z"/>
<path d="M1884 1869 c-19 -22 -19 -22 4 -8 12 8 22 17 22 21 0 12 -6 9 -26
-13z"/>
<path d="M1695 1799 c-4 -6 -5 -12 -2 -15 2 -3 7 2 10 11 7 17 1 20 -8 4z"/>
<path d="M1826 1783 c-6 -14 -5 -15 5 -6 7 7 10 15 7 18 -3 3 -9 -2 -12 -12z"/>
<path d="M1811 1734 c0 -11 3 -14 6 -6 3 7 2 16 -1 19 -3 4 -6 -2 -5 -13z"/>
<path d="M2140 1715 c-11 -14 -7 -23 35 -65 l49 -50 -43 -44 c-29 -29 -42 -50
-38 -60 9 -24 19 -20 67 29 l44 45 48 -47 c45 -45 49 -46 65 -30 16 16 15 20
-29 64 l-47 48 45 49 c41 44 44 51 30 65 -14 14 -21 11 -66 -34 l-50 -49 -48
47 c-43 43 -50 46 -62 32z"/>
<path d="M1812 1614 c-3 -48 -22 -95 -55 -139 -29 -37 -29 -38 -4 -16 40 36
69 103 64 148 -3 33 -4 34 -5 7z"/>
<path d="M1684 1417 c-18 -12 -40 -28 -50 -35 -11 -7 -1 -3 22 7 22 11 46 27
53 35 17 20 13 19 -25 -7z"/>
<path d="M2061 1370 c-22 -27 -41 -51 -41 -54 0 -25 67 31 91 75 20 39 -11 26
-50 -21z"/>
<path d="M2201 1272 c-17 -31 -13 -40 5 -14 9 13 14 26 11 29 -3 2 -10 -4 -16
-15z"/>
<path d="M2509 1273 c-13 -16 -12 -17 4 -4 16 13 21 21 13 21 -2 0 -10 -8 -17
-17z"/>
<path d="M1892 1253 c-34 -16 -50 -29 -44 -35 11 -11 103 30 110 50 5 17 -4
14 -66 -15z"/>
<path d="M2458 1223 c-18 -21 -31 -43 -25 -43 2 0 13 14 25 30 25 33 24 41 0
13z"/>
<path d="M2143 1150 c-18 -36 -26 -56 -17 -45 22 28 56 95 52 103 -2 4 -18
-22 -35 -58z"/>
<path d="M1703 1172 c-48 -24 -67 -42 -44 -42 22 0 121 51 116 60 -8 14 -12
13 -72 -18z"/>
<path d="M2394 1119 c-14 -28 -24 -53 -22 -55 2 -2 16 21 31 51 15 30 25 55
22 55 -3 0 -16 -23 -31 -51z"/>
<path d="M2050 1032 c-25 -25 -36 -40 -25 -34 23 12 81 70 74 75 -2 2 -24 -17
-49 -41z"/>
<path d="M2711 1044 c0 -11 3 -14 6 -6 3 7 2 16 -1 19 -3 4 -6 -2 -5 -13z"/>
<path d="M2355 1029 c-4 -6 -5 -12 -2 -15 2 -3 7 2 10 11 7 17 1 20 -8 4z"/>
<path d="M2327 965 c-24 -50 -20 -58 4 -12 11 22 19 41 17 43 -3 2 -12 -12
-21 -31z"/>
<path d="M1954 964 c-18 -14 -18 -14 6 -3 31 14 36 19 24 19 -6 0 -19 -7 -30
-16z"/>
<path d="M2525 949 c-9 -17 -15 -33 -13 -35 3 -2 12 12 21 31 21 43 13 47 -8
4z"/>
<path d="M2255 860 c-21 -22 -34 -40 -29 -40 10 0 34 24 63 63 23 29 7 19 -34
-23z"/>
<path d="M1734 874 c-18 -14 -18 -14 6 -3 31 14 36 19 24 19 -6 0 -19 -7 -30
-16z"/>
<path d="M2481 849 c-7 -22 -11 -43 -8 -45 2 -2 9 14 16 37 7 22 11 43 8 45
-2 2 -9 -14 -16 -37z"/>
<path d="M1657 833 c-20 -14 -35 -28 -33 -30 2 -3 23 9 47 26 51 37 40 40 -14
4z"/>
<path d="M2166 785 c-11 -8 -16 -15 -10 -15 5 0 18 7 28 15 11 8 16 15 10 15
-5 0 -18 -7 -28 -15z"/>
<path d="M2461 773 c-1 -6 -4 -20 -7 -30 -5 -17 -5 -17 6 0 6 10 9 23 6 30 -3
9 -5 9 -5 0z"/>
<path d="M1950 710 c-8 -5 -10 -10 -5 -10 6 0 17 5 25 10 8 5 11 10 5 10 -5 0
-17 -5 -25 -10z"/>
<path d="M1888 684 c-39 -21 -35 -28 5 -8 37 19 44 24 31 24 -5 -1 -21 -8 -36
-16z"/>
<path d="M1819 639 c-23 -19 -23 -20 -2 -10 12 6 25 16 28 21 10 16 -1 12 -26
-11z"/>
<path d="M1754 575 c-9 -14 -15 -27 -13 -30 3 -2 12 10 21 26 21 36 15 39 -8
4z"/>
<path d="M140 1875 c-6 -19 -9 -43 -5 -54 3 -11 1 -22 -5 -26 -6 -4 -9 -50 -8
-118 1 -96 2 -103 8 -52 l7 60 1 -72 c1 -40 5 -73 10 -73 4 0 8 83 10 185 2
102 1 185 -1 185 -3 0 -11 -16 -17 -35z m-3 -162 c-2 -16 -4 -3 -4 27 0 30 2
43 4 28 2 -16 2 -40 0 -55z"/>
<path d="M132 1445 c0 -62 1 -66 10 -38 7 21 7 44 0 70 -9 36 -10 34 -10 -32z"/>
<path d="M133 1335 c0 -22 2 -30 4 -17 2 12 2 30 0 40 -3 9 -5 -1 -4 -23z"/>
<path d="M138 1254 c-5 -4 -8 -21 -8 -38 0 -21 3 -27 11 -19 6 6 9 23 7 38 -2
15 -6 23 -10 19z"/>
<path d="M2790 1566 c0 -181 2 -327 4 -325 8 9 13 627 5 640 -5 8 -9 -125 -9
-315z"/>
<path d="M2831 1394 c0 -11 3 -14 6 -6 3 7 2 16 -1 19 -3 4 -6 -2 -5 -13z"/>
<path d="M2793 1175 c0 -33 2 -45 4 -27 2 18 2 45 0 60 -2 15 -4 0 -4 -33z"/>
<path d="M2791 948 c0 -90 4 -284 8 -433 5 -148 7 -272 5 -274 -2 -2 -44 7
-94 19 -50 12 -93 21 -95 18 -2 -2 39 -15 91 -28 52 -13 97 -27 100 -32 3 -4
10 -8 16 -8 7 0 8 49 3 163 -9 187 -12 311 -14 560 -1 110 -5 177 -11 177 -6
0 -10 -60 -9 -162z"/>
<path d="M2844 990 c0 -69 1 -97 3 -62 2 34 2 90 0 125 -2 34 -3 6 -3 -63z"/>
<path d="M2844 475 c0 -55 1 -76 3 -47 2 29 2 74 0 100 -2 26 -3 2 -3 -53z"/>
<path d="M2005 370 c-16 -7 -17 -9 -3 -9 9 -1 20 4 23 9 7 11 7 11 -20 0z"/>
<path d="M2300 377 c3 -3 41 -8 85 -12 76 -6 140 -17 195 -31 17 -5 22 -3 15
4 -5 6 -37 16 -70 22 -64 13 -233 25 -225 17z"/>
<path d="M1940 360 c-8 -5 -10 -10 -5 -10 6 0 17 5 25 10 8 5 11 10 5 10 -5 0
-17 -5 -25 -10z"/>
<path d="M1898 343 c7 -3 16 -2 19 1 4 3 -2 6 -13 5 -11 0 -14 -3 -6 -6z"/>
<path d="M2610 330 c0 -4 14 -13 31 -19 38 -13 39 -13 39 -3 0 5 -16 13 -35
19 -19 6 -35 7 -35 3z"/>
<path d="M2480 262 c0 -5 16 -12 35 -14 19 -2 35 0 35 4 0 4 -6 8 -12 8 -7 0
-23 3 -35 6 -13 4 -23 2 -23 -4z"/>
<path d="M2580 242 c53 -18 85 -24 75 -13 -5 5 -30 12 -55 15 -31 4 -37 3 -20
-2z"/>
<path d="M2675 220 c3 -5 8 -10 11 -10 2 0 4 5 4 10 0 6 -5 10 -11 10 -5 0 -7
-4 -4 -10z"/>
<path d="M595 400 c-4 -6 6 -10 24 -10 16 0 33 5 36 10 4 6 -6 10 -24 10 -16
0 -33 -4 -36 -10z"/>
<path d="M391 379 c-52 -11 -106 -27 -120 -35 -14 -8 -19 -13 -9 -10 22 6 199
42 268 54 l55 9 -50 1 c-27 0 -92 -8 -144 -19z"/>
<path d="M790 390 c20 -13 33 -13 25 0 -3 6 -14 10 -23 10 -15 0 -15 -2 -2
-10z"/>
<path d="M788 193 c18 -2 45 -2 60 0 15 2 0 4 -33 4 -33 0 -45 -2 -27 -4z"/>
<path d="M2070 198 c0 -5 30 -7 68 -7 69 2 62 6 -20 11 -27 2 -48 0 -48 -4z"/>
<path d="M2230 190 c34 -11 60 -11 35 0 -11 5 -29 8 -40 8 -16 0 -15 -2 5 -8z"/>
</g>
</svg>
