<?xml version="1.0" standalone="no"?>
<!DOCTYPE svg PUBLIC "-//W3C//DTD SVG 20010904//EN"
 "http://www.w3.org/TR/2001/REC-SVG-20010904/DTD/svg10.dtd">
<svg version="1.0" xmlns="http://www.w3.org/2000/svg"
 width="1254.000000pt" height="1254.000000pt" viewBox="0 0 1254.000000 1254.000000"
 preserveAspectRatio="xMidYMid meet">

<g transform="translate(0.000000,1254.000000) scale(0.100000,-0.100000)"
fill="#000000" stroke="none">
<path d="M7310 9611 c-25 -11 -77 -26 -115 -35 -108 -25 -134 -36 -194 -77
-123 -85 -223 -175 -269 -242 -34 -50 -54 -70 -75 -74 -35 -7 -96 -76 -133
-151 -26 -51 -29 -67 -29 -151 l1 -95 -86 -90 c-47 -50 -101 -109 -119 -131
-65 -78 -137 -160 -192 -220 -30 -33 -71 -80 -89 -105 -38 -50 -144 -173 -203
-235 -149 -158 -201 -216 -224 -251 -14 -21 -40 -55 -58 -74 -17 -19 -48 -59
-69 -87 -21 -29 -49 -62 -64 -73 -14 -12 -56 -57 -94 -101 -37 -45 -113 -127
-168 -182 -55 -56 -108 -113 -117 -127 -9 -14 -59 -72 -110 -129 -51 -58 -107
-128 -123 -158 -16 -29 -41 -60 -54 -68 -36 -24 -77 -82 -86 -121 -13 -57 6
-105 70 -171 32 -34 65 -74 75 -89 9 -16 29 -38 45 -50 16 -11 52 -46 79 -77
76 -87 160 -156 203 -168 54 -14 95 1 171 65 34 28 80 64 103 79 22 15 49 35
60 45 24 22 134 109 177 140 18 13 44 35 60 50 l27 26 33 -36 c36 -40 89 -70
115 -66 16 3 17 -9 14 -137 -1 -77 -2 -185 -1 -240 3 -124 2 -622 0 -810 -2
-77 -3 -257 -3 -400 0 -143 -1 -372 -2 -510 l-1 -250 -40 -2 c-22 -1 -105 -3
-185 -6 -81 -2 -155 -9 -165 -14 -11 -6 -69 -18 -130 -27 -60 -10 -150 -28
-199 -42 -83 -23 -129 -26 -75 -5 16 7 19 10 7 10 -21 1 -40 -7 -163 -72 -82
-43 -104 -59 -123 -92 -24 -43 -23 -90 3 -131 l14 -22 -117 1 c-117 1 -239
-10 -246 -22 -2 -3 87 -7 199 -9 177 -2 209 -5 247 -22 24 -11 41 -20 38 -20
-3 0 -45 -2 -95 -5 -49 -2 -112 -8 -140 -12 -27 -5 -113 -5 -190 -1 -158 8
-305 -8 -305 -33 0 -7 63 -8 203 -4 668 22 636 23 859 -8 54 -7 101 -16 104
-20 4 -4 -61 -6 -144 -6 -89 0 -170 -5 -199 -13 l-48 -12 35 -6 c51 -9 443 1
454 11 15 13 268 -1 286 -16 21 -17 665 -13 730 5 30 8 68 9 120 4 66 -7 107
-8 133 -5 4 1 7 7 7 14 0 19 252 52 400 53 126 1 528 -12 653 -20 59 -4 78 -2
74 7 -2 7 -35 14 -88 18 -46 3 -91 9 -99 12 -15 7 -175 14 -357 16 -57 1 -103
5 -103 9 0 22 196 53 283 45 39 -4 57 -2 57 5 0 15 -44 26 -78 19 -15 -3 -46
-3 -69 0 l-42 5 21 29 c26 34 26 86 1 137 -36 73 -248 152 -488 182 -49 6
-128 18 -175 25 -47 8 -141 17 -210 21 -69 3 -128 8 -131 9 -3 2 -30 5 -61 6
l-56 2 -5 146 c-7 176 -6 359 4 791 1 36 0 261 -1 500 -4 558 -1 953 6 1105
l6 120 73 63 c45 38 75 57 78 49 6 -19 37 11 37 38 0 12 8 30 19 39 32 29 35
90 6 153 -14 30 -22 59 -19 64 3 5 92 78 197 163 187 149 277 228 422 365 91
86 192 173 213 185 9 5 41 30 70 55 51 43 57 45 120 46 133 3 311 112 312 190
0 13 21 33 62 59 142 91 291 316 340 516 19 80 20 235 2 316 -10 44 -17 82
-16 85 3 12 -99 203 -133 249 -62 84 -195 190 -237 190 -8 0 -32 11 -52 25
-46 31 -139 63 -203 69 -160 16 -218 15 -263 -3z m355 -71 c3 -5 1 -10 -4 -10
-6 0 -11 5 -11 10 0 6 2 10 4 10 3 0 8 -4 11 -10z m-97 -29 c10 -5 38 -12 62
-16 59 -8 110 -24 110 -35 0 -5 28 -24 63 -43 34 -20 83 -53 108 -75 43 -39
132 -159 145 -198 4 -11 18 -48 32 -84 22 -57 25 -80 26 -195 0 -151 -14 -217
-75 -338 -61 -123 -139 -214 -259 -302 l-50 -36 -57 16 c-92 27 -223 95 -308
159 -236 181 -334 285 -490 518 -36 54 -65 103 -65 109 0 7 -6 20 -14 28 -8 9
-19 33 -24 54 -10 34 -8 41 24 90 40 59 153 177 170 177 6 0 29 14 50 31 65
53 188 104 329 137 53 13 202 14 223 3z m-418 -9 c0 -10 -119 -66 -126 -59 -5
5 42 35 86 55 31 13 40 14 40 4z m-201 -115 c-2 -2 -22 -15 -44 -31 l-40 -27
39 35 c22 20 42 34 44 31 3 -3 3 -6 1 -8z m-239 -419 c165 -291 374 -527 618
-698 83 -58 214 -129 287 -155 69 -25 73 -31 34 -54 -67 -41 -133 -56 -198
-44 -244 46 -650 415 -832 756 -36 68 -39 120 -14 199 14 43 40 88 50 88 1 0
26 -42 55 -92z m1470 -48 c0 -13 -1 -13 -10 0 -5 8 -10 22 -10 30 0 13 1 13
10 0 5 -8 10 -22 10 -30z m-3 -87 c-3 -10 -5 -2 -5 17 0 19 2 27 5 18 2 -10 2
-26 0 -35z m-12 -125 c-4 -13 -9 -31 -11 -40 -3 -10 -9 -18 -13 -18 -5 0 -3
18 2 40 6 22 15 40 20 40 4 0 5 -10 2 -22z m-1538 -148 c93 -140 126 -179 240
-290 166 -160 281 -247 396 -297 43 -19 45 -25 13 -50 -21 -16 -85 -72 -421
-369 -49 -44 -155 -132 -235 -196 -80 -64 -158 -128 -175 -142 -16 -14 -33
-25 -36 -26 -4 0 -21 21 -38 48 -17 26 -41 54 -54 63 -56 40 -127 30 -187 -26
-19 -18 -69 -60 -110 -94 -41 -34 -91 -76 -110 -94 -19 -19 -60 -53 -90 -77
-30 -24 -71 -60 -91 -79 -19 -20 -56 -55 -82 -78 -61 -56 -77 -105 -53 -167
10 -25 27 -60 40 -78 l22 -33 -55 -45 c-30 -25 -82 -68 -115 -95 -149 -124
-304 -244 -317 -245 -43 -6 -64 7 -152 93 -52 52 -103 106 -113 121 -9 15 -28
32 -40 36 -13 5 -31 24 -40 42 -9 18 -32 50 -50 71 -19 20 -34 43 -34 50 0 8
27 45 61 83 33 38 66 81 73 97 16 35 251 300 353 397 84 80 186 192 243 270
19 25 109 129 200 229 91 101 169 190 174 200 5 9 50 59 100 111 50 52 118
133 151 180 33 47 80 108 105 136 25 28 59 66 75 85 17 19 55 62 85 95 30 33
84 93 119 132 l65 72 20 -32 c11 -18 39 -62 63 -98z m1498 11 c-9 -28 -20 -51
-25 -51 -9 0 -2 31 19 84 19 48 24 21 6 -33z m-1355 -105 c0 -5 -11 1 -25 14
-14 13 -25 31 -25 39 0 17 49 -36 50 -53z m-517 -41 c-3 -9 -8 -14 -10 -11 -3
3 -2 9 2 15 9 16 15 13 8 -4z m637 -95 c6 -11 9 -20 7 -20 -2 0 -12 9 -22 20
-10 11 -13 20 -7 20 6 0 16 -9 22 -20z m-958 -287 c-63 -73 -102 -110 -102
-96 0 14 141 165 148 159 2 -3 -18 -31 -46 -63z m1748 -17 c0 -3 -4 -8 -10
-11 -5 -3 -10 -1 -10 4 0 6 5 11 10 11 6 0 10 -2 10 -4z m-1924 -180 c-45 -55
-194 -209 -175 -181 17 24 120 146 168 197 47 51 52 39 7 -16z m-481 -546
c-16 -16 -33 -30 -39 -30 -5 0 3 14 19 30 16 17 33 30 39 30 5 0 -3 -13 -19
-30z m1265 -64 c0 -2 -8 -10 -17 -17 -16 -13 -17 -12 -4 4 13 16 21 21 21 13z
m-220 -102 c30 -47 60 -91 66 -97 23 -26 35 -60 30 -82 -3 -13 -36 -50 -73
-82 -37 -32 -109 -94 -159 -138 -131 -116 -305 -245 -329 -245 -20 0 -31 14
-153 202 -28 44 -22 60 41 116 23 19 71 66 107 102 36 37 98 95 139 131 255
221 250 220 331 93z m-282 -1 c-15 -15 -31 -23 -35 -19 -9 8 32 46 50 46 7 0
-1 -12 -15 -27z m412 -93 c0 -5 -2 -10 -4 -10 -3 0 -8 5 -11 10 -3 6 -1 10 4
10 6 0 11 -4 11 -10z m-650 -115 c-19 -19 -38 -35 -43 -35 -6 0 5 16 24 35 19
19 38 35 43 35 6 0 -5 -16 -24 -35z m540 -128 c-36 -34 -67 -61 -69 -60 -7 5
112 123 123 123 6 0 -19 -28 -54 -63z m-180 -151 c0 -3 -4 -8 -10 -11 -5 -3
-10 -1 -10 4 0 6 5 11 10 11 6 0 10 -2 10 -4z m-450 -37 c17 -30 6 -34 -14 -4
-9 14 -12 25 -7 25 6 0 15 -9 21 -21z m468 -402 c5 -499 5 -428 -2 -1177 -3
-366 -6 -766 -7 -890 -1 -130 -6 -233 -12 -244 -8 -16 -5 -23 13 -38 29 -23
51 -23 83 2 21 17 25 27 20 50 l-5 30 79 0 c44 0 104 -4 134 -9 30 -5 108 -14
174 -20 291 -28 484 -69 605 -131 38 -19 57 -50 45 -70 -11 -17 -76 -47 -150
-67 -271 -77 -606 -108 -1125 -106 -336 1 -480 14 -845 73 -82 13 -216 50
-255 70 -53 27 -63 42 -44 68 60 86 443 171 853 189 l133 5 -6 -30 c-6 -25 -3
-33 20 -51 33 -26 56 -27 78 -2 13 14 16 28 11 50 -5 24 -17 933 -16 1191 1
93 8 588 15 955 l7 380 52 47 c67 61 79 61 77 1 -1 -27 -1 -64 0 -83 3 -67 19
0 19 84 1 63 5 81 18 92 10 7 20 10 23 7 3 -2 6 -172 8 -376z m-118 358 c-7
-8 -17 -15 -22 -15 -6 0 -5 7 2 15 7 8 17 15 22 15 6 0 5 -7 -2 -15z m-280
-76 c0 -6 -4 -7 -10 -4 -5 3 -10 11 -10 16 0 6 5 7 10 4 6 -3 10 -11 10 -16z
m-307 -133 c-15 -13 -30 -23 -32 -20 -5 4 41 43 52 44 4 0 -5 -11 -20 -24z
m-473 -117 c0 -14 -17 -10 -23 5 -4 10 -1 13 9 9 7 -3 14 -9 14 -14z m270 -44
c-13 -14 -28 -25 -34 -25 -6 1 3 12 19 25 39 32 45 32 15 0z m660 -66 c0 -5
-4 -9 -10 -9 -5 0 -10 7 -10 16 0 8 5 12 10 9 6 -3 10 -10 10 -16z m0 -43 c0
-8 -4 -18 -10 -21 -5 -3 -10 3 -10 14 0 12 5 21 10 21 6 0 10 -6 10 -14z m0
-46 c0 -5 -4 -10 -10 -10 -5 0 -10 5 -10 10 0 6 5 10 10 10 6 0 10 -4 10 -10z
m-4 -55 c-4 -38 -16 -43 -16 -7 0 18 4 32 9 32 5 0 8 -11 7 -25z m288 -502
c-10 -40 -14 -41 -14 -5 0 18 5 32 10 32 6 0 8 -11 4 -27z m-264 -252 c0 -6
-4 -13 -10 -16 -5 -3 -10 1 -10 9 0 9 5 16 10 16 6 0 10 -4 10 -9z m270 -151
c0 -5 -2 -10 -4 -10 -3 0 -8 5 -11 10 -3 6 -1 10 4 10 6 0 11 -4 11 -10z
m-303 -622 c-3 -7 -5 -2 -5 12 0 14 2 19 5 13 2 -7 2 -19 0 -25z m0 -55 c-3
-10 -5 -4 -5 12 0 17 2 24 5 18 2 -7 2 -21 0 -30z m-244 -430 c-7 -2 -19 -2
-25 0 -7 3 -2 5 12 5 14 0 19 -2 13 -5z m1397 -73 l25 -8 -25 0 c-14 0 -34 3
-45 8 l-20 9 20 -1 c11 0 31 -4 45 -8z m205 -70 c3 -5 -1 -10 -9 -10 -9 0 -16
5 -16 10 0 6 4 10 9 10 6 0 13 -4 16 -10z m-2270 -220 c3 -5 2 -10 -4 -10 -5
0 -13 5 -16 10 -3 6 -2 10 4 10 5 0 13 -4 16 -10z m2205 -7 c-8 -3 -23 -10
-32 -15 -11 -5 -18 -5 -18 1 0 10 23 18 50 19 13 0 13 0 0 -5z m-340 -73 c0
-5 -4 -10 -10 -10 -5 0 -10 5 -10 10 0 6 5 10 10 10 6 0 10 -4 10 -10z m-1015
-40 c7 -12 -54 -12 -100 0 -24 6 -18 8 32 9 34 0 65 -3 68 -9z m460 -10 c-8
-13 -173 -11 -181 1 -3 5 38 9 91 9 65 0 94 -3 90 -10z"/>
<path d="M7422 9473 c-28 -11 0 -18 59 -15 35 2 57 7 49 12 -14 8 -88 11 -108
3z"/>
<path d="M7085 9371 c-53 -30 -82 -57 -72 -67 7 -7 147 77 147 89 0 14 -25 7
-75 -22z"/>
<path d="M8037 9074 c-8 -14 5 -114 14 -114 12 0 11 91 0 109 -5 7 -11 9 -14
5z"/>
<path d="M7940 9016 c0 -18 -3 -49 -6 -67 -5 -27 -4 -32 6 -22 14 13 30 90 23
110 -10 25 -23 13 -23 -21z"/>
<path d="M8029 8865 c-3 -5 -9 -23 -13 -40 -12 -49 -68 -166 -108 -225 -24
-34 -33 -56 -26 -59 12 -4 48 35 70 78 7 14 23 41 35 59 30 46 55 125 51 164
-2 18 -6 29 -9 23z"/>
<path d="M7826 8663 c-8 -16 -33 -48 -55 -73 -40 -45 -49 -60 -32 -60 13 0 97
93 115 128 14 28 15 32 2 32 -9 0 -22 -12 -30 -27z"/>
<path d="M7988 8576 c-9 -18 -31 -50 -49 -70 -33 -39 -34 -55 -1 -37 19 10 82
110 82 131 0 21 -17 9 -32 -24z"/>
<path d="M7784 8447 c-11 -12 -52 -49 -92 -82 -68 -55 -84 -75 -63 -75 28 0
191 145 191 170 0 17 -15 11 -36 -13z"/>
<path d="M7845 8390 c-22 -23 -61 -58 -87 -78 -41 -31 -62 -62 -42 -62 13 0
126 95 150 127 38 51 24 59 -21 13z"/>
<path d="M7567 8388 c-30 -19 -44 -35 -39 -40 13 -13 39 2 76 41 38 40 24 39
-37 -1z"/>
<path d="M7470 8122 c0 -13 81 -43 93 -35 6 4 -7 14 -29 24 -44 20 -64 23 -64
11z"/>
<path d="M7396 8081 c-3 -5 8 -12 24 -15 17 -3 44 -9 60 -12 44 -9 37 11 -9
24 -46 14 -68 15 -75 3z"/>
<path d="M7097 7922 c-29 -26 -68 -61 -87 -76 -111 -90 -136 -125 -65 -91 49
23 246 214 222 215 -10 0 -42 -22 -70 -48z"/>
<path d="M6757 7819 c-35 -29 -47 -49 -29 -49 5 0 26 15 47 33 49 42 31 57
-18 16z"/>
<path d="M6602 7672 c-62 -56 -73 -72 -51 -72 18 0 129 100 129 116 0 23 -12
16 -78 -44z"/>
<path d="M6792 7640 c-22 -17 -39 -36 -37 -43 3 -7 -33 -40 -78 -75 -94 -70
-133 -107 -120 -115 14 -9 50 18 177 132 102 91 135 131 108 131 -4 0 -27 -14
-50 -30z"/>
<path d="M6483 7350 c-13 -10 -23 -21 -23 -24 0 -12 28 -6 40 9 20 24 7 35
-17 15z"/>
<path d="M5440 6514 c-58 -48 -66 -59 -53 -67 4 -3 37 22 73 54 76 69 60 79
-20 13z"/>
<path d="M5265 6345 c-87 -73 -108 -95 -86 -95 16 0 191 150 191 164 0 15 -21
1 -105 -69z"/>
<path d="M5178 6402 c-1 -4 -22 -23 -46 -42 -29 -23 -39 -37 -32 -44 7 -7 27
6 63 42 34 34 46 52 35 52 -9 0 -18 -4 -20 -8z"/>
<path d="M6020 6410 c0 -24 15 -27 24 -4 9 22 8 24 -9 24 -8 0 -15 -9 -15 -20z"/>
<path d="M6106 6324 c-10 -25 -7 -82 4 -89 6 -4 10 15 10 49 0 58 -3 68 -14
40z"/>
<path d="M5655 3890 c-14 -6 2 -9 52 -9 39 -1 75 4 78 9 8 12 -101 12 -130 0z"/>
<path d="M6340 3890 c0 -6 30 -10 73 -9 49 0 66 3 52 9 -28 12 -125 12 -125 0z"/>
<path d="M6515 3880 c3 -5 20 -10 36 -10 18 0 28 4 24 10 -3 6 -20 10 -36 10
-18 0 -28 -4 -24 -10z"/>
<path d="M5420 3870 c-19 -13 56 -13 85 0 15 7 9 9 -25 9 -25 0 -52 -4 -60 -9z"/>
<path d="M6270 4488 c0 -39 4 -68 10 -68 13 0 13 100 0 120 -7 11 -10 -5 -10
-52z"/>
<path d="M7635 3600 c3 -5 22 -10 41 -10 19 0 34 5 34 10 0 6 -18 10 -41 10
-24 0 -38 -4 -34 -10z"/>
<path d="M4790 3447 l-55 -10 35 -10 c37 -10 161 -4 182 9 9 6 5 10 -12 15
-35 10 -85 8 -150 -4z"/>
<path d="M6900 3441 c-8 -5 -11 -13 -7 -17 4 -4 99 -9 210 -11 111 -1 216 -4
232 -5 17 -2 32 2 35 7 9 18 -445 43 -470 26z"/>
<path d="M4602 3432 c-13 -4 -24 -11 -25 -17 -3 -16 43 -16 103 -1 50 13 52
14 20 15 -19 1 -44 3 -55 5 -11 3 -30 1 -43 -2z"/>
</g>
</svg>
