<?xml version="1.0" standalone="no"?>
<!DOCTYPE svg PUBLIC "-//W3C//DTD SVG 20010904//EN"
 "http://www.w3.org/TR/2001/REC-SVG-20010904/DTD/svg10.dtd">
<svg version="1.0" xmlns="http://www.w3.org/2000/svg"
 width="295.000000pt" height="216.000000pt" viewBox="0 0 295.000000 216.000000"
 preserveAspectRatio="xMidYMid meet">

<g transform="translate(0.000000,216.000000) scale(0.100000,-0.100000)"
fill="#000000" stroke="none">
<path d="M80 2146 c0 -7 -9 -16 -21 -19 -14 -4 -18 -10 -13 -19 12 -18 5 -49
-13 -70 -15 -16 -15 -18 0 -18 18 0 37 -29 30 -46 -6 -17 25 -38 40 -27 6 6
27 13 45 16 l32 7 0 -161 c0 -142 2 -160 15 -149 13 11 15 8 15 -21 0 -31 -1
-32 -15 -13 -13 17 -14 12 -15 -58 0 -46 4 -80 11 -84 8 -4 10 9 8 45 -2 28
-1 51 4 51 4 0 7 -33 6 -72 0 -44 -3 -65 -8 -54 -13 32 -17 -2 -10 -89 5 -79
5 -79 7 -18 1 34 5 64 10 66 4 3 5 -50 3 -116 -4 -92 -6 -111 -11 -77 -5 31
-8 4 -9 -85 -2 -116 -1 -396 1 -435 1 -8 0 -113 0 -233 l-2 -218 -49 5 c-40 4
-52 1 -66 -15 -10 -10 -16 -22 -12 -25 3 -3 1 -18 -4 -33 -8 -23 -5 -39 16
-85 25 -55 37 -66 50 -46 4 7 13 6 27 -1 13 -7 37 -8 62 -4 22 4 151 9 286 11
135 1 279 5 320 9 63 4 358 6 725 3 44 0 346 1 670 2 325 1 598 -2 608 -5 10
-5 17 -2 17 5 0 7 9 25 20 40 29 40 25 136 -5 145 -22 7 -70 7 -97 -1 -15 -4
-16 37 -17 513 0 285 1 642 1 793 1 151 1 307 0 346 l-2 70 37 -1 c21 0 43 -4
48 -7 22 -14 50 37 51 92 0 48 -3 57 -29 79 l-28 24 -247 -8 c-598 -18 -2439
-22 -2456 -5 -15 15 -36 12 -36 -4z m2660 -6 c-30 -5 -113 -8 -185 -7 l-130 1
105 6 c58 3 141 6 185 7 77 0 78 0 25 -7z m-1335 -20 c-4 -6 -74 -9 -183 -8
-201 1 -159 14 56 16 87 1 131 -1 127 -8z m513 3 c-10 -2 -26 -2 -35 0 -10 3
-2 5 17 5 19 0 27 -2 18 -5z m345 0 c-57 -2 -149 -2 -205 0 -57 1 -11 3 102 3
113 0 159 -2 103 -3z m527 -60 c0 -36 -3 -43 -19 -43 -11 0 -23 5 -26 10 -5 8
-11 8 -19 1 -7 -6 -26 -10 -42 -10 -16 1 -481 -2 -1032 -5 -709 -5 -1002 -4
-997 3 3 6 2 11 -4 11 -5 0 -11 -4 -13 -9 -3 -10 -405 -18 -414 -8 -3 3 -19 1
-35 -3 -44 -13 -35 2 23 38 29 17 48 32 43 32 -6 0 -34 -15 -62 -34 -29 -19
-57 -37 -63 -41 -7 -4 -10 10 -8 39 0 25 5 46 10 46 5 0 6 -5 2 -12 -5 -8 -2
-9 12 -3 30 14 148 19 140 6 -4 -6 -3 -11 3 -11 5 0 11 4 13 9 4 12 158 24
158 12 0 -5 15 -6 36 -1 20 5 282 9 582 9 300 1 548 4 551 7 3 3 266 4 583 2
l578 -3 0 -42z m60 2 c0 -14 -4 -25 -10 -25 -5 0 -10 11 -10 25 0 14 5 25 10
25 6 0 10 -11 10 -25z m-2773 -32 c-3 -10 -5 -2 -5 17 0 19 2 27 5 18 2 -10 2
-26 0 -35z m1306 -40 c-7 -2 -19 -2 -25 0 -7 3 -2 5 12 5 14 0 19 -2 13 -5z
m1032 -12 l280 -2 3 -282 c1 -155 5 -343 8 -417 14 -319 19 -522 14 -615 -5
-85 -6 -92 -11 -50 -3 28 -6 -17 -7 -100 0 -82 -1 -175 -1 -205 l-1 -55 -92 3
-93 3 3 89 c6 133 20 126 -273 124 -282 -3 -266 5 -256 -130 l6 -81 -189 -7
c-104 -4 -191 -5 -193 -2 -3 2 0 15 7 28 10 21 9 21 -12 -4 l-23 -26 -262 -2
c-145 0 -263 1 -263 4 0 3 11 22 25 42 14 20 25 41 25 46 0 16 -20 -2 -36 -35
-30 -58 -27 -57 -234 -57 l-191 0 20 27 c31 38 15 43 -17 4 l-27 -32 -188 -2
-187 -2 -1 65 c-1 36 -1 109 -1 163 1 53 -2 97 -6 97 -10 0 -9 1012 2 1028 4
8 22 22 40 33 17 10 26 19 20 19 -6 0 -23 -9 -37 -20 l-25 -20 -7 48 c-3 26
-4 105 -1 175 l6 128 178 5 178 6 28 -56 c21 -42 26 -63 21 -88 -5 -24 -4 -29
4 -18 17 24 13 53 -14 106 -14 27 -25 50 -25 51 0 3 796 7 877 3 7 0 13 -20
15 -47 l4 -48 17 37 c21 46 22 58 2 32 -14 -19 -14 -18 -15 4 0 18 5 22 33 22
48 0 422 12 424 14 1 0 39 0 85 0 46 -1 209 -2 363 -3z m-2218 -198 c-2 -16
-4 -3 -4 27 0 30 2 43 4 28 2 -16 2 -40 0 -55z m2520 -55 c-3 -7 -5 -2 -5 12
0 14 2 19 5 13 2 -7 2 -19 0 -25z m-2510 -30 c-3 -8 -6 -5 -6 6 -1 11 2 17 5
13 3 -3 4 -12 1 -19z m12 -805 c1 -76 -3 -123 -9 -123 -6 0 -9 71 -8 198 1
149 3 179 8 122 4 -41 8 -130 9 -197z m11 -180 c0 -16 -5 -35 -10 -43 -7 -11
-10 -4 -10 28 0 23 5 42 10 42 6 0 10 -12 10 -27z m-13 -330 c-2 -21 -4 -4 -4
37 0 41 2 58 4 38 2 -21 2 -55 0 -75z m2241 72 c-3 -3 -72 -8 -154 -11 -105
-3 -145 -2 -134 5 15 11 298 16 288 6z m-388 -35 c0 -5 -6 -10 -14 -10 -8 0
-18 5 -21 10 -3 6 3 10 14 10 12 0 21 -4 21 -10z m152 -3 c6 -9 8 -9 8 1 0 9
30 12 118 12 l117 0 -1 -67 0 -66 -151 -2 c-83 -2 -156 -6 -162 -9 -20 -12
-12 5 12 25 17 16 14 15 -15 -3 -20 -12 -35 -26 -32 -29 2 -4 -8 -6 -21 -6
-22 0 -38 16 -17 17 4 1 21 12 37 26 35 30 15 22 -32 -12 -36 -27 -43 -29 -43
-11 0 6 27 29 60 51 33 21 60 40 60 43 0 5 -13 -2 -67 -39 -23 -15 -44 -28
-47 -28 -3 0 -6 18 -6 41 0 22 4 38 9 35 4 -3 17 3 27 13 22 22 133 28 146 8z
m275 -19 c-3 -7 -5 -2 -5 12 0 14 2 19 5 13 2 -7 2 -19 0 -25z m-27 -126 c0
-9 -237 -8 -247 1 -3 4 51 7 120 7 70 0 127 -3 127 -8z m113 -29 c-7 -2 -21
-2 -30 0 -10 3 -4 5 12 5 17 0 24 -2 18 -5z m-743 -12 c0 -5 -120 -9 -282 -8
-156 0 -256 3 -223 7 94 10 505 11 505 1z m100 -1 c-20 -13 -40 -13 -40 0 0 6
12 10 28 10 21 0 24 -2 12 -10z m283 3 c-34 -2 -93 -2 -130 0 -37 2 -9 3 62 3
72 0 102 -1 68 -3z m-970 -10 c-7 -2 -19 -2 -25 0 -7 3 -2 5 12 5 14 0 19 -2
13 -5z m1469 -16 c6 -9 8 -9 8 1 0 7 14 12 34 12 l34 0 -6 -47 c-2 -27 -6 -50
-8 -52 -2 -2 -48 -3 -103 -4 -71 0 -106 4 -118 14 -9 8 -14 9 -10 3 4 -8 -8
-14 -34 -18 -22 -4 -410 -6 -862 -6 -1062 1 -1144 0 -1162 -6 -29 -12 -14 14
15 26 17 7 33 16 36 21 7 13 -27 -1 -59 -24 -31 -21 -97 -34 -97 -19 0 5 38
29 84 52 l84 41 584 5 c808 6 1319 12 1323 16 9 9 251 -5 257 -15z m-1964 6
c-10 -2 -28 -2 -40 0 -13 2 -5 4 17 4 22 1 32 -1 23 -4z m-552 -25 c4 -6 -5
-21 -22 -35 -37 -29 -44 -29 -44 3 0 23 3 26 25 22 14 -3 25 -2 25 3 0 4 -12
10 -27 12 -27 4 -26 4 4 6 17 0 35 -4 39 -11z m74 0 c0 -9 3 -9 12 0 15 15 82
16 72 1 -4 -8 -1 -8 12 -1 11 5 51 10 89 10 70 1 70 1 36 -14 -18 -8 -59 -30
-91 -49 -72 -44 -116 -47 -77 -6 10 11 8 11 -10 2 -13 -6 -23 -16 -23 -21 0
-6 -22 -10 -50 -10 -27 0 -50 4 -50 10 0 6 -10 5 -25 -2 -14 -6 -28 -8 -32 -5
-3 4 -4 8 -2 10 2 2 23 15 47 30 23 15 42 34 42 42 0 9 10 15 25 15 14 0 25
-5 25 -12z m-183 -45 c-3 -10 -5 -2 -5 17 0 19 2 27 5 18 2 -10 2 -26 0 -35z
m2753 33 c0 -8 -4 -17 -9 -21 -6 -3 -9 4 -8 15 1 23 17 28 17 6z m-825 -85
c24 -5 -104 -9 -320 -9 -198 -1 -376 3 -395 8 -46 11 661 12 715 1z m252 3
c-3 -3 -12 -4 -19 -1 -8 3 -5 6 6 6 11 1 17 -2 13 -5z m-2014 -11 c-7 -2 -21
-2 -30 0 -10 3 -4 5 12 5 17 0 24 -2 18 -5z m515 0 c-64 -2 -172 -2 -240 0
-68 1 -15 3 117 3 132 0 187 -2 123 -3z"/>
<path d="M2610 2060 c0 -11 14 -11 50 0 22 7 21 8 -12 9 -21 1 -38 -3 -38 -9z"/>
<path d="M2493 2053 c9 -2 25 -2 35 0 9 3 1 5 -18 5 -19 0 -27 -2 -17 -5z"/>
<path d="M2568 2053 c6 -2 18 -2 25 0 6 3 1 5 -13 5 -14 0 -19 -2 -12 -5z"/>
<path d="M1078 2043 c7 -3 16 -2 19 1 4 3 -2 6 -13 5 -11 0 -14 -3 -6 -6z"/>
<path d="M1183 2043 c9 -2 25 -2 35 0 9 3 1 5 -18 5 -19 0 -27 -2 -17 -5z"/>
<path d="M1278 2043 c12 -2 32 -2 45 0 12 2 2 4 -23 4 -25 0 -35 -2 -22 -4z"/>
<path d="M1368 2043 c7 -3 16 -2 19 1 4 3 -2 6 -13 5 -11 0 -14 -3 -6 -6z"/>
<path d="M1448 2043 c6 -2 18 -2 25 0 6 3 1 5 -13 5 -14 0 -19 -2 -12 -5z"/>
<path d="M2328 2043 c6 -2 18 -2 25 0 6 3 1 5 -13 5 -14 0 -19 -2 -12 -5z"/>
<path d="M338 2033 c7 -3 16 -2 19 1 4 3 -2 6 -13 5 -11 0 -14 -3 -6 -6z"/>
<path d="M435 2030 c-13 -5 -14 -9 -5 -9 8 0 24 4 35 9 13 5 14 9 5 9 -8 0
-24 -4 -35 -9z"/>
<path d="M555 2030 c-3 -6 1 -7 9 -4 18 7 21 14 7 14 -6 0 -13 -4 -16 -10z"/>
<path d="M253 2023 c9 -2 23 -2 30 0 6 3 -1 5 -18 5 -16 0 -22 -2 -12 -5z"/>
<path d="M2156 1899 c-7 -47 4 -78 15 -39 10 37 10 80 0 80 -5 0 -11 -18 -15
-41z"/>
<path d="M1352 1905 c0 -16 2 -22 5 -12 2 9 2 23 0 30 -3 6 -5 -1 -5 -18z"/>
<path d="M1101 1894 c0 -11 3 -14 6 -6 3 7 2 16 -1 19 -3 4 -6 -2 -5 -13z"/>
<path d="M1069 1822 c-35 -49 -65 -99 -53 -87 20 19 86 116 83 120 -2 2 -16
-13 -30 -33z"/>
<path d="M1320 1810 c-6 -11 -8 -20 -6 -20 3 0 10 9 16 20 6 11 8 20 6 20 -3
0 -10 -9 -16 -20z"/>
<path d="M2460 1805 c-13 -14 -21 -27 -18 -30 2 -3 14 9 27 25 26 37 23 39 -9
5z"/>
<path d="M851 1813 c-1 -6 -4 -20 -7 -30 -5 -17 -5 -17 6 0 6 10 9 23 6 30 -3
9 -5 9 -5 0z"/>
<path d="M616 1765 c-9 -14 -35 -39 -58 -55 -22 -17 -36 -30 -30 -30 15 0 118
97 111 104 -4 4 -14 -5 -23 -19z"/>
<path d="M1450 1750 c-6 -23 -10 -49 -7 -58 2 -9 9 7 15 37 15 64 8 81 -8 21z"/>
<path d="M1240 1717 c-47 -43 -100 -108 -100 -122 0 -4 10 5 22 21 11 16 46
55 77 87 65 67 65 74 1 14z"/>
<path d="M2113 1705 c-22 -58 -11 -78 11 -22 22 54 28 77 18 77 -5 0 -18 -25
-29 -55z"/>
<path d="M990 1699 c-6 -11 -10 -25 -7 -32 2 -6 9 3 15 21 12 36 8 42 -8 11z"/>
<path d="M811 1678 c-5 -13 -22 -40 -37 -59 -21 -25 -22 -29 -6 -15 28 24 66
85 58 93 -3 3 -10 -5 -15 -19z"/>
<path d="M2385 1689 c-4 -6 -5 -12 -2 -15 2 -3 7 2 10 11 7 17 1 20 -8 4z"/>
<path d="M420 1670 l-65 -7 60 -1 c33 -1 67 3 75 8 8 5 11 9 5 8 -5 -1 -39 -4
-75 -8z"/>
<path d="M328 1653 c7 -3 16 -2 19 1 4 3 -2 6 -13 5 -11 0 -14 -3 -6 -6z"/>
<path d="M2372 1640 c0 -14 2 -19 5 -12 2 6 2 18 0 25 -3 6 -5 1 -5 -13z"/>
<path d="M961 1610 c-7 -25 -27 -65 -43 -90 -22 -33 -25 -40 -9 -26 28 26 74
120 69 143 -3 11 -9 2 -17 -27z"/>
<path d="M1460 1600 c0 -16 61 -80 77 -80 10 0 3 15 -23 44 -39 44 -54 54 -54
36z"/>
<path d="M2006 1533 c-27 -29 -46 -56 -43 -60 8 -8 39 20 78 69 46 57 20 50
-35 -9z"/>
<path d="M704 1564 c-18 -14 -18 -15 4 -4 12 6 22 13 22 15 0 8 -5 6 -26 -11z"/>
<path d="M1116 1534 c-4 -14 -5 -29 -2 -31 3 -3 8 7 12 21 3 15 4 29 1 32 -2
3 -8 -7 -11 -22z"/>
<path d="M1369 1533 c-13 -16 -12 -17 4 -4 9 7 17 15 17 17 0 8 -8 3 -21 -13z"/>
<path d="M640 1530 c-9 -6 -10 -10 -3 -10 6 0 15 5 18 10 8 12 4 12 -15 0z"/>
<path d="M2370 1528 c0 -20 19 -72 25 -67 2 3 -2 23 -10 44 -8 22 -14 32 -15
23z"/>
<path d="M1088 1430 c-9 -22 -15 -40 -13 -40 8 0 36 61 33 70 -2 5 -11 -9 -20
-30z"/>
<path d="M1300 1449 c-7 -11 -10 -23 -7 -25 2 -2 9 7 15 21 14 30 7 33 -8 4z"/>
<path d="M1620 1461 c0 -14 80 -74 88 -66 4 4 -11 22 -33 41 -41 35 -55 41
-55 25z"/>
<path d="M821 1434 c-19 -13 -30 -24 -26 -24 9 0 75 40 75 46 0 9 -16 1 -49
-22z"/>
<path d="M1845 1401 c-36 -22 -93 -81 -79 -81 6 0 15 5 21 11 8 8 17 8 31 0
32 -17 40 -12 13 8 l-24 19 41 27 c23 15 42 29 42 31 0 9 -17 3 -45 -15z"/>
<path d="M2440 1404 c0 -6 7 -19 15 -30 8 -10 14 -14 14 -9 0 6 -6 19 -14 29
-8 11 -15 15 -15 10z"/>
<path d="M668 1373 c6 -2 18 -2 25 0 6 3 1 5 -13 5 -14 0 -19 -2 -12 -5z"/>
<path d="M1271 1364 c0 -11 3 -14 6 -6 3 7 2 16 -1 19 -3 4 -6 -2 -5 -13z"/>
<path d="M603 1363 c9 -2 23 -2 30 0 6 3 -1 5 -18 5 -16 0 -22 -2 -12 -5z"/>
<path d="M1024 1338 l-19 -23 23 19 c21 18 27 26 19 26 -2 0 -12 -10 -23 -22z"/>
<path d="M392 1301 c-24 -15 -50 -39 -59 -52 -14 -22 -14 -22 10 2 14 15 41
36 61 48 20 13 36 25 36 27 0 7 -3 5 -48 -25z"/>
<path d="M970 1299 c-22 -18 -22 -19 -3 -10 12 6 25 16 28 21 9 15 3 12 -25
-11z"/>
<path d="M1250 1300 c-6 -11 -8 -20 -6 -20 3 0 10 9 16 20 6 11 8 20 6 20 -3
0 -10 -9 -16 -20z"/>
<path d="M2079 1274 l-45 -45 -42 37 c-25 21 -49 34 -57 30 -23 -9 -18 -21 26
-61 l41 -37 -41 -42 c-38 -38 -40 -44 -26 -56 14 -12 22 -8 58 28 l41 42 43
-42 c40 -39 44 -41 59 -26 15 15 13 19 -25 53 -22 21 -41 41 -41 46 0 5 16 26
35 48 19 21 35 43 35 49 0 26 -19 18 -61 -24z"/>
<path d="M2496 1265 c4 -27 8 -52 10 -54 8 -9 2 65 -7 84 -6 13 -7 4 -3 -30z"/>
<path d="M1210 1245 c-7 -9 -10 -18 -7 -21 3 -3 10 4 17 15 13 25 8 27 -10 6z"/>
<path d="M818 1243 c7 -3 16 -2 19 1 4 3 -2 6 -13 5 -11 0 -14 -3 -6 -6z"/>
<path d="M1640 1205 c-24 -24 -41 -47 -38 -50 6 -7 98 73 98 86 0 18 -17 8
-60 -36z"/>
<path d="M658 1223 c7 -3 16 -2 19 1 4 3 -2 6 -13 5 -11 0 -14 -3 -6 -6z"/>
<path d="M523 1174 c-42 -25 -133 -118 -133 -136 0 -5 15 10 33 34 28 37 59
62 143 115 36 22 -1 11 -43 -13z"/>
<path d="M1044 1134 c-18 -14 -18 -15 4 -4 12 6 22 13 22 15 0 8 -5 6 -26 -11z"/>
<path d="M2483 1105 c-7 -21 -10 -41 -8 -43 7 -7 26 50 23 67 -2 9 -9 -2 -15
-24z"/>
<path d="M1458 1097 c-27 -11 -48 -25 -48 -30 0 -5 8 -6 18 -2 9 4 36 14 60
22 23 8 42 19 42 24 0 13 -19 10 -72 -14z"/>
<path d="M2703 1040 c0 -25 2 -35 4 -22 2 12 2 32 0 45 -2 12 -4 2 -4 -23z"/>
<path d="M723 1045 c-18 -8 -33 -16 -33 -19 0 -5 71 22 79 30 9 8 -15 3 -46
-11z"/>
<path d="M1246 1031 c-33 -9 -61 -22 -64 -29 -2 -8 4 -9 25 -2 15 5 47 14 71
20 23 6 42 15 42 20 0 12 -2 12 -74 -9z"/>
<path d="M1836 994 c-47 -43 -57 -66 -19 -46 28 16 86 79 76 85 -4 3 -30 -15
-57 -39z"/>
<path d="M370 1000 c-6 -11 -8 -20 -6 -20 3 0 10 9 16 20 6 11 8 20 6 20 -3 0
-10 -9 -16 -20z"/>
<path d="M625 979 c-25 -23 -57 -67 -72 -98 -27 -53 -28 -63 -28 -201 -1 -80
-4 -154 -9 -165 l-8 -20 14 20 c9 14 13 62 13 165 1 133 3 149 25 195 13 27
46 71 72 97 59 59 54 63 -7 7z"/>
<path d="M1043 964 c-45 -20 -72 -41 -62 -48 2 -1 33 12 68 29 74 38 70 53 -6
19z"/>
<path d="M2400 965 c-13 -14 -19 -25 -13 -25 12 0 48 38 41 45 -2 3 -15 -6
-28 -20z"/>
<path d="M2703 860 c0 -41 2 -58 4 -37 2 20 2 54 0 75 -2 20 -4 3 -4 -38z"/>
<path d="M1655 889 c-22 -10 -48 -19 -57 -19 -10 0 -18 -4 -18 -10 0 -5 4 -10
10 -10 20 0 120 42 120 51 0 12 -8 11 -55 -12z"/>
<path d="M2278 879 c-50 -26 -48 -31 2 -12 22 9 40 20 40 25 0 10 2 11 -42
-13z"/>
<path d="M327 873 c-4 -3 -7 -11 -7 -17 0 -6 5 -5 12 2 6 6 9 14 7 17 -3 3 -9
2 -12 -2z"/>
<path d="M866 826 c-35 -41 -45 -66 -28 -66 4 0 16 15 26 33 11 17 28 42 39
55 11 12 16 22 9 22 -6 0 -27 -20 -46 -44z"/>
<path d="M1412 819 c-29 -11 -50 -25 -47 -30 4 -5 18 -3 33 5 15 7 42 17 59
21 36 7 55 25 26 24 -10 0 -42 -9 -71 -20z"/>
<path d="M2120 823 c-8 -2 -21 -7 -29 -9 -8 -2 -12 -7 -9 -9 3 -3 22 1 44 9
35 13 30 21 -6 9z"/>
<path d="M1950 760 c-19 -11 -31 -19 -27 -20 12 0 77 28 77 34 0 10 -14 6 -50
-14z"/>
<path d="M2703 725 c0 -33 2 -45 4 -27 2 18 2 45 0 60 -2 15 -4 0 -4 -33z"/>
<path d="M1232 707 c-23 -23 -42 -48 -42 -55 0 -21 14 -13 39 24 13 19 33 39
43 45 18 10 25 29 10 29 -4 0 -27 -19 -50 -43z"/>
<path d="M808 680 c-11 -23 -16 -120 -7 -126 4 -2 11 10 14 29 8 41 2 118 -7
97z"/>
<path d="M1804 657 l-29 -32 30 25 c17 14 32 26 34 28 2 1 2 4 -1 7 -2 3 -18
-10 -34 -28z"/>
<path d="M1145 523 c-4 -27 -9 -56 -12 -65 -5 -20 15 -25 22 -5 2 6 6 36 10
65 7 66 -11 71 -20 5z"/>
<path d="M1710 536 c-15 -39 -12 -46 6 -13 9 16 13 31 10 34 -3 3 -10 -6 -16
-21z"/>
<path d="M485 454 c-9 -14 -14 -28 -12 -31 3 -3 13 9 22 26 19 38 14 41 -10 5z"/>
<path d="M762 435 c-12 -25 -22 -48 -22 -50 0 -10 18 -4 23 8 3 6 12 29 21 50
23 53 4 46 -22 -8z"/>
<path d="M1686 464 c-4 -9 -4 -19 -1 -22 2 -3 7 3 11 12 4 9 4 19 1 22 -2 3
-7 -3 -11 -12z"/>
<path d="M430 395 c-8 -9 -8 -15 -2 -15 12 0 26 19 19 26 -2 2 -10 -2 -17 -11z"/>
<path d="M329 303 c-13 -16 -12 -17 4 -4 16 13 21 21 13 21 -2 0 -10 -8 -17
-17z"/>
<path d="M2294 404 c-18 -14 -18 -15 4 -4 12 6 22 13 22 15 0 8 -5 6 -26 -11z"/>
<path d="M2075 375 c-16 -13 -25 -24 -20 -24 6 0 24 11 40 24 17 14 26 25 20
25 -5 0 -23 -11 -40 -25z"/>
<path d="M2405 370 c-17 -11 -23 -20 -15 -20 17 1 56 28 49 34 -3 3 -18 -4
-34 -14z"/>
<path d="M2235 320 c-3 -5 -2 -10 4 -10 5 0 13 5 16 10 3 6 2 10 -4 10 -5 0
-13 -4 -16 -10z"/>
<path d="M826 161 c-4 -5 3 -7 14 -4 23 6 26 13 6 13 -8 0 -17 -4 -20 -9z"/>
<path d="M1058 163 c7 -3 16 -2 19 1 4 3 -2 6 -13 5 -11 0 -14 -3 -6 -6z"/>
<path d="M2645 160 c-3 -6 1 -7 9 -4 18 7 21 14 7 14 -6 0 -13 -4 -16 -10z"/>
<path d="M773 140 c-13 -5 -23 -11 -23 -14 0 -7 40 6 46 15 6 10 6 10 -23 -1z"/>
<path d="M950 140 c-13 -9 -13 -10 0 -10 8 0 22 5 30 10 13 9 13 10 0 10 -8 0
-22 -5 -30 -10z"/>
<path d="M1308 133 c7 -3 16 -2 19 1 4 3 -2 6 -13 5 -11 0 -14 -3 -6 -6z"/>
<path d="M608 123 c6 -2 18 -2 25 0 6 3 1 5 -13 5 -14 0 -19 -2 -12 -5z"/>
<path d="M668 123 c6 -2 18 -2 25 0 6 3 1 5 -13 5 -14 0 -19 -2 -12 -5z"/>
<path d="M410 175 c-14 -8 -20 -14 -14 -15 5 0 19 7 30 15 24 18 16 19 -16 0z"/>
<path d="M245 170 c-3 -6 1 -7 9 -4 18 7 21 14 7 14 -6 0 -13 -4 -16 -10z"/>
<path d="M360 150 c-9 -6 -10 -10 -3 -10 6 0 15 5 18 10 8 12 4 12 -15 0z"/>
<path d="M240 135 c-14 -8 -20 -14 -15 -14 6 0 21 6 35 14 14 8 21 14 15 14
-5 0 -21 -6 -35 -14z"/>
</g>
</svg>
