<?xml version="1.0" standalone="no"?>
<!DOCTYPE svg PUBLIC "-//W3C//DTD SVG 20010904//EN"
 "http://www.w3.org/TR/2001/REC-SVG-20010904/DTD/svg10.dtd">
<svg version="1.0" xmlns="http://www.w3.org/2000/svg"
 width="275.000000pt" height="214.000000pt" viewBox="0 0 275.000000 214.000000"
 preserveAspectRatio="xMidYMid meet">

<g transform="translate(0.000000,214.000000) scale(0.100000,-0.100000)"
fill="#000000" stroke="none">
<path d="M1168 1971 c-267 -58 -435 -236 -478 -506 -31 -193 36 -413 225 -740
32 -55 68 -118 80 -140 12 -22 63 -99 114 -172 50 -73 91 -134 91 -138 0 -3
-17 -6 -37 -6 -39 -1 -35 -3 30 -14 61 -10 45 -29 -20 -23 -32 3 -69 2 -83 -2
-17 -5 2 -8 57 -9 45 -1 88 -4 97 -7 23 -9 19 -24 -6 -25 -17 -1 -13 -4 12
-11 40 -11 137 -10 255 1 l80 8 -123 2 c-94 1 -123 4 -120 14 3 9 44 13 146
15 97 2 142 6 142 14 0 8 -36 9 -130 5 -85 -5 -130 -4 -130 3 0 9 216 17 317
12 23 -2 44 2 48 8 4 7 -49 10 -164 10 -155 0 -192 6 -162 25 21 13 204 299
277 435 88 162 111 213 160 350 83 238 69 470 -40 634 -133 201 -399 308 -638
257z m242 -66 c256 -51 429 -266 430 -533 0 -136 -42 -279 -145 -487 -67 -136
-225 -406 -285 -487 -19 -26 -51 -70 -70 -97 -19 -28 -38 -51 -41 -51 -5 0
-153 216 -195 286 -11 17 -32 51 -48 75 -73 108 -99 154 -174 309 -120 247
-152 363 -137 499 30 275 210 463 480 498 76 10 75 10 185 -12z m115 4 c15
-15 -17 -10 -45 7 l-25 15 30 -6 c17 -4 34 -11 40 -16z m126 -86 c13 -16 12
-17 -3 -4 -10 7 -18 15 -18 17 0 8 8 3 21 -13z m157 -188 c-3 -3 -9 2 -12 12
-6 14 -5 15 5 6 7 -7 10 -15 7 -18z m-1064 -445 c5 -23 4 -30 -2 -20 -6 8 -13
31 -16 50 -5 23 -4 30 2 20 6 -8 13 -31 16 -50z m1075 -115 c-12 -36 -26 -65
-30 -65 -4 0 4 35 18 77 15 43 28 72 31 65 2 -7 -6 -42 -19 -77z m-914 -255
c22 -42 18 -51 -5 -12 -20 33 -24 42 -15 42 2 0 11 -13 20 -30z m785 -30 c-12
-23 -24 -40 -26 -37 -3 3 4 24 16 47 12 23 24 40 26 37 3 -3 -4 -24 -16 -47z
m-190 -330 c-6 -12 -14 -19 -17 -17 -2 3 1 15 7 27 6 12 14 19 17 17 2 -3 -1
-15 -7 -27z"/>
<path d="M1440 1852 c0 -5 17 -14 38 -21 20 -7 43 -15 50 -17 6 -3 12 -1 12 6
0 12 -59 40 -85 40 -8 0 -15 -4 -15 -8z"/>
<path d="M1560 1802 c0 -5 25 -26 55 -48 30 -21 54 -42 55 -46 0 -4 15 -27 33
-51 18 -24 41 -64 51 -90 16 -42 36 -63 36 -37 0 32 -66 147 -112 196 -59 63
-118 100 -118 76z"/>
<path d="M1251 1599 c-99 -19 -173 -99 -187 -203 -8 -54 17 -133 54 -178 37
-44 115 -78 180 -78 125 0 211 80 227 212 10 79 -22 150 -91 200 -67 49 -113
60 -183 47z m135 -72 c17 -8 42 -33 56 -54 65 -96 34 -218 -66 -264 -55 -25
-111 -23 -166 5 -85 43 -120 142 -82 229 21 47 73 94 118 106 36 9 100 -1 140
-22z"/>
<path d="M1784 1464 c3 -9 6 -27 6 -40 0 -13 5 -24 10 -24 11 0 13 39 4 64 -3
9 -11 16 -16 16 -6 0 -7 -7 -4 -16z"/>
<path d="M723 264 c8 -9 386 -9 394 0 4 3 -85 6 -197 6 -112 0 -200 -3 -197
-6z"/>
<path d="M1803 263 c15 -2 39 -2 55 0 15 2 2 4 -28 4 -30 0 -43 -2 -27 -4z"/>
<path d="M520 230 c-53 -5 -23 -7 105 -7 101 0 167 3 150 7 -35 9 -150 9 -255
0z"/>
<path d="M880 230 c-33 -5 -17 -7 65 -8 74 -1 105 1 95 8 -17 11 -91 11 -160
0z"/>
<path d="M1700 230 c-37 -5 -1 -7 110 -8 110 -1 160 2 150 8 -16 11 -173 11
-260 0z"/>
<path d="M2058 223 c18 -2 45 -2 60 0 15 2 0 4 -33 4 -33 0 -45 -2 -27 -4z"/>
<path d="M730 180 c0 -11 104 -12 195 0 51 6 40 7 -67 9 -80 0 -128 -3 -128
-9z"/>
<path d="M1015 180 c7 -12 54 -12 110 -1 35 8 30 9 -38 10 -50 1 -76 -3 -72
-9z"/>
<path d="M1631 185 c10 -9 179 -13 179 -4 0 5 -41 9 -92 9 -50 0 -89 -2 -87
-5z"/>
</g>
</svg>
