<?xml version="1.0" standalone="no"?>
<!DOCTYPE svg PUBLIC "-//W3C//DTD SVG 20010904//EN"
 "http://www.w3.org/TR/2001/REC-SVG-20010904/DTD/svg10.dtd">
<svg version="1.0" xmlns="http://www.w3.org/2000/svg"
 width="275.000000pt" height="214.000000pt" viewBox="0 0 275.000000 214.000000"
 preserveAspectRatio="xMidYMid meet">

<g transform="translate(0.000000,214.000000) scale(0.100000,-0.100000)"
fill="#000000" stroke="none">
<path d="M1338 1820 c-26 -27 -30 -36 -25 -68 6 -37 5 -38 -91 -115 -53 -43
-103 -82 -111 -87 -21 -12 -5 -40 24 -40 24 0 25 -2 25 -63 0 -35 -7 -108 -15
-163 -8 -54 -19 -146 -24 -204 -6 -58 -22 -202 -36 -320 -14 -118 -28 -237
-31 -265 -2 -27 -7 -69 -10 -92 l-5 -42 -52 -3 -52 -3 -3 -62 -3 -63 -99 0
c-61 0 -100 -4 -100 -10 0 -6 34 -8 94 -5 59 3 97 1 101 -5 3 -5 -1 -10 -10
-10 -9 0 -13 -4 -10 -10 4 -6 218 -10 611 -10 396 0 604 3 604 10 0 6 -55 10
-145 10 -100 0 -145 3 -145 11 0 8 28 10 88 9 134 -4 152 3 22 9 l-115 6 -3
63 -3 62 -54 0 -54 0 -5 58 c-3 31 -13 109 -21 172 -20 151 -43 351 -55 475
-5 55 -14 141 -20 190 -5 50 -11 127 -12 173 l-3 82 27 0 c65 0 43 29 -109
147 -61 48 -62 48 -62 100 -1 43 -5 55 -27 72 -36 28 -50 26 -86 -9z m67 -50
c0 -18 -6 -26 -23 -28 -27 -4 -40 22 -22 44 19 22 45 13 45 -16z m54 -130
c122 -93 127 -87 -79 -86 -99 1 -180 3 -179 6 0 5 171 139 177 140 1 0 38 -27
81 -60z m93 -217 c5 -135 23 -123 -179 -123 l-175 0 3 98 c1 53 4 100 6 104 2
3 79 7 172 8 l170 1 3 -88z m-3 -172 c21 -1 23 -5 18 -34 -3 -18 -1 -54 3 -79
10 -50 26 -193 40 -358 14 -157 35 -360 43 -405 1 -7 -90 -10 -280 -10 l-282
0 5 40 c13 106 46 415 59 545 8 80 18 166 23 191 5 26 7 60 4 77 -3 26 0 31
19 34 20 3 264 3 348 -1z m221 -978 l0 -44 -395 2 -395 2 0 37 c0 20 2 39 4
41 3 2 181 4 395 5 l391 0 0 -43z"/>
<path d="M1203 1188 c3 -10 44 -13 162 -13 118 0 159 3 163 13 3 9 -34 12
-163 12 -129 0 -166 -3 -162 -12z"/>
<path d="M1342 1018 c-11 -14 -20 -217 -9 -234 3 -6 25 -10 49 -9 l43 1 0 125
0 124 -36 3 c-21 2 -40 -3 -47 -10z"/>
<path d="M625 1680 c-11 -17 3 -27 83 -60 42 -18 94 -41 116 -52 34 -18 40
-18 54 -5 13 14 6 19 -64 52 -164 77 -178 82 -189 65z"/>
<path d="M2065 1671 c-188 -85 -216 -103 -181 -117 21 -8 246 102 246 120 0
20 -15 19 -65 -3z"/>
<path d="M630 1423 c-55 -6 -64 -11 -51 -27 8 -10 40 -12 138 -8 117 4 157 12
141 27 -7 8 -182 14 -228 8z"/>
<path d="M1910 1415 c-19 -23 1 -26 141 -23 102 3 124 6 124 18 0 23 -246 28
-265 5z"/>
<path d="M738 1208 c-100 -48 -123 -68 -99 -83 13 -8 236 103 236 118 0 24
-32 15 -137 -35z"/>
<path d="M1885 1250 c-10 -16 -4 -20 113 -73 110 -50 132 -56 132 -31 0 10
-35 31 -96 60 -112 52 -139 60 -149 44z"/>
<path d="M590 190 c0 -6 55 -10 145 -10 90 0 145 4 145 10 0 6 -55 10 -145 10
-90 0 -145 -4 -145 -10z"/>
<path d="M2150 190 c0 -5 18 -10 40 -10 22 0 40 5 40 10 0 6 -18 10 -40 10
-22 0 -40 -4 -40 -10z"/>
<path d="M865 150 c90 -12 193 -11 200 0 4 7 -40 9 -127 9 -110 -2 -123 -3
-73 -9z"/>
<path d="M1148 148 c35 -6 70 -6 100 0 42 9 37 10 -53 10 -95 0 -97 -1 -47
-10z"/>
<path d="M1305 150 c7 -12 160 -12 225 -1 34 6 10 9 -93 10 -90 1 -136 -2
-132 -9z"/>
<path d="M1657 153 c18 -2 50 -2 70 0 21 2 7 4 -32 4 -38 0 -55 -2 -38 -4z"/>
<path d="M1827 153 c18 -2 50 -2 70 0 21 2 7 4 -32 4 -38 0 -55 -2 -38 -4z"/>
</g>
</svg>
