<svg version="1.1" id="Layer_1" xmlns="http://www.w3.org/2000/svg" xmlns:xlink="http://www.w3.org/1999/xlink" x="0px" y="0px"
	 width="100%" viewBox="0 0 1254 1254" enable-background="new 0 0 1254 1254" xml:space="preserve">
<path fill="none" opacity="1.000000" stroke="#000000" stroke-linecap="round" stroke-linejoin="round" stroke-width="17.000000"
	d="
M420.000000,242.000000 
	C418.607544,245.716919 418.471588,249.575119 418.474091,253.500015 
	C418.511505,312.333344 418.245270,371.167969 418.546326,429.999756 
	C419.570618,630.166199 418.682068,830.333435 418.999756,1030.500000 
	C419.012909,1038.804199 423.025940,1044.219360 430.993073,1047.019775 
	C439.076874,1049.861084 446.743958,1049.647339 454.557281,1045.610840 
	C460.580811,1042.499146 463.038849,1038.061401 463.036560,1031.500000 
	C462.988220,892.833313 463.026855,754.166687 462.874115,615.500122 
	C462.869385,611.221375 465.833466,607.454468 464.805450,603.551208 
	C463.790802,599.698730 462.970856,595.987488 462.972198,592.000000 
	C463.007233,487.166656 463.035370,382.333282 462.873291,277.500183 
	C462.866669,273.221008 465.884827,269.427734 464.796265,265.557312 
	C463.663666,261.530273 462.810028,257.639984 463.003754,253.500168 
	C463.187408,249.574585 462.892456,245.716919 461.500000,242.000000 
"/>
<path fill="none" opacity="1.000000" stroke="#000000" stroke-linecap="round" stroke-linejoin="round" stroke-width="17.000000"
	d="
M466.000000,266.500000 
	C477.503326,266.388275 488.699188,268.907104 499.996613,270.523682 
	C509.679626,271.909241 519.327393,273.539368 529.001465,274.990173 
	C541.495422,276.863831 554.001831,278.654205 566.499390,280.503937 
	C576.502319,281.984436 586.501892,283.487427 596.499512,285.003204 
	C608.501587,286.822906 620.498413,288.677124 632.500488,290.496765 
	C642.498108,292.012512 652.497681,293.515594 662.500610,294.996063 
	C674.998169,296.845825 687.499146,298.672516 700.000244,300.498199 
	C710.332275,302.007080 720.669067,303.483795 730.999390,305.004211 
	C743.335327,306.819763 755.659058,308.719879 768.002563,310.482025 
	C776.822693,311.741119 785.668945,312.816467 794.499329,314.004852 
	C803.002380,315.149170 811.494873,316.372589 820.001648,317.487579 
	C826.826904,318.382233 833.661682,319.210388 840.501221,319.989227 
	C849.662964,321.032562 858.819214,322.164734 868.004150,322.951752 
	C876.484741,323.678406 884.994141,324.166077 893.501221,324.465302 
	C910.997131,325.080750 928.500000,325.499603 946.000000,326.000336 
	C948.812622,326.080872 951.448303,326.971100 953.987366,328.030334 
	C959.318604,330.254456 960.634521,334.149902 957.441406,338.961090 
	C955.422363,342.003021 953.025696,344.854645 950.469543,347.470245 
	C930.014771,368.401245 907.588562,387.083710 884.497070,404.996246 
	C875.014587,412.352051 865.193726,419.309845 856.099243,427.115570 
	C849.115601,433.109589 847.184692,434.276428 856.087830,441.897400 
	C866.329590,450.664185 876.899963,459.050812 887.022156,467.974884 
	C896.418518,476.259064 906.065063,484.259125 915.484009,492.518219 
	C928.258423,503.719513 940.004150,515.991821 951.977112,528.022766 
	C953.972717,530.027954 955.783081,532.247070 957.469543,534.522583 
	C959.429504,537.167419 961.124512,540.165833 959.434753,543.466614 
	C957.647034,546.958862 954.200378,547.975769 950.499939,547.986267 
	C937.833374,548.021973 925.152832,547.630371 912.503906,548.103821 
	C899.815369,548.578674 887.117432,549.198547 874.489502,550.923035 
	C864.374878,552.304260 854.110413,552.618164 844.015564,554.105408 
	C833.532715,555.649841 822.966125,556.354736 812.470093,557.779846 
	C804.890076,558.809082 797.150757,559.204102 789.505676,560.051147 
	C780.670471,561.030090 771.812805,561.876953 762.978516,562.792664 
	C755.175659,563.601562 747.324524,564.228882 739.499878,564.998962 
	C730.980774,565.837463 722.478516,566.874695 713.977356,567.789795 
	C706.998230,568.541016 699.987915,569.211914 693.000671,570.005981 
	C681.826599,571.275940 670.634460,572.335632 659.472961,573.792847 
	C650.511719,574.962769 641.490601,575.924561 632.503235,577.026428 
	C623.988159,578.070312 615.490356,579.267700 607.002563,580.517395 
	C597.324829,581.942383 587.659424,583.454956 578.001770,585.011047 
	C564.828003,587.133606 551.635010,589.158630 538.507080,591.539185 
	C516.314575,595.563293 494.156494,599.781006 472.016846,604.086487 
	C469.963959,604.485718 467.994415,604.266357 466.000000,604.500000 
"/>
<path fill="none" opacity="1.000000" stroke="#000000" stroke-linecap="round" stroke-linejoin="round" stroke-width="17.000000"
	d="
M480.500000,223.000000 
	C479.865631,216.674149 475.909271,213.293564 470.558899,210.391434 
	C460.254883,204.802368 449.115051,204.494858 438.001953,204.644318 
	C429.440155,204.759460 420.799652,205.724945 412.995239,209.991302 
	C411.361298,210.884506 409.429626,211.383102 408.038452,212.546005 
	C399.019440,220.085205 400.623260,228.924820 410.503021,234.995071 
	C411.647308,235.698166 413.041870,236.122696 413.964417,237.035965 
	C418.247955,241.276535 423.781219,240.206665 428.955627,241.225357 
	C439.395233,243.280609 449.694122,239.613174 460.001373,241.492523 
	C460.323975,241.551361 460.785736,241.643066 460.982666,241.479156 
	C466.686310,236.731552 474.789398,235.258148 478.944946,228.466309 
	C479.823120,227.031036 480.000000,225.166672 480.500000,223.500000 
"/>
<path fill="none" opacity="1.000000" stroke="#000000" stroke-linecap="round" stroke-linejoin="round" stroke-width="4.000000"
	d="
M911.500000,353.500000 
	C898.666687,364.000000 885.833313,374.500000 873.000000,385.000000 
"/>
<path fill="none" opacity="1.000000" stroke="#000000" stroke-linecap="round" stroke-linejoin="round" stroke-width="5.000000"
	d="
M484.000000,350.500000 
	C484.000000,363.166656 484.000000,375.833344 484.000000,388.500000 
"/>
<path fill="none" opacity="1.000000" stroke="#000000" stroke-linecap="round" stroke-linejoin="round" stroke-width="5.000000"
	d="
M743.500000,546.500061 
	C733.166687,547.500061 722.833313,548.500061 712.500000,549.500061 
"/>
<path fill="none" opacity="1.000000" stroke="#000000" stroke-linecap="round" stroke-linejoin="round" stroke-width="5.000000"
	d="
M483.500000,476.500000 
	C484.541656,486.485413 483.757080,496.501282 484.000000,506.500000 
"/>
<path fill="none" opacity="1.000000" stroke="#000000" stroke-linecap="round" stroke-linejoin="round" stroke-width="5.000000"
	d="
M483.500000,299.500000 
	C484.333099,309.166656 484.333099,318.833344 483.500000,328.500000 
"/>
<path fill="none" opacity="1.000000" stroke="#000000" stroke-linecap="round" stroke-linejoin="round" stroke-width="5.000000"
	d="
M528.500000,575.000000 
	C519.500000,576.833313 510.500000,578.666626 501.500000,580.500000 
"/>
<path fill="none" opacity="1.000000" stroke="#000000" stroke-linecap="round" stroke-linejoin="round" stroke-width="5.000000"
	d="
M483.500000,529.500000 
	C484.630676,538.148132 483.692535,546.836060 484.000000,555.500000 
"/>
<path fill="none" opacity="1.000000" stroke="#000000" stroke-linecap="round" stroke-linejoin="round" stroke-width="5.000000"
	d="
M859.500000,341.499969 
	C850.833313,340.666656 842.166687,339.833313 833.500000,338.999969 
"/>
<path fill="none" opacity="1.000000" stroke="#000000" stroke-linecap="round" stroke-linejoin="round" stroke-width="5.000000"
	d="
M889.000000,502.999969 
	C894.333374,507.833313 899.753906,512.576599 904.919922,517.582642 
	C905.854492,518.488220 906.588562,518.361877 907.500000,518.500000 
"/>
<path fill="none" opacity="1.000000" stroke="#000000" stroke-linecap="round" stroke-linejoin="round" stroke-width="5.000000"
	d="
M811.500000,335.500000 
	C805.416687,334.666656 799.333313,333.833313 793.250000,333.000000 
"/>
<path fill="none" opacity="1.000000" stroke="#000000" stroke-linecap="round" stroke-linejoin="round" stroke-width="5.000000"
	d="
M773.500000,543.500000 
	C767.833313,544.000000 762.166687,544.500000 756.500000,545.000000 
"/>
<path fill="none" opacity="1.000000" stroke="#000000" stroke-linecap="round" stroke-linejoin="round" stroke-width="4.000000"
	d="
M854.000000,471.000000 
	C858.166626,474.833344 862.371704,478.626282 866.476013,482.525238 
	C867.672852,483.662140 868.836182,484.695404 870.500000,485.000000 
"/>
<path fill="none" opacity="1.000000" stroke="#000000" stroke-linecap="round" stroke-linejoin="round" stroke-width="5.000000"
	d="
M895.500000,344.500000 
	C890.166687,344.166656 884.833313,343.833344 879.500000,343.500000 
"/>
<path fill="none" opacity="1.000000" stroke="#000000" stroke-linecap="round" stroke-linejoin="round" stroke-width="5.000000"
	d="
M567.500000,568.000000 
	C562.555176,569.080505 557.655151,570.496948 552.500000,570.000000 
"/>
</svg>