<?xml version="1.0" standalone="no"?>
<!DOCTYPE svg PUBLIC "-//W3C//DTD SVG 20010904//EN"
 "http://www.w3.org/TR/2001/REC-SVG-20010904/DTD/svg10.dtd">
<svg version="1.0" xmlns="http://www.w3.org/2000/svg"
 width="444.000000pt" height="273.000000pt" viewBox="0 0 444.000000 273.000000"
 preserveAspectRatio="xMidYMid meet">

<g transform="translate(0.000000,273.000000) scale(0.100000,-0.100000)"
fill="#000000" stroke="none">
<path d="M2275 2607 c-59 -61 -265 -351 -265 -372 0 -13 -105 -155 -115 -155
-24 -1 -74 -59 -94 -109 -25 -63 -128 -231 -142 -231 -5 0 -31 -23 -57 -51
l-48 -51 -67 77 c-37 42 -74 89 -82 106 -9 16 -22 29 -29 29 -7 0 -25 9 -40
21 -24 19 -27 19 -42 5 -8 -9 -19 -16 -24 -16 -5 0 -25 -24 -45 -52 -45 -66
-100 -146 -123 -177 -51 -69 -117 -165 -163 -237 -64 -99 -79 -110 -121 -90
-17 9 -34 13 -39 11 -4 -3 -36 -47 -69 -97 -34 -50 -84 -116 -111 -147 -27
-30 -49 -59 -49 -64 0 -5 -25 -34 -56 -63 -31 -29 -62 -63 -68 -76 -14 -27
-95 -67 -274 -133 -36 -13 -59 -31 -50 -40 3 -3 18 -1 33 5 33 12 207 41 213
35 2 -2 -17 -10 -44 -16 -27 -7 -44 -14 -38 -16 6 -2 47 6 90 18 44 12 90 23
104 25 203 26 247 27 399 16 86 -7 203 -22 261 -32 58 -11 134 -25 170 -30
172 -28 365 -91 525 -172 84 -44 175 -75 200 -71 29 6 33 21 8 29 -52 16 -184
68 -188 73 -2 4 28 5 66 3 43 -3 74 0 83 7 8 7 68 18 135 26 66 8 137 17 157
21 24 4 35 3 31 -3 -4 -6 -60 -16 -124 -23 -153 -15 -231 -32 -118 -24 93 6
126 10 215 24 201 33 302 40 457 29 206 -14 252 -26 463 -127 95 -46 226 -89
236 -79 3 2 -23 12 -57 22 -69 19 -215 83 -207 90 2 3 46 -13 96 -35 90 -39
202 -73 211 -65 4 5 -3 8 -79 29 -31 8 -85 29 -120 45 -57 27 -61 30 -35 31
102 4 161 11 252 29 55 12 111 21 122 21 12 0 21 5 21 10 0 6 33 10 80 10 47
0 80 4 80 10 0 15 -64 12 -195 -11 -66 -11 -133 -22 -150 -24 -16 -2 -54 -9
-84 -14 -29 -6 -87 -11 -128 -11 -65 0 -84 5 -148 35 -88 43 -176 63 -307 72
-54 3 -98 9 -98 14 0 4 -16 26 -35 49 -19 23 -35 48 -35 56 0 8 -13 38 -29 67
-16 28 -32 67 -36 84 -8 39 -19 48 -42 34 -12 -6 -28 -4 -55 10 -24 12 -38 15
-38 8 0 -6 -14 -28 -31 -48 -42 -49 -118 -138 -151 -175 -30 -36 -49 -29 -24
9 9 14 12 25 6 25 -5 0 -10 -4 -10 -9 0 -4 -10 -21 -22 -37 -12 -15 -23 -34
-24 -42 -3 -20 -64 -82 -90 -92 -12 -5 -73 -11 -135 -15 -63 -3 -121 -8 -130
-11 -8 -2 -59 16 -112 41 -53 25 -103 45 -112 45 -8 0 -15 3 -15 8 0 4 -11 8
-25 8 -14 1 -33 5 -43 9 -15 6 -14 8 8 20 14 8 20 14 15 15 -6 0 -19 -6 -30
-14 -21 -14 -10 -16 -202 29 -34 8 -78 15 -98 15 -19 0 -35 4 -35 9 0 5 -9 7
-20 4 -34 -9 -22 11 29 50 52 40 72 48 50 20 -8 -10 20 11 61 47 114 99 171
143 177 137 3 -4 -20 -35 -51 -71 -31 -35 -52 -66 -46 -68 12 -4 -19 -39 -61
-70 -20 -15 -21 -17 -4 -11 18 6 59 40 240 203 34 30 74 65 89 78 15 13 25 26
21 30 -3 4 -10 0 -15 -8 -5 -8 -12 -11 -16 -7 -8 7 104 126 120 127 4 0 -8
-21 -29 -47 l-37 -48 41 45 c23 25 41 50 41 56 0 12 62 74 74 74 5 0 3 -7 -5
-16 -7 -9 -13 -24 -14 -35 -1 -10 -9 -27 -18 -37 -10 -11 -13 -23 -8 -31 6 -9
19 9 42 58 18 39 37 71 41 71 4 0 8 6 8 14 0 7 8 24 19 37 10 13 16 30 13 37
-6 20 28 91 47 97 9 3 27 29 39 58 21 47 25 50 35 33 7 -10 21 -30 33 -45 11
-14 26 -46 34 -71 17 -57 29 -72 50 -65 13 4 27 -7 49 -37 17 -23 31 -49 32
-57 0 -9 4 -6 10 8 7 17 6 27 -2 32 -15 9 35 56 70 65 18 5 32 -2 69 -39 45
-45 45 -46 28 -72 -19 -28 -45 -95 -52 -134 -3 -13 -10 -34 -15 -45 -9 -18 -7
-17 9 3 10 13 24 44 31 70 15 59 48 114 62 105 6 -3 26 -38 45 -78 19 -39 40
-76 48 -81 7 -6 25 -33 39 -60 14 -28 46 -72 72 -100 l47 -50 -46 60 c-25 32
-44 61 -42 62 2 2 25 -6 51 -17 36 -16 45 -17 35 -5 -7 8 -20 15 -29 15 -24 0
-81 38 -81 54 0 8 -13 27 -29 43 -15 16 -38 51 -50 78 -29 65 -65 119 -121
178 -50 53 -49 53 -123 3 -15 -10 -30 -17 -32 -14 -3 3 5 28 16 57 21 51 22
53 5 112 -14 51 -15 67 -4 95 10 29 10 39 -5 63 -9 16 -17 43 -17 59 0 17 -4
42 -10 56 -14 38 -19 97 -9 121 4 11 20 52 35 90 15 39 38 87 51 107 20 33 23
50 23 131 0 95 22 275 37 302 6 11 28 -17 81 -105 40 -66 72 -122 72 -125 0
-2 33 -58 73 -122 41 -65 100 -163 131 -218 32 -55 89 -149 127 -210 38 -60
66 -116 64 -124 -3 -8 3 -24 14 -35 11 -12 31 -45 46 -73 14 -29 28 -53 31
-53 7 0 -22 63 -51 111 -20 32 -22 39 -7 24 28 -28 93 -152 99 -189 3 -17 11
-39 19 -50 17 -24 19 -13 3 16 -6 11 -8 22 -5 25 5 5 42 -71 95 -196 17 -40
25 -69 18 -63 -7 6 -30 51 -51 101 -22 50 -41 89 -44 86 -4 -4 26 -77 74 -179
18 -37 13 -41 -17 -18 -23 18 -59 35 -59 28 0 -1 26 -20 58 -41 31 -22 78 -62
104 -90 33 -35 47 -45 48 -32 0 9 4 17 9 17 12 0 23 -29 15 -41 -3 -5 0 -8 7
-7 6 2 14 -3 17 -11 3 -9 0 -11 -9 -6 -11 6 -12 5 -1 -6 6 -7 12 -18 12 -23 0
-6 -22 11 -48 37 -26 26 -51 47 -55 47 -16 0 149 -155 166 -156 16 -1 16 1 4
20 -66 99 -96 158 -90 173 5 12 2 15 -10 10 -9 -3 -17 -2 -17 3 0 4 -16 14
-36 20 -19 7 -38 19 -41 29 -3 9 -35 83 -70 165 -35 82 -62 153 -61 158 2 5
15 0 29 -11 15 -11 29 -18 32 -15 3 3 8 -4 12 -15 3 -12 14 -21 22 -21 9 0 25
-7 35 -17 10 -9 21 -14 24 -10 3 3 -11 16 -31 30 -20 14 -43 35 -52 46 -8 12
-18 19 -23 16 -4 -3 -13 2 -20 10 -7 8 -19 15 -26 15 -17 0 -11 63 12 123 8
21 13 50 12 65 -2 33 23 171 32 177 6 4 72 -95 210 -315 43 -69 97 -150 119
-180 98 -130 111 -150 111 -165 0 -9 4 -14 9 -10 10 5 101 -106 101 -123 0 -5
9 -17 20 -27 11 -10 20 -22 20 -27 0 -4 20 -36 45 -70 25 -34 45 -57 45 -51 0
7 -4 15 -10 18 -5 3 -10 11 -10 16 0 6 5 7 12 3 7 -5 8 -3 3 6 -6 10 -4 12 10
6 15 -5 16 -4 5 9 -7 8 -17 15 -22 15 -18 0 -93 93 -90 111 2 9 -3 19 -11 22
-11 4 -9 21 9 94 13 48 23 90 24 93 1 15 132 -201 141 -233 5 -21 14 -35 18
-32 8 4 33 -29 79 -104 30 -51 146 -200 155 -200 5 -1 -13 26 -40 60 -72 91
-122 163 -123 174 0 6 12 -6 27 -25 15 -19 54 -63 87 -97 34 -34 75 -77 91
-96 17 -18 21 -23 11 -10 -11 13 -15 23 -8 23 6 0 24 -17 41 -37 31 -38 31
-38 31 -11 0 21 -11 34 -45 58 -25 17 -56 46 -68 64 -58 87 -114 147 -149 161
-27 10 -44 27 -59 57 -12 23 -32 58 -44 78 -12 19 -41 68 -65 107 -23 40 -46
70 -51 67 -5 -3 -6 1 -3 9 3 8 -2 19 -10 26 -13 11 -26 6 -78 -26 -35 -22 -68
-42 -74 -46 -10 -6 -104 103 -104 120 0 4 -9 16 -19 27 -19 21 -26 32 -94 150
-21 36 -41 66 -46 66 -4 0 -25 35 -47 77 -21 43 -53 96 -70 119 -18 23 -37 50
-43 61 -21 40 -46 34 -102 -23 -29 -30 -58 -54 -64 -54 -7 0 -26 -18 -44 -41
l-33 -41 -42 74 c-23 40 -54 90 -68 112 -15 21 -24 44 -21 52 3 7 -24 58 -59
111 -64 96 -108 168 -198 321 -25 43 -71 116 -103 164 -31 47 -57 91 -57 97 0
21 -16 10 -85 -62z m124 -41 c-3 -3 -11 5 -18 17 -13 21 -12 21 5 5 10 -10 16
-20 13 -22z m-101 -18 c-8 -13 -13 -40 -12 -60 2 -21 -2 -40 -8 -44 -7 -4 -5
-9 3 -15 14 -9 -2 -26 -73 -80 -39 -29 -35 -17 10 27 20 20 29 31 20 24 -25
-18 -22 3 3 26 22 20 44 54 34 54 -2 0 -29 -33 -59 -72 -61 -83 -161 -184
-150 -153 11 32 84 126 93 120 10 -6 126 133 118 141 -3 4 -29 -26 -58 -65
-55 -76 -81 -90 -34 -19 33 51 106 136 119 137 4 1 2 -9 -6 -21z m-18 -165 c0
-4 -28 -37 -62 -73 l-63 -65 57 54 c32 30 60 52 64 48 4 -3 -24 -39 -62 -79
-38 -40 -56 -62 -40 -48 16 14 43 40 59 58 29 32 47 41 47 22 0 -5 -80 -92
-178 -192 -98 -101 -188 -199 -201 -218 -13 -19 3 -6 35 30 32 36 108 115 169
175 62 61 126 128 143 150 l31 40 1 -33 c0 -26 -7 -39 -32 -60 -48 -39 -291
-291 -305 -316 -7 -13 -8 -23 -2 -27 11 -6 -27 -59 -42 -59 -5 0 -2 12 8 28 9
15 -18 -7 -60 -48 -51 -49 -77 -69 -77 -57 0 27 -12 21 -75 -43 -33 -33 -63
-60 -67 -60 -11 0 53 92 82 117 14 12 32 23 41 23 22 0 41 24 33 43 -3 8 0 18
7 23 9 5 10 2 6 -9 -3 -10 -2 -17 3 -17 6 0 10 6 10 13 0 9 2 9 8 -1 6 -9 16
-3 38 20 16 18 20 25 8 15 -21 -17 -44 -23 -44 -10 0 4 17 25 38 48 l37 40
-42 -40 c-75 -69 -46 -18 37 67 44 45 80 84 80 87 -1 3 -39 -34 -86 -83 -59
-61 -83 -93 -79 -104 3 -9 3 -13 -1 -9 -4 4 -23 -7 -41 -25 -62 -60 -33 -13
53 87 119 139 187 206 201 201 6 -3 13 4 15 15 2 11 6 18 9 17 3 -2 13 3 22
11 10 7 17 9 17 3 0 -12 -25 -34 -32 -27 -2 3 -5 -2 -5 -11 0 -23 56 36 62 65
l4 24 -24 -23 c-74 -70 22 56 124 163 52 53 71 67 71 50z m251 -25 c8 -15 8
-18 0 -14 -6 4 -16 16 -22 28 -8 15 -8 18 0 14 6 -4 16 -16 22 -28z m-351 -33
c0 -3 -45 -58 -99 -123 -97 -115 -251 -274 -251 -259 0 23 31 77 51 87 31 17
108 89 121 114 11 20 10 20 -7 6 -17 -13 -18 -13 -10 0 21 35 49 69 62 74 9 4
12 1 8 -7 -4 -6 19 16 50 51 50 54 75 74 75 57z m541 -267 c5 -10 7 -18 4 -18
-8 0 -105 153 -105 165 0 9 70 -93 101 -147z m-476 84 c-15 -28 -33 -56 -41
-63 -7 -6 -11 -15 -8 -20 6 -10 -23 -107 -37 -124 -4 -6 -3 -29 2 -52 10 -37
8 -45 -18 -87 -16 -25 -32 -44 -35 -41 -3 3 -8 -1 -11 -10 -8 -18 14 -20 32
-2 14 13 -64 -112 -79 -127 -4 -4 -11 1 -15 13 -9 30 -20 26 -45 -14 -12 -19
-24 -35 -26 -35 -6 0 -4 3 65 110 70 106 79 123 47 85 -14 -16 -53 -73 -87
-125 -33 -52 -70 -109 -82 -125 -12 -17 -33 -45 -46 -63 -16 -23 -27 -30 -34
-23 -7 7 2 28 28 68 21 32 38 66 38 75 -1 10 3 17 8 15 6 -1 17 7 25 19 13 18
12 21 -2 21 -8 0 -40 -33 -70 -73 -73 -97 -111 -137 -124 -129 -6 4 17 44 55
98 73 103 102 153 92 163 -10 10 -32 -11 -98 -95 -33 -42 -67 -84 -75 -93 -7
-10 -18 -18 -24 -18 -9 0 21 42 100 141 19 24 30 40 24 36 -7 -4 -36 -36 -64
-72 -29 -35 -57 -62 -62 -59 -5 3 -7 0 -6 -7 6 -23 -18 -17 -40 11 l-23 29 33
30 c33 30 63 31 54 2 -3 -9 2 -5 11 9 24 35 165 181 171 176 5 -6 -17 -47 -42
-76 -20 -23 -20 -23 11 2 34 28 157 168 135 154 -8 -5 -12 0 -12 15 0 14 48
70 147 170 80 82 148 147 150 145 3 -2 -8 -27 -22 -54z m548 -235 c54 -81 102
-167 93 -167 -3 0 -28 39 -57 88 -29 48 -66 107 -82 131 -17 24 -25 41 -19 38
5 -4 35 -44 65 -90z m-1317 -246 c17 -26 39 -52 48 -60 9 -7 13 -17 10 -22 -6
-11 14 -50 25 -46 5 1 41 -38 81 -88 39 -49 81 -98 93 -109 l22 -18 -59 -53
-59 -53 -24 27 -24 26 17 -28 c16 -26 16 -29 -1 -47 -9 -10 -23 -16 -31 -13
-8 3 -14 2 -12 -3 4 -13 -32 -64 -67 -96 -51 -46 -103 -18 -127 68 -16 58 -34
80 -51 65 -19 -15 -75 -3 -88 20 -15 30 -3 111 24 166 24 47 25 52 12 89 -18
50 -18 80 -1 135 8 24 22 85 32 136 l17 92 66 -71 c36 -39 80 -92 97 -117z
m1594 164 c-7 -8 -9 -15 -5 -15 4 0 2 -7 -6 -16 -9 -11 -10 -17 -1 -23 14 -9
7 -18 -54 -69 -39 -31 -54 -39 -61 -29 -20 25 -24 37 -13 37 6 0 14 -9 18 -20
7 -18 12 -15 57 32 28 29 39 43 25 32 -58 -46 -62 -45 -15 6 l50 54 -52 -43
c-71 -58 -68 -36 4 28 52 47 83 62 53 26z m-1799 -46 c-12 -16 -36 -51 -53
-77 -17 -26 -41 -58 -52 -72 -17 -20 -14 -19 12 4 39 36 43 21 5 -16 -24 -23
-30 -24 -41 -12 -11 12 -9 18 11 37 14 12 37 42 53 67 36 57 78 109 83 104 3
-3 -6 -18 -18 -35z m894 9 c-6 -22 -6 -22 9 -4 16 19 16 19 16 -5 0 -13 6 -36
14 -51 13 -24 11 -33 -36 -127 -49 -97 -68 -116 -68 -66 0 13 -9 33 -21 44
l-20 19 19 38 c11 22 34 56 51 78 30 38 41 63 21 51 -6 -4 -5 5 2 19 14 32 21
34 13 4z m-908 -66 c-22 -24 -22 -38 0 -21 17 13 17 13 0 -13 -19 -31 -22 -42
-7 -33 10 6 3 -20 -10 -40 -11 -17 -11 -77 1 -112 8 -26 8 -37 -2 -49 -10 -12
-9 -13 5 -8 13 5 12 -2 -8 -42 -13 -27 -26 -68 -30 -92 -8 -55 -100 -242 -144
-294 -8 -9 -12 -21 -9 -25 7 -11 -27 -65 -38 -63 -12 3 -25 -22 -25 -47 0 -29
12 -29 36 0 10 12 12 16 4 9 -19 -16 -30 -15 -30 3 0 8 6 15 14 15 15 0 52 46
58 70 2 8 10 21 19 30 9 8 47 51 85 95 37 44 53 67 36 51 -18 -17 -51 -53 -74
-82 -23 -29 -44 -52 -45 -50 -2 2 23 51 55 110 58 104 60 106 75 83 14 -21 28
-26 85 -28 18 -1 28 -11 39 -38 29 -72 43 -99 56 -104 8 -3 4 -12 -12 -28 -19
-20 -23 -21 -17 -5 3 10 -14 -4 -38 -30 -60 -67 -68 -50 -10 22 36 45 39 52
14 29 -18 -16 -44 -48 -58 -70 -24 -39 -60 -74 -74 -75 -14 0 -9 23 9 42 9 10
11 18 6 18 -6 0 -18 -12 -28 -26 -14 -22 -15 -28 -4 -36 9 -6 10 -11 3 -14 -6
-3 -46 -23 -89 -45 -76 -39 -82 -40 -145 -33 -107 11 -108 12 -55 67 65 68 55
72 -13 4 -35 -35 -66 -57 -80 -57 -29 0 -28 8 10 50 31 32 30 32 -9 -4 -35
-33 -50 -40 -87 -42 -41 -1 -44 0 -36 17 6 10 14 20 19 23 5 4 28 30 52 59 26
32 14 22 -30 -25 -40 -43 -79 -78 -87 -78 -8 0 30 45 84 100 53 55 95 100 92
100 -3 0 -52 -47 -110 -105 -80 -80 -111 -105 -131 -105 -25 0 -23 4 37 67 46
48 61 69 52 75 -11 7 -5 12 13 10 3 -1 19 13 35 31 l29 32 -32 -29 c-18 -17
-33 -25 -33 -18 0 6 4 13 9 17 5 3 24 24 43 48 18 23 25 36 15 28 -13 -11 -17
-11 -17 -1 0 7 27 44 60 80 33 37 82 101 109 141 97 142 117 167 219 264 68
65 101 103 97 113 -6 16 43 98 52 88 4 -3 -1 -14 -10 -24z m1798 -34 c2 -25
-6 -42 -31 -70 -19 -21 -35 -32 -37 -25 -3 7 12 27 32 45 20 18 29 30 21 26
-8 -4 -25 -16 -38 -28 -20 -17 -24 -18 -32 -6 -7 11 2 26 32 57 23 24 44 40
46 38 3 -3 6 -20 7 -37z m-1323 -20 c-7 -7 -12 -8 -12 -2 0 6 3 14 7 17 3 4 9
5 12 2 2 -3 -1 -11 -7 -17z m-134 -48 c-13 -21 -28 -27 -28 -10 0 5 8 14 18
19 23 14 24 14 10 -9z m612 8 c0 -7 -43 -114 -56 -142 l-15 -31 20 25 c12 14
26 42 33 63 6 20 15 37 20 37 11 0 10 -6 -12 -80 -14 -48 -15 -60 -5 -46 8 11
18 35 21 54 5 26 9 31 15 19 6 -10 2 -32 -11 -61 -19 -45 -33 -56 -45 -36 -3
6 -14 10 -25 10 -30 0 -31 26 -3 87 14 32 29 68 34 81 5 12 13 22 19 22 5 0
10 -1 10 -2z m822 -54 c-3 -25 -8 -32 -15 -25 -7 7 -7 18 1 36 16 34 19 32 14
-11z m-1892 9 c0 -10 -72 -83 -83 -83 -4 0 8 20 29 45 33 41 54 56 54 38z
m726 -35 c-9 -13 -28 -43 -43 -68 -26 -44 -57 -80 -68 -80 -14 0 -1 25 33 63
21 23 48 57 61 75 12 17 25 32 28 32 3 0 -2 -10 -11 -22z m-241 -36 c-6 -7
-35 18 -35 31 0 5 9 2 20 -8 11 -10 18 -20 15 -23z m146 21 c-24 -43 -58 -76
-70 -68 -9 5 -2 18 25 46 40 41 62 51 45 22z m-87 -95 c-3 -5 -14 -2 -25 8
-27 25 -23 37 6 18 14 -9 22 -20 19 -26z m67 -82 c11 -14 15 -26 9 -26 -12 0
-57 45 -72 74 -10 18 -8 18 16 -2 15 -11 36 -32 47 -46z m56 37 c-9 -9 -20
-13 -24 -9 -4 4 -1 11 7 16 25 16 35 11 17 -7z m45 -43 c-13 -20 -22 -28 -27
-20 -7 11 34 65 42 56 2 -2 -5 -18 -15 -36z m-67 -50 c-10 -11 -20 -18 -23
-15 -3 3 3 14 13 25 10 11 20 18 23 15 3 -3 -3 -14 -13 -25z m1891 -16 c-11
-7 -22 -11 -25 -8 -3 3 3 12 13 20 11 7 22 11 25 8 3 -3 -3 -12 -13 -20z
m-2826 -30 c0 -2 -7 -4 -15 -4 -8 0 -15 4 -15 10 0 5 7 7 15 4 8 -4 15 -8 15
-10z m2783 -1 c-6 -16 -5 -17 13 -3 15 11 16 11 7 0 -19 -21 -16 -34 5 -19 14
11 15 11 5 -1 -15 -17 -17 -34 -3 -25 15 9 12 -9 -6 -31 -14 -18 -15 -18 -8 6
3 14 3 22 -1 18 -4 -4 -13 -1 -20 5 -10 9 -10 15 -1 26 9 12 8 14 -6 8 -10 -3
-18 -2 -18 3 0 5 8 14 18 19 23 14 22 14 15 -6z m-1913 -5 c0 -6 -33 -43 -72
-81 -57 -55 -69 -71 -56 -76 12 -5 -3 -23 -67 -79 -46 -41 -87 -74 -92 -74 -4
0 -16 -7 -25 -15 -10 -9 -18 -12 -18 -7 0 14 91 116 98 109 3 -3 -10 -21 -28
-40 -18 -19 -31 -37 -28 -40 3 -3 38 37 77 89 57 75 195 225 209 226 1 0 2 -5
2 -12z m-946 -31 c-35 -39 -79 -103 -62 -89 8 7 22 10 29 7 8 -3 20 4 27 15 7
12 8 20 2 20 -16 0 -12 15 11 44 16 20 24 24 34 16 20 -16 13 -34 -32 -83 -51
-55 -76 -94 -69 -105 3 -5 -32 -51 -76 -103 -61 -70 -68 -81 -30 -44 29 27 52
45 52 39 0 -5 -30 -39 -67 -76 -47 -45 -78 -67 -102 -72 -31 -5 -32 -5 -20 12
12 15 11 15 -8 -1 -12 -10 -30 -17 -40 -16 -10 2 -24 0 -30 -4 -33 -21 -6 15
58 78 39 39 130 143 201 233 72 89 133 160 136 157 3 -3 -3 -15 -14 -28z
m2477 -103 c6 -8 8 -22 4 -31 -6 -16 -10 -14 -31 12 -13 17 -24 33 -24 37 0
10 38 -3 51 -18z m93 -144 c28 -42 32 -55 16 -45 -11 7 -53 85 -47 85 3 0 16
-18 31 -40z m429 -3 c-6 -10 -21 0 -34 25 -11 20 -11 20 14 2 14 -11 23 -22
20 -27z m278 -82 c11 -16 0 -8 -25 18 -25 27 -46 54 -46 60 0 13 35 -27 71
-78z m-1561 54 c23 -7 44 -19 47 -27 3 -7 -10 -30 -28 -50 -19 -20 -41 -46
-49 -58 -8 -11 8 4 35 34 l51 54 19 -39 c10 -21 19 -49 20 -62 1 -14 6 -26 13
-29 23 -7 35 -42 21 -60 -11 -14 -11 -15 1 -4 20 17 25 15 44 -13 l16 -25 -87
1 c-49 0 -151 -8 -228 -19 -89 -13 -141 -16 -144 -10 -2 7 -6 7 -10 1 -3 -6
-28 -13 -56 -17 l-50 -7 120 119 c66 65 138 144 160 175 22 31 45 54 51 52 7
-2 31 -9 54 -16z m-1367 -134 c-10 -13 -27 -25 -37 -25 -22 0 -18 6 21 31 37
23 37 23 16 -6z m-763 -19 c-14 -14 -100 -39 -100 -30 0 7 83 42 100 43 13 1
13 -1 0 -13z m567 -2 c40 -3 76 -11 79 -16 5 -8 -1 -9 -17 -5 -13 4 -89 10
-169 14 -82 4 -132 10 -115 13 29 6 76 5 222 -6z m1678 6 c3 -5 1 -10 -4 -10
-6 0 -11 5 -11 10 0 6 2 10 4 10 3 0 8 -4 11 -10z m-1398 -50 c14 -9 9 -10
-27 -4 -25 4 -67 11 -95 15 -42 7 -38 7 27 4 42 -2 85 -9 95 -15z m183 -34
c30 -8 45 -14 33 -15 -26 -1 -165 27 -172 36 -8 7 69 -4 139 -21z m145 -38 c7
-7 -1 -8 -25 -3 -53 11 -74 28 -25 20 22 -4 45 -11 50 -17z m86 -27 c63 -21
143 -60 137 -66 -2 -3 -40 11 -84 30 -43 19 -84 35 -91 35 -6 0 -15 5 -18 10
-8 13 -7 13 56 -9z m952 2 c-7 -2 -19 -2 -25 0 -7 3 -2 5 12 5 14 0 19 -2 13
-5z m197 -3 c0 -5 -16 -10 -35 -10 -19 0 -35 5 -35 10 0 6 16 10 35 10 19 0
35 -4 35 -10z m-345 -10 c-11 -5 -27 -9 -35 -9 -9 0 -8 4 5 9 11 5 27 9 35 9
9 0 8 -4 -5 -9z m570 -22 c70 -20 150 -56 143 -63 -2 -3 -36 8 -74 24 -38 16
-102 34 -142 41 -40 7 -72 17 -72 21 0 11 63 1 145 -23z m-1113 -96 c-9 -3
-82 36 -82 44 0 2 21 -6 46 -18 25 -13 41 -24 36 -26z"/>
<path d="M1994 2048 l-19 -23 23 19 c21 18 27 26 19 26 -2 0 -12 -10 -23 -22z"/>
<path d="M2130 2033 c-113 -119 -144 -153 -138 -153 3 0 49 47 103 105 53 58
95 105 93 105 -2 0 -28 -26 -58 -57z"/>
<path d="M2156 2022 c-22 -27 -24 -32 -7 -17 20 17 47 55 39 55 -2 0 -16 -17
-32 -38z"/>
<path d="M2081 1925 c-23 -31 -71 -88 -106 -127 -36 -39 -65 -76 -65 -81 0
-11 143 154 188 217 46 64 33 58 -17 -9z"/>
<path d="M2120 1885 c-7 -9 -10 -18 -7 -21 3 -3 10 4 17 15 13 25 8 27 -10 6z"/>
<path d="M2120 1828 c-12 -22 -12 -22 6 -6 10 10 15 20 12 24 -4 3 -12 -5 -18
-18z"/>
<path d="M2069 1818 c-7 -12 -34 -48 -61 -77 -26 -30 -48 -59 -48 -64 0 -5 19
15 43 43 23 29 53 65 66 81 13 16 21 32 18 35 -3 3 -11 -5 -18 -18z"/>
<path d="M1660 1605 c-7 -9 -11 -17 -9 -20 3 -2 10 5 17 15 14 24 10 26 -8 5z"/>
<path d="M1664 1558 c-12 -14 -13 -18 -3 -10 9 6 18 10 21 7 2 -3 5 2 5 10 0
19 0 19 -23 -7z"/>
<path d="M1500 1264 c1 -5 15 -25 32 -44 l31 -35 -19 33 c-20 35 -44 61 -44
46z"/>
<path d="M2149 1629 c-22 -45 -39 -83 -37 -85 2 -2 23 35 46 81 23 47 40 85
37 85 -3 0 -23 -36 -46 -81z"/>
<path d="M1227 1683 c-4 -3 -7 -11 -7 -17 0 -6 5 -5 12 2 6 6 9 14 7 17 -3 3
-9 2 -12 -2z"/>
<path d="M1115 1518 c-66 -66 -99 -105 -74 -85 57 46 211 207 197 207 -2 0
-57 -55 -123 -122z"/>
<path d="M1199 1563 c-13 -16 -12 -17 4 -4 9 7 17 15 17 17 0 8 -8 3 -21 -13z"/>
<path d="M1120 1483 l-55 -58 58 55 c53 50 62 60 54 60 -1 0 -27 -26 -57 -57z"/>
<path d="M1179 1513 l-24 -28 28 24 c25 23 32 31 24 31 -2 0 -14 -12 -28 -27z"/>
<path d="M1201 1497 c-13 -21 -12 -21 5 -5 10 10 16 20 13 22 -3 3 -11 -5 -18
-17z"/>
<path d="M1109 1433 l-24 -28 28 24 c25 23 32 31 24 31 -2 0 -14 -12 -28 -27z"/>
<path d="M966 1328 l-81 -82 80 74 c44 41 84 78 90 82 5 4 5 8 1 8 -5 0 -45
-37 -90 -82z"/>
<path d="M1070 1392 c0 -4 4 -13 9 -20 7 -11 9 -11 14 1 3 9 -1 18 -9 21 -8 3
-14 2 -14 -2z"/>
<path d="M1111 1278 c-50 -57 -104 -116 -119 -133 -16 -16 -45 -51 -66 -78
-22 -26 -41 -45 -43 -43 -6 5 43 79 100 151 l39 50 -37 -40 c-31 -33 -93 -118
-118 -160 -3 -6 2 -11 12 -12 11 -1 34 19 57 50 21 29 44 55 50 59 7 5 41 43
77 85 36 43 84 99 107 126 23 26 40 47 37 47 -2 0 -46 -46 -96 -102z"/>
<path d="M1169 1303 c-13 -16 -12 -17 4 -4 9 7 17 15 17 17 0 8 -8 3 -21 -13z"/>
<path d="M1080 1301 c0 -4 -12 -26 -26 -47 -24 -35 -24 -37 -4 -19 27 25 54
75 40 75 -5 0 -10 -4 -10 -9z"/>
<path d="M885 1208 l-70 -73 73 70 c67 64 77 75 69 75 -1 0 -34 -33 -72 -72z"/>
<path d="M979 1263 c-13 -16 -12 -17 4 -4 9 7 17 15 17 17 0 8 -8 3 -21 -13z"/>
<path d="M1129 1253 l-24 -28 28 24 c25 23 32 31 24 31 -2 0 -14 -12 -28 -27z"/>
<path d="M929 1213 l-24 -28 28 24 c25 23 32 31 24 31 -2 0 -14 -12 -28 -27z"/>
<path d="M1054 1168 c-28 -29 -61 -69 -74 -88 -25 -37 -161 -173 -167 -167 -2
2 10 23 27 45 17 23 26 42 21 42 -14 0 -61 -78 -61 -102 0 -19 13 -10 75 52
42 41 90 95 107 120 17 25 54 69 82 98 27 28 48 52 45 52 -2 0 -27 -24 -55
-52z"/>
<path d="M1230 1108 c-29 -35 -41 -52 -26 -38 28 25 91 100 84 100 -2 0 -28
-28 -58 -62z"/>
<path d="M1304 1133 c-9 -15 -36 -50 -58 -78 -48 -58 -96 -127 -74 -105 27 27
135 165 147 188 16 31 7 28 -15 -5z"/>
<path d="M996 1055 c-11 -8 -17 -17 -14 -20 2 -3 13 4 23 15 21 23 18 25 -9 5z"/>
<path d="M1265 1010 c-3 -5 -1 -10 4 -10 6 0 11 5 11 10 0 6 -2 10 -4 10 -3 0
-8 -4 -11 -10z"/>
<path d="M1115 890 c-16 -16 -24 -30 -19 -30 6 0 20 14 32 30 13 17 21 30 19
30 -2 0 -16 -13 -32 -30z"/>
<path d="M3009 1680 c-35 -39 -21 -39 16 0 16 17 25 30 19 30 -5 -1 -21 -14
-35 -30z"/>
<path d="M790 1205 c-7 -9 -11 -17 -9 -20 3 -2 10 5 17 15 14 24 10 26 -8 5z"/>
<path d="M611 1013 c-146 -179 -153 -188 -92 -123 60 64 185 220 176 220 -2 0
-40 -44 -84 -97z"/>
<path d="M665 1022 c-31 -28 -61 -62 -53 -62 2 0 24 20 48 45 49 50 52 59 5
17z"/>
<path d="M515 858 l-40 -43 43 40 c23 21 42 40 42 42 0 8 -9 0 -45 -39z"/>
<path d="M2474 888 c-44 -49 -68 -78 -62 -78 2 0 26 25 52 55 51 60 58 75 10
23z"/>
<path d="M2389 783 c-13 -16 -12 -17 4 -4 9 7 17 15 17 17 0 8 -8 3 -21 -13z"/>
<path d="M2365 718 l-40 -43 43 40 c23 21 42 40 42 42 0 8 -9 0 -45 -39z"/>
<path d="M2234 708 l-29 -33 33 29 c30 28 37 36 29 36 -2 0 -16 -15 -33 -32z"/>
<path d="M2299 703 l-24 -28 28 24 c25 23 32 31 24 31 -2 0 -14 -12 -28 -27z"/>
<path d="M2399 693 l-24 -28 28 24 c25 23 32 31 24 31 -2 0 -14 -12 -28 -27z"/>
<path d="M2514 698 l-19 -23 23 19 c21 18 27 26 19 26 -2 0 -12 -10 -23 -22z"/>
<path d="M2249 663 c-13 -16 -12 -17 4 -4 16 13 21 21 13 21 -2 0 -10 -8 -17
-17z"/>
<path d="M2450 1965 c0 -5 5 -17 10 -25 5 -8 10 -10 10 -5 0 6 -5 17 -10 25
-5 8 -10 11 -10 5z"/>
<path d="M2550 1916 c0 -2 8 -10 18 -17 15 -13 16 -12 3 4 -13 16 -21 21 -21
13z"/>
<path d="M2490 1881 c0 -5 5 -13 10 -16 6 -3 10 -2 10 4 0 5 -4 13 -10 16 -5
3 -10 2 -10 -4z"/>
<path d="M2640 1840 c0 -5 5 -10 11 -10 5 0 7 5 4 10 -3 6 -8 10 -11 10 -2 0
-4 -4 -4 -10z"/>
<path d="M2550 1770 c6 -11 13 -20 16 -20 2 0 0 9 -6 20 -6 11 -13 20 -16 20
-2 0 0 -9 6 -20z"/>
<path d="M2600 1670 c6 -11 13 -20 16 -20 2 0 0 9 -6 20 -6 11 -13 20 -16 20
-2 0 0 -9 6 -20z"/>
<path d="M2631 1615 c0 -5 6 -21 14 -35 8 -14 14 -20 14 -15 0 6 -6 21 -14 35
-8 14 -14 21 -14 15z"/>
<path d="M2660 1548 c0 -3 16 -25 35 -48 39 -47 42 -44 14 15 -11 24 -17 30
-13 15 l5 -25 -20 25 c-11 14 -21 22 -21 18z"/>
<path d="M2785 1430 c10 -11 20 -20 23 -20 3 0 -3 9 -13 20 -10 11 -20 20 -23
20 -3 0 3 -9 13 -20z"/>
<path d="M2740 1406 c0 -3 16 -31 35 -63 43 -72 46 -63 4 12 -28 49 -39 64
-39 51z"/>
<path d="M3237 1375 c10 -13 21 -25 26 -25 11 0 -16 39 -31 45 -8 3 -6 -4 5
-20z"/>
<path d="M2840 1386 c0 -2 8 -10 18 -17 15 -13 16 -12 3 4 -13 16 -21 21 -21
13z"/>
<path d="M2880 1356 c0 -2 14 -14 30 -26 17 -12 30 -19 30 -16 0 2 -13 14 -30
26 -16 12 -30 19 -30 16z"/>
<path d="M2014 1266 c-15 -31 -30 -59 -35 -62 -5 -3 -9 -13 -9 -23 0 -10 -18
-39 -40 -64 -44 -50 -47 -56 -25 -53 9 1 32 29 52 62 20 32 49 74 65 92 15 18
28 38 28 43 0 6 -9 1 -20 -12 -21 -24 -21 -23 0 19 12 24 19 46 16 49 -3 3
-17 -20 -32 -51z"/>
<path d="M2972 1284 c15 -15 30 -26 33 -23 2 3 -10 16 -28 29 l-32 23 27 -29z"/>
<path d="M3288 1275 c37 -53 70 -90 75 -85 3 3 -18 30 -46 60 -27 30 -41 42
-29 25z"/>
<path d="M2820 1269 c0 -16 57 -114 75 -129 10 -8 12 -17 6 -24 -6 -7 6 -24
37 -51 l47 -40 -30 37 c-17 21 -34 38 -39 38 -4 0 -5 8 -2 17 4 9 3 19 -2 22
-19 13 -72 95 -72 112 0 10 -4 21 -10 24 -5 3 -10 1 -10 -6z"/>
<path d="M1774 1248 l-19 -23 23 19 c21 18 27 26 19 26 -2 0 -12 -10 -23 -22z"/>
<path d="M1640 1077 c-63 -67 -94 -104 -69 -82 56 49 193 194 188 200 -2 2
-56 -51 -119 -118z"/>
<path d="M2730 1186 c0 -2 8 -10 18 -17 15 -13 16 -12 3 4 -13 16 -21 21 -21
13z"/>
<path d="M1670 1069 c-47 -55 -104 -122 -128 -150 -23 -28 -39 -55 -36 -61 4
-6 12 2 20 18 7 16 35 53 62 81 27 29 73 82 102 117 29 36 59 67 66 70 15 6
20 26 7 25 -5 0 -46 -45 -93 -100z"/>
<path d="M3386 1141 c22 -37 88 -112 75 -86 -5 11 -18 28 -29 38 -11 10 -26
32 -32 48 -7 16 -17 29 -22 29 -5 0 -2 -13 8 -29z"/>
<path d="M2818 1083 c22 -27 53 -59 68 -73 16 -14 8 -2 -17 26 -26 27 -52 60
-58 72 -6 12 -16 22 -22 22 -6 0 7 -21 29 -47z"/>
<path d="M3617 1099 c7 -7 15 -10 18 -7 3 3 -2 9 -12 12 -14 6 -15 5 -6 -5z"/>
<path d="M2380 1050 c59 -51 78 -51 23 0 -23 22 -48 40 -55 40 -7 0 7 -18 32
-40z"/>
<path d="M3390 1076 c0 -2 8 -10 18 -17 15 -13 16 -12 3 4 -13 16 -21 21 -21
13z"/>
<path d="M1866 1011 c-14 -22 -43 -59 -65 -83 -23 -23 -41 -46 -41 -50 0 -3
-21 -20 -47 -37 -25 -17 -41 -31 -33 -31 10 0 10 -4 -1 -17 -8 -10 6 0 31 22
25 22 62 51 83 64 20 12 37 28 37 34 0 6 -11 0 -25 -13 -14 -13 -27 -21 -30
-18 -3 3 12 21 33 40 45 41 108 128 93 128 -6 0 -22 -18 -35 -39z"/>
<path d="M2084 1025 c-9 -14 -14 -28 -11 -31 3 -3 13 8 22 25 19 37 12 41 -11
6z"/>
<path d="M2721 1002 c0 -4 4 -16 9 -27 7 -17 9 -17 9 -2 2 31 32 18 86 -38 29
-30 55 -55 58 -55 18 0 -105 112 -131 120 -18 5 -32 6 -31 2z"/>
<path d="M3510 1001 c0 -5 7 -15 17 -22 15 -13 15 -12 4 9 -12 23 -21 28 -21
13z"/>
<path d="M1605 933 c-36 -33 -44 -44 -20 -25 38 28 93 83 84 82 -2 -1 -31 -26
-64 -57z"/>
<path d="M2040 943 c-13 -21 -32 -48 -43 -60 -11 -13 -18 -25 -15 -28 3 -3 24
22 48 55 23 34 40 63 37 66 -3 3 -15 -12 -27 -33z"/>
<path d="M1464 917 c-27 -23 -66 -55 -85 -70 -32 -27 -32 -27 -4 -12 28 16
156 125 145 124 -3 0 -28 -19 -56 -42z"/>
<path d="M3120 952 c0 -5 10 -17 22 -28 l21 -19 -18 28 c-18 28 -25 33 -25 19z"/>
<path d="M3550 956 c0 -2 8 -10 18 -17 15 -13 16 -12 3 4 -13 16 -21 21 -21
13z"/>
<path d="M2607 929 c7 -7 15 -10 18 -7 3 3 -2 9 -12 12 -14 6 -15 5 -6 -5z"/>
<path d="M3843 929 c-17 -17 -16 -29 0 -29 7 0 26 -13 42 -30 16 -16 30 -28
32 -26 3 2 22 -15 43 -37 21 -23 41 -40 43 -37 3 3 -29 42 -71 88 -62 67 -79
81 -89 71z m77 -73 c0 -5 -16 5 -35 24 -19 19 -35 38 -35 44 0 5 16 -5 35 -24
19 -19 35 -38 35 -44z"/>
<path d="M3175 877 c10 -15 20 -25 23 -22 3 3 -5 16 -17 28 l-23 22 17 -28z"/>
<path d="M3615 880 c10 -11 20 -20 23 -20 3 0 -3 9 -13 20 -10 11 -20 20 -23
20 -3 0 3 -9 13 -20z"/>
<path d="M3842 850 c23 -27 44 -47 46 -45 6 5 -70 95 -81 95 -4 0 11 -22 35
-50z"/>
<path d="M1296 854 c-22 -19 -34 -34 -28 -34 15 0 79 57 72 63 -3 3 -23 -10
-44 -29z"/>
<path d="M3420 863 c0 -6 8 -17 18 -24 16 -13 16 -13 2 6 -8 11 -16 22 -17 24
-2 2 -3 0 -3 -6z"/>
<path d="M1425 819 c-71 -58 -88 -78 -33 -39 42 29 98 81 87 80 -2 -1 -26 -19
-54 -41z"/>
<path d="M2940 830 c14 -10 27 -17 29 -14 6 5 -31 33 -44 33 -5 1 1 -8 15 -19z"/>
<path d="M1559 803 c-13 -16 -12 -17 4 -4 16 13 21 21 13 21 -2 0 -10 -8 -17
-17z"/>
<path d="M3680 816 c0 -2 8 -10 18 -17 15 -13 16 -12 3 4 -13 16 -21 21 -21
13z"/>
<path d="M1610 782 c-19 -16 -43 -31 -52 -35 -22 -8 -24 -27 -3 -27 8 0 19 9
25 20 6 11 27 31 48 45 20 14 32 25 27 25 -6 0 -26 -13 -45 -28z"/>
<path d="M3460 804 c0 -6 14 -23 30 -39 17 -16 30 -24 30 -19 0 6 -13 23 -30
39 -16 16 -30 24 -30 19z"/>
<path d="M1411 759 c-13 -11 -22 -22 -19 -24 2 -3 15 6 28 20 28 30 24 32 -9
4z"/>
<path d="M3080 745 c7 -8 17 -15 22 -15 6 0 5 7 -2 15 -7 8 -17 15 -22 15 -6
0 -5 -7 2 -15z"/>
<path d="M208 693 c6 -2 18 -2 25 0 6 3 1 5 -13 5 -14 0 -19 -2 -12 -5z"/>
<path d="M145 680 c-7 -12 2 -12 30 0 19 8 19 9 -2 9 -12 1 -25 -3 -28 -9z"/>
<path d="M45 664 l-40 -14 45 6 c25 3 49 9 55 15 13 13 -12 10 -60 -7z"/>
<path d="M603 643 c9 -2 23 -2 30 0 6 3 -1 5 -18 5 -16 0 -22 -2 -12 -5z"/>
<path d="M713 643 c9 -2 23 -2 30 0 6 3 -1 5 -18 5 -16 0 -22 -2 -12 -5z"/>
<path d="M425 630 c-28 -7 -28 -8 -5 -9 14 0 32 4 40 9 17 11 8 11 -35 0z"/>
<path d="M493 633 c9 -2 23 -2 30 0 6 3 -1 5 -18 5 -16 0 -22 -2 -12 -5z"/>
<path d="M860 616 c0 -2 7 -7 16 -10 8 -3 12 -2 9 4 -6 10 -25 14 -25 6z"/>
<path d="M230 600 c0 -6 11 -8 28 -4 39 10 40 14 4 14 -18 0 -32 -5 -32 -10z"/>
<path d="M3811 606 c2 -2 29 -6 59 -9 36 -4 48 -3 35 3 -19 8 -103 14 -94 6z"/>
<path d="M1020 590 c-35 -7 -35 -7 -5 -9 17 0 37 4 45 9 17 11 11 11 -40 0z"/>
<path d="M1123 593 c15 -2 37 -2 50 0 12 2 0 4 -28 4 -27 0 -38 -2 -22 -4z"/>
<path d="M1260 579 c0 -5 7 -9 15 -9 26 0 109 -32 140 -53 24 -17 27 -18 16
-3 -8 9 -28 24 -45 33 -42 22 -126 43 -126 32z"/>
<path d="M3900 560 c8 -5 24 -9 35 -9 l20 0 -20 9 c-11 5 -27 9 -35 9 -13 1
-13 0 0 -9z"/>
<path d="M4028 563 c17 -2 47 -2 65 0 17 2 3 4 -33 4 -36 0 -50 -2 -32 -4z"/>
<path d="M4183 553 c9 -2 23 -2 30 0 6 3 -1 5 -18 5 -16 0 -22 -2 -12 -5z"/>
<path d="M4258 543 c7 -3 16 -2 19 1 4 3 -2 6 -13 5 -11 0 -14 -3 -6 -6z"/>
<path d="M1470 470 c0 -5 5 -10 11 -10 5 0 7 -5 3 -12 -4 -7 -3 -8 4 -4 7 4
12 2 12 -5 0 -7 3 -10 6 -7 3 3 29 0 57 -8 64 -17 67 -17 43 1 -11 8 -29 15
-40 15 -12 0 -36 9 -54 20 -37 23 -42 24 -42 10z"/>
<path d="M2103 473 c9 -2 25 -2 35 0 9 3 1 5 -18 5 -19 0 -27 -2 -17 -5z"/>
<path d="M2708 473 c7 -3 16 -2 19 1 4 3 -2 6 -13 5 -11 0 -14 -3 -6 -6z"/>
<path d="M2080 451 c0 -4 18 -11 39 -15 22 -3 48 -8 58 -11 10 -3 5 1 -12 8
-42 20 -85 29 -85 18z"/>
<path d="M1698 443 c7 -3 16 -2 19 1 4 3 -2 6 -13 5 -11 0 -14 -3 -6 -6z"/>
<path d="M1793 443 c9 -2 23 -2 30 0 6 3 -1 5 -18 5 -16 0 -22 -2 -12 -5z"/>
<path d="M1868 443 c7 -3 16 -2 19 1 4 3 -2 6 -13 5 -11 0 -14 -3 -6 -6z"/>
<path d="M1940 446 c0 -2 7 -7 16 -10 8 -3 12 -2 9 4 -6 10 -25 14 -25 6z"/>
<path d="M1288 433 c6 -2 18 -2 25 0 6 3 1 5 -13 5 -14 0 -19 -2 -12 -5z"/>
<path d="M1138 423 c7 -3 16 -2 19 1 4 3 -2 6 -13 5 -11 0 -14 -3 -6 -6z"/>
<path d="M2205 423 c14 -15 75 -25 75 -13 0 6 -8 10 -17 10 -10 0 -29 3 -43 6
-17 5 -22 3 -15 -3z"/>
<path d="M2862 414 c10 -10 20 -15 24 -12 3 4 -5 12 -18 18 -22 12 -22 12 -6
-6z"/>
<path d="M3510 412 c21 -13 110 -22 110 -11 0 5 -10 9 -22 9 -13 0 -41 3 -63
6 -27 4 -35 2 -25 -4z"/>
<path d="M1682 404 c8 -8 122 -33 127 -28 2 2 -2 5 -10 8 -8 2 -29 9 -48 15
-36 12 -78 15 -69 5z"/>
<path d="M948 393 c6 -2 18 -2 25 0 6 3 1 5 -13 5 -14 0 -19 -2 -12 -5z"/>
<path d="M2345 391 c31 -13 93 -24 75 -12 -8 5 -33 12 -55 15 -27 4 -34 4 -20
-3z"/>
<path d="M3710 382 c23 -14 77 -25 65 -14 -5 6 -26 13 -45 16 -23 5 -30 4 -20
-2z"/>
<path d="M2446 363 c6 -4 16 -17 23 -28 11 -19 11 -19 9 5 -2 16 -10 26 -23
28 -12 2 -16 0 -9 -5z"/>
<path d="M1905 345 c17 -7 50 -15 75 -19 44 -5 43 -5 -15 14 -67 22 -106 25
-60 5z"/>
<path d="M2978 353 c7 -3 16 -2 19 1 4 3 -2 6 -13 5 -11 0 -14 -3 -6 -6z"/>
<path d="M2118 313 c12 -2 32 -2 45 0 12 2 2 4 -23 4 -25 0 -35 -2 -22 -4z"/>
<path d="M2223 313 c9 -2 23 -2 30 0 6 3 -1 5 -18 5 -16 0 -22 -2 -12 -5z"/>
<path d="M2305 305 c22 -10 97 -23 89 -15 -5 5 -29 11 -54 15 -25 3 -40 3 -35
0z"/>
<path d="M2130 260 c19 -16 40 -29 45 -29 6 0 -6 13 -25 29 -19 16 -39 30 -45
30 -5 0 6 -13 25 -30z"/>
<path d="M2490 280 c0 -25 99 -84 128 -77 10 2 -1 9 -26 17 -24 8 -57 26 -73
41 -16 15 -29 23 -29 19z"/>
<path d="M2768 213 c7 -3 16 -2 19 1 4 3 -2 6 -13 5 -11 0 -14 -3 -6 -6z"/>
<path d="M2818 203 c7 -3 16 -2 19 1 4 3 -2 6 -13 5 -11 0 -14 -3 -6 -6z"/>
<path d="M2653 193 c9 -2 23 -2 30 0 6 3 -1 5 -18 5 -16 0 -22 -2 -12 -5z"/>
<path d="M2870 185 c14 -8 30 -14 35 -14 6 0 -1 6 -15 14 -14 8 -29 14 -35 14
-5 0 1 -6 15 -14z"/>
</g>
</svg>
