<?xml version="1.0" standalone="no"?>
<!DOCTYPE svg PUBLIC "-//W3C//DTD SVG 20010904//EN"
 "http://www.w3.org/TR/2001/REC-SVG-20010904/DTD/svg10.dtd">
<svg version="1.0" xmlns="http://www.w3.org/2000/svg"
 width="275.000000pt" height="214.000000pt" viewBox="0 0 275.000000 214.000000"
 preserveAspectRatio="xMidYMid meet">

<g transform="translate(0.000000,214.000000) scale(0.100000,-0.100000)"
fill="#000000" stroke="none">
<path d="M447 1902 c-14 -15 -17 -40 -17 -126 0 -60 -4 -183 -10 -274 -5 -92
-11 -264 -14 -382 -7 -284 -26 -832 -30 -845 -1 -5 4 -15 13 -22 13 -10 -11
-12 -122 -13 -76 0 -136 -4 -133 -9 3 -5 94 -9 202 -10 133 -1 194 2 189 9 -3
5 -30 10 -58 10 -41 1 -48 3 -34 11 23 14 973 12 996 -1 10 -6 -32 -9 -121
-10 -80 0 -139 -4 -143 -10 -4 -7 55 -10 169 -10 106 0 177 -4 181 -10 4 -6
-27 -10 -84 -10 -54 0 -91 -4 -91 -10 0 -6 92 -10 255 -10 163 0 255 4 255 10
0 6 -37 10 -91 10 -57 0 -88 4 -84 10 4 6 62 10 141 10 83 0 134 4 134 10 0 6
-41 10 -102 10 -70 0 -98 3 -88 10 8 5 112 11 230 12 l215 3 -177 2 c-98 2
-178 7 -178 11 0 4 37 22 83 41 45 19 133 59 196 88 63 29 119 53 125 53 25 0
32 35 25 115 -3 44 -10 301 -14 570 -10 745 -11 756 -26 765 -8 5 -29 0 -53
-15 -45 -25 -132 -72 -331 -178 -71 -38 -153 -82 -182 -98 l-51 -29 -267 -6
c-159 -3 -272 -1 -279 5 -11 9 -183 103 -347 189 -122 64 -209 112 -234 129
-25 17 -29 17 -48 -5z m362 -230 c53 -30 125 -71 161 -90 36 -19 70 -38 75
-42 10 -8 9 -55 -9 -495 -3 -82 -11 -243 -18 -356 l-12 -206 -50 -18 c-28 -9
-71 -23 -96 -30 -42 -12 -363 -109 -404 -121 -18 -6 -18 3 -12 227 3 129 11
389 17 579 13 364 13 387 17 598 l2 134 117 -62 c64 -34 160 -87 212 -118z
m1396 -14 c2 -95 6 -364 9 -598 4 -234 8 -453 11 -486 5 -69 10 -64 -105 -106
-30 -12 -66 -28 -80 -38 -25 -17 -118 -57 -245 -105 -38 -15 -92 -38 -118 -52
-27 -13 -52 -22 -55 -18 -8 8 -4 873 6 1100 l7 180 130 73 c72 41 186 104 255
140 69 36 136 71 150 78 13 7 26 11 28 9 3 -2 6 -82 7 -177z m-610 -510 c-3
-211 -9 -450 -12 -533 -4 -82 -6 -198 -6 -257 1 -61 -2 -108 -7 -108 -5 0 -38
13 -72 29 -35 16 -101 44 -148 61 -85 32 -257 110 -295 134 -19 13 -20 20 -13
187 6 151 24 542 33 709 2 30 4 79 4 108 l1 52 260 0 260 0 -5 -382z m-478
-768 c5 0 22 -7 38 -16 17 -8 65 -29 108 -46 42 -17 76 -32 75 -34 -2 -1 -182
-4 -401 -6 -218 -2 -394 -1 -390 3 5 4 73 26 153 49 80 23 183 54 229 69 l85
27 48 -23 c26 -13 51 -23 55 -23z"/>
<path d="M283 263 c15 -2 37 -2 50 0 12 2 0 4 -28 4 -27 0 -38 -2 -22 -4z"/>
<path d="M2258 263 c6 -2 18 -2 25 0 6 3 1 5 -13 5 -14 0 -19 -2 -12 -5z"/>
<path d="M570 230 c0 -5 25 -10 55 -10 30 0 55 5 55 10 0 6 -25 10 -55 10 -30
0 -55 -4 -55 -10z"/>
<path d="M710 230 c0 -6 27 -10 60 -10 33 0 60 4 60 10 0 6 -27 10 -60 10 -33
0 -60 -4 -60 -10z"/>
<path d="M870 230 c0 -6 50 -10 130 -10 80 0 130 4 130 10 0 6 -50 10 -130 10
-80 0 -130 -4 -130 -10z"/>
<path d="M1985 230 c-4 -6 15 -10 49 -10 31 0 56 5 56 10 0 6 -22 10 -49 10
-28 0 -53 -4 -56 -10z"/>
<path d="M2120 230 c0 -6 49 -10 126 -10 81 0 123 4 119 10 -4 6 -57 10 -126
10 -73 0 -119 -4 -119 -10z"/>
<path d="M2440 230 c-11 -7 -2 -10 33 -10 30 0 46 4 42 10 -8 13 -55 13 -75 0z"/>
<path d="M450 190 c0 -13 167 -13 175 0 4 6 -27 10 -84 10 -54 0 -91 -4 -91
-10z"/>
<path d="M680 190 c0 -13 318 -12 326 1 3 5 -64 9 -160 9 -105 0 -166 -4 -166
-10z"/>
<path d="M1060 190 c0 -6 43 -10 109 -10 63 0 112 4 116 10 4 6 -35 10 -109
10 -71 0 -116 -4 -116 -10z"/>
<path d="M1900 190 c0 -6 30 -10 70 -10 40 0 70 4 70 10 0 6 -30 10 -70 10
-40 0 -70 -4 -70 -10z"/>
<path d="M2090 190 c0 -5 16 -10 35 -10 19 0 35 5 35 10 0 6 -16 10 -35 10
-19 0 -35 -4 -35 -10z"/>
</g>
</svg>
