<svg version="1.1" xmlns="http://www.w3.org/2000/svg" style="display: block;" viewBox="0 0 1823 2048" width="502" height="564" preserveAspectRatio="none">
<defs>
	<linearGradient id="Gradient1" gradientUnits="userSpaceOnUse" x1="827.603" y1="1182.9" x2="820.34" y2="1178.45">
		<stop class="stop0" offset="0" stop-opacity="0.964706" stop-color="rgb(0,0,0)"/>
		<stop class="stop1" offset="1" stop-opacity="1" stop-color="rgb(0,0,0)"/>
	</linearGradient>
	<linearGradient id="Gradient2" gradientUnits="userSpaceOnUse" x1="1202.99" y1="1948.49" x2="1201.93" y2="1970.29">
		<stop class="stop0" offset="0" stop-opacity="0.964706" stop-color="rgb(0,0,0)"/>
		<stop class="stop1" offset="1" stop-opacity="1" stop-color="rgb(0,0,0)"/>
	</linearGradient>
	<linearGradient id="Gradient3" gradientUnits="userSpaceOnUse" x1="270.957" y1="2013.78" x2="295.033" y2="1989.21">
		<stop class="stop0" offset="0" stop-opacity="0.956863" stop-color="rgb(0,0,0)"/>
		<stop class="stop1" offset="1" stop-opacity="0.988235" stop-color="rgb(0,0,0)"/>
	</linearGradient>
	<linearGradient id="Gradient4" gradientUnits="userSpaceOnUse" x1="646.413" y1="939.922" x2="643.47" y2="930.713">
		<stop class="stop0" offset="0" stop-opacity="0.933333" stop-color="rgb(0,0,0)"/>
		<stop class="stop1" offset="1" stop-opacity="0.976471" stop-color="rgb(0,0,0)"/>
	</linearGradient>
	<linearGradient id="Gradient5" gradientUnits="userSpaceOnUse" x1="893.904" y1="1998.74" x2="893.366" y2="1986.43">
		<stop class="stop0" offset="0" stop-opacity="0.905882" stop-color="rgb(0,0,0)"/>
		<stop class="stop1" offset="1" stop-opacity="1" stop-color="rgb(0,0,0)"/>
	</linearGradient>
	<linearGradient id="Gradient6" gradientUnits="userSpaceOnUse" x1="1172.44" y1="2002.01" x2="1180.17" y2="1981.34">
		<stop class="stop0" offset="0" stop-opacity="0.960784" stop-color="rgb(0,0,0)"/>
		<stop class="stop1" offset="1" stop-opacity="1" stop-color="rgb(0,0,0)"/>
	</linearGradient>
	<linearGradient id="Gradient7" gradientUnits="userSpaceOnUse" x1="1525" y1="644.031" x2="1520.42" y2="635.95">
		<stop class="stop0" offset="0" stop-opacity="0.964706" stop-color="rgb(0,0,0)"/>
		<stop class="stop1" offset="1" stop-opacity="1" stop-color="rgb(0,0,0)"/>
	</linearGradient>
	<linearGradient id="Gradient8" gradientUnits="userSpaceOnUse" x1="1322.42" y1="238.777" x2="1315.71" y2="279.411">
		<stop class="stop0" offset="0" stop-opacity="0.921569" stop-color="rgb(0,0,0)"/>
		<stop class="stop1" offset="1" stop-opacity="1" stop-color="rgb(0,0,0)"/>
	</linearGradient>
	<linearGradient id="Gradient9" gradientUnits="userSpaceOnUse" x1="688.445" y1="961.921" x2="687.005" y2="957.324">
		<stop class="stop0" offset="0" stop-opacity="0.968627" stop-color="rgb(0,0,0)"/>
		<stop class="stop1" offset="1" stop-opacity="1" stop-color="rgb(0,0,0)"/>
	</linearGradient>
	<linearGradient id="Gradient10" gradientUnits="userSpaceOnUse" x1="924.312" y1="2018.34" x2="944.275" y2="1980.45">
		<stop class="stop0" offset="0" stop-opacity="0.968627" stop-color="rgb(0,0,0)"/>
		<stop class="stop1" offset="1" stop-opacity="1" stop-color="rgb(1,0,1)"/>
	</linearGradient>
	<linearGradient id="Gradient11" gradientUnits="userSpaceOnUse" x1="1461.34" y1="2003.62" x2="1462.82" y2="1983.11">
		<stop class="stop0" offset="0" stop-opacity="0.945098" stop-color="rgb(0,0,0)"/>
		<stop class="stop1" offset="1" stop-opacity="1" stop-color="rgb(0,0,0)"/>
	</linearGradient>
	<linearGradient id="Gradient12" gradientUnits="userSpaceOnUse" x1="1024.55" y1="2015.73" x2="1010.77" y2="1977.15">
		<stop class="stop0" offset="0" stop-opacity="0.909804" stop-color="rgb(4,3,6)"/>
		<stop class="stop1" offset="1" stop-opacity="1" stop-color="rgb(29,29,28)"/>
	</linearGradient>
	<linearGradient id="Gradient13" gradientUnits="userSpaceOnUse" x1="454.303" y1="1923.63" x2="324.591" y2="2021.34">
		<stop class="stop0" offset="0" stop-opacity="1" stop-color="rgb(14,14,14)"/>
		<stop class="stop1" offset="1" stop-opacity="1" stop-color="rgb(47,47,48)"/>
	</linearGradient>
</defs>
<path transform="translate(0,0)" fill="rgb(31,30,31)" d="M 1505.19 639.892 L 1507.52 641.044 L 1505.4 642.77 C 1505.19 645.101 1505.42 647.927 1503.1 649.177 C 1493.63 654.265 1476.36 662.829 1466.51 666.516 C 1448.02 675.008 1429.81 683.886 1411.41 692.537 C 1407.31 694.465 1399.86 697.243 1395.54 698.589 C 1376.02 704.564 1359.07 714.718 1340.9 723.546 C 1330.46 728.616 1318.24 731.818 1307.53 736.71 C 1286.19 746.448 1265.96 757.461 1243.78 765.295 C 1235.37 768.262 1226.36 774.229 1217.91 777.471 C 1208.91 781.344 1199.79 784.661 1190.73 788.571 L 1116.3 820.584 C 1088.96 832.516 1050.37 853.267 1020.01 841.37 C 1009.68 837.322 1003.8 833.351 995.422 826.279 C 977.652 834.599 960.007 842.548 941.706 849.626 C 935.048 852.201 930.437 854.705 924.858 859.075 L 923.852 859.848 C 923.654 860.006 923.457 860.165 923.259 860.324 C 928.013 881.556 935.9 901.798 926.843 921.266 C 905.079 932.052 879.448 939.571 860.849 954.282 C 895.446 991.396 891.903 1010.48 881.732 1056.44 C 881.212 1058.79 882.729 1062.37 884.292 1064.24 C 896.299 1068.77 948.505 1060.78 956.696 1080.43 C 961.526 1092.01 962.41 1132.88 956.496 1145.71 C 954.059 1151 947.17 1154.5 942.121 1156.72 L 935.249 1159.21 C 927.688 1159.4 926.172 1158.27 918.904 1156.43 C 910.503 1154.3 903.091 1154.96 894.617 1156.15 C 876.728 1184.04 902.554 1179.28 907.163 1184.49 C 905.781 1190.56 900.526 1199.15 903.833 1203.66 C 906.301 1207.03 908.384 1207.65 910.448 1212.31 C 912.502 1218.82 914.602 1225.31 916.747 1231.78 C 930.2 1277.58 950.109 1326.4 968.508 1371.01 C 990.95 1418.64 1005.25 1469.36 1027.01 1517.18 C 1030.14 1524.06 1030.54 1537.03 1033.64 1543.89 C 1052.75 1586.13 1067.68 1630.18 1084.71 1673.26 C 1093.89 1696.86 1103.47 1720.3 1113.46 1743.56 C 1120.23 1759.28 1131.54 1780.74 1135.09 1796.68 C 1140 1818.74 1153.06 1836.27 1160.35 1854.79 C 1163.97 1863.98 1180.34 1911.36 1179.72 1917.33 L 1178.51 1917.5 C 1175.95 1915.44 1173.56 1913.31 1170.62 1911.84 C 1167.03 1902.82 1162.53 1896.22 1158.6 1887.77 C 1154.29 1878.5 1150.15 1866.6 1146.53 1856.89 C 1133.99 1840.06 1129.41 1821.83 1121.59 1802.38 L 1087.28 1715.83 L 1011.89 1524.8 C 1009.05 1517.63 1005.92 1510.74 1002.86 1503.66 C 1000.43 1498.04 997.231 1491.71 995.262 1485.97 C 969.156 1409.82 940.171 1334.4 908.618 1260.31 C 902.857 1246.79 899.114 1232.15 893.167 1218.64 C 885.677 1201.52 881.498 1183.13 873.958 1166.01 C 871.855 1161.26 870.49 1160.92 865.788 1159.13 L 865.205 1158.43 C 861.312 1158.72 859.223 1158.39 856.362 1160.69 C 853.508 1166.01 853.362 1194.07 853.073 1202.5 C 852.067 1227.57 850.471 1252.61 848.285 1277.6 C 847.279 1289.28 845.661 1298.8 845.129 1310.79 C 844.279 1329.92 845.26 1349.11 844.382 1368.05 L 843.967 1380.55 C 841.441 1395.17 841.291 1421.13 841.464 1436.64 C 841.563 1445.54 843.096 1454.9 842.654 1464.22 L 827.457 1743.33 C 826.466 1765.12 828.171 1788.33 826.076 1810.5 C 825.319 1818.5 828.817 1830.58 827.734 1839.11 C 826.437 1855.38 823.683 1871.79 821.386 1887.97 C 820.35 1895.26 820.757 1913.13 816.702 1917.74 L 816.808 1919.33 L 818.514 1920.15 C 819.251 1919.39 819.989 1918.63 820.726 1917.87 C 822.212 1909.58 822.182 1887.29 824.463 1880.12 C 827.295 1899.17 822.339 1918.9 820.336 1937.33 C 819.167 1948.09 818.604 1972.53 819.985 1982.87 C 815.099 1988.1 810.827 1990.4 812.997 1997.77 L 813.244 1999.56 C 812.858 2002.08 812.716 2001.93 811.005 2003.89 C 775.335 2016.53 780.284 1955.99 779.776 1936.63 C 779.564 1928.52 778.011 1906.27 785.084 1901.32 C 796.305 1908.41 778.732 1955.11 795.385 1973.11 C 805.566 1970.47 806.414 1969.53 805.408 1957.84 C 804.287 1944.81 810.511 1928.79 810.684 1916.17 C 810.971 1895.22 811.275 1874.46 811.734 1853.51 L 817.489 1645.85 C 817.938 1633.52 820.172 1621.5 820.473 1609.02 C 821.618 1561.62 821.099 1515.35 826.837 1468.24 L 826.973 1467.27 C 823.116 1442.14 829.997 1404.13 830.787 1378 C 829.535 1363.78 834.396 1344.57 833.55 1331.23 C 832.173 1309.53 837.431 1289.58 838.193 1269.16 C 839.537 1233.14 842.117 1197.17 843.024 1161.23 C 843.06 1157.15 843.692 1158.1 841.565 1155.85 C 832.971 1153.96 810.857 1156.22 810.198 1168.14 C 809.044 1189.01 809.327 1209.66 810.063 1230.53 C 810.954 1251.27 811.184 1272.05 810.754 1292.81 C 810.405 1312.8 808.037 1330.4 806.997 1349.59 C 805.774 1372.18 806.707 1394.51 803.636 1417.23 C 803.274 1419.91 806.92 1463.15 807.723 1464.8 C 808.765 1498.48 804.521 1532.29 804.947 1565.73 C 805.25 1589.48 800.624 1612.37 800.419 1635.21 C 800.093 1671.53 799.217 1708.29 798.719 1744.55 C 793.237 1758.65 800.137 1791.19 789.313 1796.99 C 786.915 1793.78 784.186 1681.53 785.079 1670.02 C 789.43 1613.93 789.633 1558.06 786.766 1501.86 C 786.586 1495.05 786.33 1484.76 786.983 1478.16 C 790.043 1447.23 788.53 1416.43 791.92 1385.62 C 790.629 1354.5 803.327 1175.2 796.22 1162.53 L 796.414 1162.13 L 791.083 1160.38 C 783.376 1155.23 726.301 1155.77 714.972 1157.11 C 696.352 1152.44 696.631 1082.6 714.631 1071 C 727.119 1062.96 731.865 1066.49 746.786 1067.18 C 761.546 1060.32 767.754 1061.95 783.838 1062.78 C 779.83 1049.66 775.321 1028.22 775.56 1014.69 C 775.697 1006.97 780.672 994.74 779.017 988.119 C 776.498 988.281 749.62 998.633 743.668 1000.44 C 738.038 998.403 732.437 997.353 727.063 994.408 C 716.476 988.606 710.94 969.014 708.189 957.47 C 708.052 955.195 708.408 953.181 708.659 950.899 C 699.501 948.696 658.048 969.136 646.975 976.024 C 617.966 994.07 570.398 1022.59 535.628 1017.26 C 525.537 1015.71 506.202 1002.68 500.437 1001.24 L 499.517 1002.02 L 499.529 1002.31 L 498.15 1003.13 C 496.417 1004.18 492.991 1007.15 492.247 1007.47 C 486.027 1010.09 479.45 1012.39 473.232 1015.1 L 379.336 1055.56 C 346.784 1069.21 359 1061.77 342.719 1093.37 C 337.428 1103.64 309.838 1107.28 302.366 1112.85 C 276.951 1131.78 227.52 1090.52 220.421 1067.05 C 219.094 1065.35 215.992 1059.62 215.224 1057.54 C 205.735 1031.85 193.906 990.887 205.106 964.476 C 214.194 943.043 230.874 941.092 250.209 931.969 C 268.963 923.12 272.18 925.569 288.812 933.578 C 290.343 934.256 294.766 934.859 296.185 934.129 C 330.195 916.613 361.848 895.224 395.787 877.561 C 404.777 872.882 412.328 866.886 421.829 862.872 C 419.215 838.45 421.709 805.703 433.482 783.798 C 439.597 766.317 479.547 744.436 496.865 737.533 C 504.659 737.483 557.617 715.291 567.052 709.47 C 574.273 705.015 587.726 694.47 596.122 690.579 C 603.869 686.99 616.761 692.671 624.2 688.625 C 628.266 686.414 630.536 686.181 634.974 687.159 L 635.083 688.439 C 632.638 690.626 563.877 728.432 560.95 729.312 C 557.367 731.706 549.668 737.114 546.172 738.759 C 537.629 746.134 521.425 752.493 512.744 759.2 C 502.218 767.332 467.133 778.988 463.525 790.201 L 463.209 790.669 C 456.749 793.135 451.526 805.287 448.569 811.044 C 433.088 841.189 445.802 866.93 451.528 897.463 C 453.095 905.816 451.696 926.739 455.955 933.082 L 457.014 933.181 C 458.523 929.839 458.153 928.989 460.694 927.673 L 462.818 929.147 C 468.702 932.914 473.011 938.431 477.903 943.468 C 499.676 965.883 521.045 1001.65 557.043 997.541 C 568.26 996.123 585.949 985.928 596.31 983.176 C 593.533 982.308 590.945 981.993 588.09 981.508 C 605.554 975.434 623.938 965.08 641.717 959.193 C 660.4 953.008 678.472 943.574 697.12 938.109 C 696.204 929.598 695.755 925.673 697.528 917.292 L 697.77 912.392 C 714.259 899.408 745.529 891.772 764.162 881.444 C 799.841 861.497 836.909 844.163 875.256 829.994 C 882.711 827.239 884.392 828.894 889.322 834.333 C 894.267 839.789 897.129 842.8 903.657 846.384 L 905.122 847.182 C 913 841.536 920.825 837.325 929.671 833.333 C 938.624 829.293 975.236 824.469 976.113 813.349 L 974.591 811.742 L 972.843 808.469 C 971.826 805.505 970.689 805.234 968.482 804.058 C 962.813 803.895 958.932 806.498 954.114 809.295 C 933.057 797.381 919.76 784.286 907.56 763.792 C 903.821 757.51 891.767 744.361 894.595 736.946 C 895.228 736.835 895.86 736.723 896.493 736.611 C 909.051 749.572 918.691 768.882 935.526 777.807 C 937.464 778.834 939.363 777.09 941.598 775.846 C 942.906 773.523 942.651 771.464 942.719 768.753 C 939.803 754.303 887.339 680.131 896.316 670.18 C 904.86 673.036 912.598 696.262 917.15 704.157 C 946.95 755.843 987.087 820.562 1053.28 825.044 C 1063.28 824.61 1074.98 818.356 1084.18 814.36 C 1153.68 784.147 1224.29 755.384 1293.73 725.334 C 1314.4 716.386 1331.46 706.949 1352.71 698.672 C 1375.24 689.898 1395.5 677.709 1419.44 671.176 C 1440.83 663.028 1482.95 640.241 1505.19 639.892 z M 428.917 889.906 L 428.414 889.623 C 427.006 888.7 425.371 887.224 423.543 888.116 C 396.744 901.191 372.728 917.389 345.124 929.353 C 330.966 935.488 319.929 943.322 304.753 948.745 C 298.275 950.665 293.17 952.664 286.387 952.099 C 286.018 950.535 285.93 950.588 285.912 949 C 282.035 949.973 283.42 949.235 280.695 953.538 C 277.219 946.467 266.668 945.769 259.506 945.133 C 232.891 973.314 209.177 971.3 223.815 1020.22 C 225.874 1027.81 235.459 1048.42 241.497 1053.4 C 255.512 1072.4 264.212 1081.38 285.32 1091.92 C 295.791 1087.47 304.879 1084.63 315.996 1082.27 C 323.826 1080.6 327.226 1078.43 332.095 1072.11 C 328.375 1067.43 326.947 1070.75 320.709 1068.67 C 317.58 1066.43 312.42 1067.69 306.374 1065.84 C 281.04 1053.63 263.923 1019.07 260.767 992.632 C 259.583 982.711 259.529 974.244 266.379 966.189 C 268.553 963.633 269.284 961.54 272.62 961.057 L 272.819 964.56 L 274.219 965.453 L 278.029 963.676 C 278.988 965.048 278.365 976.469 278.453 979.309 C 279.543 1014.66 295.532 1037.24 322.374 1057.79 C 332.447 1053.62 341.992 1046.39 352.013 1042.18 C 384.545 1028.54 418.466 1017.3 449.464 1000.37 C 460.014 994.611 470.665 993.41 478.966 983.943 C 477.212 977.84 468.722 972.7 464.578 967.022 C 447.311 943.369 431.622 919.309 428.917 889.906 z M 872.088 853.436 C 862.589 853.027 842.675 865.882 832.87 869.495 C 825.813 872.096 818.096 875.341 811.065 878.18 C 790.914 888.975 770.62 899.28 750.024 909.212 C 744.986 911.641 740.169 915.4 735.036 917.756 C 729.948 919.996 725.791 920.181 720.022 922.797 C 717.518 927.972 724.691 938.085 727.314 943.261 C 730.724 949.99 737.723 972.253 742.97 975.399 C 758.013 973.922 801.644 949.757 817.391 943.416 C 831.11 937.892 882.731 918.226 890.091 909.197 C 881.039 897.275 880.722 869.455 872.088 853.436 z M 732.201 1086.88 L 725.695 1101.15 C 728.283 1117.05 727.394 1123.47 726.196 1139.18 C 731.595 1139.21 740.749 1140.32 744.898 1139.75 C 747.523 1138.43 750.456 1137.16 753.45 1137.26 C 790.16 1138.51 826.839 1137.75 863.574 1137.89 L 915.222 1137.79 C 924.652 1137.72 929.384 1136.94 939.107 1137.67 L 943.009 1136.78 C 940.251 1122.43 945.084 1095.87 939.357 1088.01 C 919.388 1086.17 899.168 1090.97 878.282 1088.12 C 864.152 1078.81 809.457 1084.26 790.789 1083.91 C 782.26 1083.75 737.017 1082.86 732.785 1086.6 L 732.201 1086.88 z M 817.236 969.734 L 813.711 968.969 C 805.323 977.366 795.793 998.661 791.302 1009.7 C 789.606 1013.87 800.651 1062.03 803.517 1065.4 C 804.632 1065.15 805.757 1064.4 806.843 1063.82 C 816.709 1061.82 838.007 1062.71 848.364 1062.99 C 851.443 1059.1 854.85 1055.99 858.369 1052.53 C 878.374 1032.85 875.827 998.952 859.42 977.914 C 853.325 970.099 847.522 967.309 838.833 963.401 C 830.291 964.836 825.417 966.729 817.236 969.734 z M 894.365 863.726 C 892.541 864.849 889.994 865.956 890.111 868.481 C 890.736 882.016 896.572 892.887 898.667 907.643 C 903.714 908.605 917.443 914.871 918.699 908.025 C 919.828 901.867 915.05 871.002 912.22 866.951 C 906.31 866.306 900.268 864.811 894.365 863.726 z"/>
<path transform="translate(0,0)" fill="rgb(0,0,0)" fill-opacity="0.929412" d="M 400.055 1000.81 L 402.454 1001.74 L 401.869 1003.58 C 394.437 1009.81 376.544 1019.72 367.294 1023.22 C 365.353 1022.9 366.216 1023.32 364.728 1021.94 C 366.85 1015.11 393.294 1003.44 400.055 1000.81 z"/>
<path transform="translate(0,0)" fill="rgb(0,0,0)" fill-opacity="0.988235" d="M 304.753 948.745 C 319.929 943.322 330.966 935.488 345.124 929.353 C 372.728 917.389 396.744 901.191 423.543 888.116 C 425.371 887.224 427.006 888.7 428.414 889.623 C 423.697 889.346 404.886 904.169 398.733 907.426 C 369.489 922.933 339.315 936.31 310.368 952.676 C 306.747 954.723 287.473 962.023 286.33 964.712 C 274.109 993.452 294.995 1041.15 324.981 1051.1 C 344.598 1038.97 355.58 1037.99 375.808 1029.09 C 391.119 1022.35 407.103 1014.71 422.632 1008.09 C 439.177 1001.03 461.706 987.316 478.966 983.943 C 470.665 993.41 460.014 994.611 449.464 1000.37 C 418.466 1017.3 384.545 1028.54 352.013 1042.18 C 341.992 1046.39 332.447 1053.62 322.374 1057.79 C 295.532 1037.24 279.543 1014.66 278.453 979.309 C 278.365 976.469 278.988 965.048 278.029 963.676 L 274.219 965.453 L 272.819 964.56 L 272.62 961.057 C 269.284 961.54 268.553 963.633 266.379 966.189 C 259.529 974.244 259.583 982.711 260.767 992.632 C 263.923 1019.07 281.04 1053.63 306.374 1065.84 C 312.42 1067.69 317.58 1066.43 320.709 1068.67 C 318.644 1069.7 315.811 1071.58 313.823 1071.42 C 303.927 1070.59 295.519 1064.37 288.756 1057.55 C 268.315 1036.95 253.841 999.753 258.089 970.678 C 258.79 965.878 266.444 954.659 266.485 947.368 L 265.174 946.754 C 259.374 948.975 255.555 957.635 250.745 960.771 C 243.253 965.656 237.467 966.291 230.526 972.668 C 228.054 979.208 226.599 987.585 225.153 994.549 C 223.445 1002.61 225.129 1013.14 223.815 1020.22 C 209.177 971.3 232.891 973.314 259.506 945.133 C 266.668 945.769 277.219 946.467 280.695 953.538 C 283.42 949.235 282.035 949.973 285.912 949 C 285.93 950.588 286.018 950.535 286.387 952.099 C 293.17 952.664 298.275 950.665 304.753 948.745 z"/>
<path transform="translate(0,0)" fill="rgb(0,0,0)" fill-opacity="0.972549" d="M 223.815 1020.22 C 225.129 1013.14 223.445 1002.61 225.153 994.549 C 227.326 1005.76 227.704 1014.95 230.596 1026.22 C 233.487 1037.48 237.658 1043.71 241.497 1053.4 C 235.459 1048.42 225.874 1027.81 223.815 1020.22 z"/>
<path transform="translate(0,0)" fill="rgb(0,0,0)" d="M 865.205 1158.43 C 867.922 1158.32 871.982 1157.77 873.926 1160.42 C 886.1 1177.25 889.484 1198.67 895.552 1218.11 C 897.819 1225.37 904.647 1231.13 906.717 1237.36 C 913.451 1257.63 921.239 1275.94 930.567 1295.1 C 934.163 1302.49 936.675 1314.14 939.803 1322.22 L 1017.55 1523.63 C 1029.31 1554.28 1041.25 1584.79 1052.35 1615.71 C 1057.79 1630.87 1067 1645.97 1073.29 1660.37 C 1076.35 1667.35 1079.61 1681.15 1082.85 1689.78 C 1090.07 1709.01 1097.35 1727.51 1105.4 1746.44 C 1109.75 1756.67 1113.03 1769.95 1117.37 1780.14 C 1125.33 1798.84 1133.34 1817.06 1139.9 1836.37 C 1141.95 1842.41 1145.52 1850.77 1146.53 1856.89 C 1133.99 1840.06 1129.41 1821.83 1121.59 1802.38 L 1087.28 1715.83 L 1011.89 1524.8 C 1009.05 1517.63 1005.92 1510.74 1002.86 1503.66 C 1000.43 1498.04 997.231 1491.71 995.262 1485.97 C 969.156 1409.82 940.171 1334.4 908.618 1260.31 C 902.857 1246.79 899.114 1232.15 893.167 1218.64 C 885.677 1201.52 881.498 1183.13 873.958 1166.01 C 871.855 1161.26 870.49 1160.92 865.788 1159.13 L 865.205 1158.43 z"/>
<path transform="translate(0,0)" fill="rgb(0,0,0)" d="M 795.385 1973.11 C 805.566 1970.47 806.414 1969.53 805.408 1957.84 C 804.287 1944.81 810.511 1928.79 810.684 1916.17 C 810.971 1895.22 811.275 1874.46 811.734 1853.51 L 817.489 1645.85 C 817.938 1633.52 820.172 1621.5 820.473 1609.02 C 821.618 1561.62 821.099 1515.35 826.837 1468.24 C 829.605 1506 828.563 1543.93 825.452 1581.52 C 825.332 1582.97 826.94 1586.13 827.622 1587.54 C 826.935 1590.49 822.858 1602.32 822.908 1604.06 C 823.423 1621.85 825.203 1641.19 823.911 1658.98 C 820.894 1700.52 819.14 1741.29 820.082 1783.05 C 820.525 1802.72 816.498 1822.91 815.491 1842.57 C 814.305 1865.72 814.16 1888.77 815.147 1911.92 C 815.522 1920.26 813.479 1932.52 814.751 1940.54 L 817.473 1939.59 L 818.181 1940.27 C 817.619 1942.16 816.676 1943.52 815.078 1944.49 C 809.8 1947.69 810.413 1965.28 809.702 1973.09 C 806.242 1973.19 798.452 1973.63 795.385 1973.11 z"/>
<path transform="translate(0,0)" fill="rgb(0,0,0)" d="M 433.482 783.798 C 430.441 803.956 427.449 840.113 426.517 860.95 C 424.358 863.896 422.792 866.039 420.368 868.755 C 395.044 877.84 375.333 896.682 351.921 907.635 C 332.761 916.599 324.536 922.953 307.448 934.418 C 304.901 938.007 302.785 940.279 301.922 944.552 C 302.755 947.932 301.887 946.552 304.753 948.745 C 298.275 950.665 293.17 952.664 286.387 952.099 C 286.018 950.535 285.93 950.588 285.912 949 C 283.444 944.977 283.279 945.401 279.06 944.631 C 276.309 942.974 275.983 941.219 274.648 938.197 L 274.114 936.964 C 268.842 933.104 261.177 938.017 254.659 936.278 C 193.037 949.428 203.11 987.576 212.477 1038.98 C 214.125 1048.02 218.856 1058.25 220.421 1067.05 C 219.094 1065.35 215.992 1059.62 215.224 1057.54 C 205.735 1031.85 193.906 990.887 205.106 964.476 C 214.194 943.043 230.874 941.092 250.209 931.969 C 268.963 923.12 272.18 925.569 288.812 933.578 C 290.343 934.256 294.766 934.859 296.185 934.129 C 330.195 916.613 361.848 895.224 395.787 877.561 C 404.777 872.882 412.328 866.886 421.829 862.872 C 419.215 838.45 421.709 805.703 433.482 783.798 z"/>
<path transform="translate(0,0)" fill="rgb(19,19,19)" d="M 254.659 936.278 C 260.64 934.311 268.702 931.198 273.964 935.787 L 276.227 937.747 L 277.435 938.809 C 286.998 940.137 298.529 938.001 307.448 934.418 C 304.901 938.007 302.785 940.279 301.922 944.552 C 302.755 947.932 301.887 946.552 304.753 948.745 C 298.275 950.665 293.17 952.664 286.387 952.099 C 286.018 950.535 285.93 950.588 285.912 949 C 283.444 944.977 283.279 945.401 279.06 944.631 C 276.309 942.974 275.983 941.219 274.648 938.197 L 274.114 936.964 C 268.842 933.104 261.177 938.017 254.659 936.278 z"/>
<path transform="translate(0,0)" fill="rgb(0,0,0)" d="M 843.024 1161.23 C 845.544 1163.24 846.99 1163.31 847.038 1166.59 C 847.498 1198.32 845.203 1229.91 843.163 1261.55 C 842.723 1268.38 845.257 1273.2 844.956 1279.75 C 842.195 1311.12 834.572 1344.62 832.481 1375.63 C 830.782 1400.83 835.938 1443.22 826.973 1467.27 C 823.116 1442.14 829.997 1404.13 830.787 1378 C 829.535 1363.78 834.396 1344.57 833.55 1331.23 C 832.173 1309.53 837.431 1289.58 838.193 1269.16 C 839.537 1233.14 842.117 1197.17 843.024 1161.23 z"/>
<path transform="translate(0,0)" fill="rgb(0,0,0)" d="M 708.659 950.899 C 719.339 960.796 715.669 972.186 727.351 988.663 C 741.056 994.023 746.814 994.298 761.193 988.502 C 765.88 986.613 772.451 981.833 776.82 981.549 C 786.601 987.307 781.798 1017.25 782.649 1027.8 C 783.599 1039.56 785.474 1052.72 785.054 1064.37 C 775.309 1064.8 754.624 1067.83 746.786 1067.18 C 761.546 1060.32 767.754 1061.95 783.838 1062.78 C 779.83 1049.66 775.321 1028.22 775.56 1014.69 C 775.697 1006.97 780.672 994.74 779.017 988.119 C 776.498 988.281 749.62 998.633 743.668 1000.44 C 738.038 998.403 732.437 997.353 727.063 994.408 C 716.476 988.606 710.94 969.014 708.189 957.47 C 708.052 955.195 708.408 953.181 708.659 950.899 z"/>
<path transform="translate(0,0)" fill="rgb(0,0,0)" d="M 796.414 1162.13 C 798.905 1162.83 800.178 1162.99 801.406 1165.42 C 807.583 1177.68 799.216 1291.19 798.437 1314.97 C 797.956 1329.67 799.436 1355.63 797.285 1368.8 C 796.171 1366.15 796.837 1349.68 795.897 1343.63 L 795.17 1343.4 C 792.576 1353.33 796.945 1368.71 791.92 1385.62 C 790.629 1354.5 803.327 1175.2 796.22 1162.53 L 796.414 1162.13 z"/>
<path transform="translate(0,0)" fill="rgb(0,0,0)" d="M 697.528 917.292 C 700.238 920.684 700.514 919.306 706.076 920.468 C 705.682 921.287 701.74 926.84 701.931 926.005 C 698.428 941.303 705.649 944.677 688.102 949.049 C 656.493 956.923 626.994 973.682 596.31 983.176 C 593.533 982.308 590.945 981.993 588.09 981.508 C 605.554 975.434 623.938 965.08 641.717 959.193 C 660.4 953.008 678.472 943.574 697.12 938.109 C 696.204 929.598 695.755 925.673 697.528 917.292 z"/>
<path transform="translate(0,0)" fill="rgb(0,0,0)" d="M 428.917 889.906 L 432.625 890.555 C 441.665 919.404 449.102 934.581 464.943 960.578 C 469.314 967.751 481.8 974.679 482.799 980.746 C 482.923 981.499 480.065 983.231 478.966 983.943 C 477.212 977.84 468.722 972.7 464.578 967.022 C 447.311 943.369 431.622 919.309 428.917 889.906 z"/>
<path transform="translate(0,0)" fill="rgb(19,19,19)" d="M 306.374 1065.84 L 307.144 1065.9 C 310.562 1066.11 313.074 1066.2 316.504 1065.8 C 322.588 1065.1 327.053 1059.21 331.376 1063.82 C 332.04 1067.37 332.057 1068.46 332.095 1072.11 C 328.375 1067.43 326.947 1070.75 320.709 1068.67 C 317.58 1066.43 312.42 1067.69 306.374 1065.84 z"/>
<path transform="translate(0,0)" fill="rgb(57,56,58)" d="M 546.172 738.759 C 545.067 729.632 555.117 724.439 560.95 729.312 C 557.367 731.706 549.668 737.114 546.172 738.759 z"/>
<path transform="translate(0,0)" fill="rgb(0,0,0)" d="M 813.711 968.969 C 834.481 953.526 853.557 962.095 867.287 980.949 C 879.991 998.394 875.06 1027.4 871.537 1047.34 C 864.358 1054.96 856.618 1062.02 848.383 1068.48 C 836.068 1069.22 812.121 1064.2 803.517 1065.4 C 804.632 1065.15 805.757 1064.4 806.843 1063.82 C 816.709 1061.82 838.007 1062.71 848.364 1062.99 C 851.443 1059.1 854.85 1055.99 858.369 1052.53 C 878.374 1032.85 875.827 998.952 859.42 977.914 C 853.325 970.099 847.522 967.309 838.833 963.401 C 830.291 964.836 825.417 966.729 817.236 969.734 L 813.711 968.969 z"/>
<path transform="translate(0,0)" fill="rgb(0,0,0)" d="M 744.898 1139.75 C 747.523 1138.43 750.456 1137.16 753.45 1137.26 C 790.16 1138.51 826.839 1137.75 863.574 1137.89 L 915.222 1137.79 C 924.652 1137.72 929.384 1136.94 939.107 1137.67 C 926.746 1139.86 914.535 1140.02 902.137 1141.19 C 849.952 1146.12 797.295 1142.11 744.898 1139.75 z"/>
<path transform="translate(0,0)" fill="rgb(0,0,0)" fill-opacity="0.984314" d="M 813.711 968.969 L 817.236 969.734 C 807.465 977.817 807.471 982.789 803.148 993.413 C 793.538 1017.03 802.775 1037.87 806.21 1061.55 C 806.423 1063.02 806.166 1062.06 806.843 1063.82 C 805.757 1064.4 804.632 1065.15 803.517 1065.4 C 800.651 1062.03 789.606 1013.87 791.302 1009.7 C 795.793 998.661 805.323 977.366 813.711 968.969 z"/>
<path transform="translate(0,0)" fill="rgb(0,0,0)" fill-opacity="0.988235" d="M 732.785 1086.6 C 737.017 1082.86 782.26 1083.75 790.789 1083.91 C 809.457 1084.26 864.152 1078.81 878.282 1088.12 C 836.082 1085.66 793.292 1087.75 751.024 1087.23 C 744.969 1087.16 738.704 1086.35 732.785 1086.6 z"/>
<path transform="translate(0,0)" fill="rgb(0,0,0)" fill-opacity="0.988235" d="M 898.667 907.643 C 896.572 892.887 890.736 882.016 890.111 868.481 C 889.994 865.956 892.541 864.849 894.365 863.726 C 896.175 874.248 901.612 900.603 909.699 906.73 L 912.131 906.976 C 919.829 900.478 910.3 879.704 912.22 866.951 C 915.05 871.002 919.828 901.867 918.699 908.025 C 917.443 914.871 903.714 908.605 898.667 907.643 z"/>
<path transform="translate(0,0)" fill="rgb(0,0,0)" d="M 721.188 1094.33 C 724.924 1090.09 726.727 1087.9 732.201 1086.88 L 725.695 1101.15 C 728.283 1117.05 727.394 1123.47 726.196 1139.18 C 720.442 1133.05 720.688 1103.37 721.188 1094.33 z"/>
<path transform="translate(0,0)" fill="rgb(0,0,0)" d="M 872.088 853.436 C 875.628 853.819 876.795 853.853 880.122 854.963 C 882.484 862.452 880.921 870.164 882.33 876.934 C 885.07 890.096 890.552 895.175 890.091 909.197 C 881.039 897.275 880.722 869.455 872.088 853.436 z"/>
<path transform="translate(0,0)" fill="rgb(0,0,0)" d="M 939.357 1088.01 C 949.966 1089.48 946.928 1123.12 945.979 1131.27 C 945.717 1133.53 944.419 1135.13 943.009 1136.78 C 940.251 1122.43 945.084 1095.87 939.357 1088.01 z"/>
<path transform="translate(0,0)" fill="rgb(31,30,31)" d="M 1554.88 611.466 C 1548.57 611.212 1534.22 600.748 1527.69 597.5 C 1500.95 584.211 1488.58 563.697 1473.37 539.659 C 1463.34 525.982 1448.96 510.032 1440.83 495.154 C 1423.62 463.655 1409.89 432.951 1401.66 397.975 C 1392.15 357.564 1378.44 317.972 1380.88 275.63 C 1381.28 268.803 1386.38 249.605 1385.23 245.418 C 1379.47 244.16 1372.22 250.243 1367.58 247.445 C 1367.53 237.667 1383.04 233.347 1387.01 227.227 C 1387.79 222.683 1387.59 215.121 1389.32 210.958 C 1397.59 191.09 1418.6 192.821 1434.84 186.61 C 1471.38 172.627 1495.85 155.947 1535.81 173.631 C 1583.38 194.688 1616.38 237.829 1644.92 279.748 C 1649.87 287.554 1656.16 295.399 1660.79 303.339 C 1663.07 307.227 1662.44 313.055 1665.07 318.212 L 1660.84 320.242 C 1679.48 360.065 1691.88 382.983 1690.83 427.834 C 1690.54 440.456 1696.58 439.256 1699.36 451.745 C 1701.79 465.961 1703.84 470.043 1703.96 486.157 C 1704.05 496.735 1702.56 512.691 1703.57 522.237 L 1706.2 523.006 C 1702.51 545.593 1695.19 571.77 1676.82 587.109 C 1674.56 586.855 1673.03 586.085 1670.93 585.24 C 1649.12 600.396 1605.02 627.07 1577.94 624.091 C 1569.96 624.178 1567.26 621.246 1556.78 622.531 C 1555.49 620.196 1555.75 618.861 1555.76 616.197 L 1554.88 611.466 z M 1441.67 313.752 C 1440.73 314.399 1440.39 314.179 1438.94 314.333 C 1435.8 311.466 1435.22 306.36 1433.88 301.649 L 1434.03 312.135 C 1425.25 298.689 1429.34 245.172 1434.53 229.764 C 1437.57 220.706 1446.38 209.703 1445.65 201.745 C 1441.25 203.82 1411.58 228.913 1410.47 233.216 C 1404.51 256.306 1397.7 283.892 1401.34 307.86 C 1408.36 354.099 1423.52 400.905 1444.2 442.809 C 1477.04 502.463 1514.26 575.862 1580.97 602.17 C 1581.99 602.575 1611.26 598.906 1613.86 598.381 L 1611.34 591.749 C 1596.88 588.939 1586.97 585.966 1574.5 577.517 C 1564.31 569.616 1548.67 560.583 1540.17 551.142 C 1528.62 538.322 1514.59 521.06 1504.21 507.517 C 1483.96 481.086 1470.12 450.369 1458.09 419.593 C 1456.17 415.508 1456.65 404.313 1454.81 400.905 C 1442.17 377.546 1444.9 355.827 1439.71 331.264 L 1439.42 329.922 L 1442.48 329.99 C 1447.33 329.317 1447.17 328.637 1450.76 325.139 C 1451.5 328.991 1452.13 334.85 1453.02 338.163 L 1454.06 339.793 C 1451.01 357.116 1462.94 381.039 1467.5 397.904 C 1491.46 453.934 1531.73 526.105 1584.54 561.08 C 1591.39 565.617 1598.11 570.112 1605.75 573.188 C 1618.66 578.265 1633.72 577.274 1647.49 577.04 C 1657.16 569.077 1666.07 561.924 1676.83 555.461 C 1678.49 554.466 1681.26 548.431 1683.39 546.028 C 1686.23 541.611 1688.46 537.887 1688.02 533.017 C 1687.38 532.749 1684.57 531.407 1684.57 531 C 1684.69 516.663 1686.71 487.85 1686.8 474.942 C 1687.12 431.498 1673.06 389.254 1654.09 349.922 C 1630.97 301.998 1583.67 238.882 1540.8 206.53 C 1531.85 199.773 1508.34 190.029 1497.41 185.98 C 1482.41 195.21 1478.29 190.237 1462.52 208.045 C 1442.22 230.985 1443.61 254.14 1445.21 282.787 C 1446.01 280.789 1446.13 263.002 1446.28 259.363 C 1446.66 263.584 1447.3 268.051 1447.82 272.278 L 1447.96 272.05 L 1449.16 272.505 L 1449.57 274.778 C 1448.94 283.847 1451.1 308.239 1447.52 312.219 L 1444.07 312.475 L 1441.67 313.752 z"/>
<path transform="translate(0,0)" fill="rgb(0,0,0)" fill-opacity="0.94902" d="M 1488.62 244.576 L 1491.75 245.369 L 1492.71 247.247 C 1486.53 263.057 1482.99 279.081 1482.02 296.07 C 1480.9 315.758 1489.3 334.697 1490.19 354.197 C 1490.19 354.199 1488.49 357.35 1488.33 357.649 C 1481.68 353.004 1474.57 309.15 1473.89 299.696 C 1473.37 291.427 1473.52 283.128 1474.36 274.884 C 1475.77 261.925 1478.33 252.799 1488.62 244.576 z"/>
<path transform="translate(0,0)" fill="rgb(19,19,19)" fill-opacity="0.984314" d="M 1497.41 185.98 C 1508.34 190.029 1531.85 199.773 1540.8 206.53 C 1583.67 238.882 1630.97 301.998 1654.09 349.922 C 1673.06 389.254 1687.12 431.498 1686.8 474.942 C 1686.71 487.85 1684.69 516.663 1684.57 531 C 1684.57 531.407 1687.38 532.749 1688.02 533.017 C 1688.46 537.887 1686.23 541.611 1683.39 546.028 C 1681.26 548.431 1678.49 554.466 1676.83 555.461 C 1666.07 561.924 1657.16 569.077 1647.49 577.04 C 1633.72 577.274 1618.66 578.265 1605.75 573.188 C 1598.11 570.112 1591.39 565.617 1584.54 561.08 C 1531.73 526.105 1491.46 453.934 1467.5 397.904 C 1462.94 381.039 1451.01 357.116 1454.06 339.793 C 1461.04 351.024 1461.84 367.56 1466.56 380.164 C 1488.87 439.782 1530.17 518.349 1582.61 555.614 C 1588.6 559.866 1594.7 564.367 1601.45 567.324 C 1614.76 573.147 1634.84 576.012 1648.52 570.296 C 1660.6 565.25 1667.51 555.081 1672.3 543.463 C 1681.69 520.666 1685.83 491.565 1682.73 467.075 C 1681.57 457.95 1679.02 448.719 1677.15 439.685 C 1673.91 424.086 1670.79 408.448 1665.79 393.292 C 1661.03 378.91 1654.4 364.643 1648.52 350.67 C 1630.61 308.117 1562.37 216.662 1519.94 199.704 C 1507.57 194.76 1490.19 193.474 1477.91 199.687 C 1463.36 207.057 1454.94 230.588 1453.16 245.559 C 1452.04 254.981 1453.04 264.538 1449.97 273.638 C 1449.84 274.019 1449.7 274.398 1449.57 274.778 L 1449.16 272.505 L 1447.96 272.05 L 1447.82 272.278 C 1447.3 268.051 1446.66 263.584 1446.28 259.363 C 1446.13 263.002 1446.01 280.789 1445.21 282.787 C 1443.61 254.14 1442.22 230.985 1462.52 208.045 C 1478.29 190.237 1482.41 195.21 1497.41 185.98 z"/>
<path transform="translate(0,0)" fill="rgb(0,0,0)" d="M 1445.21 282.787 C 1446.01 280.789 1446.13 263.002 1446.28 259.363 C 1446.66 263.584 1447.3 268.051 1447.82 272.278 L 1447.96 272.05 L 1449.16 272.505 L 1449.57 274.778 C 1448.94 283.847 1451.1 308.239 1447.52 312.219 L 1444.07 312.475 C 1444.86 305.008 1444.94 290.764 1445.21 282.787 z"/>
<path transform="translate(0,0)" fill="rgb(19,19,19)" fill-opacity="0.980392" d="M 1433.88 301.649 C 1435.22 306.36 1435.8 311.466 1438.94 314.333 C 1440.39 314.179 1440.73 314.399 1441.67 313.752 C 1442.45 319.713 1441.84 325.179 1442.48 329.99 L 1439.42 329.922 C 1437.1 323.8 1435.73 318.468 1434.03 312.135 L 1433.88 301.649 z"/>
<path transform="translate(0,0)" fill="rgb(31,30,31)" d="M 1445.65 201.745 C 1435.21 201.435 1407.66 230.4 1391.84 228.293 C 1390.41 224.994 1392.46 220.6 1393.69 217.498 C 1403.27 193.297 1423.1 193.407 1444.62 188.488 C 1452.23 186.749 1463.97 178.436 1471.77 175.746 C 1489.92 168.339 1519.27 169.921 1536.66 178.235 C 1576.41 197.241 1604.21 230.249 1629.32 265.253 C 1644.25 286.079 1651.07 296.32 1660.84 320.242 C 1679.48 360.065 1691.88 382.983 1690.83 427.834 C 1690.54 440.456 1696.58 439.256 1699.36 451.745 C 1701.79 465.961 1703.84 470.043 1703.96 486.157 C 1704.05 496.735 1702.56 512.691 1703.57 522.237 C 1704.85 521.533 1686.75 534.028 1688.02 533.017 C 1687.38 532.749 1684.57 531.407 1684.57 531 C 1684.69 516.663 1686.71 487.85 1686.8 474.942 C 1687.12 431.498 1673.06 389.254 1654.09 349.922 C 1630.97 301.998 1583.67 238.882 1540.8 206.53 C 1531.85 199.773 1508.34 190.029 1497.41 185.98 C 1482.41 195.21 1478.29 190.237 1462.52 208.045 C 1442.22 230.985 1443.61 254.14 1445.21 282.787 C 1444.94 290.764 1444.86 305.008 1444.07 312.475 L 1441.67 313.752 C 1440.73 314.399 1440.39 314.179 1438.94 314.333 C 1435.8 311.466 1435.22 306.36 1433.88 301.649 L 1434.03 312.135 C 1425.25 298.689 1429.34 245.172 1434.53 229.764 C 1437.57 220.706 1446.38 209.703 1445.65 201.745 z"/>
<path transform="translate(0,0)" fill="rgb(0,0,0)" d="M 1445.65 201.745 C 1448.19 204.639 1449.99 205.941 1450.47 209.531 C 1449.03 215.288 1444.96 218.895 1444.15 223.03 C 1438.99 249.193 1430.6 274.943 1433.88 301.649 L 1434.03 312.135 C 1425.25 298.689 1429.34 245.172 1434.53 229.764 C 1437.57 220.706 1446.38 209.703 1445.65 201.745 z"/>
<path transform="translate(0,0)" fill="rgb(0,0,0)" d="M 1554.88 611.466 C 1548.57 611.212 1534.22 600.748 1527.69 597.5 C 1500.95 584.211 1488.58 563.697 1473.37 539.659 C 1463.34 525.982 1448.96 510.032 1440.83 495.154 C 1423.62 463.655 1409.89 432.951 1401.66 397.975 C 1392.15 357.564 1378.44 317.972 1380.88 275.63 C 1381.28 268.803 1386.38 249.605 1385.23 245.418 C 1379.47 244.16 1372.22 250.243 1367.58 247.445 C 1367.53 237.667 1383.04 233.347 1387.01 227.227 C 1387.79 222.683 1387.59 215.121 1389.32 210.958 C 1397.59 191.09 1418.6 192.821 1434.84 186.61 C 1471.38 172.627 1495.85 155.947 1535.81 173.631 C 1583.38 194.688 1616.38 237.829 1644.92 279.748 C 1649.87 287.554 1656.16 295.399 1660.79 303.339 C 1663.07 307.227 1662.44 313.055 1665.07 318.212 L 1660.84 320.242 C 1651.07 296.32 1644.25 286.079 1629.32 265.253 C 1604.21 230.249 1576.41 197.241 1536.66 178.235 C 1519.27 169.921 1489.92 168.339 1471.77 175.746 C 1463.97 178.436 1452.23 186.749 1444.62 188.488 C 1423.1 193.407 1403.27 193.297 1393.69 217.498 C 1392.46 220.6 1390.41 224.994 1391.84 228.293 C 1407.66 230.4 1435.21 201.435 1445.65 201.745 C 1441.25 203.82 1411.58 228.913 1410.47 233.216 C 1404.51 256.306 1397.7 283.892 1401.34 307.86 C 1408.36 354.099 1423.52 400.905 1444.2 442.809 C 1477.04 502.463 1514.26 575.862 1580.97 602.17 C 1581.99 602.575 1611.26 598.906 1613.86 598.381 C 1613.22 599.373 1612.59 600.364 1611.96 601.356 C 1603.28 604.586 1594.75 605.841 1585.99 609.358 L 1584.72 608.577 C 1573.23 601.644 1564.91 601.645 1552.93 593.321 C 1511.51 564.533 1481.94 518.385 1456.41 475.628 C 1450.78 466.194 1444.96 451.507 1439.83 441.09 C 1435.43 432.165 1428.45 419.777 1424.92 410.857 C 1414.71 385.046 1407.1 358.173 1399.67 331.335 C 1394.12 311.311 1397.04 284.568 1397.78 263.6 C 1398.1 254.538 1405.87 240.015 1402.74 232.483 C 1398.68 231.194 1396.47 234.715 1393.76 237.622 C 1384.21 273.252 1387.06 295.145 1391.71 331.15 C 1394.9 355.839 1396.28 369.366 1407.28 392.203 C 1410.24 398.35 1410.79 419.678 1414.12 427.254 C 1420.92 451.199 1435.27 472.707 1446.55 494.759 C 1464.86 524.205 1492.02 564.069 1517.65 586.712 C 1523.25 591.655 1543.31 600.653 1550.59 603.558 C 1549.31 605.552 1549.79 604.503 1549.11 606.691 C 1551.4 608.814 1553.27 608.777 1554.88 611.466 z"/>
<path transform="translate(0,0)" fill="rgb(0,0,0)" d="M 1442.48 329.99 C 1447.33 329.317 1447.17 328.637 1450.76 325.139 C 1451.5 328.991 1452.13 334.85 1453.02 338.163 L 1454.06 339.793 C 1451.01 357.116 1462.94 381.039 1467.5 397.904 C 1462.99 403.417 1462.12 410.664 1463.27 417.483 C 1466.69 433.699 1475.66 446.739 1481.7 461.488 C 1492.34 487.488 1508.09 505.636 1526.22 526.307 C 1537.97 539.716 1546.58 556.107 1563.29 565.626 C 1572.91 571.777 1581.82 577.619 1592.26 582.401 C 1597.9 584.98 1609.19 586.647 1611.34 591.749 C 1596.88 588.939 1586.97 585.966 1574.5 577.517 C 1564.31 569.616 1548.67 560.583 1540.17 551.142 C 1528.62 538.322 1514.59 521.06 1504.21 507.517 C 1483.96 481.086 1470.12 450.369 1458.09 419.593 C 1456.17 415.508 1456.65 404.313 1454.81 400.905 C 1442.17 377.546 1444.9 355.827 1439.71 331.264 L 1439.42 329.922 L 1442.48 329.99 z"/>
<path transform="translate(0,0)" fill="rgb(19,19,19)" d="M 1463.27 417.483 C 1463.19 417.294 1463.11 417.1 1463.02 416.916 C 1458.72 408.554 1444.82 345.202 1443.83 332.833 C 1446.12 332.32 1446.37 332.183 1448.69 332.242 L 1450.46 337.054 L 1453.02 338.163 L 1454.06 339.793 C 1451.01 357.116 1462.94 381.039 1467.5 397.904 C 1462.99 403.417 1462.12 410.664 1463.27 417.483 z"/>
<path transform="translate(0,0)" fill="rgb(0,0,0)" d="M 1688.02 533.017 C 1686.75 534.028 1704.85 521.533 1703.57 522.237 L 1706.2 523.006 C 1702.51 545.593 1695.19 571.77 1676.82 587.109 C 1674.56 586.855 1673.03 586.085 1670.93 585.24 C 1679.41 578.723 1698.17 554.434 1695.54 544.26 L 1693.18 543.461 C 1689.05 545.701 1688.08 545.954 1683.39 546.028 C 1686.23 541.611 1688.46 537.887 1688.02 533.017 z"/>
<path transform="translate(0,0)" fill="rgb(19,19,19)" d="M 1550.59 603.558 C 1554.91 604.018 1555.71 604.333 1559.78 605.947 C 1565.91 614.112 1568.88 619.462 1577.94 624.091 C 1569.96 624.178 1567.26 621.246 1556.78 622.531 C 1555.49 620.196 1555.75 618.861 1555.76 616.197 L 1554.88 611.466 C 1553.27 608.777 1551.4 608.814 1549.11 606.691 C 1549.79 604.503 1549.31 605.552 1550.59 603.558 z"/>
<path transform="translate(0,0)" fill="rgb(0,0,0)" fill-opacity="0.929412" d="M 588.404 959.248 C 590.932 958.325 590.876 958.534 593.583 959.027 L 592.776 961.894 C 587.193 967.656 581.095 968.752 573.548 970.61 C 570.725 970.24 570.667 970.467 568.429 968.819 L 568.531 967.077 C 573.566 963.183 582.186 960.58 588.404 959.248 z"/>
<path transform="translate(0,0)" fill="rgb(19,19,19)" d="M 714.972 1157.11 C 726.301 1155.77 783.376 1155.23 791.083 1160.38 C 785.037 1161.61 786.118 1166.27 783.219 1170.78 C 778.623 1177.93 772.651 1191.82 766.855 1197.26 C 763.111 1217.9 754.007 1231.81 746.206 1250.55 C 742.499 1259.46 732.404 1285.7 731.479 1295 C 728.326 1297.13 710.954 1332.81 707.318 1338.31 C 703.341 1344.33 699.727 1358.85 696.77 1366.09 L 660.059 1456.93 L 557.938 1701.43 L 488.672 1868.72 C 485.943 1875.14 480.774 1880.98 477.148 1888.41 C 466.18 1910.9 459.623 1932.48 451.667 1955.96 C 452.884 1957.56 453.841 1958.64 454.768 1960.43 C 450.374 1967.74 446.206 1974.45 442.545 1982.19 L 439.557 1979.49 C 438.495 1975.32 440.95 1972.63 441.472 1967.26 L 439.932 1965.53 C 434.058 1963.7 431.984 1964.92 425.987 1965.96 C 440.14 1955.75 452.655 1906.01 465.481 1887.05 C 464.385 1879.43 521.458 1745.59 528.237 1728.87 L 563.133 1641.53 C 566.572 1632.73 569.204 1623.59 572.844 1614.83 L 647.393 1439.79 C 654.695 1422.95 662.183 1408.15 670.516 1391.93 C 673.987 1384.14 675.122 1375.41 678.244 1367.51 C 682.127 1357.69 687.495 1348.16 692.444 1338.83 C 692.668 1333.07 700.884 1315.39 705.035 1310.22 C 707.228 1299.12 712.553 1288.47 716.674 1277.73 C 723.802 1260.97 729.884 1243.18 737.559 1226.68 C 744.217 1212.37 751.089 1199.97 756.203 1184.69 C 758.029 1179.23 763.546 1170.86 766.22 1164.4 C 766.795 1161.51 767.154 1162.69 765.781 1160.6 C 758.536 1160.44 751.204 1161 744.031 1160.64 C 734.446 1160.17 724.554 1158.4 714.972 1157.11 z"/>
<path transform="translate(0,0)" fill="rgb(0,0,0)" d="M 692.444 1338.83 C 687.674 1376.06 661.038 1421 645.428 1455.17 C 627.819 1493.76 614.706 1534.19 597.905 1573.1 C 588.162 1594.99 575.692 1617.88 566.825 1640 C 546.416 1690.9 532.649 1745.07 506.932 1793.6 C 498.103 1810.26 495.412 1826.89 483.314 1844.41 C 478.743 1851.03 471.542 1875.83 466.41 1886.36 L 465.481 1887.05 C 464.385 1879.43 521.458 1745.59 528.237 1728.87 L 563.133 1641.53 C 566.572 1632.73 569.204 1623.59 572.844 1614.83 L 647.393 1439.79 C 654.695 1422.95 662.183 1408.15 670.516 1391.93 C 673.987 1384.14 675.122 1375.41 678.244 1367.51 C 682.127 1357.69 687.495 1348.16 692.444 1338.83 z"/>
<path transform="translate(0,0)" fill="rgb(0,0,0)" d="M 766.22 1164.4 C 767.654 1168.23 768.477 1176.39 766.87 1180.02 C 764.625 1180.98 763.976 1181.12 761.582 1181.69 C 755.012 1190.94 750.211 1220.33 741.472 1233 C 734.521 1243.07 727.205 1266.62 720.539 1277.97 C 716.141 1285.46 709.943 1304.55 705.035 1310.22 C 707.228 1299.12 712.553 1288.47 716.674 1277.73 C 723.802 1260.97 729.884 1243.18 737.559 1226.68 C 744.217 1212.37 751.089 1199.97 756.203 1184.69 C 758.029 1179.23 763.546 1170.86 766.22 1164.4 z"/>
<path transform="translate(0,0)" fill="rgb(0,0,0)" d="M 425.987 1965.96 C 440.14 1955.75 452.655 1906.01 465.481 1887.05 C 463.843 1895.37 461.598 1903.56 458.766 1911.55 C 451.924 1930.58 441.201 1947.48 446.558 1967.98 L 451.667 1955.96 C 452.884 1957.56 453.841 1958.64 454.768 1960.43 C 450.374 1967.74 446.206 1974.45 442.545 1982.19 L 439.557 1979.49 C 438.495 1975.32 440.95 1972.63 441.472 1967.26 L 439.932 1965.53 C 434.058 1963.7 431.984 1964.92 425.987 1965.96 z"/>
<path transform="translate(0,0)" fill="rgb(31,30,31)" d="M 974.336 1288.11 C 973.042 1283.18 971.917 1278.11 969.923 1273.16 C 965.811 1262.95 956.282 1250.75 956.613 1239.62 C 956.725 1235.84 959.75 1234.03 962.588 1231.84 L 965.385 1236.07 C 969.537 1256.92 976.518 1274.5 984.903 1293.92 C 990.314 1306.45 1001.62 1348.94 1012.15 1355.26 C 1012.94 1357.11 1014.4 1360.02 1014.63 1361.86 C 1015.44 1379.36 1028.33 1428.27 1042.24 1438.37 L 1042.65 1439.33 C 1042.31 1443.94 1056.77 1489 1059.24 1496.06 C 1066.51 1516.91 1075.89 1537.37 1083.84 1558.02 C 1093.45 1582.96 1101.87 1608.37 1111.52 1633.32 C 1113.88 1639.44 1116.93 1645.32 1119.2 1651.47 C 1123.4 1662.89 1125.39 1675.26 1129.46 1686.84 C 1135.17 1703.07 1143.42 1718.24 1149.61 1734.26 C 1158.61 1757.52 1165.74 1781.53 1174.7 1804.86 C 1178.69 1815.25 1184.65 1824.78 1188.58 1835.21 C 1194.48 1850.86 1198.14 1867.35 1204.16 1882.89 C 1211.89 1902.87 1222.6 1921.93 1229.99 1941.93 C 1234.56 1954.3 1234.04 1967.76 1238.15 1980.17 C 1244.37 1979.39 1275.72 1973.83 1279.35 1974.18 C 1295.04 1975.68 1345.89 1971.13 1357.08 1975.9 C 1357.64 1977.23 1357.84 1977.44 1358.11 1978.84 C 1360.47 1981.94 1360.28 1981.87 1363.79 1983.46 C 1360.93 1989.04 1360.1 1990.54 1353.9 1992.5 C 1343.83 1995.67 1332.33 1996.1 1321.91 1997.27 C 1286.82 2001.2 1261.23 2001.01 1226.33 1996.06 C 1214.06 1995.65 1200.66 1994.47 1198.32 1980.43 C 1198.48 1975.67 1197.83 1970.29 1200.1 1966.58 C 1207.04 1964.07 1211.78 1977.18 1223.6 1969.1 C 1221.62 1951.33 1195.64 1900.32 1187.75 1880.35 C 1166.72 1827.1 1148.25 1773.48 1129.9 1719.24 C 1123.49 1700.31 1116.73 1693.54 1112.16 1670.96 L 1109.13 1662.25 C 1105.36 1651.53 1100.29 1640.92 1096.71 1630.57 C 1086.82 1601.99 1075.74 1574.13 1066.39 1545.37 C 1062.52 1533.46 1056.88 1522.04 1053.77 1509.73 L 1053.11 1508.05 C 1047.17 1496.77 1040.7 1479.95 1036.23 1467.81 C 1033.58 1460.62 1032.25 1451.35 1029.11 1443.75 C 1007.56 1391.55 987.431 1339.5 968.369 1286.33 L 970.51 1286.37 L 972.283 1289.2 L 974.336 1288.11 z"/>
<path transform="translate(0,0)" fill="rgb(0,0,0)" d="M 1112.16 1670.96 C 1114.1 1668.42 1114 1668.19 1117.04 1666.94 C 1121.33 1685.02 1125.85 1695.79 1134.13 1712.42 C 1138.07 1720.32 1139.2 1735.22 1143.19 1743.72 C 1148.41 1756.89 1154.06 1769.93 1159.44 1783.05 C 1167.42 1802.5 1170.96 1830.91 1180.03 1849.14 C 1191.52 1872.25 1200.02 1889.74 1208.55 1914.2 C 1215.22 1933.34 1228.9 1945.72 1223.6 1969.1 C 1221.62 1951.33 1195.64 1900.32 1187.75 1880.35 C 1166.72 1827.1 1148.25 1773.48 1129.9 1719.24 C 1123.49 1700.31 1116.73 1693.54 1112.16 1670.96 z"/>
<path transform="translate(0,0)" fill="rgb(0,0,0)" d="M 968.369 1286.33 L 970.51 1286.37 L 972.283 1289.2 L 974.336 1288.11 C 982.835 1318.49 994.888 1341.64 1007.98 1370.09 C 1014.62 1384.12 1015.39 1403.93 1021.02 1417.65 C 1027.83 1434.25 1036.41 1447.94 1041.37 1465.91 C 1045.34 1480.33 1056.14 1491.51 1053.11 1508.05 C 1047.17 1496.77 1040.7 1479.95 1036.23 1467.81 C 1033.58 1460.62 1032.25 1451.35 1029.11 1443.75 C 1007.56 1391.55 987.431 1339.5 968.369 1286.33 z"/>
<path transform="translate(0,0)" fill="rgb(0,0,0)" d="M 1053.77 1509.73 C 1061.44 1515.46 1075.82 1559.34 1080.94 1570.2 C 1092.64 1595.04 1097.68 1620.26 1108.52 1645.91 C 1109.11 1651.32 1110.18 1657.03 1109.13 1662.25 C 1105.36 1651.53 1100.29 1640.92 1096.71 1630.57 C 1086.82 1601.99 1075.74 1574.13 1066.39 1545.37 C 1062.52 1533.46 1056.88 1522.04 1053.77 1509.73 z"/>
<path transform="translate(0,0)" fill="rgb(0,0,0)" d="M 1238.15 1980.17 C 1244.37 1979.39 1275.72 1973.83 1279.35 1974.18 C 1295.04 1975.68 1345.89 1971.13 1357.08 1975.9 C 1357.64 1977.23 1357.84 1977.44 1358.11 1978.84 C 1354.14 1978.98 1349.28 1978.33 1345.17 1978.28 C 1315.04 1977.95 1284.93 1976.99 1254.95 1980.71 C 1249.29 1981.41 1243.72 1981.54 1238.15 1980.17 z"/>
<path transform="translate(0,0)" fill="rgb(19,19,19)" d="M 1108.52 1645.91 C 1112.99 1653.29 1115.07 1658.45 1117.04 1666.94 C 1114 1668.19 1114.1 1668.42 1112.16 1670.96 L 1109.13 1662.25 C 1110.18 1657.03 1109.11 1651.32 1108.52 1645.91 z"/>
<path transform="translate(0,0)" fill="rgb(19,19,19)" d="M 690.513 1264 L 694.674 1263.73 C 692.608 1272.6 673.572 1318.8 669.163 1327.16 C 672.408 1333.54 660.95 1349.36 658.394 1356.79 C 655.191 1366.11 652.703 1375.34 649.848 1384.76 C 646.56 1395.93 635.919 1418.29 633.785 1428.34 L 632.248 1429.39 C 633.447 1418.69 649.378 1380.56 649.896 1372.85 L 649.17 1372.87 C 640.599 1388.25 637.009 1413.67 630.041 1430.15 C 614.946 1465.87 599.971 1501.64 585.471 1537.62 C 578.612 1554.64 573.951 1572.41 567.461 1589.55 C 561.92 1604.02 551.061 1619.28 545.752 1631.94 C 539.895 1645.9 533.014 1665.63 527.778 1680.12 C 519.502 1703.04 496.978 1739.35 494.473 1761.12 C 493.151 1764.89 488.356 1777.89 486.473 1780.6 C 477.718 1788.17 476.643 1804.1 468.621 1810.34 L 466.619 1810.12 C 463.854 1806.16 464.647 1803.79 465.195 1798.74 C 466.572 1788.39 484.999 1746.93 489.428 1735.83 C 494.178 1723.93 498.766 1711.15 503.77 1699.28 C 506.017 1693.96 507.044 1688.69 509.596 1683.39 C 512.021 1675.6 521.4 1656.62 524.974 1647.82 C 530.567 1634.05 539.337 1607.56 546.293 1595.31 L 546.641 1594.44 C 550.916 1577.37 557.5 1563.53 564.479 1547.67 C 578.454 1515.91 591.913 1483.89 606.025 1452.22 C 611.514 1440.19 615.266 1426.36 620.877 1414.52 C 640.302 1373.55 654.076 1328.07 674.172 1287.68 C 676.734 1286.17 679.314 1284.7 681.912 1283.25 C 684.675 1278.27 687.789 1265.79 690.513 1264 z"/>
<path transform="translate(0,0)" fill="rgb(0,0,0)" d="M 690.513 1264 L 694.674 1263.73 C 692.608 1272.6 673.572 1318.8 669.163 1327.16 C 666.46 1329.43 666.961 1329.76 664.077 1330.08 L 662.366 1328.13 L 660.27 1332.69 L 660.626 1327.84 L 659.78 1327.84 C 658.003 1330.36 654.715 1338.58 654.166 1341.29 C 652.92 1347.45 631.246 1394.18 631.804 1397.74 C 633.113 1394.33 638.066 1387.49 640.906 1385.31 C 637.574 1394.07 630.754 1399.63 627.842 1405.54 C 621.829 1417.76 615.563 1442.28 613.16 1455.62 C 597.205 1474.46 593.737 1484.65 587.219 1508.44 C 584.634 1517.88 575.328 1530.3 571.231 1539.59 C 566.423 1551.73 556.29 1585.78 546.641 1594.44 C 550.916 1577.37 557.5 1563.53 564.479 1547.67 C 578.454 1515.91 591.913 1483.89 606.025 1452.22 C 611.514 1440.19 615.266 1426.36 620.877 1414.52 C 640.302 1373.55 654.076 1328.07 674.172 1287.68 C 676.734 1286.17 679.314 1284.7 681.912 1283.25 C 684.675 1278.27 687.789 1265.79 690.513 1264 z"/>
<path transform="translate(0,0)" fill="rgb(31,30,31)" d="M 690.513 1264 L 694.674 1263.73 C 692.608 1272.6 673.572 1318.8 669.163 1327.16 C 666.46 1329.43 666.961 1329.76 664.077 1330.08 L 662.366 1328.13 C 663.988 1324.44 665.178 1318.96 666.295 1314.97 C 670.241 1300.89 673.413 1294.66 681.912 1283.25 C 684.675 1278.27 687.789 1265.79 690.513 1264 z"/>
<path transform="translate(0,0)" fill="rgb(0,0,0)" d="M 509.596 1683.39 C 512.021 1675.6 521.4 1656.62 524.974 1647.82 C 530.567 1634.05 539.337 1607.56 546.293 1595.31 C 544.782 1612.75 523.383 1672.46 509.596 1683.39 z"/>
<path transform="translate(0,0)" fill="rgb(31,30,31)" d="M 971.929 442.426 C 984.513 442.405 1009.62 421.427 1025.51 418.653 C 1013.95 431.23 1003.89 442.156 987.97 449.753 C 987.508 447.323 987.628 446.74 987.633 444.3 L 986.258 444.866 C 985.447 447.335 985.972 451.966 985.581 455.218 C 982.289 458.17 978.965 460.635 976.922 464.472 L 976.999 466.34 L 977.126 467.091 C 968.569 474.082 959.598 475.814 953.102 480.419 C 941.531 491.695 887.501 514.611 892.724 532.5 C 895.612 529.496 897.906 521.47 902.317 516.216 L 902.845 517.04 C 897.252 529.621 892.399 546.258 892.813 560.123 C 891.889 566.086 891.331 570.388 890.93 576.396 C 881.005 608.363 884.599 618.916 895.64 649.619 C 897.19 653.929 901.034 656.687 901.401 659.87 C 899.463 663.639 900.814 662.118 896.989 664.403 C 893.128 664.389 894.778 664.983 891.813 662.715 C 886.341 649.23 878.616 612.33 870.521 607.074 L 868.498 605.351 C 868.164 600.368 868.729 593.471 867.284 589.133 C 865.111 591.31 865.404 592.612 864.465 596.119 C 864.204 589.938 863.311 588.503 860.893 582.698 C 863.827 581.531 864.884 581.294 867.348 579.214 L 866.661 577.852 L 865.587 578.067 C 860.533 579.02 854.564 576.577 853.601 577.176 C 826.483 594.026 796.292 611.479 765.419 620.973 C 784.651 608.311 782.517 599.991 797.461 588.817 C 813.256 577.008 856.479 565.644 866.177 547.453 C 870.937 543.198 871.176 541.651 872.161 535.248 C 872.155 532.986 872.179 530.723 872.233 528.462 C 872.662 511.735 878.202 504.25 889.754 493.224 C 894.852 488.226 899.9 483.044 906.172 479.633 L 906.903 479.427 C 927.23 473.62 957.702 464.257 968.816 444.292 C 969.406 443.549 970.931 442.947 971.929 442.426 z"/>
<path transform="translate(0,0)" fill="rgb(57,56,58)" d="M 953.102 480.419 C 949.602 481.009 948.183 481.29 946.14 478.529 C 949.261 470.83 970.012 463.894 977.126 467.091 C 968.569 474.082 959.598 475.814 953.102 480.419 z"/>
<path transform="translate(0,0)" fill="rgb(0,0,0)" d="M 889.754 493.224 C 886.932 501.322 876.204 527.765 872.161 535.248 C 872.155 532.986 872.179 530.723 872.233 528.462 C 872.662 511.735 878.202 504.25 889.754 493.224 z"/>
<path transform="translate(0,0)" fill="rgb(0,0,0)" fill-opacity="0.988235" d="M 866.177 547.453 C 856.479 565.644 813.256 577.008 797.461 588.817 C 782.517 599.991 784.651 608.311 765.419 620.973 C 796.292 611.479 826.483 594.026 853.601 577.176 C 854.564 576.577 860.533 579.02 865.587 578.067 L 866.661 577.852 L 867.348 579.214 C 864.884 581.294 863.827 581.531 860.893 582.698 C 863.311 588.503 864.204 589.938 864.465 596.119 C 865.863 600.448 866.096 600.7 865.191 604.997 C 858.856 637.092 870.286 651.084 872.789 681.713 C 871.527 685.597 871.477 686.909 871.732 690.988 C 869.626 692.75 868.577 692.379 865.42 692.932 C 857.058 663.504 846.024 641.815 849.5 608.793 C 850.633 598.025 853.977 590.048 855.119 580.952 C 817.912 602.366 780.058 622.635 741.611 641.73 C 733.704 645.62 724.952 645.629 718.901 649.1 C 692.866 664.056 666.679 679.203 639.329 691.653 C 631.945 695.014 623.217 702.564 616.228 705.444 C 598.134 712.901 584.263 723.355 567.902 732.798 L 493.739 774.804 C 483.544 780.612 472.462 785.064 463.525 790.201 C 467.133 778.988 502.218 767.332 512.744 759.2 C 521.425 752.493 537.629 746.134 546.172 738.759 C 549.668 737.114 557.367 731.706 560.95 729.312 C 563.877 728.432 632.638 690.626 635.083 688.439 L 634.974 687.159 C 630.536 686.181 628.266 686.414 624.2 688.625 C 616.761 692.671 603.869 686.99 596.122 690.579 C 587.726 694.47 574.273 705.015 567.052 709.47 C 557.617 715.291 504.659 737.483 496.865 737.533 C 520.739 724.774 545.805 713.615 569.617 700.658 C 581.54 694.171 593.457 686.462 606.553 682.687 C 610.181 681.641 610.886 682.872 613.464 684.791 C 619.05 684.764 634.565 669.286 640.82 665.425 C 652.464 658.237 664.227 653.62 677.327 649.966 C 661.066 662.915 648.556 676.637 633.121 690.356 C 655.664 680.521 665.553 668.291 683.922 653.989 C 696.587 644.129 715.08 629.955 728.445 620.997 C 729.6 624.578 728.853 624.315 731.296 625.777 C 711.448 640.913 703.55 641.302 686.657 660.382 C 699.071 655.099 729.945 640.287 737.234 629.725 L 741.627 623.31 C 772.364 615.655 777.2 595.164 797.861 583.232 C 821.069 569.829 841.661 562.943 866.177 547.453 z"/>
<path transform="translate(0,0)" fill="rgb(0,0,0)" fill-opacity="0.988235" d="M 870.521 607.074 C 878.616 612.33 886.341 649.23 891.813 662.715 C 894.778 664.983 893.128 664.389 896.989 664.403 C 900.814 662.118 899.463 663.639 901.401 659.87 C 901.034 656.687 897.19 653.929 895.64 649.619 C 884.599 618.916 881.005 608.363 890.93 576.396 C 890.922 589.719 890.152 603.639 892.347 616.789 C 899.882 661.926 937.859 743.584 969.858 775.644 C 987.3 793.119 1019.6 820.432 1045.14 820.486 C 1063.31 820.524 1133.77 787.697 1155.13 778.562 L 1398.65 672.988 C 1406.54 669.6 1416.11 666.922 1423.58 663.32 C 1453.27 648.997 1483.26 638.599 1513.9 627.025 C 1511.05 631.786 1508.95 635.789 1505.19 639.892 C 1482.95 640.241 1440.83 663.028 1419.44 671.176 C 1395.5 677.709 1375.24 689.898 1352.71 698.672 C 1331.46 706.949 1314.4 716.386 1293.73 725.334 C 1224.29 755.384 1153.68 784.147 1084.18 814.36 C 1074.98 818.356 1063.28 824.61 1053.28 825.044 C 987.087 820.562 946.95 755.843 917.15 704.157 C 912.598 696.262 904.86 673.036 896.316 670.18 C 887.339 680.131 939.803 754.303 942.719 768.753 C 905.46 728.81 881.705 659.999 870.521 607.074 z"/>
<path transform="translate(0,0)" fill="rgb(0,0,0)" fill-opacity="0.988235" d="M 995.422 826.279 C 1003.8 833.351 1009.68 837.322 1020.01 841.37 C 1050.37 853.267 1088.96 832.516 1116.3 820.584 L 1190.73 788.571 C 1199.79 784.661 1208.91 781.344 1217.91 777.471 C 1226.36 774.229 1235.37 768.262 1243.78 765.295 C 1265.96 757.461 1286.19 746.448 1307.53 736.71 C 1318.24 731.818 1330.46 728.616 1340.9 723.546 C 1359.07 714.718 1376.02 704.564 1395.54 698.589 C 1399.86 697.243 1407.31 694.465 1411.41 692.537 C 1429.81 683.886 1448.02 675.008 1466.51 666.516 L 1469.09 670.399 C 1451.04 679.723 1432.3 688.671 1413.74 696.975 C 1397.64 704.182 1380.16 707.987 1364.67 716.915 C 1346.97 727.109 1327.04 732.133 1308.71 740.974 C 1292.35 748.693 1276.29 757.082 1259.9 764.725 C 1235.38 775.62 1209.63 784.598 1185.21 795.554 C 1158.86 807.381 1134.29 819.651 1107.06 829.93 C 1086.92 837.532 1063 852.01 1040.07 850.033 C 1024.06 848.653 1008.06 839.98 994.967 831.466 C 982.893 840.007 930.82 857.602 927.759 862.446 C 928.901 875.877 945.603 904.132 932.018 921.897 C 922.905 933.813 872.336 944.261 866.724 954.978 C 871.067 960.351 876.626 964.618 880.751 969.885 C 896.974 990.6 897.235 1017.31 891.117 1041.83 C 889.557 1048.08 883.586 1056.81 884.066 1062.08 C 886.712 1063.4 909.715 1061.11 917.207 1061.97 C 930.728 1063.53 940.513 1066.65 953.433 1068.97 C 960.007 1074.79 963.301 1079.12 965.083 1088.11 C 969.364 1109.72 976.421 1158.22 942.121 1156.72 C 947.17 1154.5 954.059 1151 956.496 1145.71 C 962.41 1132.88 961.526 1092.01 956.696 1080.43 C 948.505 1060.78 896.299 1068.77 884.292 1064.24 C 882.729 1062.37 881.212 1058.79 881.732 1056.44 C 891.903 1010.48 895.446 991.396 860.849 954.282 C 879.448 939.571 905.079 932.052 926.843 921.266 C 935.9 901.798 928.013 881.556 923.259 860.324 C 923.457 860.165 923.654 860.006 923.852 859.848 L 924.858 859.075 C 930.437 854.705 935.048 852.201 941.706 849.626 C 960.007 842.548 977.652 834.599 995.422 826.279 z"/>
<path transform="translate(0,0)" fill="rgb(31,30,31)" d="M 1183.91 338.975 C 1190.6 340.152 1192.38 338.459 1197.53 334.573 L 1198.65 333.725 L 1197.21 334.063 C 1209.87 325.804 1221.83 319.251 1234.88 311.704 C 1233.47 315.483 1232.73 316.686 1232.78 320.703 C 1229.97 323.341 1215.47 331.522 1210.25 335.448 C 1190.99 350.126 1171.31 363.002 1150.42 375.195 C 1140.84 380.783 1129.16 385.376 1120.31 390.923 C 1102.15 402.309 1084.66 411.33 1065.4 420.545 C 1053.97 426.015 1043.07 436.558 1030.58 439.76 C 1028.6 440.32 1026.35 435.092 1023.87 433.543 L 1019.3 431.899 C 1009.18 437.556 995.364 448.137 985.581 455.218 C 985.972 451.966 985.447 447.335 986.258 444.866 L 987.633 444.3 C 987.628 446.74 987.508 447.323 987.97 449.753 C 1003.89 442.156 1013.95 431.23 1025.51 418.653 C 1009.62 421.427 984.513 442.405 971.929 442.426 C 979.88 436.993 998.859 427.692 1008.2 422.75 L 1070.17 389.733 C 1083.81 382.568 1118.26 361.863 1130.83 358.922 L 1136.81 356.207 C 1147.9 357.001 1149.98 354.673 1159.32 351.404 L 1160.05 352.043 C 1165.39 352.383 1178.54 342.303 1183.91 338.975 z M 1105.52 385.355 L 1102.67 389.206 L 1103.25 390.837 L 1102.33 390.881 L 1103 391.249 C 1109.6 390.433 1114.76 383.466 1118.75 378.603 L 1116.45 376.86 C 1113.02 379.515 1108.79 382.628 1105.52 385.355 z"/>
<path transform="translate(0,0)" fill="rgb(94,93,95)" fill-opacity="0.0352941" d="M 1116.45 376.86 L 1118.75 378.603 C 1114.76 383.466 1109.6 390.433 1103 391.249 L 1102.33 390.881 L 1103.25 390.837 L 1102.67 389.206 L 1105.52 385.355 C 1108.79 382.628 1113.02 379.515 1116.45 376.86 z"/>
<path transform="translate(0,0)" fill="rgb(0,0,0)" d="M 971.929 442.426 C 979.88 436.993 998.859 427.692 1008.2 422.75 L 1070.17 389.733 C 1083.81 382.568 1118.26 361.863 1130.83 358.922 C 1129.56 360.9 1127.75 363.561 1126.69 365.561 C 1124.75 367.633 1117.65 374.976 1116.45 376.86 C 1113.02 379.515 1108.79 382.628 1105.52 385.355 C 1100.02 382.611 1097.45 383.247 1091.2 385.561 C 1072.24 392.579 1029.05 411.994 1018.73 428.56 C 1018.87 430.368 1018.71 430.234 1019.3 431.899 C 1009.18 437.556 995.364 448.137 985.581 455.218 C 985.972 451.966 985.447 447.335 986.258 444.866 L 987.633 444.3 C 987.628 446.74 987.508 447.323 987.97 449.753 C 1003.89 442.156 1013.95 431.23 1025.51 418.653 C 1009.62 421.427 984.513 442.405 971.929 442.426 z"/>
<path transform="translate(0,0)" fill="rgb(57,56,58)" d="M 1126.69 365.561 C 1128.26 367.565 1128.58 367.573 1129.04 370.01 C 1127.36 374.242 1123.44 378.145 1118.75 378.603 L 1116.45 376.86 C 1117.65 374.976 1124.75 367.633 1126.69 365.561 z"/>
<path transform="translate(0,0)" fill="rgb(0,0,0)" fill-opacity="0.984314" d="M 919.365 1223.45 L 1080.43 1642.39 C 1084.58 1653.3 1087.03 1668.82 1091.53 1678.56 C 1110.52 1719.71 1128.35 1762.2 1145.03 1804.37 C 1159.58 1841.15 1175.99 1877.44 1186.49 1915.52 C 1186.01 1917.58 1185.65 1920.11 1184.67 1921.85 C 1175.59 1916.64 1175.06 1922.69 1170.62 1911.84 C 1173.56 1913.31 1175.95 1915.44 1178.51 1917.5 L 1179.72 1917.33 C 1180.34 1911.36 1163.97 1863.98 1160.35 1854.79 C 1153.06 1836.27 1140 1818.74 1135.09 1796.68 C 1131.54 1780.74 1120.23 1759.28 1113.46 1743.56 C 1103.47 1720.3 1093.89 1696.86 1084.71 1673.26 C 1067.68 1630.18 1052.75 1586.13 1033.64 1543.89 C 1030.54 1537.03 1030.14 1524.06 1027.01 1517.18 C 1005.25 1469.36 990.95 1418.64 968.508 1371.01 C 950.109 1326.4 930.2 1277.58 916.747 1231.78 C 918.025 1228.76 918.52 1226.64 919.365 1223.45 z"/>
<path transform="translate(0,0)" fill="rgb(0,0,0)" fill-opacity="0.984314" d="M 786.766 1501.86 C 789.633 1558.06 789.43 1613.93 785.079 1670.02 C 784.186 1681.53 786.915 1793.78 789.313 1796.99 C 800.137 1791.19 793.237 1758.65 798.719 1744.55 L 795.994 1815.89 C 795.257 1839.64 795.744 1861.78 791.763 1885.51 C 790.233 1894.63 796.523 1913.61 795.625 1921.38 C 794.014 1935.32 797.326 1961.03 795.385 1973.11 C 778.732 1955.11 796.305 1908.41 785.084 1901.32 C 778.011 1906.27 779.564 1928.52 779.776 1936.63 C 780.284 1955.99 775.335 2016.53 811.005 2003.89 C 812.716 2001.93 812.858 2002.08 813.244 1999.56 C 819.849 2001.39 833.289 1997.45 841.719 1997.15 C 850.048 1997.13 860.38 1997.32 867.085 2002.79 C 845.92 2009.15 822.212 2010.97 800.303 2011.19 C 776.275 1996.36 777.535 1986.98 773.984 1961.39 C 769.37 1928.13 780.194 1897.6 780.594 1864.76 L 784.472 1614.67 C 785.235 1573.61 783.58 1543.98 786.766 1501.86 z"/>
<path transform="translate(0,0)" fill="url(#Gradient13)" d="M 422.189 1903.82 C 426.211 1901.18 430.279 1897.83 434.851 1897.23 C 446.838 1903.51 395.219 1967.14 423.408 1967.79 L 425.163 1965.95 L 425.987 1965.96 C 431.984 1964.92 434.058 1963.7 439.932 1965.53 L 441.472 1967.26 C 440.95 1972.63 438.495 1975.32 439.557 1979.49 L 442.545 1982.19 L 444.993 1985.15 C 431.402 1998 377.342 1999.22 357.894 1998.84 C 347.702 1999.05 308.382 1999.64 301.837 1994.9 C 302.308 1990.83 301.895 1990.7 300 1988.04 C 305.025 1973.44 356.112 1977.27 369.652 1978.81 C 378.22 1979.79 393.48 1984.04 400.717 1979.84 C 396.279 1960.32 402.497 1948.5 410.339 1931.81 C 411.717 1925.47 417.691 1908.4 422.189 1903.82 z"/>
<path transform="translate(0,0)" fill="rgb(19,19,19)" d="M 410.339 1931.81 C 410.322 1936.23 411.553 1947.07 408.16 1949.78 C 400.155 1956.17 402.571 1969.82 400.717 1979.84 C 396.279 1960.32 402.497 1948.5 410.339 1931.81 z"/>
<path transform="translate(0,0)" fill="rgb(0,0,0)" fill-opacity="0.980392" d="M 451.667 1955.96 C 459.623 1932.48 466.18 1910.9 477.148 1888.41 C 480.774 1880.98 485.943 1875.14 488.672 1868.72 L 557.938 1701.43 L 660.059 1456.93 L 696.77 1366.09 C 699.727 1358.85 703.341 1344.33 707.318 1338.31 C 710.954 1332.81 728.326 1297.13 731.479 1295 C 730.071 1309.48 713.178 1337.51 709.017 1353.57 C 706.887 1361.79 696.945 1377.05 694.128 1386.3 C 686.133 1412.54 672.829 1436.22 662.205 1461.05 L 548.107 1731.95 C 545.45 1738.2 542.913 1746.35 540.829 1752.86 C 533.441 1775.93 523.343 1797.4 512.916 1819.2 C 508.694 1828.11 506.593 1839.02 502.564 1847.89 C 492.214 1870.67 482.46 1893.62 472.288 1916.47 C 465.864 1930.91 462.801 1946.26 454.768 1960.43 C 453.841 1958.64 452.884 1957.56 451.667 1955.96 z"/>
<path transform="translate(0,0)" fill="rgb(0,0,0)" fill-opacity="0.988235" d="M 819.985 1982.87 C 818.604 1972.53 819.167 1948.09 820.336 1937.33 C 822.339 1918.9 827.295 1899.17 824.463 1880.12 C 822.182 1887.29 822.212 1909.58 820.726 1917.87 C 819.989 1918.63 819.251 1919.39 818.514 1920.15 L 816.808 1919.33 L 816.702 1917.74 C 820.757 1913.13 820.35 1895.26 821.386 1887.97 C 823.683 1871.79 826.437 1855.38 827.734 1839.11 C 828.817 1830.58 825.319 1818.5 826.076 1810.5 C 828.171 1788.33 826.466 1765.12 827.457 1743.33 L 842.654 1464.22 C 843.096 1454.9 841.563 1445.54 841.464 1436.64 C 841.291 1421.13 841.441 1395.17 843.967 1380.55 C 844.101 1385.7 844.738 1420.47 845.771 1422.68 L 846.828 1422.94 C 846.786 1450.96 845.282 1472.71 844.24 1499.95 L 836.79 1668.7 C 836.221 1682.24 837.594 1699.34 836.762 1711.49 C 834.159 1745.04 835.336 1778.63 832.206 1812.14 C 830.649 1821.1 833.241 1838.24 831.43 1846.48 C 826.851 1867.33 828.776 1887.75 826.614 1907.93 C 823.929 1933 822.668 1954.82 822.129 1980.21 C 837.871 1975.59 856.587 1971.45 873.012 1971.67 C 887.945 1971.87 890.364 1978.14 905.021 1972.98 C 915.55 1969.28 952.762 1969.25 964.855 1969.52 C 962.72 1970.48 961.16 1971.03 958.881 1971.57 L 958.86 1973.16 C 946.049 1972.46 922.62 1972.77 909.493 1975.14 C 907.258 1975.55 900.883 1981.29 899.261 1982.18 C 896.186 1983.86 887.565 1981.48 885.108 1981.87 C 871.473 1982.97 828.568 1984.65 816.243 1992.17 C 815.308 1992.75 813.597 1996.46 812.997 1997.77 C 810.827 1990.4 815.099 1988.1 819.985 1982.87 z"/>
<path transform="translate(0,0)" fill="rgb(0,0,0)" fill-opacity="0.988235" d="M 1042.65 1439.33 C 1055.15 1458.17 1061.61 1489.48 1069.51 1510.07 L 1154.43 1737.17 C 1157.56 1745.52 1161.54 1753.77 1164.84 1762.11 L 1201.02 1853.54 C 1205.27 1864.29 1208.2 1875.82 1212.65 1886.85 C 1221.66 1909.23 1231.21 1931.37 1238.97 1954.23 C 1241.49 1961.63 1240.23 1970.06 1238.71 1977.54 C 1238.53 1978.42 1238.35 1979.3 1238.15 1980.17 C 1234.04 1967.76 1234.56 1954.3 1229.99 1941.93 C 1222.6 1921.93 1211.89 1902.87 1204.16 1882.89 C 1198.14 1867.35 1194.48 1850.86 1188.58 1835.21 C 1184.65 1824.78 1178.69 1815.25 1174.7 1804.86 C 1165.74 1781.53 1158.61 1757.52 1149.61 1734.26 C 1143.42 1718.24 1135.17 1703.07 1129.46 1686.84 C 1125.39 1675.26 1123.4 1662.89 1119.2 1651.47 C 1116.93 1645.32 1113.88 1639.44 1111.52 1633.32 C 1101.87 1608.37 1093.45 1582.96 1083.84 1558.02 C 1075.89 1537.37 1066.51 1516.91 1059.24 1496.06 C 1056.77 1489 1042.31 1443.94 1042.65 1439.33 z"/>
<path transform="translate(0,0)" fill="rgb(0,0,0)" fill-opacity="0.976471" d="M 1306.71 282.903 L 1309.92 286.361 C 1271.8 309.8 1231.25 329.828 1192.82 352.741 C 1173.35 365.738 1153.34 378.097 1133.01 389.687 C 1126.62 393.326 1109.36 406.292 1103.56 408.26 C 1076.87 417.298 1056.14 430.246 1032.54 445.513 C 1022.21 452.192 1006.53 457.001 995.663 463.339 C 968.004 480.134 939.842 495.587 911.795 511.525 C 899.229 518.665 897.653 546.402 892.813 560.123 C 892.399 546.258 897.252 529.621 902.845 517.04 L 902.317 516.216 C 897.906 521.47 895.612 529.496 892.724 532.5 C 887.501 514.611 941.531 491.695 953.102 480.419 C 959.598 475.814 968.569 474.082 977.126 467.091 L 976.999 466.34 C 993.386 458.912 1010.72 445.668 1023.87 433.543 C 1026.35 435.092 1028.6 440.32 1030.58 439.76 C 1043.07 436.558 1053.97 426.015 1065.4 420.545 C 1084.66 411.33 1102.15 402.309 1120.31 390.923 C 1129.16 385.376 1140.84 380.783 1150.42 375.195 C 1171.31 363.002 1190.99 350.126 1210.25 335.448 C 1215.47 331.522 1229.97 323.341 1232.78 320.703 C 1232.73 316.686 1233.47 315.483 1234.88 311.704 C 1221.83 319.251 1209.87 325.804 1197.21 334.063 L 1198.65 333.725 L 1197.53 334.573 C 1192.38 338.459 1190.6 340.152 1183.91 338.975 C 1185.86 337.57 1187.32 336.242 1189.11 334.666 C 1197.8 328.144 1220.81 317.532 1232.53 309.892 L 1236.8 310.327 C 1235.7 313.864 1235.26 314.656 1235.36 318.267 C 1244.61 321.281 1297.14 288.946 1306.71 282.903 z"/>
<path transform="translate(0,0)" fill="rgb(0,0,0)" fill-opacity="0.988235" d="M 694.674 1263.73 C 697.167 1259.92 699.908 1254.7 703.601 1252.54 L 704.922 1253.25 C 704.955 1260.04 699.59 1268.52 697.468 1274.93 C 685.303 1311.59 662.892 1343.96 653.31 1381.54 C 650.858 1391.15 645.24 1403.84 641.62 1413.47 C 628.902 1447.31 613.713 1480.29 601.481 1514.3 C 598.66 1522.15 593.935 1530.11 591.206 1537.87 C 567.142 1606.3 533.264 1670.75 506.857 1738.21 C 504.033 1745.25 498.368 1754.34 494.473 1761.12 C 496.978 1739.35 519.502 1703.04 527.778 1680.12 C 533.014 1665.63 539.895 1645.9 545.752 1631.94 C 551.061 1619.28 561.92 1604.02 567.461 1589.55 C 573.951 1572.41 578.612 1554.64 585.471 1537.62 C 599.971 1501.64 614.946 1465.87 630.041 1430.15 C 637.009 1413.67 640.599 1388.25 649.17 1372.87 L 649.896 1372.85 C 649.378 1380.56 633.447 1418.69 632.248 1429.39 L 633.785 1428.34 C 635.919 1418.29 646.56 1395.93 649.848 1384.76 C 652.703 1375.34 655.191 1366.11 658.394 1356.79 C 660.95 1349.36 672.408 1333.54 669.163 1327.16 C 673.572 1318.8 692.608 1272.6 694.674 1263.73 z"/>
<path transform="translate(0,0)" fill="rgb(0,0,0)" fill-opacity="0.972549" d="M 300 1988.04 C 286.457 1990.87 273.898 1989.43 260.365 1991.64 C 242.82 1994.5 226.02 1999.66 208.797 2003.52 C 192.843 2006.73 176.439 2009.79 160.256 2011.6 C 148.518 2012.92 127.166 2017.4 118.768 2007.23 L 119.393 2005.62 C 150.082 1991.22 175.781 1998.08 207.464 1994.95 C 226.129 1993.11 252.597 1984.91 272.613 1981.02 C 301.978 1975.31 332.841 1971.77 362.867 1974.36 C 374.031 1975.32 387.928 1978.52 400.717 1979.84 C 393.48 1984.04 378.22 1979.79 369.652 1978.81 C 356.112 1977.27 305.025 1973.44 300 1988.04 z M 125.642 2007.23 C 133.306 2007.15 141.179 2007.26 148.759 2006.27 C 158.133 2005.72 173.466 2003.94 182.759 2001.98 C 174.996 2001.07 169.399 2000.34 161.636 2000.41 C 147.643 2001.35 138.729 2001.53 125.642 2007.23 z"/>
<path transform="translate(0,0)" fill="rgb(31,30,31)" fill-opacity="0.988235" d="M 161.636 2000.41 C 169.399 2000.34 174.996 2001.07 182.759 2001.98 C 173.466 2003.94 158.133 2005.72 148.759 2006.27 C 141.179 2007.26 133.306 2007.15 125.642 2007.23 C 138.729 2001.53 147.643 2001.35 161.636 2000.41 z"/>
<path transform="translate(0,0)" fill="rgb(0,0,0)" fill-opacity="0.960784" d="M 1369 661.982 C 1373.13 661.794 1371.75 661.037 1373.97 663.06 L 1373.16 665.436 C 1364.55 674.585 1144.38 771.135 1131.84 772.241 C 1128.84 771.188 1128.62 771.304 1126.17 769.118 C 1127.66 766.555 1149.53 757.804 1154.47 755.772 C 1174.23 747.625 1193.07 736.877 1212.59 728.387 L 1369 661.982 z"/>
<path transform="translate(0,0)" fill="rgb(0,0,0)" fill-opacity="0.988235" d="M 807.723 1464.8 C 806.92 1463.15 803.274 1419.91 803.636 1417.23 C 806.707 1394.51 805.774 1372.18 806.997 1349.59 C 808.037 1330.4 810.405 1312.8 810.754 1292.81 C 811.184 1272.05 810.954 1251.27 810.063 1230.53 C 809.327 1209.66 809.044 1189.01 810.198 1168.14 C 810.857 1156.22 832.971 1153.96 841.565 1155.85 C 843.692 1158.1 843.06 1157.15 843.024 1161.23 C 836.819 1158.95 823.039 1161.79 816.045 1162.99 C 816.088 1166.72 815.606 1175.04 817.552 1177.82 C 818.794 1182.64 818.666 1183.72 817.606 1188.61 C 815.476 1191.31 816.063 1201.43 816.428 1205.36 C 818.335 1225.86 812.783 1249.6 813.827 1269.6 C 815.432 1300.34 812.828 1326.96 811 1357.31 C 808.9 1392.18 811.286 1429.83 807.723 1464.8 z"/>
<path transform="translate(0,0)" fill="rgb(0,0,0)" fill-opacity="0.968627" d="M 974.591 811.742 L 976.113 813.349 C 975.236 824.469 938.624 829.293 929.671 833.333 C 920.825 837.325 913 841.536 905.122 847.182 L 903.657 846.384 C 897.129 842.8 894.267 839.789 889.322 834.333 C 884.392 828.894 882.711 827.239 875.256 829.994 C 836.909 844.163 799.841 861.497 764.162 881.444 C 745.529 891.772 714.259 899.408 697.77 912.392 C 693.492 914.559 686.718 918.566 682.479 918.865 C 682.059 919.074 681.64 919.283 681.22 919.492 L 680.979 920.245 L 678.234 918.427 L 680.405 918.412 C 686.678 912.915 694.278 910.861 700.705 906.651 C 721.544 892.997 743.173 885.301 766.17 876.243 C 774.227 873.07 783.656 866.028 792.073 862.138 C 816.435 851.05 840.763 839.465 865.2 828.571 C 879.734 822.092 888.234 827.781 902.307 815.102 C 911.199 814.831 919.111 814.262 927.936 813.533 C 915.001 823.412 904.631 826.394 889.148 829.997 C 892.399 833.781 900.179 843.314 905.853 841.271 C 928.248 833.207 949.168 821.232 972.19 814.724 C 973.277 814.417 973.949 812.749 974.591 811.742 z"/>
<path transform="translate(0,0)" fill="url(#Gradient12)" d="M 1027.08 1986.15 C 1047.13 1980.99 1056.54 1981.94 1076.57 1986.17 C 1082.42 1987.41 1087.1 1987.82 1092.59 1990.55 L 1093.73 1992.22 C 1088.52 1998.78 1038.45 1997.36 1024.99 2000.43 C 1019.05 1996.89 984.158 2004.4 972.608 2004.06 C 960.893 2003.72 952.049 2003.33 940.122 2002.11 C 953.212 2001.16 969.855 1996.26 983.15 1993.64 C 992.668 1991.77 1020.4 1990.25 1027.08 1986.15 z"/>
<path transform="translate(0,0)" fill="url(#Gradient11)" d="M 1398.61 1988.34 C 1434.57 2002.63 1488.52 1971.3 1523.76 1989.32 C 1522.1 1999.72 1487.52 1996.93 1478.84 1997.79 C 1466.35 1999.03 1453.3 2000.07 1440.72 2000.92 C 1423.87 2002.05 1409.61 2005.12 1393.49 1998.87 C 1397.51 1999.1 1404.87 2000.49 1407.11 1996.9 C 1405.42 1993.36 1401.59 1991.3 1398.61 1988.34 z"/>
<path transform="translate(0,0)" fill="rgb(0,0,0)" fill-opacity="0.980392" d="M 760.831 1992.38 C 764.619 1992.02 771.004 1992.03 772.912 1995.77 L 771.522 1997.33 C 762.234 2000.48 749.567 2000.15 739.889 2002.41 C 705.759 2010.39 674.793 2013.82 639.789 2014.07 C 635.322 2014.1 630.381 2014.74 627.282 2011.06 C 634.42 2003.89 742.944 1994.84 760.831 1992.38 z"/>
<path transform="translate(0,0)" fill="rgb(19,19,19)" fill-opacity="0.988235" d="M 844.382 1368.05 C 845.26 1349.11 844.279 1329.92 845.129 1310.79 C 845.661 1298.8 847.279 1289.28 848.285 1277.6 C 850.471 1252.61 852.067 1227.57 853.073 1202.5 C 853.362 1194.07 853.508 1166.01 856.362 1160.69 C 859.223 1158.39 861.312 1158.72 865.205 1158.43 L 865.788 1159.13 C 864.765 1159.48 861.296 1160.26 861.219 1161.26 C 857.659 1207.05 857.295 1253.65 852.935 1299.52 C 851.749 1312 853.532 1331.38 851.239 1342.65 C 847.035 1347.87 845.613 1360.64 845.242 1367.36 L 844.382 1368.05 z"/>
<path transform="translate(0,0)" fill="rgb(0,0,0)" fill-opacity="0.988235" d="M 682.501 1972.92 C 688.227 1971.93 698.598 1970.01 704.004 1970.06 C 711.674 1970.13 750.776 1972.94 754.726 1977.71 C 751.602 1983.96 654.685 1992.39 641.174 1995.34 C 637.084 1996.23 620.673 1997.98 615.915 1998.2 C 616.211 1995.17 616.518 1994.71 615.358 1991.88 C 612.025 1990.53 609.059 1991.61 605.035 1992.16 L 605.176 1988.69 C 609.891 1987.62 613.805 1988.04 618.555 1987.86 C 626.152 1987.58 625.911 1984.62 627.076 1978.8 C 627.21 1981.8 627.431 1984.71 627.261 1987.7 C 630.614 1991.76 646.491 1988.7 651.933 1988.06 C 659.978 1987.06 666.816 1985.81 674.729 1984.29 C 693.205 1980.84 705.509 1983.17 723.681 1977.46 C 708.924 1973.76 698.227 1973.51 682.892 1974.21 L 682.501 1972.92 z"/>
<path transform="translate(0,0)" fill="rgb(0,0,0)" fill-opacity="0.980392" d="M 422.189 1903.82 C 428.581 1882.35 443.583 1859.43 449.996 1835.05 C 454.677 1838.05 458.233 1836.77 463.964 1835.85 C 461.179 1844.56 454.846 1848.99 451.485 1856.92 C 449.381 1861.89 452.507 1871.75 450.869 1877.19 C 449.332 1882.76 445.369 1888.81 443.231 1894.41 C 435.578 1914.44 426.225 1935.48 420.512 1956.06 C 419.719 1958.92 420.951 1961.94 422.063 1964.4 C 423.84 1965.64 423.199 1965.51 425.163 1965.95 L 423.408 1967.79 C 395.219 1967.14 446.838 1903.51 434.851 1897.23 C 430.279 1897.83 426.211 1901.18 422.189 1903.82 z M 442.795 1877.17 C 449.428 1875.64 452.374 1871.13 448.071 1865.2 C 444.398 1867.07 442.573 1867.48 440.704 1870.89 C 440.863 1875.02 440.544 1873.47 442.795 1877.17 z"/>
<path transform="translate(0,0)" fill="rgb(57,56,58)" fill-opacity="0.972549" d="M 448.071 1865.2 C 452.374 1871.13 449.428 1875.64 442.795 1877.17 C 440.544 1873.47 440.863 1875.02 440.704 1870.89 C 442.573 1867.48 444.398 1867.07 448.071 1865.2 z"/>
<path transform="translate(0,0)" fill="url(#Gradient10)" d="M 1024.99 2000.43 C 1007.29 2004.91 904.838 2017.06 895.887 2005.31 L 896.608 2003.67 C 911.046 1997.08 1008.84 1986.12 1027.08 1986.15 C 1020.4 1990.25 992.668 1991.77 983.15 1993.64 C 969.855 1996.26 953.212 2001.16 940.122 2002.11 C 952.049 2003.33 960.893 2003.72 972.608 2004.06 C 984.158 2004.4 1019.05 1996.89 1024.99 2000.43 z M 942.596 2003.42 C 938.404 2000.88 931.555 2000.95 926.778 2001.39 C 932.237 2005.53 935.524 2004.25 942.596 2003.42 z"/>
<path transform="translate(0,0)" fill="rgb(0,0,0)" fill-opacity="0.882353" d="M 926.778 2001.39 C 931.555 2000.95 938.404 2000.88 942.596 2003.42 C 935.524 2004.25 932.237 2005.53 926.778 2001.39 z"/>
<path transform="translate(0,0)" fill="url(#Gradient9)" d="M 499.529 1002.31 L 499.517 1002.02 L 500.437 1001.24 C 506.202 1002.68 525.537 1015.71 535.628 1017.26 C 570.398 1022.59 617.966 994.07 646.975 976.024 C 658.048 969.136 699.501 948.696 708.659 950.899 C 708.408 953.181 708.052 955.195 708.189 957.47 C 694.126 962.563 667.199 970.516 654.804 977.371 C 607.869 1003.33 549.937 1047.81 499.529 1002.31 z"/>
<path transform="translate(0,0)" fill="rgb(0,0,0)" fill-opacity="0.984314" d="M 972.843 808.469 C 965.499 806.889 962.816 809.66 956.307 813.681 C 944.966 812.91 911.456 778.764 904.497 767.954 C 897.645 757.311 874.197 723.932 881.004 712.009 C 887.636 710.813 897.326 729.15 901.454 733.999 C 910.785 744.958 928.682 771.43 941.598 775.846 C 939.363 777.09 937.464 778.834 935.526 777.807 C 918.691 768.882 909.051 749.572 896.493 736.611 C 895.86 736.723 895.228 736.835 894.595 736.946 C 891.767 744.361 903.821 757.51 907.56 763.792 C 919.76 784.286 933.057 797.381 954.114 809.295 C 958.932 806.498 962.813 803.895 968.482 804.058 C 970.689 805.234 971.826 805.505 972.843 808.469 z"/>
<path transform="translate(0,0)" fill="rgb(0,0,0)" fill-opacity="0.980392" d="M 1665.07 318.212 C 1686.67 350.573 1704.56 416.56 1705.76 455.216 L 1699.36 451.745 C 1696.58 439.256 1690.54 440.456 1690.83 427.834 C 1691.88 382.983 1679.48 360.065 1660.84 320.242 L 1665.07 318.212 z"/>
<path transform="translate(0,0)" fill="rgb(31,30,31)" d="M 1236.8 310.327 C 1245.89 302.111 1272.49 288.609 1284.08 280.877 C 1290.27 276.742 1301.75 272.661 1309.53 274.798 L 1308.47 281.248 L 1306.71 282.903 C 1297.14 288.946 1244.61 321.281 1235.36 318.267 C 1235.26 314.656 1235.7 313.864 1236.8 310.327 z"/>
<path transform="translate(0,0)" fill="url(#Gradient8)" d="M 1232.53 309.892 C 1245.33 297.065 1258.64 291.513 1273.44 281.846 C 1296.31 266.899 1330.15 246.528 1356.45 239.186 C 1348.39 247.927 1319.99 269.821 1309.53 274.798 C 1301.75 272.661 1290.27 276.742 1284.08 280.877 C 1272.49 288.609 1245.89 302.111 1236.8 310.327 L 1232.53 309.892 z"/>
<path transform="translate(0,0)" fill="rgb(0,0,0)" d="M 627.076 1978.8 C 636.443 1974.11 666.26 1975.01 678.075 1971.8 C 678.607 1971.66 681.729 1972.65 682.501 1972.92 L 682.892 1974.21 C 698.227 1973.51 708.924 1973.76 723.681 1977.46 C 705.509 1983.17 693.205 1980.84 674.729 1984.29 C 666.816 1985.81 659.978 1987.06 651.933 1988.06 C 646.491 1988.7 630.614 1991.76 627.261 1987.7 C 627.431 1984.71 627.21 1981.8 627.076 1978.8 z"/>
<path transform="translate(0,0)" fill="rgb(31,30,31)" d="M 682.892 1974.21 C 698.227 1973.51 708.924 1973.76 723.681 1977.46 C 705.509 1983.17 693.205 1980.84 674.729 1984.29 C 678.777 1982.66 681.265 1982.29 683.123 1978.81 L 681.84 1977.58 C 677.314 1976.3 674.437 1977.39 669.782 1978.36 C 675.483 1975.84 676.76 1975.48 682.892 1974.21 z"/>
<path transform="translate(0,0)" fill="rgb(57,56,58)" d="M 669.782 1978.36 C 674.437 1977.39 677.314 1976.3 681.84 1977.58 L 683.123 1978.81 C 681.265 1982.29 678.777 1982.66 674.729 1984.29 C 666.816 1985.81 659.978 1987.06 651.933 1988.06 C 649.11 1984.38 644.746 1984.97 640.558 1984.95 C 651.55 1982.43 658.229 1982.07 669.782 1978.36 z"/>
<path transform="translate(0,0)" fill="rgb(94,93,95)" d="M 627.261 1987.7 C 631.153 1985.66 636.064 1985.49 640.558 1984.95 C 644.746 1984.97 649.11 1984.38 651.933 1988.06 C 646.491 1988.7 630.614 1991.76 627.261 1987.7 z"/>
<path transform="translate(0,0)" fill="rgb(0,0,0)" fill-opacity="0.988235" d="M 1363.79 1983.46 C 1377.23 1981.57 1387.16 1980.95 1398.61 1988.34 C 1401.59 1991.3 1405.42 1993.36 1407.11 1996.9 C 1404.87 2000.49 1397.51 1999.1 1393.49 1998.87 L 1389.87 1998.97 C 1387.33 1996.69 1388.13 1997.27 1387.4 1993.02 C 1384.62 1990.67 1379.36 1992.32 1375.65 1992.94 C 1326.46 2001.1 1278.58 2008.08 1229.26 1998.79 L 1230.08 1997.63 L 1226.33 1996.06 C 1261.23 2001.01 1286.82 2001.2 1321.91 1997.27 C 1332.33 1996.1 1343.83 1995.67 1353.9 1992.5 C 1360.1 1990.54 1360.93 1989.04 1363.79 1983.46 z"/>
<path transform="translate(0,0)" fill="rgb(0,0,0)" fill-opacity="0.980392" d="M 674.172 1287.68 C 679.693 1276.54 682.595 1262.97 688.038 1250.95 C 696.058 1232.78 704.135 1214.6 711.46 1196.16 C 712.147 1194.43 725.824 1167.22 725.334 1167.68 L 726.997 1168.61 C 731.966 1179.07 718.335 1194.74 718.103 1207.56 C 709 1209.68 703.539 1228.33 705.402 1235.24 C 699.91 1242.82 694.465 1255.16 690.513 1264 C 687.789 1265.79 684.675 1278.27 681.912 1283.25 C 679.314 1284.7 676.734 1286.17 674.172 1287.68 z"/>
<path transform="translate(0,0)" fill="url(#Gradient7)" d="M 1555.76 616.197 C 1555.75 618.861 1555.49 620.196 1556.78 622.531 C 1558.67 622.954 1564.38 623.963 1565.67 624.908 C 1552.31 633.356 1532.78 641.759 1518.22 648.658 C 1507.66 653.663 1479.7 667.49 1469.09 670.399 L 1466.51 666.516 C 1476.36 662.829 1493.63 654.265 1503.1 649.177 C 1505.42 647.927 1505.19 645.101 1505.4 642.77 L 1507.52 641.044 C 1515.18 638.712 1552.34 622.373 1555.76 616.197 z"/>
<path transform="translate(0,0)" fill="rgb(0,0,0)" fill-opacity="0.984314" d="M 766.855 1197.26 C 772.651 1191.82 778.623 1177.93 783.219 1170.78 C 786.118 1166.27 785.037 1161.61 791.083 1160.38 L 796.414 1162.13 L 796.22 1162.53 C 793.095 1163.54 791.939 1163.41 790.172 1167.06 C 786.155 1175.37 782.226 1184.04 778.394 1192.42 C 766.347 1218.78 755.829 1246.32 743.006 1272.27 C 741.007 1276.32 733.666 1291.94 731.479 1295 C 732.404 1285.7 742.499 1259.46 746.206 1250.55 C 754.007 1231.81 763.111 1217.9 766.855 1197.26 z"/>
<path transform="translate(0,0)" fill="rgb(0,0,0)" fill-opacity="0.980392" d="M 894.617 1156.15 C 903.091 1154.96 910.503 1154.3 918.904 1156.43 C 926.172 1158.27 927.688 1159.4 935.249 1159.21 C 935.579 1165.2 940.559 1170.57 943.056 1176.82 C 938.904 1175.23 938.153 1174.14 934.322 1174.98 C 932.532 1178.19 933.107 1183.45 933.149 1187.36 L 923.249 1160.88 C 914.178 1160.79 902.806 1160.37 893.952 1161.15 C 897.336 1192.34 909.086 1170.54 917.94 1171.28 C 919.837 1174.08 919.323 1172.55 919.345 1176.08 C 913.968 1184.91 906.087 1185.85 908.714 1201.33 C 909.282 1204.67 913.67 1209.68 915.431 1212.74 L 910.448 1212.31 C 908.384 1207.65 906.301 1207.03 903.833 1203.66 C 900.526 1199.15 905.781 1190.56 907.163 1184.49 C 902.554 1179.28 876.728 1184.04 894.617 1156.15 z"/>
<path transform="translate(0,0)" fill="rgb(0,0,0)" fill-opacity="0.984314" d="M 460.694 927.673 C 458.153 928.989 458.523 929.839 457.014 933.181 L 455.955 933.082 C 451.696 926.739 453.095 905.816 451.528 897.463 C 445.802 866.93 433.088 841.189 448.569 811.044 C 451.526 805.287 456.749 793.135 463.209 790.669 C 436.787 831.664 452.991 867.822 458.456 912.286 C 459.196 918.308 461.362 921.062 460.694 927.673 z"/>
<path transform="translate(0,0)" fill="url(#Gradient6)" d="M 1198.32 1980.43 C 1200.66 1994.47 1214.06 1995.65 1226.33 1996.06 L 1230.08 1997.63 L 1229.26 1998.79 C 1213.72 2001.96 1215.88 1996.8 1200.68 1995.75 C 1191.66 1995.13 1153.05 2001.02 1147.68 1997.96 L 1147.11 1995.25 C 1150.81 1981.75 1184.86 1983.35 1195.89 1985.48 L 1197.38 1984.18 L 1197.53 1980.8 L 1198.32 1980.43 z"/>
<path transform="translate(0,0)" fill="rgb(0,0,0)" fill-opacity="0.988235" d="M 462.818 929.147 C 466.021 928.116 468.521 926.782 471.549 927.801 C 481.042 936.364 482.442 942.905 489.198 950.593 C 500.701 963.682 518.247 981.875 534.069 989.11 C 540.045 991.841 547.486 993.66 553.616 995.626 C 560.891 990.922 578.834 985.364 588.09 981.508 C 590.945 981.993 593.533 982.308 596.31 983.176 C 585.949 985.928 568.26 996.123 557.043 997.541 C 521.045 1001.65 499.676 965.883 477.903 943.468 C 473.011 938.431 468.702 932.914 462.818 929.147 z"/>
<path transform="translate(0,0)" fill="rgb(0,0,0)" fill-opacity="0.968627" d="M 444.993 1985.15 C 453.295 1982.9 483.933 1974.63 488.855 1985.13 C 486.218 1991.02 471.192 1989.25 465.27 1990.71 C 427.603 1999.96 396.24 2000.41 357.608 1999.9 L 357.894 1998.84 C 377.342 1999.22 431.402 1998 444.993 1985.15 z"/>
<path transform="translate(0,0)" fill="rgb(0,0,0)" fill-opacity="0.988235" d="M 965.385 1236.07 C 978.873 1250.02 1003.08 1331.93 1012.15 1355.26 C 1001.62 1348.94 990.314 1306.45 984.903 1293.92 C 976.518 1274.5 969.537 1256.92 965.385 1236.07 z"/>
<path transform="translate(0,0)" fill="rgb(0,0,0)" fill-opacity="0.984314" d="M 1670.93 585.24 C 1673.03 586.085 1674.56 586.855 1676.82 587.109 C 1673.16 589.53 1668.08 592.553 1664.66 595.182 C 1650.02 606.418 1633.5 612.955 1616.72 620.176 C 1599.86 627.433 1583.26 636.944 1565.67 624.908 C 1564.38 623.963 1558.67 622.954 1556.78 622.531 C 1567.26 621.246 1569.96 624.178 1577.94 624.091 C 1605.02 627.07 1649.12 600.396 1670.93 585.24 z"/>
<path transform="translate(0,0)" fill="rgb(0,0,0)" fill-opacity="0.937255" d="M 615.915 1998.2 C 605.972 1999.92 542.977 2007.22 539.432 2000.7 C 552.822 1987.16 592.247 1997.38 605.176 1988.69 L 605.035 1992.16 L 604.24 1996.14 C 606.9 1999.66 611.494 1997.67 615.915 1998.2 z"/>
<path transform="translate(0,0)" fill="rgb(31,30,31)" d="M 885.108 1981.87 C 887.565 1981.48 896.186 1983.86 899.261 1982.18 C 900.883 1981.29 907.258 1975.55 909.493 1975.14 C 922.62 1972.77 946.049 1972.46 958.86 1973.16 C 957.54 1977.15 952.096 1978.18 948.094 1979.55 C 939.151 1981.3 929.689 1983.38 920.756 1984.85 C 908.474 1986.48 899.014 1988.96 886.835 1985.9 L 885.108 1981.87 z"/>
<path transform="translate(0,0)" fill="url(#Gradient5)" d="M 886.835 1985.9 C 899.014 1988.96 908.474 1986.48 920.756 1984.85 C 924.8 1985.17 926.103 1985.26 930.103 1984.91 L 930.845 1985.65 L 929.125 1988.15 C 919.946 1990.4 871.47 1998.16 867.085 2002.79 C 860.38 1997.32 850.048 1997.13 841.719 1997.15 C 844.269 1996.23 846.9 1995.4 849.411 1994.47 C 863.777 1989.21 873.405 1994.49 886.835 1985.9 z"/>
<path transform="translate(0,0)" fill="rgb(0,0,0)" fill-opacity="0.988235" d="M 948.158 1230.21 C 948.179 1226.1 947.766 1219.5 950.013 1216.44 C 954.129 1214.83 955.137 1215.7 959.889 1216.33 C 960.752 1222.16 962.843 1226.47 962.588 1231.84 C 959.75 1234.03 956.725 1235.84 956.613 1239.62 C 956.282 1250.75 965.811 1262.95 969.923 1273.16 C 971.917 1278.11 973.042 1283.18 974.336 1288.11 L 972.283 1289.2 L 970.51 1286.37 L 968.369 1286.33 C 963.248 1279.09 951.128 1240.54 948.158 1230.21 z"/>
<path transform="translate(0,0)" fill="url(#Gradient4)" d="M 680.979 920.245 C 675.714 929.034 618.456 953.78 610.93 951.677 L 610.341 950.143 C 615.532 942.74 667.751 921.502 678.234 918.427 L 680.979 920.245 z"/>
<path transform="translate(0,0)" fill="url(#Gradient3)" d="M 301.837 1994.9 C 308.382 1999.64 347.702 1999.05 357.894 1998.84 L 357.608 1999.9 C 342.301 2000.16 326.113 2001.83 310.824 2003.22 C 302.597 2003.97 265.879 2012.59 260.094 2005.62 C 262.287 2003.25 298.018 1994.56 301.837 1994.9 z"/>
<path transform="translate(0,0)" fill="rgb(31,30,31)" d="M 740.993 622.114 L 741.627 623.31 L 737.234 629.725 C 729.945 640.287 699.071 655.099 686.657 660.382 C 703.55 641.302 711.448 640.913 731.296 625.777 C 734.796 624.195 737.336 623.342 740.993 622.114 z"/>
<path transform="translate(0,0)" fill="url(#Gradient2)" d="M 1197.53 1980.8 C 1194.68 1972.75 1186.32 1954.3 1190.59 1946.51 L 1192.44 1946.17 C 1202.26 1951.53 1211.65 1969.66 1223.6 1969.1 C 1211.78 1977.18 1207.04 1964.07 1200.1 1966.58 C 1197.83 1970.29 1198.48 1975.67 1198.32 1980.43 L 1197.53 1980.8 z"/>
<path transform="translate(0,0)" fill="rgb(0,0,0)" fill-opacity="0.988235" d="M 1014.63 1361.86 C 1024.87 1384.03 1033.64 1414.93 1042.24 1438.37 C 1028.33 1428.27 1015.44 1379.36 1014.63 1361.86 z"/>
<path transform="translate(0,0)" fill="rgb(0,0,0)" fill-opacity="0.988235" d="M 465.195 1798.74 C 464.647 1803.79 463.854 1806.16 466.619 1810.12 L 468.621 1810.34 C 476.643 1804.1 477.718 1788.17 486.473 1780.6 C 480.691 1794.51 474.853 1808.31 468.846 1822.12 C 466.913 1826.57 466.237 1830.65 464.195 1835.2 C 463.941 1831.11 464.006 1828.27 461.183 1825.64 C 457.627 1825.25 454.971 1827.46 451.786 1829.35 C 454.022 1821.89 461.616 1806.12 465.195 1798.74 z"/>
<path transform="translate(0,0)" fill="rgb(0,0,0)" fill-opacity="0.984314" d="M 906.172 479.633 C 919.013 469.525 952.284 453.476 968.816 444.292 C 957.702 464.257 927.23 473.62 906.903 479.427 L 906.172 479.633 z"/>
<path transform="translate(0,0)" fill="rgb(0,0,0)" fill-opacity="0.980392" d="M 948.908 1193.12 C 952.257 1203.4 954.351 1207.12 959.889 1216.33 C 955.137 1215.7 954.129 1214.83 950.013 1216.44 C 947.766 1219.5 948.179 1226.1 948.158 1230.21 C 943.899 1217.4 939.004 1204.45 934.435 1191.7 C 937.844 1194.76 940.503 1196.87 945.052 1197.34 C 948.52 1195.78 947.143 1197.01 948.908 1193.12 z"/>
<path transform="translate(0,0)" fill="rgb(19,19,19)" fill-opacity="0.988235" d="M 1699.36 451.745 L 1705.76 455.216 C 1710.59 472.841 1708.84 504.868 1706.2 523.006 L 1703.57 522.237 C 1702.56 512.691 1704.05 496.735 1703.96 486.157 C 1703.84 470.043 1701.79 465.961 1699.36 451.745 z"/>
<path transform="translate(0,0)" fill="rgb(0,0,0)" fill-opacity="0.00784314" d="M 1019.3 431.899 L 1023.87 433.543 C 1010.72 445.668 993.386 458.912 976.999 466.34 L 976.922 464.472 C 978.965 460.635 982.289 458.17 985.581 455.218 C 995.364 448.137 1009.18 437.556 1019.3 431.899 z"/>
<path transform="translate(0,0)" fill="rgb(0,0,0)" fill-opacity="0.976471" d="M 844.382 1368.05 L 845.242 1367.36 C 845.613 1360.64 847.035 1347.87 851.239 1342.65 C 848.912 1365.47 847.114 1399.62 846.828 1422.94 L 845.771 1422.68 C 844.738 1420.47 844.101 1385.7 843.967 1380.55 L 844.382 1368.05 z"/>
<path transform="translate(0,0)" fill="rgb(31,30,31)" d="M 705.402 1235.24 C 703.539 1228.33 709 1209.68 718.103 1207.56 C 719.9 1215.78 716.562 1233.38 710.34 1238.85 C 708.706 1237.63 707.06 1236.42 705.402 1235.24 z"/>
<path transform="translate(0,0)" fill="rgb(0,0,0)" fill-opacity="0.972549" d="M 1136.81 356.207 C 1144.88 351.202 1177.86 331.338 1185.02 330.886 C 1176.08 338.822 1169.35 344.783 1159.32 351.404 C 1149.98 354.673 1147.9 357.001 1136.81 356.207 z"/>
<path transform="translate(0,0)" fill="rgb(19,19,19)" fill-opacity="0.988235" d="M 933.149 1187.36 C 933.107 1183.45 932.532 1178.19 934.322 1174.98 C 938.153 1174.14 938.904 1175.23 943.056 1176.82 L 948.908 1193.12 C 947.143 1197.01 948.52 1195.78 945.052 1197.34 C 940.503 1196.87 937.844 1194.76 934.435 1191.7 L 933.149 1187.36 z"/>
<path transform="translate(0,0)" fill="rgb(0,0,0)" fill-opacity="0.956863" d="M 964.855 1969.52 C 968.91 1969.78 972.309 1969.49 975.566 1971.67 L 976.983 1973.82 C 975.52 1980.81 967.247 1981.42 961.123 1981.53 C 954.841 1977.11 955.552 1983.03 948.094 1979.55 C 952.096 1978.18 957.54 1977.15 958.86 1973.16 L 958.881 1971.57 C 961.16 1971.03 962.72 1970.48 964.855 1969.52 z"/>
<path transform="translate(0,0)" fill="url(#Gradient1)" d="M 817.552 1177.82 C 821.679 1175.96 824.428 1174.13 828.806 1174.62 C 832.321 1176.53 831.162 1175.17 832.606 1178.67 C 831.403 1185.98 824.425 1188.94 817.606 1188.61 C 818.666 1183.72 818.794 1182.64 817.552 1177.82 z"/>
<path transform="translate(0,0)" fill="rgb(0,0,0)" fill-opacity="0.952941" d="M 728.445 620.997 C 734.933 617.262 748.737 608.861 755.27 607.42 C 754.386 610.229 743.641 619.868 740.993 622.114 C 737.336 623.342 734.796 624.195 731.296 625.777 C 728.853 624.315 729.6 624.578 728.445 620.997 z"/>
<path transform="translate(0,0)" fill="rgb(0,0,0)" fill-opacity="0.929412" d="M 1090.62 783.216 C 1093.67 782.691 1093.73 782.518 1096.86 783.237 L 1097.71 784.641 C 1095.07 788.996 1082.59 792.964 1077.4 794.876 C 1074.03 796.205 1075.61 796.183 1072.54 795.732 C 1070.95 788.937 1085.49 784.586 1090.62 783.216 z"/>
<path transform="translate(0,0)" fill="rgb(0,0,0)" fill-opacity="0.988235" d="M 920.756 1984.85 C 929.689 1983.38 939.151 1981.3 948.094 1979.55 C 955.552 1983.03 954.841 1977.11 961.123 1981.53 C 951.079 1983.85 939.225 1986.85 929.125 1988.15 L 930.845 1985.65 L 930.103 1984.91 C 926.103 1985.26 924.8 1985.17 920.756 1984.85 z"/>
<path transform="translate(0,0)" fill="rgb(0,0,0)" fill-opacity="0.0156863" d="M 1185.02 330.886 C 1187.57 332.34 1187.49 333.431 1189.11 334.666 C 1187.32 336.242 1185.86 337.57 1183.91 338.975 C 1178.54 342.303 1165.39 352.383 1160.05 352.043 L 1159.32 351.404 C 1169.35 344.783 1176.08 338.822 1185.02 330.886 z"/>
<path transform="translate(0,0)" fill="rgb(0,0,0)" fill-opacity="0.941176" d="M 865.42 692.932 C 868.577 692.379 869.626 692.75 871.732 690.988 C 871.477 686.909 871.527 685.597 872.789 681.713 C 873.942 687.382 877.77 701.449 874.512 706.018 C 868.816 704.94 868.063 697.655 865.42 692.932 z"/>
<path transform="translate(0,0)" fill="rgb(19,19,19)" d="M 451.786 1829.35 C 454.971 1827.46 457.627 1825.25 461.183 1825.64 C 464.006 1828.27 463.941 1831.11 464.195 1835.2 L 463.964 1835.85 C 458.233 1836.77 454.677 1838.05 449.996 1835.05 C 450.474 1833.23 451.2 1831.17 451.786 1829.35 z"/>
<path transform="translate(0,0)" fill="rgb(0,0,0)" fill-opacity="0.866667" d="M 1308.47 281.248 C 1315.93 278.005 1319.51 275.574 1327.55 273.723 L 1327.43 274.502 C 1322.02 278.204 1315.41 283.008 1309.92 286.361 L 1306.71 282.903 L 1308.47 281.248 z"/>
<path transform="translate(0,0)" fill="rgb(19,19,19)" fill-opacity="0.988235" d="M 910.448 1212.31 L 915.431 1212.74 C 916.6 1215.66 918.761 1220.57 919.365 1223.45 C 918.52 1226.64 918.025 1228.76 916.747 1231.78 C 914.602 1225.31 912.502 1218.82 910.448 1212.31 z"/>
<path transform="translate(0,0)" fill="rgb(0,0,0)" fill-opacity="0.92549" d="M 1186.49 1915.52 C 1187.89 1922.14 1190.67 1932.63 1187.33 1938.65 C 1185.23 1933.06 1183.86 1927.81 1184.67 1921.85 C 1185.65 1920.11 1186.01 1917.58 1186.49 1915.52 z"/>
<path transform="translate(0,0)" fill="rgb(19,19,19)" fill-opacity="0.980392" d="M 605.035 1992.16 C 609.059 1991.61 612.025 1990.53 615.358 1991.88 C 616.518 1994.71 616.211 1995.17 615.915 1998.2 C 611.494 1997.67 606.9 1999.66 604.24 1996.14 L 605.035 1992.16 z"/>
<path transform="translate(0,0)" fill="rgb(31,30,31)" fill-opacity="0.709804" d="M 864.465 596.119 C 865.404 592.612 865.111 591.31 867.284 589.133 C 868.729 593.471 868.164 600.368 868.498 605.351 L 865.191 604.997 C 866.096 600.7 865.863 600.448 864.465 596.119 z"/>
</svg>