<?xml version="1.0" standalone="no"?>
<!DOCTYPE svg PUBLIC "-//W3C//DTD SVG 20010904//EN"
 "http://www.w3.org/TR/2001/REC-SVG-20010904/DTD/svg10.dtd">
<svg version="1.0" xmlns="http://www.w3.org/2000/svg"
 width="275.000000pt" height="214.000000pt" viewBox="0 0 275.000000 214.000000"
 preserveAspectRatio="xMidYMid meet">

<g transform="translate(0.000000,214.000000) scale(0.100000,-0.100000)"
fill="#000000" stroke="none">
<path d="M1258 1949 c-362 -39 -672 -313 -763 -674 -33 -129 -39 -202 -26
-315 21 -187 78 -345 167 -460 64 -84 182 -193 249 -231 l60 -34 -55 -6 -55
-6 45 -2 c25 -2 62 -4 83 -5 78 -5 46 -16 -46 -16 -58 0 -97 -4 -97 -10 0 -6
51 -10 133 -11 72 -1 143 -4 157 -8 23 -7 21 -8 -15 -14 -22 -4 -64 -7 -94 -7
-30 0 -52 -2 -49 -5 5 -6 425 -10 623 -6 90 1 133 5 120 11 -11 5 -39 6 -62 3
-26 -3 -43 -1 -43 5 0 12 49 22 111 22 27 0 49 5 49 10 0 6 -8 10 -17 10 -17
1 -17 1 -1 11 9 5 34 8 55 7 86 -5 264 3 259 11 -3 5 -63 7 -133 5 -106 -4
-125 -2 -109 8 11 7 52 35 92 61 161 105 293 299 354 518 40 145 23 381 -40
563 -38 110 -63 159 -92 183 -13 10 -36 35 -51 56 -85 113 -278 256 -377 278
-19 5 -66 17 -105 27 -86 24 -224 33 -327 21z m292 -47 c17 -7 -28 -9 -145 -8
-93 0 -190 -3 -215 -7 -56 -10 -47 0 17 19 54 15 299 13 343 -4z m-545 -83
c-55 -28 -106 -55 -113 -61 -7 -6 -15 -8 -18 -6 -13 14 175 118 211 118 11 0
-25 -23 -80 -51z m343 -17 c-2 -74 5 -94 27 -85 11 4 15 23 15 80 0 73 1 75
23 70 12 -3 56 -11 97 -17 67 -11 163 -49 275 -108 55 -29 175 -124 175 -139
0 -8 18 -36 40 -62 22 -26 40 -52 40 -59 0 -6 17 -31 38 -55 31 -35 44 -64 65
-143 15 -54 29 -127 33 -161 l6 -63 -64 0 c-72 0 -100 -12 -80 -32 8 -8 36
-12 78 -11 l64 1 0 -51 c-1 -167 -143 -437 -295 -560 -75 -61 -163 -110 -240
-136 -69 -23 -244 -56 -252 -47 -3 3 -6 36 -7 73 -1 61 -3 68 -21 68 -18 0
-20 -7 -20 -70 0 -69 -1 -70 -27 -73 -15 -2 -36 1 -47 7 -10 6 -43 13 -73 16
-31 4 -81 20 -121 41 -37 18 -76 34 -86 34 -35 0 -231 150 -231 177 0 6 -22
35 -49 65 -26 29 -62 80 -78 113 -27 53 -70 202 -88 307 l-7 37 73 3 c58 2 74
6 74 18 0 12 -16 16 -72 18 l-71 3 5 57 c11 118 51 235 127 362 82 138 232
268 375 326 60 24 177 51 251 57 25 2 46 4 47 5 1 1 1 -29 1 -66z m395 27
c152 -77 241 -154 339 -292 64 -90 98 -163 98 -211 0 -30 -15 -8 -39 58 -33
90 -67 140 -159 240 -93 99 -135 132 -227 175 -66 31 -107 60 -87 61 7 0 41
-14 75 -31z m-923 -122 c0 -1 -22 -25 -50 -52 -27 -27 -50 -44 -50 -38 0 13
78 93 91 93 5 0 9 -1 9 -3z m-162 -193 c-32 -45 -48 -61 -48 -49 0 12 23 50
43 73 36 39 39 24 5 -24z m-78 -150 c-11 -33 -29 -87 -41 -121 -11 -35 -22
-63 -24 -63 -13 0 34 169 60 221 25 48 28 28 5 -37z m1631 -131 c29 -126 30
-165 4 -405 -1 -16 -3 -37 -4 -47 0 -11 -7 -26 -15 -34 -8 -7 -34 -54 -59
-103 -25 -49 -66 -113 -91 -142 -25 -30 -46 -58 -46 -63 0 -5 -15 -19 -34 -31
-18 -13 -60 -42 -93 -65 -68 -48 -126 -81 -163 -94 -24 -9 -24 -9 -5 7 11 8
41 26 66 39 93 48 200 140 276 238 43 55 123 211 123 239 0 7 11 58 25 112 29
113 32 207 10 311 -8 38 -15 74 -15 79 0 20 12 -4 21 -41z m-1702 -283 c0 -26
-2 -31 -9 -20 -5 8 -9 35 -9 60 1 37 2 41 9 20 4 -14 8 -41 9 -60z m43 -163
c14 -45 25 -84 23 -85 -9 -9 -35 50 -48 111 -20 89 -9 77 25 -26z m188 -328
c0 -10 153 -131 192 -151 88 -45 164 -78 182 -79 12 0 46 -9 76 -19 l55 -19
-50 6 c-72 8 -191 49 -260 90 -111 65 -172 122 -263 242 -82 109 -80 125 3 20
36 -45 65 -86 65 -90z m858 -249 c-78 -24 -128 -33 -128 -22 0 6 24 13 53 16
29 4 59 11 67 16 8 5 26 9 40 9 16 -1 5 -7 -32 -19z m-265 -27 c-13 -2 -33 -2
-45 0 -13 2 -3 4 22 4 25 0 35 -2 23 -4z"/>
<path d="M1713 1472 c-85 -53 -283 -177 -363 -227 -19 -12 -56 -34 -82 -49
-27 -15 -48 -31 -48 -37 0 -5 -20 -44 -44 -87 -24 -42 -60 -108 -81 -147 -21
-38 -46 -82 -57 -97 -10 -14 -18 -29 -18 -32 0 -3 -29 -58 -65 -123 -43 -76
-62 -120 -56 -126 7 -7 36 7 85 39 41 27 117 75 168 108 51 32 117 74 146 94
67 45 106 67 160 93 23 11 42 26 42 34 0 8 14 38 32 67 130 218 299 529 292
539 -8 14 -12 12 -111 -49z m-33 -134 c-24 -40 -55 -95 -70 -123 -32 -59 -141
-248 -146 -254 -3 -3 -11 2 -20 10 -12 13 -13 20 -3 43 27 58 -48 134 -105
108 -19 -8 -28 -7 -43 4 -10 9 -13 17 -8 20 6 2 40 23 75 46 36 23 101 64 145
93 44 28 109 70 145 92 35 23 66 40 69 38 2 -3 -15 -37 -39 -77z m-404 -274
c-4 -17 -2 -43 3 -57 13 -34 64 -60 100 -52 19 4 32 1 40 -9 10 -12 5 -19 -31
-41 -56 -35 -87 -55 -245 -159 -72 -47 -134 -86 -137 -86 -4 0 5 17 18 38 13
21 38 67 56 102 18 36 64 122 102 193 59 106 73 125 85 115 10 -8 13 -22 9
-44z m112 4 c33 -33 -6 -91 -47 -69 -24 13 -30 31 -20 59 9 24 47 30 67 10z
m-347 -305 c-12 -20 -14 -14 -5 12 4 9 9 14 11 11 3 -2 0 -13 -6 -23z"/>
<path d="M697 1447 c-29 -45 -77 -147 -77 -165 0 -10 -4 -22 -9 -27 -12 -14
-30 -125 -20 -130 11 -7 14 1 35 90 10 44 38 117 61 162 23 46 38 85 33 88 -4
3 -14 -5 -23 -18z"/>
<path d="M2136 988 c-2 -7 -9 -40 -15 -73 -6 -33 -14 -70 -17 -82 -4 -13 -2
-23 4 -23 21 0 60 174 42 185 -6 4 -12 0 -14 -7z"/>
<path d="M2080 771 c-12 -24 -13 -51 -2 -51 9 0 32 44 32 60 0 17 -19 11 -30
-9z"/>
<path d="M2016 635 c-14 -21 -14 -25 -2 -25 13 0 36 28 36 44 0 15 -19 4 -34
-19z"/>
<path d="M603 223 c43 -2 110 -2 150 0 40 1 5 3 -78 3 -82 0 -115 -2 -72 -3z"/>
<path d="M2107 223 c18 -2 50 -2 70 0 21 2 7 4 -32 4 -38 0 -55 -2 -38 -4z"/>
<path d="M270 190 c0 -5 20 -10 44 -10 25 0 48 5 51 10 4 6 -13 10 -44 10 -28
0 -51 -4 -51 -10z"/>
<path d="M400 190 c0 -6 40 -10 100 -10 60 0 100 4 100 10 0 6 -40 10 -100 10
-60 0 -100 -4 -100 -10z"/>
<path d="M630 190 c0 -6 33 -10 80 -10 47 0 80 4 80 10 0 6 -33 10 -80 10 -47
0 -80 -4 -80 -10z"/>
<path d="M1765 190 c-4 -6 20 -10 65 -10 45 0 69 4 65 10 -3 6 -33 10 -65 10
-32 0 -62 -4 -65 -10z"/>
<path d="M1910 190 c0 -6 30 -10 70 -10 40 0 70 4 70 10 0 6 -30 10 -70 10
-40 0 -70 -4 -70 -10z"/>
<path d="M2075 190 c4 -6 57 -10 126 -10 73 0 119 4 119 10 0 6 -49 10 -126
10 -81 0 -123 -4 -119 -10z"/>
<path d="M2380 190 c0 -5 21 -10 46 -10 27 0 43 4 39 10 -3 6 -24 10 -46 10
-21 0 -39 -4 -39 -10z"/>
<path d="M552 148 c-9 -3 18 -7 61 -7 42 -1 77 3 77 7 0 10 -112 10 -138 0z"/>
<path d="M735 150 c-4 -6 23 -10 74 -10 47 0 81 4 81 10 0 6 -31 10 -74 10
-41 0 -78 -4 -81 -10z"/>
<path d="M1737 148 c-7 -4 19 -8 57 -8 38 0 67 3 63 6 -9 9 -107 10 -120 2z"/>
<path d="M1934 149 c-11 -4 24 -7 76 -7 102 0 103 5 4 10 -34 2 -70 1 -80 -3z"/>
</g>
</svg>
