<svg version="1.1" xmlns="http://www.w3.org/2000/svg" style="display: block;" viewBox="0 0 1608 1344" width="402" height="336" preserveAspectRatio="none">
<defs>
	<linearGradient id="Gradient1" gradientUnits="userSpaceOnUse" x1="1328.62" y1="1302.04" x2="1333.8" y2="1275.88">
		<stop class="stop0" offset="0" stop-opacity="0.980392" stop-color="rgb(84,85,87)"/>
		<stop class="stop1" offset="1" stop-opacity="1" stop-color="rgb(57,57,61)"/>
	</linearGradient>
</defs>
<path transform="translate(0,0)" fill="rgb(0,0,0)" d="M 664.642 88.9552 C 682.674 79.4979 695.019 78.0754 713.493 74.1801 C 761.758 64.0036 798.368 69.2489 845.149 83.5239 C 882.339 94.8719 913.499 112.158 933.867 147.233 C 944.108 164.868 947.394 193.491 940.77 213.277 C 931.728 240.283 911.288 262.558 886.36 276.239 C 870.034 285.199 853.192 281.971 836.913 285.775 L 837.931 286.31 C 843.159 289.015 849.09 290.699 854.877 291.704 C 879.402 295.961 902.372 302.661 925.913 310.667 C 946.188 317.392 966.19 324.913 985.872 333.214 C 1040.17 356.373 1092.81 383.229 1143.43 413.594 C 1155.89 421.064 1189.09 436.787 1189.22 453.154 C 1180.98 461.731 1098.86 412.428 1086.09 405.432 C 1005.17 360.069 917.943 327.004 827.283 307.323 C 806.077 302.622 786.05 298.096 764.322 295.853 C 747.197 293.634 727.777 298.724 711.037 297.986 C 669.715 296.163 632.059 300.66 592.675 313.253 C 548.609 327.342 501.497 337.296 472.887 376.999 C 436.644 427.296 484.219 471.186 522.94 499.441 C 531.719 505.749 540.962 518.624 551.162 523.963 C 608.64 563.74 669.696 595.643 730.551 629.764 C 787.183 661.517 843.492 691.412 904.152 715.203 C 911.168 717.954 918.619 720.22 925.811 722.473 C 936.298 728.805 977.33 738.168 990.572 741.158 C 994.431 742.283 1005.51 746.246 1008.55 746.079 C 1021.17 748.319 1035.94 748.563 1048.97 749.553 C 1058.34 750.265 1074.38 753.062 1083.05 752.727 C 1138.38 754.555 1201.7 746.991 1244.28 707.959 C 1261.55 690.341 1283.47 664.543 1290.52 640.713 C 1295.77 622.936 1296.79 594.155 1292.32 576.151 C 1292.14 575.437 1283.11 548.824 1283.87 549.906 C 1272.2 533.431 1255.97 519.125 1241.63 504.912 C 1221.83 487.043 1209.16 481.692 1196.33 457.102 C 1200.54 457.534 1209.08 458.167 1212.71 459.939 C 1238.84 472.699 1265.87 496.707 1284.46 518.933 C 1330.14 573.57 1320.1 641.27 1284.91 697.865 C 1280.26 705.344 1270.59 712.612 1263.85 718.346 C 1230.54 745.279 1200.31 760.983 1158.21 768.849 C 1148.71 770.625 1138.36 770.124 1127.94 772.096 C 1157.36 777.747 1188.04 781.805 1217.06 786.789 C 1241.81 791.039 1349.4 820.487 1346.58 849.189 C 1345.57 850.729 1344.61 852.462 1342.21 852.416 C 1330.08 852.187 1309.77 839.274 1298.09 833.947 C 1271.3 821.467 1243.42 812.191 1214.46 806.242 C 1204.65 804.199 1193.39 799.704 1183.58 798.765 C 1095.43 790.321 1006.1 782.005 917.535 789.529 C 893.135 791.602 871.893 794.398 846.966 794.375 C 827.062 794.356 803.183 799.534 782.983 800.726 C 763.001 803.105 741.794 803.388 722.02 805.689 C 705.387 807.624 688.502 815.93 673.165 820.412 C 655.389 825.577 635.333 827.651 617.738 832.597 C 589.682 840.483 560.563 848.169 533.346 858.425 C 517.852 864.264 511.411 859.734 497.655 865.283 C 484.848 870.449 472.926 880.172 461.146 887.32 C 451.719 893.006 440.572 897.947 430.809 903.724 C 402.081 920.888 376.134 942.326 353.858 967.299 C 320.406 1004.9 304.953 1038.25 306.792 1089.2 C 310.096 1180.75 372.991 1209.2 451.732 1233.42 C 459.781 1234.24 466.126 1235.16 474.094 1236.55 C 492.24 1239.04 521.873 1243.99 538.925 1244.29 C 548.117 1246.27 559.643 1244.2 568.751 1245.73 C 604.605 1251.73 639.141 1251.01 675.055 1252.72 C 703.247 1253.16 726.134 1256.36 753.946 1256.71 C 762.546 1257.84 770.036 1253.27 778.358 1253.16 C 851.845 1252.23 925.309 1253.56 998.804 1252.89 C 1023.82 1252.66 1048.28 1247.92 1072.71 1246.75 C 1114.93 1244.74 1155.48 1241.88 1197.14 1233.58 C 1208.51 1231.35 1224.99 1229.67 1235.74 1225.83 C 1292.67 1205.51 1344.63 1169.8 1380.54 1120.77 C 1394.51 1101.69 1401.33 1085.47 1408.75 1063.45 C 1415.73 1042.5 1423.86 1012.81 1418.95 990.273 C 1414.64 970.499 1412.76 951.24 1409.29 931.286 C 1400.01 922.531 1392.2 906.197 1383.45 896.138 C 1374.73 886.142 1364.01 878.382 1354.38 869.275 C 1348.75 863.949 1345.24 850.369 1351.56 844.976 C 1356.35 844.951 1361.59 848.8 1365.35 851.283 C 1395.1 870.91 1411.93 891.393 1423.31 925.348 C 1427.76 938.614 1431.6 946.945 1434.52 961.897 C 1438.01 986.62 1436.1 1004.67 1434.75 1029.52 C 1429.53 1120.46 1369.71 1177.52 1299.74 1220.92 C 1299.7 1220.96 1299.66 1220.99 1299.62 1221.03 C 1278.51 1234.75 1258.67 1243.61 1233.84 1248.79 C 1226.48 1250.33 1209.44 1252.04 1202.87 1254.8 C 1185.74 1256.96 1171 1257.31 1154.38 1262.23 C 1166.85 1264.07 1179.48 1264.4 1192.02 1263.2 C 1203.69 1263.26 1214.02 1260.69 1226.13 1261.09 L 1226.03 1262.73 L 1224.61 1263.67 C 1224.12 1268.8 1222.63 1270.86 1219.19 1274.4 C 1197.74 1272.06 1162.46 1273.99 1140.16 1274.17 L 991.497 1274.2 C 975.485 1274.22 959.06 1276.25 943.565 1275.8 C 930.169 1273.13 913.007 1272.75 899.571 1275.06 C 894.616 1276.23 882.74 1273.24 873.566 1273.86 C 820.67 1274.61 766.393 1271.11 713.342 1275.33 C 704.199 1275.97 692.516 1275.46 683.071 1275.41 L 618.25 1274.92 C 590.719 1274.98 561.346 1277.89 534.596 1275.78 C 529.997 1274.26 522.944 1275.5 520.078 1272.85 C 522.395 1270 525.871 1269.12 529.42 1267.71 C 518.27 1256.45 501.406 1255.69 486.434 1258.6 C 486.342 1258.6 486.25 1258.6 486.158 1258.59 C 433.104 1250.82 378.241 1245.33 338.142 1205.37 C 327.544 1194.81 319.743 1184.29 310.697 1173.84 C 307.74 1167.62 303.804 1160.94 300.608 1154.5 C 274.797 1102.47 279.42 1032.98 317.242 988.056 C 320.15 984.603 322.789 974.571 326.336 970.007 C 337.122 956.133 348.137 941.69 361.168 929.726 C 394.106 901.206 444.555 869.01 484.996 853.175 C 499.595 847.558 514.447 842.619 529.503 838.374 C 539.447 835.528 555.489 831.324 564.516 827.527 L 565.716 827.014 C 552.759 826.473 542.669 827.658 529.034 824.99 C 502.162 819.734 484.761 803.562 469.322 782.151 C 464.359 775.605 462.77 768.143 459.49 760.947 C 435.02 707.246 469.053 644.18 514.416 613.894 C 536.483 599.161 571.217 590.561 597.561 591.012 C 604.671 591.133 624.227 597.427 632.808 599.351 C 605.921 578.848 572.837 562.27 545.103 540.947 C 517.29 519.563 489.498 504.924 465.413 477.379 C 443.239 452.02 441.334 435.606 442.941 402.477 C 443.71 382.276 454.203 370.436 468.606 358.007 C 469.906 351.298 470.371 347.244 475.147 342.088 C 489.117 327.004 509.534 317.842 528.326 310.198 C 567.626 294.212 608.837 283.812 650.908 278.51 C 668.393 276.32 686.887 278.977 704.629 277.491 C 692.021 273.735 680.744 270.815 668.568 265.498 C 640.803 253.375 619.783 231.911 612.176 202.2 C 611.107 198.024 609.901 194.229 608.372 190.213 C 598.326 161.251 621.567 115.315 646.016 99.3229 C 651.785 95.5492 658.49 92.1365 664.642 88.9552 z M 594.601 611.413 C 555.566 615.01 530.021 621.458 502.209 651.048 C 459.687 696.289 463.48 756.166 509.288 796.691 C 527.765 813.037 580.298 808.264 604.238 805.805 C 629.007 803.877 650.442 796.352 673.078 786.827 C 688.274 780.432 693.165 780.685 704.793 767.202 C 723.366 746.011 727.336 723.836 725.694 696.725 C 724.322 674.081 712.824 663.015 696.783 648.639 C 674.592 628.752 623.897 607.349 594.601 611.413 z M 697.772 796.778 C 715.25 791.258 732.16 789.215 750.213 786.829 C 758.767 785.698 769.989 782.143 778.135 781.74 C 798.348 780.741 816.072 778.098 835.792 773.807 C 844.71 771.867 858.65 773.826 868.066 772.089 C 891.909 769.014 914.022 766.307 938.141 765.147 C 951.705 765.09 1001.1 770.067 1007.88 765.342 C 1004.07 761.709 981.956 761.488 975.605 759.685 C 939.242 749.415 900.495 737.657 866.516 720.931 C 833.151 704.506 799.682 687.225 765.437 672.547 C 756.058 668.527 732.169 650.038 727.378 648.646 C 727.559 658.88 738.383 665.074 740.897 672.986 C 752.205 708.583 744.568 756.51 715.223 781.565 C 709.023 786.858 703.33 790.568 697.772 796.778 z M 875.837 259.29 C 913.18 240.454 930.935 215.534 922.708 172.853 C 910.96 104.804 768.621 77.1792 712.489 93.0149 C 683.531 101.184 645.783 107.257 637.334 140.946 C 631.955 159.076 622.57 165.417 627.439 186.339 C 636.567 226.642 666.199 253.992 707.593 256.674 C 715.381 257.179 731.546 265.468 740.938 266.283 C 781.961 269.842 838.146 276.739 875.837 259.29 z M 853.792 258.829 L 855.327 259.114 L 856.354 260.327 L 856.005 261.597 C 851.505 262.213 844.173 263.377 841.725 258.442 C 846.675 257.691 848.852 258.166 853.792 258.829 z"/>
<path transform="translate(0,0)" fill="rgb(0,0,0)" fill-opacity="0.988235" d="M 710.369 742.593 L 711.696 744.488 C 710.98 750.226 695.332 768.053 690.661 773.757 C 686.903 775.627 681.668 775.2 677.302 775.222 C 677.01 774.851 676.684 773.841 676.489 773.338 C 680.514 769.001 685.94 770.159 690.891 765.554 C 698.459 758.515 702.611 749.251 710.369 742.593 z"/>
<path transform="translate(0,0)" fill="rgb(0,0,0)" d="M 517.979 788.956 C 529.451 793.189 538.007 791.95 548.187 800.077 C 543.563 799.47 538.834 799.174 534.181 799.46 C 523.232 800.132 521.583 798.359 517.979 788.956 z"/>
<path transform="translate(0,0)" fill="rgb(0,0,0)" fill-opacity="0.976471" d="M 900.687 232.8 C 901.879 233.938 901.402 233.233 901.588 235.299 C 897.278 239.543 893.263 243.88 888.842 248.021 C 888.449 247.563 888.007 246.546 887.708 245.953 C 889.461 239.955 895.628 236.417 900.687 232.8 z"/>
<path transform="translate(0,0)" fill="rgb(0,0,0)" d="M 855.327 259.114 L 856.354 260.327 L 856.005 261.597 C 851.505 262.213 844.173 263.377 841.725 258.442 C 846.675 257.691 848.852 258.166 853.792 258.829 L 855.327 259.114 z"/>
<path transform="translate(0,0)" fill="rgb(82,80,84)" d="M 331.53 1263.28 C 352.759 1261.44 370.439 1261.29 391.647 1261.29 C 424.537 1261.3 443.363 1257.51 475.813 1266.46 C 471.736 1292.13 451.011 1275.23 436.992 1282.79 L 436.814 1284.15 C 441.544 1286.57 452.392 1284.72 460.456 1287.01 C 455.217 1287.56 444.597 1287.22 438.914 1287.19 C 435.482 1287.3 430.89 1286.89 428.436 1288.8 C 427.985 1287.11 428.275 1287.75 426.933 1286.42 C 416.559 1285.5 404.998 1286 394.565 1286.49 C 382.265 1288.22 376.913 1289.25 366.028 1296.17 C 365.045 1295.98 364.057 1295.58 363.088 1295.25 C 364.971 1294.43 365.689 1294.3 366.976 1292.67 C 364.95 1289.64 359.167 1288.67 354.962 1286.77 L 353.822 1286.24 L 359.248 1284.96 C 357.099 1283.56 352.37 1282.54 350.431 1281.35 C 337.807 1273.65 338.812 1273.5 324.857 1272.72 L 327.116 1270.79 C 325.183 1269.89 323.834 1268.91 322.077 1267.74 L 322.635 1266.23 C 325.829 1264.64 328.131 1264.16 331.53 1263.28 z"/>
<path transform="translate(0,0)" fill="rgb(103,102,103)" d="M 359.248 1284.96 C 362.752 1285.53 363.177 1285.73 366.593 1285.13 C 367.07 1284.14 367.228 1284.02 367.454 1282.96 C 372.584 1283.17 391.071 1283.98 394.48 1285.67 L 394.565 1286.49 C 382.265 1288.22 376.913 1289.25 366.028 1296.17 C 365.045 1295.98 364.057 1295.58 363.088 1295.25 C 364.971 1294.43 365.689 1294.3 366.976 1292.67 C 364.95 1289.64 359.167 1288.67 354.962 1286.77 L 353.822 1286.24 L 359.248 1284.96 z"/>
<path transform="translate(0,0)" fill="rgb(0,0,0)" d="M 460.942 1210.18 C 462.832 1210.04 465.224 1210.05 467.162 1210.01 C 470.818 1211.31 471.564 1213.25 473.78 1216.54 C 489.182 1219.77 503.129 1214.98 514.416 1228.27 C 508.677 1228.42 505.634 1224.45 501.14 1223.65 C 491.436 1221.94 478.469 1224.05 469.688 1218.77 C 466.038 1216.57 462.049 1214.41 460.942 1210.18 z"/>
<path transform="translate(0,0)" fill="rgb(57,56,59)" fill-opacity="0.980392" d="M 713.342 1275.33 C 766.393 1271.11 820.67 1274.61 873.566 1273.86 L 878.146 1275.03 L 878.948 1276.69 C 873.297 1281.99 853.275 1278.36 847.168 1284.33 L 848.464 1286.21 C 852.664 1286.94 855.213 1287.06 859.442 1287.26 C 853.802 1288.08 843.202 1288.2 837.219 1288.53 C 809.728 1290.08 782.281 1289.34 754.822 1287.68 C 748.851 1287.32 738.946 1288.81 734.196 1286.84 C 734.645 1284.02 735.754 1280.3 736.506 1277.47 C 728.536 1276.36 721.096 1276.48 713.342 1275.33 z M 850.599 1279.21 C 855.686 1279.33 865.403 1280.75 867.972 1275.97 C 860.901 1273.77 830.892 1275.46 822.516 1276.56 C 832.124 1278.3 840.763 1279.58 850.599 1279.21 z"/>
<path transform="translate(0,0)" fill="rgb(82,80,84)" fill-opacity="0.254902" d="M 822.516 1276.56 C 830.892 1275.46 860.901 1273.77 867.972 1275.97 C 856.501 1275.56 860.321 1276.2 850.599 1279.21 C 840.763 1279.58 832.124 1278.3 822.516 1276.56 z"/>
<path transform="translate(0,0)" fill="rgb(103,102,103)" fill-opacity="0.0352941" d="M 850.599 1279.21 C 860.321 1276.2 856.501 1275.56 867.972 1275.97 C 865.403 1280.75 855.686 1279.33 850.599 1279.21 z"/>
<path transform="translate(0,0)" fill="url(#Gradient1)" d="M 1299.25 1274.97 C 1305.8 1274.19 1304.06 1276.14 1310.82 1278.03 L 1311.6 1279.39 C 1318.98 1302.18 1395.58 1273.1 1402.6 1292.56 C 1401.8 1295.87 1400.46 1298.3 1396.57 1298.17 C 1360.1 1296.92 1324.25 1296.81 1287.76 1297.92 L 1284.03 1288.67 C 1279.15 1288.84 1268.28 1289.94 1266.84 1283.39 C 1272.04 1276 1289.69 1279.8 1299.25 1274.97 z"/>
<path transform="translate(0,0)" fill="rgb(20,20,23)" d="M 1397.25 1280.79 C 1389.68 1280.2 1362.66 1283.44 1358.78 1279.13 C 1357.92 1274.67 1357.61 1276.16 1359.13 1272.69 C 1364.75 1268.4 1382.68 1270.26 1390.42 1270.42 C 1404.94 1270.3 1419.46 1270.64 1433.96 1271.44 C 1444.92 1272.08 1456.87 1273.38 1467.71 1273.62 C 1481.29 1273.92 1499.94 1271.12 1513.39 1273.42 C 1514.98 1276.43 1514.76 1274.88 1514 1278.25 C 1509.3 1282.49 1492.17 1281.71 1485.48 1281.23 C 1456.09 1279.14 1427.03 1282.02 1397.25 1280.79 z"/>
<path transform="translate(0,0)" fill="rgb(57,56,59)" d="M 1397.25 1280.79 C 1389.68 1280.2 1362.66 1283.44 1358.78 1279.13 C 1357.92 1274.67 1357.61 1276.16 1359.13 1272.69 C 1364.75 1268.4 1382.68 1270.26 1390.42 1270.42 L 1397.06 1271.82 C 1390.47 1271.98 1388.69 1270.24 1386.72 1276.89 C 1388.01 1278.01 1393.75 1278.81 1397.25 1280.79 z"/>
<path transform="translate(0,0)" fill="rgb(57,56,59)" fill-opacity="0.988235" d="M 1226.13 1261.09 C 1254.07 1260.7 1281.07 1262.76 1309.36 1261.81 C 1314.32 1261.97 1319.87 1261.78 1324.41 1263.58 C 1326.68 1266.18 1326.06 1264.95 1326.15 1269 C 1322.6 1276.56 1315.85 1272.66 1311.6 1279.39 L 1310.82 1278.03 C 1304.06 1276.14 1305.8 1274.19 1299.25 1274.97 C 1283.76 1270.23 1262.67 1275.61 1247.86 1277.5 C 1244.43 1277.94 1223.84 1275.01 1219.19 1274.4 C 1222.63 1270.86 1224.12 1268.8 1224.61 1263.67 L 1226.03 1262.73 L 1226.13 1261.09 z"/>
<path transform="translate(0,0)" fill="rgb(0,0,0)" d="M 704.372 1287.31 C 696.505 1286.31 675.912 1288.47 667.859 1288.44 C 655.195 1288.4 583.14 1291.47 575.342 1285.01 C 575.528 1282.16 575.056 1283.46 577.155 1281.13 C 589.346 1278.55 707.116 1277.6 715.611 1281.26 L 716.119 1284.55 C 713.298 1288.35 708.959 1287.33 704.372 1287.31 z"/>
<path transform="translate(0,0)" fill="rgb(0,0,0)" d="M 959.503 1279.83 C 999.661 1279.9 1040.23 1281.24 1080.47 1280.88 C 1087.91 1280.81 1109.71 1279.48 1114.22 1283.94 L 1113.46 1285.76 L 1110.9 1286.59 C 1098.9 1288.56 1083.19 1287.55 1070.79 1288 C 1050.54 1288.67 1030.08 1288.06 1009.85 1287.46 C 1000.6 1287.19 963.251 1291.51 957.555 1286.21 C 957.11 1282.86 957.531 1283.53 959.503 1279.83 z"/>
<path transform="translate(0,0)" fill="rgb(57,56,59)" d="M 198.842 1291.09 C 219.184 1283.24 248.589 1286.85 270.145 1287.57 C 276.881 1287.79 292.468 1286.84 298.002 1288.92 L 297.837 1295.5 C 289.904 1295.53 275.029 1297.52 265.253 1297.77 C 248.576 1298.19 225.445 1296.96 209.626 1298.91 C 206.083 1296.47 202.353 1293.64 198.842 1291.09 z"/>
<path transform="translate(0,0)" fill="rgb(0,0,0)" d="M 98.9778 1273.19 C 115.79 1269.4 139.317 1273.41 157.132 1273.9 C 179.077 1274.5 213.69 1268.91 233.458 1276.12 C 208.947 1283.58 186.639 1280.41 161.371 1280.19 C 155.583 1280.15 146.249 1278.44 141.838 1279.99 C 131.072 1280.67 118.644 1282 107.827 1281.16 C 101.557 1280.67 100.158 1278.81 98.9778 1273.19 z"/>
<path transform="translate(0,0)" fill="rgb(0,0,0)" d="M 475.345 1286.3 C 487.594 1286.66 499.358 1287.22 511.619 1287.25 C 523.825 1287.28 550.635 1286.01 561.308 1288.42 C 562.865 1291.72 562.607 1290.25 562.121 1294.03 C 559.809 1296.65 560.971 1295.88 556.752 1296.39 C 543.369 1297.29 528.094 1296.81 514.503 1297.03 C 501.564 1297.24 485.583 1298.55 472.979 1297.42 C 472.154 1294.84 471.486 1292.58 470.811 1289.95 C 472.323 1287.06 471.741 1288 475.345 1286.3 z"/>
<path transform="translate(0,0)" fill="rgb(0,0,0)" d="M 1095.43 1296.56 C 1102.62 1296.19 1109.81 1295.92 1117 1295.76 C 1126.78 1295.58 1168.49 1294.9 1174.18 1300.42 C 1171.45 1304.09 1160.44 1303.86 1155.86 1304.12 C 1153.93 1304.4 1151.99 1304.58 1150.05 1304.67 C 1137.41 1305.36 1085.42 1307.04 1077.6 1300.04 C 1080.99 1295.96 1090.36 1296.6 1095.43 1296.56 z"/>
<path transform="translate(0,0)" fill="rgb(0,0,0)" d="M 252.724 1276.09 C 259.56 1261.63 316.095 1263.97 331.53 1263.28 C 328.131 1264.16 325.829 1264.64 322.635 1266.23 L 322.077 1267.74 C 323.834 1268.91 325.183 1269.89 327.116 1270.79 L 324.857 1272.72 C 318.455 1272.61 287.013 1271.07 283.797 1273.83 C 285.913 1275.13 286.943 1275.79 288.867 1277.35 C 286.841 1281.11 279.317 1281.1 275.186 1282.7 C 266.495 1279.98 258.897 1285.88 252.724 1276.09 z"/>
<path transform="translate(0,0)" fill="rgb(57,56,59)" fill-opacity="0.980392" d="M 486.434 1258.6 C 501.406 1255.69 518.27 1256.45 529.42 1267.71 C 525.871 1269.12 522.395 1270 520.078 1272.85 C 522.944 1275.5 529.997 1274.26 534.596 1275.78 L 534.049 1275.78 C 521.144 1275.81 515.537 1278.21 503.119 1280.34 C 498.298 1281.16 491.594 1281.73 487.423 1278.78 L 487.147 1275.93 C 486.595 1271.21 485.508 1267.71 487.97 1263.86 C 491.228 1261.14 500.083 1260.27 504.918 1259.26 C 499.015 1258.86 492.402 1258.8 486.434 1258.6 z"/>
<path transform="translate(0,0)" fill="rgb(0,0,0)" d="M 720.046 1295.12 C 733.702 1295.7 760.618 1295.52 772.438 1299.33 L 772.819 1300.48 C 760.239 1308.37 718.724 1300.37 701.969 1304.05 C 697.994 1304.92 666.047 1301.08 660.436 1300.22 C 665.476 1299.31 671.501 1298.06 676.505 1297.46 C 691.115 1295.72 705.756 1296.89 720.046 1295.12 z"/>
<path transform="translate(0,0)" fill="rgb(0,0,0)" d="M 1225.41 1286.66 C 1217.41 1288.17 1195.03 1289.12 1187.99 1284.88 L 1187.81 1283.41 C 1194.94 1278.61 1214.1 1279.88 1222.81 1280.16 C 1231.51 1286.35 1236.61 1285.99 1247.26 1287.26 C 1252.77 1287.7 1258.15 1288.17 1263.69 1288.28 C 1267.31 1290.99 1268.49 1290.8 1269.25 1294.33 C 1265.25 1296.83 1236.38 1297.08 1229.64 1297.59 C 1226.87 1297.85 1225.59 1298.29 1223.27 1297.03 C 1222.37 1293.31 1224.02 1290.86 1225.41 1286.66 z"/>
<path transform="translate(0,0)" fill="rgb(20,20,23)" d="M 1247.26 1287.26 C 1252.77 1287.7 1258.15 1288.17 1263.69 1288.28 C 1267.31 1290.99 1268.49 1290.8 1269.25 1294.33 C 1265.25 1296.83 1236.38 1297.08 1229.64 1297.59 C 1235.1 1293.66 1247.2 1299.27 1247.26 1287.26 z"/>
<path transform="translate(0,0)" fill="rgb(82,80,84)" d="M 309.612 1288.21 L 310.512 1287 C 315.19 1284.72 345.458 1286.65 353.822 1286.24 L 354.962 1286.77 C 359.167 1288.67 364.95 1289.64 366.976 1292.67 C 365.689 1294.3 364.971 1294.43 363.088 1295.25 C 364.057 1295.58 365.045 1295.98 366.028 1296.17 C 360.582 1298.21 316.432 1299.12 311.375 1297.4 C 309.57 1294.65 309.81 1291.62 309.612 1288.21 z"/>
<path transform="translate(0,0)" fill="rgb(0,0,0)" d="M 905 1295.02 C 916.638 1296.97 976.185 1292.85 980.731 1300.18 L 979.711 1301.78 C 966.944 1302.4 911.053 1307.77 904.364 1299.04 L 905 1295.02 z"/>
<path transform="translate(0,0)" fill="rgb(20,20,23)" d="M 876.443 1295.56 C 881.166 1295.26 892.165 1294.24 896.093 1295.95 L 896.545 1298.12 C 890.996 1305.56 858.717 1304.21 848.558 1304.34 C 843.997 1304.34 833.613 1302.29 829.584 1300.09 L 830.188 1298.86 C 838.062 1295.71 866.503 1295.9 876.443 1295.56 z"/>
<path transform="translate(0,0)" fill="rgb(0,0,0)" d="M 1229.49 1201.17 C 1233.43 1201.43 1236.75 1202.14 1239.2 1205.37 C 1234.93 1209.23 1225.51 1207.81 1219.96 1208.77 C 1215.98 1209.46 1219.78 1210.2 1217.51 1213.86 C 1208.09 1215.57 1196.84 1216.01 1187.14 1216.64 C 1178.26 1224.34 1171.98 1223.13 1160.75 1223.11 C 1157.17 1223.1 1153.7 1223.47 1151.03 1221.4 C 1155.15 1217.83 1172.3 1217.82 1178 1217.67 C 1193.25 1206.3 1202.53 1212.82 1217.97 1205.75 C 1224.31 1202.86 1220.88 1202.57 1229.49 1201.17 z"/>
<path transform="translate(0,0)" fill="rgb(0,0,0)" d="M 1253.05 681.942 C 1254 682.991 1253.59 682.407 1253.69 684.323 C 1244.34 699.843 1224.83 713.456 1208.56 720.843 C 1201.83 706.188 1233.62 693.88 1242.62 689.695 C 1246.08 688.082 1250.09 684.45 1253.05 681.942 z"/>
<path transform="translate(0,0)" fill="rgb(57,56,59)" fill-opacity="0.976471" d="M 899.571 1275.06 C 913.007 1272.75 930.169 1273.13 943.565 1275.8 C 937.613 1275.96 935.179 1276.03 929.409 1277.23 C 930.684 1280.22 935.29 1279.12 938.066 1283.05 C 933.859 1289.26 912.303 1288.63 906.646 1284.89 C 904.115 1279.97 905.436 1279.99 901.608 1277.49 C 900.723 1276.74 900.293 1276.01 899.571 1275.06 z"/>
<path transform="translate(0,0)" fill="rgb(20,20,23)" fill-opacity="0.984314" d="M 873.566 1273.86 C 882.74 1273.24 894.616 1276.23 899.571 1275.06 C 900.293 1276.01 900.723 1276.74 901.608 1277.49 C 896.044 1279.04 891.444 1278.34 888.321 1280.44 C 887.912 1285.28 889.192 1285.09 886.551 1287.32 C 878.729 1288.15 867.576 1287.51 859.442 1287.26 C 855.213 1287.06 852.664 1286.94 848.464 1286.21 L 847.168 1284.33 C 853.275 1278.36 873.297 1281.99 878.948 1276.69 L 878.146 1275.03 L 873.566 1273.86 z"/>
<path transform="translate(0,0)" fill="rgb(0,0,0)" d="M 374.334 1176.69 C 378.949 1177.3 431.08 1203.82 433.703 1206.96 C 421.474 1207.38 387.279 1193.39 378.058 1183.84 C 376.442 1182.16 375.133 1178.93 374.334 1176.69 z"/>
<path transform="translate(0,0)" fill="rgb(0,0,0)" d="M 460.456 1287.01 C 463.454 1287.3 466.209 1287.28 468.829 1288.65 C 468.588 1302.06 448.036 1297.64 439.1 1298.3 C 437.474 1293.96 435.428 1290.73 438.914 1287.19 C 444.597 1287.22 455.217 1287.56 460.456 1287.01 z"/>
<path transform="translate(0,0)" fill="rgb(0,0,0)" d="M 1306.78 1166.94 C 1318.52 1157.7 1325.49 1152.66 1335.26 1140.3 C 1337.7 1137.22 1348.62 1122.91 1351.47 1122.1 C 1356.79 1131.65 1328.6 1153.84 1322.47 1159.98 C 1318.38 1164.08 1314.13 1165.86 1308.98 1168.18 L 1306.78 1166.94 z"/>
<path transform="translate(0,0)" fill="rgb(0,0,0)" d="M 1224.73 824.806 C 1233.08 826.262 1284.75 846.028 1290.92 854.06 C 1289.78 854.081 1287.19 853.899 1286.31 853.477 C 1275.33 848.198 1229.78 834.438 1224.73 824.806 z"/>
<path transform="translate(0,0)" fill="rgb(0,0,0)" d="M 1319.14 1128.73 L 1320.73 1129.62 C 1319.9 1134.36 1300.42 1150.37 1295.66 1153.11 C 1288.51 1157.21 1281.24 1160.48 1274.69 1165.84 L 1273.69 1166.68 C 1272.68 1166.58 1272.85 1166.38 1271.77 1165.49 C 1272.75 1159.98 1291.25 1151.35 1296.34 1147.55 C 1304.34 1141.57 1311.43 1134.99 1319.14 1128.73 z"/>
<path transform="translate(0,0)" fill="rgb(82,80,84)" d="M 1015.79 801.507 C 1016.55 801.383 1017.31 801.284 1018.08 801.211 C 1025.7 800.533 1070.01 801.224 1074.33 804.879 C 1067.16 807.372 1020.72 806.503 1015.79 801.507 z"/>
<path transform="translate(0,0)" fill="rgb(0,0,0)" d="M 1075.61 737.809 C 1080.67 737.913 1126.06 737.981 1126.82 738.684 L 1121.63 741.229 C 1112.93 740.593 1078.79 744.298 1072.63 739.53 L 1075.61 737.809 z"/>
<path transform="translate(0,0)" fill="rgb(0,0,0)" d="M 1005.35 1296.41 C 1017.05 1296.92 1022.06 1297.23 1033.36 1299.55 C 1028.06 1301.56 1022.9 1303 1017.24 1303.32 L 983.06 1300.06 C 989.85 1298.52 998.352 1297.46 1005.35 1296.41 z"/>
<path transform="translate(0,0)" fill="rgb(0,0,0)" d="M 1135.14 1279.67 C 1141.44 1279.85 1153.05 1279.64 1158.13 1282.66 L 1158.13 1284.19 L 1155.73 1285.61 C 1149.45 1288.61 1141.49 1290.79 1135.39 1286.08 C 1133.75 1282.63 1134.02 1284.2 1135.14 1279.67 z"/>
<path transform="translate(0,0)" fill="rgb(158,158,161)" fill-opacity="0.819608" d="M 970.704 794.404 C 971.924 794.327 973.146 794.284 974.369 794.275 C 981.212 794.227 1003.98 793.612 1008.43 797.98 L 1007.65 799.622 C 1000.78 799.605 974.205 799.352 969.595 795.728 L 970.704 794.404 z"/>
<path transform="translate(0,0)" fill="rgb(57,56,59)" d="M 575.658 1231.83 C 570.552 1232.1 567.025 1232.59 562.114 1231.13 L 561.665 1230.2 C 571.02 1225.7 588.297 1228.73 597.949 1231.52 C 594.44 1233.32 580.882 1231.85 575.658 1231.83 z"/>
<path transform="translate(0,0)" fill="rgb(0,0,0)" fill-opacity="0.988235" d="M 488.926 1198.16 C 496.894 1194.44 506.881 1202.93 514.062 1202.37 C 516.744 1202.81 517.16 1202.72 519.282 1204.26 L 518.837 1205.88 C 513.554 1207.43 492.567 1201.7 488.926 1198.16 z"/>
<path transform="translate(0,0)" fill="rgb(20,20,23)" fill-opacity="0.988235" d="M 428.436 1288.8 C 430.89 1286.89 435.482 1287.3 438.914 1287.19 C 435.428 1290.73 437.474 1293.96 439.1 1298.3 C 435.584 1299.05 434.737 1299.57 431.613 1298.26 C 429.059 1295.42 429.066 1292.67 428.436 1288.8 z"/>
<path transform="translate(0,0)" fill="rgb(0,0,0)" fill-opacity="0.866667" d="M 561.975 516.255 L 563.417 515.745 C 574.742 524.029 589.628 535.019 601.415 542.089 C 594.816 540.776 564.358 521.87 561.975 516.255 z"/>
<path transform="translate(0,0)" fill="rgb(0,0,0)" fill-opacity="0.984314" d="M 934.662 717.415 C 933.135 717.046 933.229 716.961 932.074 715.856 L 933.221 714.804 C 939.032 713.85 940.838 714.145 946.77 714.785 C 951.052 715.688 954.624 716.004 957.843 718.923 L 957.264 719.807 C 949.527 719.988 942.501 717.874 934.662 717.415 z"/>
<path transform="translate(0,0)" fill="rgb(0,0,0)" fill-opacity="0.643137" d="M 1306.78 1166.94 L 1308.98 1168.18 C 1306.54 1170.15 1302.58 1173.75 1299.65 1174.03 C 1300.46 1171.32 1304.36 1168.86 1306.78 1166.94 z"/>
</svg>