<svg version="1.1" xmlns="http://www.w3.org/2000/svg" style="display: block;" viewBox="0 0 1608 1344" width="402" height="336" preserveAspectRatio="none">
<path transform="translate(0,0)" fill="rgb(0,0,0)" d="M 681.073 365.614 C 666.736 360.322 652.29 360.316 635.755 353.115 C 580.33 329.394 537.559 259.764 581.663 206.156 C 593.38 191.914 594.852 205.604 599.247 184.284 C 600.787 176.814 634.867 160.952 644.256 157.642 C 716.893 132.028 800.895 137.544 871.711 166.717 C 882.257 170.772 890.339 178.705 899.487 184.596 C 977.325 234.719 951.141 334.417 866.875 363.716 L 861.093 365.159 C 851.925 367.061 838.726 369.321 830.227 372.142 L 854.118 374.44 C 864.392 377.021 873.84 377.869 883.488 380.209 C 909.164 386.437 935.947 392.741 961.229 400.283 C 976.311 403.725 993.845 409.17 1008.83 413.579 C 1068.99 431.384 1127.86 453.292 1185.02 479.148 C 1191.92 482.349 1205.82 492.735 1211.08 494.309 C 1240.58 503.141 1263.76 515.994 1289.49 532.803 C 1297.54 538.062 1308.83 541.624 1317.16 547.299 C 1349.35 567.861 1386.53 590.879 1401.8 627.562 C 1427.85 645.425 1423.7 713.886 1406.14 737.489 C 1381.84 770.158 1345.78 780.796 1307.34 785.838 C 1259.75 792.296 1211.67 788.988 1163.94 786.391 C 1110.73 783.497 1058.01 779.823 1005.11 773.156 C 977.887 769.725 958.886 765.693 932.46 759.196 C 917.891 755.592 901.726 751.531 886.75 750.1 C 859.437 742.851 829.227 737.325 801.329 730.432 C 757.168 719.52 708.903 704.368 664.617 695.553 C 670.946 701.18 675.545 705.678 681.416 711.784 C 683.436 730.052 685.852 747.415 673.06 762.368 C 670.009 765.935 666.414 769.615 663.624 773.243 C 672.035 772.318 677.268 770.045 685.178 767.759 C 697.059 764.326 711.038 764.703 723.106 762.309 C 749.82 757.009 776.992 755.636 804.28 757.516 C 814.739 758.786 837.162 761.076 846.716 764.169 C 894.976 779.792 937.089 813.137 970.108 850.265 C 992.003 877.624 1012.57 906.023 1031.73 935.361 C 1042.49 952.026 1052.08 970.175 1062.93 986.505 C 1092.1 1030.38 1115.89 1076.09 1136.13 1124.68 C 1154.54 1168.89 1146.89 1222.47 1107.71 1253.25 C 1102.05 1257.68 1095.83 1261.33 1089.2 1264.11 C 1080.73 1267.75 1049.98 1275.89 1047.78 1280.12 C 1051.04 1282.38 1070.19 1281.95 1076.91 1283.21 C 1060.57 1286.85 1044.01 1288.06 1027.66 1290.81 C 1000.21 1291.42 969.374 1289.81 942.683 1292.25 C 935.899 1291.74 922.643 1298.23 917.488 1297.59 C 899.413 1295.34 891.712 1299.05 876.119 1303.34 C 864.785 1306.46 837.738 1297.11 826.458 1297.85 C 810.003 1298.92 792.486 1302.36 775.467 1301.43 C 770.469 1300.92 763.538 1303.2 758.237 1301.88 C 749.583 1299.72 756.634 1293.02 748.507 1291.31 C 744.279 1293.93 747.143 1295.31 742.986 1299.56 C 736.676 1301.1 725.154 1300.87 718.298 1301.47 C 696.93 1303.35 676.982 1303.25 655.614 1303.32 C 654.574 1301.55 655.48 1292.93 655.643 1290.27 C 633.159 1291.5 618.96 1292.89 596.148 1291.2 C 580.011 1290 559.898 1290.92 543.429 1290.59 C 516.441 1290.05 491.98 1292.62 465.151 1286.09 C 460.822 1285.12 443.738 1285.71 440.858 1283.42 C 439.625 1283.5 440.205 1283.56 439.113 1283.3 C 449.077 1280.89 476.048 1280.66 486.26 1282.53 L 486.849 1282.64 C 469.088 1269.33 443.304 1269.97 423.991 1264.28 C 380.662 1251.5 342.574 1230.86 318.892 1191.21 C 303.37 1165.21 292.556 1144.21 289.841 1112.92 C 289.108 1104.47 286.525 1095.26 287.158 1086.5 C 289.638 1069.11 292.001 1046.03 295.707 1029.3 C 298.761 1024.09 299.83 1013.95 302.161 1007.86 C 308.042 992.504 315.786 963.524 333.206 958.712 C 337.102 959.622 339.346 959.47 342.008 961.85 C 339.034 977.587 324.203 1000.98 320.923 1016.22 C 309.05 1071.39 304.361 1131.9 338.72 1180.56 C 382.635 1247.01 463.45 1255.18 536.139 1261.88 C 555.651 1263.68 575.558 1267.64 595.383 1268.34 C 617.382 1269.12 639.382 1267.91 661.387 1268.27 C 673.473 1268.41 686.95 1273.74 698.554 1273.71 C 779.386 1273.55 860.665 1276.26 941.38 1272.61 C 945.119 1272.44 948.954 1270.93 952.325 1269.41 C 958.305 1268.71 971.621 1268.9 978.173 1268.78 C 992.891 1268.51 1003.66 1267.75 1018.19 1265.43 C 1019.69 1264.86 1021.45 1264.19 1022.96 1263.67 C 1044.01 1256.45 1064.04 1258.37 1084.06 1245.91 C 1105.86 1232.33 1115.88 1212.07 1121.82 1188 C 1126.39 1169.46 1122.35 1160.45 1118.28 1142.75 C 1117.38 1138.83 1115.97 1130.69 1114.1 1127.61 L 1111.64 1127.83 C 1109.26 1125.57 1108.24 1111.64 1106.98 1108.74 C 1102.45 1098.34 1069.33 1035.95 1064.38 1033.02 C 1062.26 1031.41 1061.2 1029.16 1059.79 1026.84 C 1052.11 1008.23 1034.29 983.629 1023.8 966.403 C 979.204 893.169 928.666 808.269 838.275 788.439 C 822.664 785.014 807.982 787.2 792.226 786.767 C 777.033 786.349 761.074 782.899 745.794 782.904 C 731.037 783.361 711.05 789.187 696.065 791.383 C 686.167 792.834 675.834 794.307 665.983 795.993 C 656.588 797.52 646.358 801.206 637.083 802.433 C 587.354 809.01 541.812 825.671 495.301 843.523 C 473.312 851.963 449.566 854.918 429.163 869.537 C 410.047 883.234 393.87 901.433 377.238 917.978 C 365.732 929.397 357.02 956.448 337.379 951.968 L 337.696 948.855 C 337.768 947.664 337.85 946.474 337.943 945.284 C 339.005 932.473 346.757 924.758 354.239 914.578 C 393.446 861.225 449.673 836.398 509.842 813.833 C 519.994 810.025 562.706 800.625 567.158 796.828 C 564.201 794.986 552.384 792.622 548.207 791.843 C 508.088 784.364 495.97 734.734 513.756 701.643 C 525.712 679.396 548.668 674.795 572.28 668.057 C 515.296 654.663 445.776 630.431 397.015 597.26 C 377.643 584.082 360.258 556.67 359.512 533.455 C 358.613 505.478 375.111 471.725 398.025 455.509 C 467.252 398.688 559.981 380.722 646.078 366.435 C 654.863 364.977 670.599 366.431 681.073 365.614 z M 1205.2 500.378 C 1197.09 500.078 1180.08 499.274 1173.03 496.426 C 1035.3 440.751 893.485 389.172 743.345 385.014 C 725.026 384.507 706.212 387.136 687.903 386.86 C 588.573 385.367 495.395 414.824 412.481 468.905 C 395.618 479.903 384.421 494.537 380.77 514.476 C 369.23 562.643 426.686 595.791 465.066 611.426 C 503.777 627.196 560.27 648.462 602.387 656.683 C 638.416 663.715 669.713 678.246 703.824 685.91 C 800.235 707.574 895.418 732.791 991.937 753.71 C 1004.77 756.461 1019.34 755.374 1032.47 756.198 C 1052.64 756.534 1070.02 758.373 1089.93 761.725 C 1112.7 767.456 1141.82 764.235 1165.19 765.284 C 1190.04 766.398 1215.68 768.011 1240.53 767.926 C 1256.93 767.87 1275.41 765.841 1292 765.356 C 1300.19 765.116 1318.81 764.859 1325.8 762.556 C 1350.01 757.649 1366.56 748.529 1382.66 729.969 C 1398.89 711.272 1398.98 702.126 1398.2 677.767 C 1398.02 671.963 1397.5 665.781 1396.56 659.992 C 1395.89 655.825 1390.33 645.739 1390.12 642.695 C 1389.66 635.942 1392 628.405 1391.54 620.923 C 1390.21 618.44 1389.84 618.404 1387.31 616.903 C 1384.14 618.183 1384.97 620.213 1382.54 624.81 L 1380.86 624.646 C 1375.81 615.001 1372.64 618.658 1364.99 611.683 C 1343.95 592.512 1315.44 570.11 1291.05 555.166 C 1270.55 542.612 1243.43 530.243 1222.8 515.994 C 1215.75 511.122 1214.58 506.463 1205.2 500.378 z M 648.276 760.603 C 657.425 751.583 660.886 749.139 666.542 737.484 C 662.784 727.599 662.899 725.142 660.359 715.825 C 648.874 703.192 641.642 701.471 626.176 694.979 C 620.374 692.544 615.332 688.978 608.989 686.896 C 603.823 685.24 598.452 684.304 593.03 684.113 C 562.499 682.753 524.727 696.839 523.261 731.952 C 522.068 760.498 541.103 767.013 561.674 779.258 C 563.026 780.063 571.25 780.477 573.001 780.52 C 596.635 781.027 620.018 775.597 641.01 764.729 C 643.933 763.837 645.751 762.329 648.276 760.603 z M 598.274 301.969 C 601.927 306.242 605.031 309.725 608.958 313.739 C 618.19 326.829 663.811 345.839 679.912 347.079 C 746.594 362.961 902.941 373.581 924.03 279.411 C 926.629 267.804 925.014 242.149 917.674 231.995 C 913.15 221.384 902.912 211.716 895.783 195.466 C 875.187 192.464 870.934 186.367 853.872 181.364 C 842.581 175.607 819.872 171.246 807.088 168.636 C 757.422 158.497 706.582 157.949 657.854 173.194 C 647.608 176.4 605.637 196.938 600.648 203.033 C 601.659 219.89 594.119 219.283 589.569 232.142 C 582.749 258.082 584.727 275.903 597.008 300.123 C 597.378 300.853 597.776 301.325 598.274 301.969 z M 1197.61 757.459 L 1194.75 756.137 C 1206.07 752.992 1256.85 753.387 1269.12 755.174 L 1269.84 755.996 C 1260.51 758.909 1209.83 758.268 1197.61 757.459 z"/>
<path transform="translate(0,0)" fill="rgb(0,0,0)" d="M 1377.4 715.904 L 1378.2 716.365 C 1379.66 732.547 1343.08 750.152 1330.13 749.934 C 1324.81 749.844 1318.73 750.08 1313.34 749.883 L 1312.54 748.951 C 1315.38 746.096 1334.96 744.992 1340.55 744.436 C 1341.04 743.947 1341.52 743.459 1342 742.97 C 1346.31 737.801 1352.94 738.467 1358.17 734.085 C 1365.03 728.341 1370.01 721.015 1377.4 715.904 z"/>
<path transform="translate(0,0)" fill="rgb(0,0,0)" d="M 393.161 543.68 C 402.499 547.453 405.517 559.663 410.62 563.461 C 415.459 567.062 427.976 574.885 433.549 578.551 L 433.73 580.037 C 433.578 580.007 433.427 579.976 433.276 579.945 C 422.022 575.108 415.79 576.404 406.368 566.269 C 402.334 561.93 393.121 549.391 393.161 543.68 z"/>
<path transform="translate(0,0)" fill="rgb(0,0,0)" d="M 509.306 617.131 C 516.098 616.75 545.18 625.332 548.441 630.915 C 539.408 631.465 521.639 623.859 512.382 620.878 C 509.859 620.066 510.083 619.324 509.306 617.131 z"/>
<path transform="translate(0,0)" fill="rgb(0,0,0)" d="M 601.137 273.591 C 607.261 276.138 607.045 293.198 606.346 298.772 L 604.329 299.005 C 600.937 295.547 601.506 280.085 601.137 273.591 z"/>
<path transform="translate(0,0)" fill="rgb(0,0,0)" fill-opacity="0.988235" d="M 853.741 331.406 C 858.081 330.912 866.338 330.211 870.206 331.929 L 869.644 333.131 C 865.089 333.835 857.49 335.318 853.339 333.268 L 853.741 331.406 z"/>
<path transform="translate(0,0)" fill="rgb(0,0,0)" d="M 1194.75 756.137 C 1206.07 752.992 1256.85 753.387 1269.12 755.174 L 1269.84 755.996 C 1260.51 758.909 1209.83 758.268 1197.61 757.459 L 1194.75 756.137 z"/>
<path transform="translate(0,0)" fill="rgb(0,0,0)" d="M 324.276 1061.64 C 328.332 1071.27 326.674 1098.68 328.351 1110.35 C 329.999 1121.82 339.44 1127.98 332.505 1138.59 C 330.476 1135.96 322.433 1110.91 321.854 1107.45 C 320.379 1098.63 319.353 1068.22 324.276 1061.64 z"/>
<path transform="translate(0,0)" fill="rgb(0,0,0)" d="M 366.522 1186.7 C 375.423 1187.74 406.261 1208.79 410.322 1216.03 C 399.033 1216.12 371.066 1197.1 366.522 1186.7 z"/>
<path transform="translate(0,0)" fill="rgb(0,0,0)" d="M 1102.65 1206.65 L 1104.11 1208.53 C 1103.78 1212.58 1099.65 1218.75 1096.87 1221.53 C 1085.02 1233.37 1081.22 1237.61 1065.35 1238.92 L 1064.48 1237.51 C 1067.66 1233.96 1070.93 1235.61 1075.44 1232.44 C 1085.6 1225.31 1093.1 1214.35 1102.65 1206.65 z"/>
<path transform="translate(0,0)" fill="rgb(0,0,0)" d="M 478.861 1240.1 C 477.42 1239.98 475.979 1239.85 474.539 1239.72 C 464.537 1238.79 444.349 1234.3 438.18 1226.89 L 439.956 1226.27 C 448.789 1227.37 456.204 1231.26 464.72 1233.54 C 470.407 1235.06 476.777 1233.81 480.903 1238.65 L 478.861 1240.1 z"/>
<path transform="translate(0,0)" fill="rgb(0,0,0)" fill-opacity="0.976471" d="M 544.217 1249.47 C 550.595 1248.82 571.823 1249.71 577.894 1251.54 L 578.335 1253.02 C 571.187 1254.59 551.781 1253.66 544.74 1251.49 L 544.217 1249.47 z"/>
<path transform="translate(0,0)" fill="rgb(0,0,0)" d="M 466.735 1218.26 C 472.472 1218.5 490.821 1218.38 494.643 1221.71 L 493.929 1223.41 C 488.62 1223.09 467.25 1223.02 464.772 1220.09 L 466.735 1218.26 z"/>
<path transform="translate(0,0)" fill="rgb(0,0,0)" fill-opacity="0.894118" d="M 480.903 1238.65 C 484.08 1241.19 485.491 1241.41 486.606 1244.75 C 483.08 1245.33 480.997 1242.63 478.861 1240.1 L 480.903 1238.65 z"/>
<path transform="translate(0,0)" fill="rgb(0,0,0)" fill-opacity="0.960784" d="M 946.687 1295.71 C 952.386 1296.22 959.7 1297.09 965.284 1296.87 C 981.02 1299.83 1017.68 1295.87 1025.08 1299.41 L 1024.39 1300.4 C 1018.6 1301.51 938.795 1301.1 936.925 1299.98 L 936.402 1297.64 C 939.062 1295.48 942.624 1296 946.687 1295.71 z"/>
<path transform="translate(0,0)" fill="rgb(0,0,0)" fill-opacity="0.972549" d="M 404.24 1281.99 L 406.427 1282.72 L 406.485 1284.52 C 402.121 1288.26 382.945 1296.33 376.192 1295.9 C 379.735 1285.07 374.617 1291.07 373.798 1285.53 C 384.212 1284.02 393.755 1281.86 404.24 1281.99 z"/>
<path transform="translate(0,0)" fill="rgb(0,0,0)" fill-opacity="0.972549" d="M 510.685 1298.43 C 517.332 1297.44 573.611 1297.23 580.061 1298.42 L 580.313 1299.72 C 578.77 1300.07 577.209 1300.35 575.638 1300.54 C 562.418 1302.17 527.429 1302.57 513.177 1300.4 C 512.195 1299.62 511.364 1298.97 510.685 1298.43 z"/>
</svg>